<?xml version="1.0" encoding="utf-8"?>
<!-- Generator: Adobe Illustrator 24.2.3, SVG Export Plug-In . SVG Version: 6.00 Build 0)  -->
<svg version="1.1" id="Layer_1" xmlns="http://www.w3.org/2000/svg" xmlns:xlink="http://www.w3.org/1999/xlink" x="0px" y="0px"
	 viewBox="0 0 765.5 180.3" style="enable-background:new 0 0 765.5 180.3;" xml:space="preserve">
<style type="text/css">
	.st0{fill:#FFFFFF;}
	.st1{enable-background:new    ;}
	.st2{fill:#6D0000;}
	.st3{fill:#FF8B00;}
	.st4{fill:#DD1B24;}
	.st5{fill:url(#SVGID_1_);}
	.st6{fill:#FFDC7C;}
	.st7{fill:#FFF6E6;}
	.st8{fill:none;stroke:#D47F02;stroke-miterlimit:10;}
	.st9{fill:#F98526;}
	.st10{fill:#FF9D27;}
	.st11{fill:url(#SVGID_2_);}
	.st12{fill:#FFDC01;}
	.st13{fill:#FFB703;}
	.st14{fill:url(#SVGID_3_);}
	.st15{fill:url(#SVGID_4_);}
	.st16{fill:url(#SVGID_5_);}
	.st17{opacity:0.86;fill:#FFF876;enable-background:new    ;}
	.st18{fill:url(#SVGID_6_);}
	.st19{opacity:0.35;fill:#FFF876;enable-background:new    ;}
	.st20{fill:#E5890E;}
	.st21{opacity:0.52;fill:#FFF876;enable-background:new    ;}
</style>
<g>
	<g id="Layer_2_1_">
		<g id="Layer_1-2">
			<path class="st0" d="M55.1,30.6h687.9c9.3,0,16.8,7.5,16.8,16.8v108.1c0,9.3-7.5,16.9-16.8,16.9H55.1c-9.3,0-16.9-7.5-16.9-16.9
				V47.5C38.3,38.2,45.8,30.6,55.1,30.6z"/>
			<g class="st1">
				<path class="st2" d="M91.6,88.4c-1.5,0-2.7-0.2-3.7-0.7c-1-0.5-1.8-1.1-2.5-1.8l1.9-2.6c0.5,0.5,1.1,1,1.8,1.3s1.3,0.5,2.1,0.5
					c0.9,0,1.6-0.2,2.1-0.5c0.5-0.4,0.8-0.9,0.8-1.6c0-0.4-0.1-0.7-0.2-1.1s-0.4-0.6-0.7-0.8c-0.4-0.2-0.8-0.4-1.5-0.5
					c-0.6-0.1-1.4-0.2-2.4-0.2v-2.9c0.8,0,1.5-0.1,2-0.2c0.5-0.1,1-0.3,1.3-0.5s0.6-0.5,0.7-0.8s0.2-0.6,0.2-1
					c0-0.6-0.2-1.1-0.6-1.4c-0.4-0.3-0.9-0.5-1.6-0.5c-0.6,0-1.2,0.1-1.7,0.4c-0.5,0.3-1,0.7-1.6,1.1l-2.1-2.5
					c0.8-0.7,1.7-1.3,2.6-1.7c0.9-0.4,1.9-0.6,3-0.6c0.9,0,1.8,0.1,2.5,0.3s1.4,0.5,1.9,1c0.5,0.4,0.9,0.9,1.2,1.5
					c0.3,0.6,0.4,1.3,0.4,2.1c0,0.9-0.3,1.7-0.8,2.4c-0.5,0.6-1.2,1.2-2.2,1.6v0.1c1,0.3,1.9,0.8,2.5,1.5c0.7,0.7,1,1.7,1,2.8
					c0,0.8-0.2,1.6-0.5,2.2c-0.4,0.6-0.8,1.2-1.4,1.6c-0.6,0.4-1.3,0.8-2.1,1C93.3,88.3,92.5,88.4,91.6,88.4z"/>
				<path class="st2" d="M103.8,88.4c-0.7,0-1.3-0.2-1.8-0.7s-0.7-1.1-0.7-1.8c0-0.7,0.2-1.4,0.7-1.9c0.5-0.5,1.1-0.7,1.8-0.7
					c0.7,0,1.3,0.2,1.8,0.7c0.5,0.5,0.7,1.1,0.7,1.9c0,0.7-0.2,1.3-0.7,1.8S104.5,88.4,103.8,88.4z"/>
				<path class="st2" d="M114.3,79.6v-1.8l2.1-0.1v-7.8h5.2c1.4,0,2.7,0.2,3.8,0.5s2.1,0.9,2.9,1.6s1.4,1.7,1.8,2.8
					c0.4,1.1,0.6,2.5,0.6,4.1s-0.2,2.9-0.6,4.1c-0.4,1.2-1,2.1-1.8,2.9c-0.8,0.8-1.7,1.3-2.8,1.7c-1.1,0.4-2.3,0.6-3.7,0.6h-5.4
					v-8.4H114.3z M120.6,84.7h0.8c0.8,0,1.5-0.1,2.1-0.3s1.2-0.5,1.6-1c0.4-0.5,0.8-1.1,1.1-1.8c0.3-0.7,0.4-1.7,0.4-2.8
					c0-1.1-0.1-2-0.4-2.7c-0.3-0.7-0.6-1.3-1.1-1.8c-0.4-0.4-1-0.8-1.6-0.9s-1.3-0.3-2.1-0.3h-0.8v4.5h3.5v2h-3.5V84.7z"/>
				<path class="st2" d="M141.6,88.4c-1.2,0-2.4-0.2-3.4-0.7c-1-0.4-1.9-1.1-2.6-1.9s-1.3-1.8-1.7-3c-0.4-1.2-0.6-2.5-0.6-4
					s0.2-2.8,0.6-4c0.4-1.2,1-2.1,1.7-2.9c0.7-0.8,1.6-1.4,2.6-1.8c1-0.4,2.1-0.6,3.4-0.6s2.4,0.2,3.4,0.6c1,0.4,1.9,1,2.6,1.8
					s1.3,1.8,1.7,3c0.4,1.2,0.6,2.5,0.6,4c0,1.5-0.2,2.8-0.6,4c-0.4,1.2-1,2.2-1.7,3s-1.6,1.5-2.6,1.9
					C144,88.2,142.9,88.4,141.6,88.4z M139,68.9l-1.7-1.1l2.5-2.8h3.5l2.5,2.8l-1.7,1.1l-2.6-2h-0.1L139,68.9z M141.6,84.8
					c1.2,0,2.2-0.5,3-1.6s1.1-2.5,1.1-4.4c0-1.8-0.4-3.3-1.1-4.3c-0.7-1-1.7-1.5-3-1.5c-1.3,0-2.2,0.5-3,1.5c-0.7,1-1.1,2.5-1.1,4.3
					c0,1.8,0.4,3.3,1.1,4.4S140.4,84.8,141.6,84.8z M145.9,66.8l-1.2-1.4l2.8-2.4l1.4,1.7L145.9,66.8z"/>
				<path class="st2" d="M153.4,88V69.8h4.1V88H153.4z"/>
				<path class="st2" d="M171,88V73.3h-5v-3.5h14.2v3.5h-5V88H171z"/>
				<path class="st2" d="M190.2,88.4c-2.4,0-4.2-0.7-5.4-2.1c-1.3-1.4-1.9-3.6-1.9-6.7v-9.8h4.1V80c0,1.8,0.3,3,0.8,3.8
					c0.5,0.7,1.3,1.1,2.4,1.1c1,0,1.8-0.4,2.4-1.1c0.6-0.7,0.8-2,0.8-3.8V69.8h2c0.3,0,0.6-0.1,0.8-0.1c0.3-0.1,0.5-0.2,0.7-0.3
					c0.2-0.1,0.4-0.3,0.5-0.6s0.2-0.6,0.2-1c0-0.4,0-0.7-0.1-1s-0.2-0.6-0.3-0.8l3.1-1.2c0.2,0.3,0.4,0.7,0.6,1.2
					c0.2,0.5,0.3,1,0.3,1.6c0,1.2-0.3,2-1,2.6c-0.7,0.6-1.6,1-2.8,1.2v8.3c0,3.1-0.6,5.3-1.8,6.7C194.3,87.7,192.5,88.4,190.2,88.4z
					"/>
				<path class="st2" d="M209.5,88.4c-1.2,0-2.4-0.2-3.4-0.7c-1-0.4-1.9-1.1-2.6-1.9s-1.3-1.8-1.7-3s-0.6-2.5-0.6-4s0.2-2.8,0.6-4
					c0.4-1.2,1-2.1,1.7-2.9c0.7-0.8,1.6-1.4,2.6-1.8c1-0.4,2.1-0.6,3.4-0.6c1.4,0,2.7,0.3,3.9,0.9c0.5-0.1,1-0.4,1.2-0.7
					c0.3-0.3,0.4-0.7,0.4-1.3c0-0.4,0-0.7-0.1-1c-0.1-0.3-0.2-0.6-0.3-0.8l3.1-1.2c0.2,0.3,0.4,0.7,0.6,1.2c0.2,0.5,0.3,1,0.3,1.6
					c0,1-0.3,1.8-0.8,2.4c-0.5,0.6-1.3,1-2.4,1.3c0.8,0.8,1.4,1.8,1.8,3s0.7,2.6,0.7,4.1c0,1.5-0.2,2.8-0.6,4c-0.4,1.2-1,2.2-1.7,3
					s-1.6,1.5-2.6,1.9C211.9,88.2,210.8,88.4,209.5,88.4z M209.5,84.8c1.3,0,2.2-0.5,3-1.6c0.7-1.1,1.1-2.5,1.1-4.4
					c0-1.8-0.4-3.3-1.1-4.3c-0.7-1-1.7-1.5-3-1.5c-1.3,0-2.2,0.5-3,1.5c-0.7,1-1.1,2.5-1.1,4.3c0,1.8,0.4,3.3,1.1,4.4
					C207.3,84.3,208.3,84.8,209.5,84.8z M209.5,94.3c-0.7,0-1.2-0.2-1.6-0.6c-0.4-0.4-0.6-0.9-0.6-1.6s0.2-1.2,0.6-1.6
					s1-0.6,1.6-0.6c0.7,0,1.2,0.2,1.6,0.6s0.6,0.9,0.6,1.6s-0.2,1.2-0.6,1.6C210.7,94.1,210.2,94.3,209.5,94.3z"/>
				<path class="st2" d="M221.2,88V69.8h4.2l4.8,9.1l1.8,4h0.1c-0.1-1-0.2-2.1-0.3-3.2c-0.1-1.2-0.2-2.3-0.2-3.4v-6.4h3.9V88h-4.2
					l-4.8-9.1l-1.8-4h-0.1c0.1,1,0.2,2.1,0.3,3.2c0.1,1.2,0.2,2.3,0.2,3.4V88H221.2z"/>
				<path class="st2" d="M247.9,88.4c-1.3,0-2.4-0.2-3.5-0.6c-1.1-0.4-2-1-2.8-1.8s-1.4-1.8-1.9-2.9c-0.5-1.2-0.7-2.5-0.7-4
					c0-1.5,0.2-2.9,0.7-4s1.1-2.2,1.9-3c0.8-0.8,1.8-1.4,2.8-1.9c1.1-0.4,2.2-0.6,3.4-0.6c1.3,0,2.5,0.2,3.4,0.7
					c1,0.5,1.7,1,2.3,1.7l-2.2,2.6c-0.5-0.4-1-0.8-1.5-1c-0.5-0.3-1.2-0.4-2-0.4c-0.7,0-1.4,0.1-1.9,0.4c-0.6,0.3-1.1,0.7-1.5,1.2
					c-0.4,0.5-0.8,1.1-1,1.8c-0.2,0.7-0.4,1.5-0.4,2.5c0,1.9,0.4,3.3,1.3,4.4c0.8,1,2.1,1.6,3.9,1.6c0.4,0,0.7,0,1.1-0.1
					c0.4-0.1,0.6-0.2,0.9-0.4v-3.1h-3v-3.4h6.7v8.4c-0.6,0.6-1.5,1.1-2.5,1.6C250.4,88.2,249.2,88.4,247.9,88.4z"/>
				<path class="st2" d="M266.9,88V73.3h-5v-3.5H276v3.5h-5V88H266.9z"/>
				<path class="st2" d="M278.9,88V69.8h4.1v7h6.3v-7h4.1V88h-4.1v-7.6H283V88H278.9z"/>
				<path class="st2" d="M295.4,88l5.7-18.3h5l5.7,18.3h-4.4l-1.1-4.3h-5.6l-1.1,4.3H295.4z M302,78.8l-0.4,1.7h3.9l-0.4-1.7
					c-0.3-0.9-0.5-1.9-0.8-2.9c-0.2-1-0.5-2-0.7-3h-0.1c-0.2,1-0.5,2-0.7,3C302.6,76.9,302.3,77.9,302,78.8z"/>
				<path class="st2" d="M313.8,88V69.8h4.5l2.9,8.1c0.2,0.5,0.4,1.1,0.5,1.7c0.2,0.6,0.3,1.1,0.5,1.7h0.1c0.2-0.6,0.4-1.1,0.5-1.7
					s0.3-1.1,0.5-1.7l2.9-8.1h4.5V88h-3.8v-6.7c0-0.4,0-0.9,0.1-1.5c0-0.5,0.1-1.1,0.1-1.6c0.1-0.5,0.1-1.1,0.2-1.6
					c0.1-0.5,0.1-1,0.2-1.5h-0.1l-1.5,4.3l-2.6,7h-2.3l-2.6-7l-1.5-4.3H317c0.1,0.4,0.1,0.9,0.2,1.5c0.1,0.5,0.1,1.1,0.2,1.6
					c0.1,0.6,0.1,1.1,0.1,1.6c0,0.5,0.1,1,0.1,1.5V88H313.8z"/>
				<path class="st2" d="M348.8,88.4c-1.3,0-2.4-0.2-3.5-0.6c-1.1-0.4-2-1-2.8-1.8s-1.4-1.8-1.9-2.9c-0.5-1.2-0.7-2.5-0.7-4
					c0-1.5,0.2-2.9,0.7-4s1.1-2.2,1.9-3c0.8-0.8,1.8-1.4,2.8-1.9c1.1-0.4,2.2-0.6,3.4-0.6c1.3,0,2.5,0.2,3.4,0.7
					c1,0.5,1.7,1,2.3,1.7l-2.2,2.6c-0.5-0.4-1-0.8-1.5-1c-0.5-0.3-1.2-0.4-2-0.4c-0.7,0-1.4,0.1-1.9,0.4c-0.6,0.3-1.1,0.7-1.5,1.2
					c-0.4,0.5-0.8,1.1-1,1.8c-0.2,0.7-0.4,1.5-0.4,2.5c0,1.9,0.4,3.3,1.3,4.4c0.8,1,2.1,1.6,3.9,1.6c0.4,0,0.7,0,1.1-0.1
					c0.4-0.1,0.6-0.2,0.9-0.4v-3.1h-3v-3.4h6.7v8.4c-0.6,0.6-1.5,1.1-2.5,1.6C351.3,88.2,350.1,88.4,348.8,88.4z"/>
				<path class="st2" d="M358.6,88V69.8h4.1V88H358.6z"/>
				<path class="st2" d="M364.7,88l5.7-18.3h5l5.7,18.3h-4.4l-1.1-4.3H370l-1.1,4.3H364.7z M371.3,78.8l-0.4,1.7h3.9l-0.4-1.7
					c-0.3-0.9-0.5-1.9-0.8-2.9c-0.2-1-0.5-2-0.7-3h-0.1c-0.2,1-0.5,2-0.7,3C371.8,76.9,371.6,77.9,371.3,78.8z"/>
			</g>
			<g class="st1">
				<path class="st3" d="M86.8,126.8c-0.3,0-0.6-0.1-0.9-0.2c-0.3-0.1-0.5-0.3-0.7-0.5c-0.2-0.2-0.4-0.5-0.5-0.8
					c-0.1-0.3-0.2-0.6-0.2-1c0-0.4,0.1-0.7,0.2-1s0.3-0.6,0.5-0.8c0.2-0.2,0.4-0.4,0.7-0.5c0.3-0.1,0.6-0.2,0.9-0.2
					c0.3,0,0.6,0.1,0.9,0.2c0.3,0.1,0.5,0.3,0.7,0.5s0.4,0.5,0.5,0.8s0.2,0.6,0.2,1c0,0.4-0.1,0.7-0.2,1c-0.1,0.3-0.3,0.5-0.5,0.8
					c-0.2,0.2-0.4,0.4-0.7,0.5C87.4,126.7,87.1,126.8,86.8,126.8z"/>
			</g>
			<g class="st1">
				<path class="st4" d="M98.4,129.6v-11.7h-4v-1.4h9.6v1.4h-4v11.7H98.4z"/>
			</g>
			<g class="st1">
				<path class="st4" d="M107,129.9c-0.8,0-1.5-0.2-2-0.7c-0.5-0.5-0.8-1.2-0.8-2c0-1.1,0.5-1.9,1.4-2.5s2.5-1,4.5-1.2
					c0-0.3,0-0.6-0.1-0.9c-0.1-0.3-0.2-0.6-0.3-0.8c-0.1-0.2-0.4-0.4-0.6-0.5c-0.3-0.1-0.6-0.2-1-0.2c-0.6,0-1.1,0.1-1.6,0.3
					c-0.5,0.2-0.9,0.5-1.3,0.7l-0.6-1.1c0.5-0.3,1-0.6,1.7-0.8c0.7-0.3,1.4-0.4,2.2-0.4c1.2,0,2,0.4,2.6,1.1s0.8,1.7,0.8,2.9v6h-1.4
					l-0.1-1.2h-0.1c-0.5,0.4-1,0.7-1.5,1C108.2,129.7,107.6,129.9,107,129.9z M106.3,118.2l-0.6-0.7l2-1.8h1.4l2,1.8l-0.6,0.7
					l-2.1-1.4h-0.1L106.3,118.2z M107.5,128.6c0.5,0,0.9-0.1,1.3-0.3c0.4-0.2,0.9-0.5,1.3-1v-2.7c-0.8,0.1-1.5,0.2-2,0.4
					c-0.6,0.1-1,0.3-1.3,0.5c-0.3,0.2-0.6,0.4-0.7,0.7c-0.2,0.3-0.2,0.5-0.2,0.9c0,0.6,0.2,1,0.5,1.2
					C106.6,128.4,107,128.6,107.5,128.6z M110.3,116.3l1.7-2.4l1,0.7l-2,2.3L110.3,116.3z"/>
			</g>
			<g class="st1">
				<path class="st4" d="M117.6,129.9c-0.5,0-1-0.1-1.3-0.2c-0.4-0.2-0.6-0.4-0.9-0.7c-0.2-0.3-0.4-0.6-0.5-1
					c-0.1-0.4-0.1-0.8-0.1-1.3v-5.4h-1.4V120l1.5-0.1l0.2-2.7h1.4v2.7h2.6v1.3h-2.6v5.4c0,0.6,0.1,1.1,0.3,1.4
					c0.2,0.3,0.6,0.5,1.2,0.5c0.2,0,0.4,0,0.6-0.1c0.2-0.1,0.4-0.1,0.5-0.2l0.3,1.2c-0.3,0.1-0.6,0.2-0.9,0.2
					S117.9,129.9,117.6,129.9z"/>
			</g>
			<g class="st1">
				<path class="st4" d="M129.2,129.9c-0.6,0-1.2-0.1-1.8-0.3s-1-0.6-1.5-1s-0.7-1-1-1.6c-0.2-0.6-0.4-1.3-0.4-2.1
					c0-0.8,0.1-1.5,0.4-2.2c0.3-0.6,0.6-1.2,1-1.6c0.4-0.4,0.9-0.8,1.5-1c0.6-0.2,1.2-0.3,1.8-0.3c0.6,0,1.2,0.1,1.6,0.3
					c0.5,0.2,0.9,0.5,1.2,0.8l-0.8,1.1c-0.3-0.3-0.6-0.5-0.9-0.6c-0.3-0.2-0.7-0.2-1-0.2c-0.4,0-0.8,0.1-1.2,0.3
					c-0.4,0.2-0.7,0.4-1,0.8c-0.3,0.3-0.5,0.7-0.6,1.2c-0.2,0.5-0.2,1-0.2,1.5c0,0.6,0.1,1.1,0.2,1.5c0.1,0.5,0.4,0.8,0.6,1.2
					c0.3,0.3,0.6,0.6,0.9,0.8c0.4,0.2,0.8,0.3,1.2,0.3c0.5,0,0.9-0.1,1.2-0.3s0.7-0.4,1-0.7l0.7,1.1c-0.4,0.4-0.9,0.7-1.5,0.9
					C130.3,129.8,129.7,129.9,129.2,129.9z"/>
			</g>
			<g class="st1">
				<path class="st4" d="M136.5,129.9c-0.8,0-1.5-0.2-2-0.7c-0.5-0.5-0.8-1.2-0.8-2c0-1.1,0.5-1.9,1.4-2.5s2.5-1,4.5-1.2
					c0-0.3,0-0.6-0.1-0.9c-0.1-0.3-0.2-0.6-0.3-0.8c-0.1-0.2-0.4-0.4-0.6-0.5c-0.3-0.1-0.6-0.2-1-0.2c-0.6,0-1.1,0.1-1.6,0.3
					c-0.5,0.2-0.9,0.5-1.3,0.7l-0.6-1.1c0.5-0.3,1-0.6,1.7-0.8c0.7-0.3,1.4-0.4,2.2-0.4c1.2,0,2,0.4,2.6,1.1s0.8,1.7,0.8,2.9v6h-1.4
					l-0.1-1.2h-0.1c-0.5,0.4-1,0.7-1.5,1C137.7,129.7,137.1,129.9,136.5,129.9z M137,128.6c0.5,0,0.9-0.1,1.3-0.3
					c0.4-0.2,0.9-0.5,1.3-1v-2.7c-0.8,0.1-1.5,0.2-2,0.4c-0.6,0.1-1,0.3-1.3,0.5c-0.3,0.2-0.6,0.4-0.7,0.7c-0.2,0.3-0.2,0.5-0.2,0.9
					c0,0.6,0.2,1,0.5,1.2C136.1,128.4,136.5,128.6,137,128.6z M137.2,118.2l-0.2-0.8c0.3-0.1,0.6-0.2,0.8-0.3
					c0.2-0.1,0.3-0.3,0.3-0.6c0-0.6-0.6-0.9-1.7-0.9l0.1-1.1c0.9,0,1.6,0.2,2.1,0.5c0.5,0.3,0.7,0.8,0.7,1.4c0,0.3-0.1,0.5-0.2,0.8
					c-0.1,0.2-0.3,0.4-0.5,0.5s-0.4,0.3-0.7,0.4C137.8,118.1,137.5,118.1,137.2,118.2z"/>
				<path class="st4" d="M151.4,129.9c-0.5,0-1-0.1-1.3-0.2c-0.4-0.2-0.6-0.4-0.9-0.7c-0.2-0.3-0.4-0.6-0.5-1
					c-0.1-0.4-0.1-0.8-0.1-1.3v-5.4h-1.4V120l1.5-0.1l0.2-2.7h1.4v2.7h2.6v1.3h-2.6v5.4c0,0.6,0.1,1.1,0.3,1.4
					c0.2,0.3,0.6,0.5,1.2,0.5c0.2,0,0.4,0,0.6-0.1c0.2-0.1,0.4-0.1,0.5-0.2l0.3,1.2c-0.3,0.1-0.6,0.2-0.9,0.2
					S151.7,129.9,151.4,129.9z"/>
				<path class="st4" d="M155.1,129.6v-14.2h1.6v3.9l-0.1,2c0.5-0.4,1-0.8,1.5-1.1c0.5-0.3,1.1-0.5,1.8-0.5c1,0,1.8,0.3,2.2,1
					c0.5,0.6,0.7,1.6,0.7,2.8v6.2h-1.6v-5.9c0-0.9-0.1-1.6-0.4-2c-0.3-0.4-0.8-0.6-1.4-0.6c-0.5,0-1,0.1-1.3,0.4
					c-0.4,0.3-0.8,0.6-1.3,1.1v7H155.1z"/>
				<path class="st4" d="M168.2,129.9c-0.8,0-1.5-0.2-2-0.7c-0.5-0.5-0.8-1.2-0.8-2c0-1.1,0.5-1.9,1.4-2.5s2.5-1,4.5-1.2
					c0-0.3,0-0.6-0.1-0.9c-0.1-0.3-0.2-0.6-0.3-0.8c-0.1-0.2-0.4-0.4-0.6-0.5c-0.3-0.1-0.6-0.2-1-0.2c-0.6,0-1.1,0.1-1.6,0.3
					c-0.5,0.2-0.9,0.5-1.3,0.7l-0.6-1.1c0.5-0.3,1-0.6,1.7-0.8c0.7-0.3,1.4-0.4,2.2-0.4c1.2,0,2,0.4,2.6,1.1s0.8,1.7,0.8,2.9v6h-1.4
					l-0.1-1.2h-0.1c-0.5,0.4-1,0.7-1.5,1C169.4,129.7,168.8,129.9,168.2,129.9z M169.8,118.2l-3.1-3.1l1.2-1.1l2.8,3.3L169.8,118.2z
					 M168.7,128.6c0.5,0,0.9-0.1,1.3-0.3c0.4-0.2,0.9-0.5,1.3-1v-2.7c-0.8,0.1-1.5,0.2-2,0.4c-0.6,0.1-1,0.3-1.3,0.5
					c-0.3,0.2-0.6,0.4-0.7,0.7c-0.2,0.3-0.2,0.5-0.2,0.9c0,0.6,0.2,1,0.5,1.2C167.8,128.4,168.2,128.6,168.7,128.6z"/>
				<path class="st4" d="M176,129.6v-9.7h1.4l0.1,1.4h0.1c0.5-0.5,1-0.9,1.5-1.2c0.5-0.3,1.1-0.5,1.8-0.5c1,0,1.8,0.3,2.2,1
					c0.5,0.6,0.7,1.6,0.7,2.8v6.2h-1.6v-5.9c0-0.9-0.1-1.6-0.4-2c-0.3-0.4-0.8-0.6-1.4-0.6c-0.5,0-1,0.1-1.3,0.4
					c-0.4,0.3-0.8,0.6-1.3,1.1v7H176z"/>
				<path class="st4" d="M187,129.6v-14.2h1.6v3.9l-0.1,2c0.5-0.4,1-0.8,1.5-1.1c0.5-0.3,1.1-0.5,1.8-0.5c1,0,1.8,0.3,2.2,1
					c0.5,0.6,0.7,1.6,0.7,2.8v6.2h-1.6v-5.9c0-0.9-0.1-1.6-0.4-2c-0.3-0.4-0.8-0.6-1.4-0.6c-0.5,0-1,0.1-1.3,0.4
					c-0.4,0.3-0.8,0.6-1.3,1.1v7H187z"/>
				<path class="st4" d="M204,129.6l-3.5-9.7h1.7l1.8,5.5c0.1,0.5,0.3,1,0.5,1.4c0.2,0.5,0.3,1,0.5,1.4h0.1c0.1-0.5,0.3-0.9,0.4-1.4
					c0.1-0.5,0.3-1,0.4-1.4l1.8-5.5h1.6l-3.4,9.7H204z"/>
				<path class="st4" d="M212,117.9c-0.3,0-0.6-0.1-0.8-0.3c-0.2-0.2-0.3-0.5-0.3-0.8c0-0.3,0.1-0.6,0.3-0.8
					c0.2-0.2,0.5-0.3,0.8-0.3s0.6,0.1,0.8,0.3c0.2,0.2,0.3,0.5,0.3,0.8c0,0.3-0.1,0.6-0.3,0.8C212.6,117.8,212.4,117.9,212,117.9z
					 M211.2,129.6v-9.7h1.6v9.7H211.2z"/>
				<path class="st4" d="M220.1,129.9c-0.7,0-1.3-0.1-1.8-0.4c-0.6-0.2-1.1-0.6-1.5-1c-0.4-0.4-0.8-1-1-1.6
					c-0.2-0.6-0.4-1.3-0.4-2.1s0.1-1.5,0.4-2.2c0.2-0.6,0.6-1.2,1-1.6c0.4-0.4,0.9-0.8,1.4-1c0.5-0.2,1.1-0.3,1.6-0.3
					c0.6,0,1.2,0.1,1.7,0.3c0.5,0.2,0.9,0.5,1.2,0.9c0.3,0.4,0.6,0.9,0.8,1.4c0.2,0.6,0.3,1.2,0.3,1.9c0,0.2,0,0.3,0,0.5
					s0,0.3,0,0.4H217c0.1,1,0.4,1.9,1,2.5c0.6,0.6,1.3,0.9,2.3,0.9c0.5,0,0.9-0.1,1.3-0.2s0.8-0.3,1.1-0.5l0.6,1.1
					c-0.4,0.3-0.9,0.5-1.4,0.7C221.3,129.8,220.7,129.9,220.1,129.9z M216.7,117.6l2.3-2.8h1.6l2.3,2.8l-0.7,0.6l-2.4-2.3h-0.1
					l-2.4,2.3L216.7,117.6z M217,124h5.2c0-1-0.2-1.7-0.6-2.2c-0.4-0.5-1-0.8-1.8-0.8c-0.3,0-0.7,0.1-1,0.2
					c-0.3,0.1-0.6,0.3-0.9,0.6c-0.3,0.3-0.5,0.6-0.6,1C217.2,123.1,217.1,123.5,217,124z"/>
				<path class="st4" d="M226,129.6v-9.7h1.4l0.1,1.4h0.1c0.5-0.5,1-0.9,1.5-1.2c0.5-0.3,1.1-0.5,1.8-0.5c1,0,1.8,0.3,2.2,1
					c0.5,0.6,0.7,1.6,0.7,2.8v6.2h-1.6v-5.9c0-0.9-0.1-1.6-0.4-2c-0.3-0.4-0.8-0.6-1.4-0.6c-0.5,0-1,0.1-1.3,0.4
					c-0.4,0.3-0.8,0.6-1.3,1.1v7H226z"/>
				<path class="st4" d="M244.8,129.9c-0.6,0-1.2-0.1-1.8-0.3s-1-0.6-1.5-1s-0.7-1-1-1.6c-0.2-0.6-0.4-1.3-0.4-2.1
					c0-0.8,0.1-1.5,0.4-2.2c0.3-0.6,0.6-1.2,1-1.6c0.4-0.4,0.9-0.8,1.5-1c0.6-0.2,1.2-0.3,1.8-0.3c0.6,0,1.2,0.1,1.6,0.3
					c0.5,0.2,0.9,0.5,1.2,0.8l-0.8,1.1c-0.3-0.3-0.6-0.5-0.9-0.6c-0.3-0.2-0.7-0.2-1-0.2c-0.4,0-0.8,0.1-1.2,0.3
					c-0.4,0.2-0.7,0.4-1,0.8c-0.3,0.3-0.5,0.7-0.6,1.2c-0.2,0.5-0.2,1-0.2,1.5c0,0.6,0.1,1.1,0.2,1.5c0.1,0.5,0.4,0.8,0.6,1.2
					c0.3,0.3,0.6,0.6,0.9,0.8c0.4,0.2,0.8,0.3,1.2,0.3c0.5,0,0.9-0.1,1.2-0.3s0.7-0.4,1-0.7l0.7,1.1c-0.4,0.4-0.9,0.7-1.5,0.9
					C246,129.8,245.4,129.9,244.8,129.9z"/>
				<path class="st4" d="M252.9,129.9c-1,0-1.8-0.3-2.3-1c-0.5-0.6-0.7-1.6-0.7-2.8v-6.2h1.7v5.9c0,0.9,0.1,1.6,0.4,2
					c0.3,0.4,0.8,0.6,1.4,0.6c0.5,0,1-0.1,1.3-0.4c0.4-0.3,0.8-0.7,1.3-1.2v-6.9h1.6v9.7h-1.4l-0.1-1.5h-0.1c-0.5,0.5-0.9,1-1.4,1.3
					C254.2,129.7,253.6,129.9,252.9,129.9z M253.3,118.2l-0.2-0.8c0.3-0.1,0.6-0.2,0.8-0.3c0.2-0.1,0.3-0.3,0.3-0.6
					c0-0.6-0.6-0.9-1.7-0.9l0.1-1.1c0.9,0,1.6,0.2,2.1,0.5c0.5,0.3,0.7,0.8,0.7,1.4c0,0.3-0.1,0.5-0.2,0.8c-0.1,0.2-0.3,0.4-0.5,0.5
					c-0.2,0.2-0.4,0.3-0.7,0.4C253.8,118.1,253.6,118.1,253.3,118.2z"/>
				<path class="st4" d="M263.2,129.9c-0.8,0-1.5-0.2-2-0.7c-0.5-0.5-0.8-1.2-0.8-2c0-1.1,0.5-1.9,1.4-2.5s2.5-1,4.5-1.2
					c0-0.3,0-0.6-0.1-0.9c-0.1-0.3-0.2-0.6-0.3-0.8c-0.1-0.2-0.4-0.4-0.6-0.5c-0.3-0.1-0.6-0.2-1-0.2c-0.6,0-1.1,0.1-1.6,0.3
					c-0.5,0.2-0.9,0.5-1.3,0.7l-0.6-1.1c0.5-0.3,1-0.6,1.7-0.8c0.7-0.3,1.4-0.4,2.2-0.4c1.2,0,2,0.4,2.6,1.1s0.8,1.7,0.8,2.9v6h-1.4
					l-0.1-1.2h-0.1c-0.5,0.4-1,0.7-1.5,1C264.4,129.7,263.8,129.9,263.2,129.9z M263.7,128.6c0.5,0,0.9-0.1,1.3-0.3
					c0.4-0.2,0.9-0.5,1.3-1v-2.7c-0.8,0.1-1.5,0.2-2,0.4c-0.6,0.1-1,0.3-1.3,0.5c-0.3,0.2-0.6,0.4-0.7,0.7c-0.2,0.3-0.2,0.5-0.2,0.9
					c0,0.6,0.2,1,0.5,1.2C262.8,128.4,263.2,128.6,263.7,128.6z"/>
				<path class="st4" d="M280.2,129.9c-0.8,0-1.6-0.2-2.3-0.5s-1.3-0.8-1.8-1.3s-0.9-1.3-1.2-2.1c-0.3-0.8-0.4-1.8-0.4-2.9
					c0-1.1,0.1-2,0.4-2.8c0.3-0.8,0.7-1.6,1.2-2.1s1.1-1,1.8-1.3c0.7-0.3,1.5-0.5,2.3-0.5c0.8,0,1.5,0.2,2.1,0.5
					c0.6,0.3,1.1,0.7,1.5,1.1L283,119c-0.3-0.4-0.7-0.7-1.2-0.9s-0.9-0.3-1.5-0.3c-0.6,0-1.2,0.1-1.7,0.4c-0.5,0.2-0.9,0.6-1.3,1.1
					c-0.4,0.5-0.6,1-0.8,1.7s-0.3,1.4-0.3,2.2c0,0.8,0.1,1.6,0.3,2.2s0.5,1.2,0.8,1.7s0.8,0.8,1.3,1.1c0.5,0.3,1.1,0.4,1.7,0.4
					c0.6,0,1.2-0.1,1.7-0.4c0.5-0.3,0.9-0.6,1.4-1.1l0.9,1c-0.5,0.6-1.1,1.1-1.8,1.4S281,129.9,280.2,129.9z"/>
			</g>
			<g class="st1">
				<path class="st4" d="M288.7,129.9c-0.8,0-1.5-0.2-2-0.7c-0.5-0.5-0.8-1.2-0.8-2c0-1.1,0.5-1.9,1.4-2.5s2.5-1,4.5-1.2
					c0-0.3,0-0.6-0.1-0.9c-0.1-0.3-0.2-0.6-0.3-0.8c-0.1-0.2-0.4-0.4-0.6-0.5c-0.3-0.1-0.6-0.2-1-0.2c-0.6,0-1.1,0.1-1.6,0.3
					c-0.5,0.2-0.9,0.5-1.3,0.7l-0.6-1.1c0.5-0.3,1-0.6,1.7-0.8c0.7-0.3,1.4-0.4,2.2-0.4c1.2,0,2,0.4,2.6,1.1s0.8,1.7,0.8,2.9v6h-1.4
					l-0.1-1.2h-0.1c-0.5,0.4-1,0.7-1.5,1C289.9,129.7,289.3,129.9,288.7,129.9z M289.2,128.6c0.5,0,0.9-0.1,1.3-0.3
					c0.4-0.2,0.9-0.5,1.3-1v-2.7c-0.8,0.1-1.5,0.2-2,0.4c-0.6,0.1-1,0.3-1.3,0.5c-0.3,0.2-0.6,0.4-0.7,0.7c-0.2,0.3-0.2,0.5-0.2,0.9
					c0,0.6,0.2,1,0.5,1.2C288.3,128.4,288.7,128.6,289.2,128.6z"/>
			</g>
			<g class="st1">
				<path class="st4" d="M299.3,129.9c-0.5,0-1-0.1-1.3-0.2c-0.4-0.2-0.6-0.4-0.9-0.7c-0.2-0.3-0.4-0.6-0.5-1
					c-0.1-0.4-0.1-0.8-0.1-1.3v-5.4h-1.4V120l1.5-0.1l0.2-2.7h1.4v2.7h2.6v1.3h-2.6v5.4c0,0.6,0.1,1.1,0.3,1.4
					c0.2,0.3,0.6,0.5,1.2,0.5c0.2,0,0.4,0,0.6-0.1c0.2-0.1,0.4-0.1,0.5-0.2l0.3,1.2c-0.3,0.1-0.6,0.2-0.9,0.2
					S299.6,129.9,299.3,129.9z"/>
			</g>
			<g class="st1">
				<path class="st4" d="M307.3,129.9c-0.5,0-0.9-0.1-1.4-0.3s-0.9-0.5-1.4-0.9h-0.1l-0.1,1H303v-14.2h1.6v3.9l0,1.8
					c0.4-0.4,0.9-0.7,1.4-1c0.5-0.3,1.1-0.4,1.6-0.4c0.6,0,1.2,0.1,1.7,0.3c0.5,0.2,0.9,0.6,1.2,1c0.3,0.4,0.6,1,0.7,1.6
					c0.2,0.6,0.2,1.3,0.2,2c0,0.8-0.1,1.6-0.3,2.2s-0.5,1.2-0.9,1.7s-0.8,0.8-1.3,1C308.4,129.8,307.9,129.9,307.3,129.9z
					 M307.1,128.5c0.4,0,0.8-0.1,1.1-0.3s0.6-0.4,0.9-0.8c0.2-0.3,0.4-0.7,0.6-1.2c0.1-0.5,0.2-1,0.2-1.6c0-0.5,0-1-0.1-1.5
					s-0.2-0.8-0.4-1.1c-0.2-0.3-0.5-0.6-0.8-0.7c-0.3-0.2-0.7-0.3-1.2-0.3c-0.8,0-1.7,0.4-2.6,1.3v5.1c0.4,0.4,0.9,0.6,1.3,0.8
					C306.4,128.4,306.7,128.5,307.1,128.5z"/>
			</g>
			<g class="st1">
				<path class="st4" d="M316.1,129.9c-0.8,0-1.5-0.2-2-0.7c-0.5-0.5-0.8-1.2-0.8-2c0-1.1,0.5-1.9,1.4-2.5s2.5-1,4.5-1.2
					c0-0.3,0-0.6-0.1-0.9c-0.1-0.3-0.2-0.6-0.3-0.8c-0.1-0.2-0.4-0.4-0.6-0.5c-0.3-0.1-0.6-0.2-1-0.2c-0.6,0-1.1,0.1-1.6,0.3
					c-0.5,0.2-0.9,0.5-1.3,0.7l-0.6-1.1c0.5-0.3,1-0.6,1.7-0.8c0.7-0.3,1.4-0.4,2.2-0.4c1.2,0,2,0.4,2.6,1.1s0.8,1.7,0.8,2.9v6h-1.4
					l-0.1-1.2h-0.1c-0.5,0.4-1,0.7-1.5,1C317.2,129.7,316.7,129.9,316.1,129.9z M316.5,128.6c0.5,0,0.9-0.1,1.3-0.3
					c0.4-0.2,0.9-0.5,1.3-1v-2.7c-0.8,0.1-1.5,0.2-2,0.4c-0.6,0.1-1,0.3-1.3,0.5c-0.3,0.2-0.6,0.4-0.7,0.7c-0.2,0.3-0.2,0.5-0.2,0.9
					c0,0.6,0.2,1,0.5,1.2C315.7,128.4,316.1,128.6,316.5,128.6z"/>
				<path class="st4" d="M327.7,129.9c-0.6,0-1.2-0.1-1.8-0.3s-1-0.6-1.5-1s-0.7-1-1-1.6c-0.2-0.6-0.4-1.3-0.4-2.1
					c0-0.8,0.1-1.5,0.4-2.2c0.3-0.6,0.6-1.2,1-1.6c0.4-0.4,0.9-0.8,1.5-1c0.6-0.2,1.2-0.3,1.8-0.3c0.6,0,1.2,0.1,1.6,0.3
					c0.5,0.2,0.9,0.5,1.2,0.8l-0.8,1.1c-0.3-0.3-0.6-0.5-0.9-0.6c-0.3-0.2-0.7-0.2-1-0.2c-0.4,0-0.8,0.1-1.2,0.3
					c-0.4,0.2-0.7,0.4-1,0.8c-0.3,0.3-0.5,0.7-0.6,1.2c-0.2,0.5-0.2,1-0.2,1.5c0,0.6,0.1,1.1,0.2,1.5c0.1,0.5,0.4,0.8,0.6,1.2
					c0.3,0.3,0.6,0.6,0.9,0.8c0.4,0.2,0.8,0.3,1.2,0.3c0.5,0,0.9-0.1,1.2-0.3s0.7-0.4,1-0.7l0.7,1.1c-0.4,0.4-0.9,0.7-1.5,0.9
					C328.9,129.8,328.3,129.9,327.7,129.9z"/>
				<path class="st4" d="M333,129.6v-14.2h1.6v9.6h0.1l4.1-5.1h1.8l-3.3,3.9l3.7,5.8h-1.8l-2.8-4.7l-1.8,2.1v2.6H333z"/>
				<path class="st4" d="M350,129.9c-0.5,0-1-0.1-1.3-0.2c-0.4-0.2-0.6-0.4-0.9-0.7c-0.2-0.3-0.4-0.6-0.5-1
					c-0.1-0.4-0.1-0.8-0.1-1.3v-5.4h-1.4V120l1.5-0.1l0.2-2.7h1.4v2.7h2.6v1.3h-2.6v5.4c0,0.6,0.1,1.1,0.3,1.4
					c0.2,0.3,0.6,0.5,1.2,0.5c0.2,0,0.4,0,0.6-0.1c0.2-0.1,0.4-0.1,0.5-0.2l0.3,1.2c-0.3,0.1-0.6,0.2-0.9,0.2S350.3,129.9,350,129.9
					z"/>
			</g>
			<g class="st1">
				<path class="st4" d="M353.7,129.6v-9.7h1.4l0.1,1.8h0.1c0.3-0.6,0.7-1.1,1.2-1.5c0.5-0.4,1-0.5,1.5-0.5c0.4,0,0.7,0.1,1,0.2
					l-0.3,1.4c-0.2-0.1-0.3-0.1-0.4-0.1c-0.1,0-0.3,0-0.5,0c-0.4,0-0.8,0.2-1.3,0.5c-0.4,0.3-0.8,0.9-1.2,1.7v6.2H353.7z"/>
			</g>
			<g class="st1">
				<path class="st4" d="M364.4,129.9c-0.7,0-1.3-0.1-1.8-0.4c-0.6-0.2-1.1-0.6-1.5-1c-0.4-0.4-0.8-1-1-1.6
					c-0.2-0.6-0.4-1.3-0.4-2.1s0.1-1.5,0.4-2.2c0.2-0.6,0.6-1.2,1-1.6c0.4-0.4,0.9-0.8,1.4-1c0.5-0.2,1.1-0.3,1.6-0.3
					c0.6,0,1.2,0.1,1.7,0.3c0.5,0.2,0.9,0.5,1.2,0.9c0.3,0.4,0.6,0.9,0.8,1.4c0.2,0.6,0.3,1.2,0.3,1.9c0,0.2,0,0.3,0,0.5
					s0,0.3,0,0.4h-6.6c0.1,1,0.4,1.9,1,2.5c0.6,0.6,1.3,0.9,2.3,0.9c0.5,0,0.9-0.1,1.3-0.2s0.8-0.3,1.1-0.5l0.6,1.1
					c-0.4,0.3-0.9,0.5-1.4,0.7C365.6,129.8,365,129.9,364.4,129.9z M361,117.6l2.3-2.8h1.6l2.3,2.8l-0.7,0.6l-2.4-2.3H364l-2.4,2.3
					L361,117.6z M361.3,124h5.2c0-1-0.2-1.7-0.6-2.2c-0.4-0.5-1-0.8-1.8-0.8c-0.3,0-0.7,0.1-1,0.2c-0.3,0.1-0.6,0.3-0.9,0.6
					c-0.3,0.3-0.5,0.6-0.6,1C361.5,123.1,361.4,123.5,361.3,124z"/>
				<path class="st4" d="M370.3,129.6v-9.7h1.4l0.1,1.4h0.1c0.5-0.5,1-0.9,1.5-1.2c0.5-0.3,1.1-0.5,1.8-0.5c1,0,1.8,0.3,2.2,1
					c0.5,0.6,0.7,1.6,0.7,2.8v6.2h-1.6v-5.9c0-0.9-0.1-1.6-0.4-2c-0.3-0.4-0.8-0.6-1.4-0.6c-0.5,0-1,0.1-1.3,0.4
					c-0.4,0.3-0.8,0.6-1.3,1.1v7H370.3z"/>
				<path class="st4" d="M388.3,129.9c-0.5,0-1-0.1-1.3-0.2s-0.6-0.4-0.9-0.7c-0.2-0.3-0.4-0.6-0.5-1c-0.1-0.4-0.1-0.8-0.1-1.3v-5.4
					h-1.4V120l1.5-0.1l0.2-2.7h1.4v2.7h2.6v1.3h-2.6v5.4c0,0.6,0.1,1.1,0.3,1.4c0.2,0.3,0.6,0.5,1.2,0.5c0.2,0,0.4,0,0.6-0.1
					c0.2-0.1,0.4-0.1,0.5-0.2l0.3,1.2c-0.3,0.1-0.6,0.2-0.9,0.2S388.6,129.9,388.3,129.9z"/>
				<path class="st4" d="M392,129.6v-14.2h1.6v3.9l-0.1,2c0.5-0.4,1-0.8,1.5-1.1c0.5-0.3,1.1-0.5,1.8-0.5c1,0,1.8,0.3,2.2,1
					s0.7,1.6,0.7,2.8v6.2h-1.6v-5.9c0-0.9-0.1-1.6-0.4-2c-0.3-0.4-0.8-0.6-1.4-0.6c-0.5,0-1,0.1-1.3,0.4c-0.4,0.3-0.8,0.6-1.3,1.1v7
					H392z"/>
				<path class="st4" d="M403.8,117.9c-0.3,0-0.6-0.1-0.8-0.3c-0.2-0.2-0.3-0.5-0.3-0.8c0-0.3,0.1-0.6,0.3-0.8
					c0.2-0.2,0.5-0.3,0.8-0.3c0.3,0,0.6,0.1,0.8,0.3s0.3,0.5,0.3,0.8c0,0.3-0.1,0.6-0.3,0.8C404.3,117.8,404.1,117.9,403.8,117.9z
					 M402.9,129.6v-9.7h1.6v9.7H402.9z"/>
			</g>
			<g class="st1">
				<path class="st4" d="M411.8,129.9c-0.7,0-1.3-0.1-1.8-0.4c-0.6-0.2-1.1-0.6-1.5-1c-0.4-0.4-0.8-1-1-1.6
					c-0.2-0.6-0.4-1.3-0.4-2.1s0.1-1.5,0.4-2.2c0.2-0.6,0.6-1.2,1-1.6c0.4-0.4,0.9-0.8,1.4-1c0.5-0.2,1.1-0.3,1.6-0.3
					c0.6,0,1.2,0.1,1.7,0.3c0.5,0.2,0.9,0.5,1.2,0.9c0.3,0.4,0.6,0.9,0.8,1.4c0.2,0.6,0.3,1.2,0.3,1.9c0,0.2,0,0.3,0,0.5
					s0,0.3,0,0.4h-6.6c0.1,1,0.4,1.9,1,2.5c0.6,0.6,1.3,0.9,2.3,0.9c0.5,0,0.9-0.1,1.3-0.2c0.4-0.1,0.8-0.3,1.1-0.5l0.6,1.1
					c-0.4,0.3-0.9,0.5-1.4,0.7C413,129.8,412.4,129.9,411.8,129.9z M408.7,124h5.2c0-1-0.2-1.7-0.6-2.2c-0.4-0.5-1-0.8-1.8-0.8
					c-0.3,0-0.7,0.1-1,0.2c-0.3,0.1-0.6,0.3-0.9,0.6s-0.5,0.6-0.6,1S408.8,123.5,408.7,124z M409.4,118.2l-0.6-0.7l2-1.8h1.4l2,1.8
					l-0.6,0.7l-2.1-1.4h-0.1L409.4,118.2z M413.5,116.3l1.7-2.4l1,0.7l-2,2.3L413.5,116.3z"/>
			</g>
			<g class="st1">
				<path class="st4" d="M420.6,129.9c-0.5,0-1-0.1-1.3-0.2c-0.4-0.2-0.6-0.4-0.9-0.7s-0.4-0.6-0.5-1c-0.1-0.4-0.1-0.8-0.1-1.3v-5.4
					h-1.4V120l1.5-0.1l0.2-2.7h1.4v2.7h2.6v1.3h-2.6v5.4c0,0.6,0.1,1.1,0.3,1.4s0.6,0.5,1.2,0.5c0.2,0,0.4,0,0.6-0.1
					c0.2-0.1,0.4-0.1,0.5-0.2l0.3,1.2c-0.3,0.1-0.6,0.2-0.9,0.2S420.9,129.9,420.6,129.9z"/>
				<path class="st4" d="M432.6,129.9c-0.5,0-0.9-0.1-1.4-0.3c-0.5-0.2-0.9-0.5-1.4-0.9h-0.1l-0.1,1h-1.3v-14.2h1.6v3.9l0,1.8
					c0.4-0.4,0.9-0.7,1.4-1c0.5-0.3,1.1-0.4,1.6-0.4c0.6,0,1.2,0.1,1.7,0.3c0.5,0.2,0.9,0.6,1.2,1c0.3,0.4,0.6,1,0.7,1.6
					c0.2,0.6,0.2,1.3,0.2,2c0,0.8-0.1,1.6-0.3,2.2s-0.5,1.2-0.9,1.7s-0.8,0.8-1.3,1C433.7,129.8,433.2,129.9,432.6,129.9z
					 M432.3,128.5c0.4,0,0.8-0.1,1.1-0.3s0.6-0.4,0.9-0.8c0.2-0.3,0.4-0.7,0.6-1.2c0.1-0.5,0.2-1,0.2-1.6c0-0.5,0-1-0.1-1.5
					c-0.1-0.4-0.2-0.8-0.4-1.1c-0.2-0.3-0.5-0.6-0.8-0.7c-0.3-0.2-0.7-0.3-1.2-0.3c-0.8,0-1.7,0.4-2.6,1.3v5.1
					c0.4,0.4,0.8,0.6,1.3,0.8C431.7,128.4,432,128.5,432.3,128.5z"/>
				<path class="st4" d="M440.2,117.9c-0.3,0-0.6-0.1-0.8-0.3c-0.2-0.2-0.3-0.5-0.3-0.8c0-0.3,0.1-0.6,0.3-0.8s0.5-0.3,0.8-0.3
					c0.3,0,0.6,0.1,0.8,0.3c0.2,0.2,0.3,0.5,0.3,0.8c0,0.3-0.1,0.6-0.3,0.8C440.8,117.8,440.5,117.9,440.2,117.9z M440.2,133.7
					c-0.3,0-0.6-0.1-0.8-0.3c-0.2-0.2-0.3-0.5-0.3-0.8c0-0.3,0.1-0.6,0.3-0.8c0.2-0.2,0.5-0.3,0.8-0.3s0.6,0.1,0.8,0.3
					c0.2,0.2,0.3,0.5,0.3,0.8c0,0.3-0.1,0.6-0.3,0.8C440.8,133.6,440.5,133.7,440.2,133.7z M439.4,129.6v-9.7h1.6v9.7H439.4z"/>
				<path class="st4" d="M448.3,129.6v-9.7h1.4l0.1,1.4h0.1c0.4-0.5,0.9-0.9,1.4-1.2c0.5-0.3,1-0.5,1.6-0.5c0.7,0,1.3,0.2,1.8,0.5
					c0.4,0.3,0.7,0.8,0.9,1.4c0.5-0.6,1-1,1.5-1.4c0.5-0.3,1.1-0.5,1.7-0.5c1,0,1.7,0.3,2.2,1s0.7,1.6,0.7,2.8v6.2h-1.6v-5.9
					c0-0.9-0.1-1.6-0.4-2c-0.3-0.4-0.7-0.6-1.4-0.6c-0.7,0-1.5,0.5-2.4,1.5v7h-1.6v-5.9c0-0.9-0.1-1.6-0.4-2
					c-0.3-0.4-0.8-0.6-1.4-0.6c-0.7,0-1.5,0.5-2.4,1.5v7H448.3z"/>
				<path class="st4" d="M467.1,129.9c-0.8,0-1.5-0.2-2-0.7c-0.5-0.5-0.8-1.2-0.8-2c0-1.1,0.5-1.9,1.4-2.5c0.9-0.6,2.5-1,4.5-1.2
					c0-0.3,0-0.6-0.1-0.9c-0.1-0.3-0.2-0.6-0.3-0.8c-0.1-0.2-0.4-0.4-0.6-0.5c-0.3-0.1-0.6-0.2-1-0.2c-0.6,0-1.1,0.1-1.6,0.3
					c-0.5,0.2-0.9,0.5-1.3,0.7l-0.6-1.1c0.5-0.3,1-0.6,1.7-0.8s1.4-0.4,2.2-0.4c1.2,0,2,0.4,2.6,1.1s0.8,1.7,0.8,2.9v6h-1.4
					l-0.1-1.2h-0.1c-0.5,0.4-1,0.7-1.5,1C468.3,129.7,467.7,129.9,467.1,129.9z M467.6,128.6c0.5,0,0.9-0.1,1.3-0.3
					c0.4-0.2,0.9-0.5,1.3-1v-2.7c-0.8,0.1-1.5,0.2-2,0.4c-0.6,0.1-1,0.3-1.3,0.5c-0.3,0.2-0.6,0.4-0.7,0.7s-0.2,0.5-0.2,0.9
					c0,0.6,0.2,1,0.5,1.2C466.7,128.4,467.1,128.6,467.6,128.6z M468.2,118.2l-0.8-0.8l2.8-3.3l1.2,1.1L468.2,118.2z"/>
				<path class="st4" d="M475.1,133.8c-0.2,0-0.4,0-0.6,0c-0.2,0-0.4-0.1-0.5-0.1l0.3-1.3c0.1,0,0.2,0.1,0.4,0.1
					c0.1,0,0.3,0.1,0.4,0.1c0.6,0,1-0.2,1.4-0.6c0.4-0.4,0.6-0.9,0.8-1.5l0.2-0.7l-3.9-9.7h1.7l2,5.4c0.1,0.4,0.3,0.9,0.5,1.3
					c0.2,0.5,0.3,0.9,0.5,1.4h0.1c0.1-0.4,0.3-0.9,0.4-1.4c0.1-0.5,0.3-0.9,0.4-1.4l1.7-5.4h1.6l-3.7,10.5c-0.2,0.5-0.4,0.9-0.6,1.3
					c-0.2,0.4-0.5,0.8-0.8,1.1c-0.3,0.3-0.6,0.5-1,0.7C476,133.7,475.6,133.8,475.1,133.8z"/>
				<path class="st4" d="M491.4,129.9c-0.5,0-1-0.1-1.3-0.2c-0.4-0.2-0.6-0.4-0.9-0.7s-0.4-0.6-0.5-1c-0.1-0.4-0.1-0.8-0.1-1.3v-5.4
					h-1.4V120l1.5-0.1l0.2-2.7h1.4v2.7h2.6v1.3h-2.6v5.4c0,0.6,0.1,1.1,0.3,1.4s0.6,0.5,1.2,0.5c0.2,0,0.4,0,0.6-0.1
					c0.2-0.1,0.4-0.1,0.5-0.2l0.3,1.2c-0.3,0.1-0.6,0.2-0.9,0.2S491.7,129.9,491.4,129.9z"/>
				<path class="st4" d="M495.6,118.2l-0.8-0.8l2.8-3.3l1.2,1.1L495.6,118.2z M495.1,129.6v-9.7h1.6v9.7H495.1z"/>
				<path class="st4" d="M500,129.6v-9.7h1.4l0.1,1.4h0.1c0.5-0.5,1-0.9,1.5-1.2c0.5-0.3,1.1-0.5,1.8-0.5c1,0,1.8,0.3,2.2,1
					s0.7,1.6,0.7,2.8v6.2h-1.6v-5.9c0-0.9-0.1-1.6-0.4-2c-0.3-0.4-0.8-0.6-1.4-0.6c-0.5,0-1,0.1-1.3,0.4c-0.4,0.3-0.8,0.6-1.3,1.1v7
					H500z"/>
				<path class="st4" d="M510.9,129.6v-14.2h1.6v3.9l-0.1,2c0.5-0.4,1-0.8,1.5-1.1c0.5-0.3,1.1-0.5,1.8-0.5c1,0,1.8,0.3,2.2,1
					c0.5,0.6,0.7,1.6,0.7,2.8v6.2h-1.6v-5.9c0-0.9-0.1-1.6-0.4-2c-0.3-0.4-0.8-0.6-1.4-0.6c-0.5,0-1,0.1-1.3,0.4
					c-0.4,0.3-0.8,0.6-1.3,1.1v7H510.9z"/>
			</g>
			<g class="st1">
				<path class="st4" d="M527.9,129.6l-3.5-9.7h1.7l1.8,5.5c0.1,0.5,0.3,1,0.5,1.4c0.2,0.5,0.3,1,0.5,1.4h0.1
					c0.1-0.5,0.3-0.9,0.4-1.4c0.1-0.5,0.3-1,0.4-1.4l1.8-5.5h1.6l-3.4,9.7H527.9z"/>
			</g>
			<g class="st1">
				<path class="st4" d="M537,129.9c-0.8,0-1.5-0.2-2-0.7c-0.5-0.5-0.8-1.2-0.8-2c0-1.1,0.5-1.9,1.4-2.5c0.9-0.6,2.5-1,4.5-1.2
					c0-0.3,0-0.6-0.1-0.9c-0.1-0.3-0.2-0.6-0.3-0.8c-0.1-0.2-0.4-0.4-0.6-0.5c-0.3-0.1-0.6-0.2-1-0.2c-0.6,0-1.1,0.1-1.6,0.3
					c-0.5,0.2-0.9,0.5-1.3,0.7l-0.6-1.1c0.5-0.3,1-0.6,1.7-0.8s1.4-0.4,2.2-0.4c1.2,0,2,0.4,2.6,1.1s0.8,1.7,0.8,2.9v6h-1.4
					l-0.1-1.2h-0.1c-0.5,0.4-1,0.7-1.5,1C538.2,129.7,537.6,129.9,537,129.9z M538.6,118.2l-3.1-3.1l1.2-1.1l2.8,3.3L538.6,118.2z
					 M537.5,128.6c0.5,0,0.9-0.1,1.3-0.3c0.4-0.2,0.9-0.5,1.3-1v-2.7c-0.8,0.1-1.5,0.2-2,0.4c-0.6,0.1-1,0.3-1.3,0.5
					c-0.3,0.2-0.6,0.4-0.7,0.7s-0.2,0.5-0.2,0.9c0,0.6,0.2,1,0.5,1.2C536.6,128.4,537,128.6,537.5,128.6z"/>
				<path class="st4" d="M552.1,129.9c-1.2,0-2.2-0.4-2.9-1.3s-1.1-2.1-1.1-3.8c0-0.8,0.1-1.5,0.3-2.1c0.2-0.6,0.5-1.2,0.9-1.6
					c0.4-0.4,0.8-0.8,1.3-1c0.5-0.2,1-0.4,1.6-0.4c0.6,0,1,0.1,1.5,0.3s0.8,0.5,1.3,0.8l-0.1-1.7v-3.7h1.7v14.2h-1.4l-0.1-1.1h-0.1
					c-0.4,0.4-0.8,0.7-1.3,1S552.7,129.9,552.1,129.9z M552.5,128.5c0.5,0,0.9-0.1,1.3-0.3c0.4-0.2,0.8-0.6,1.2-1v-5.1
					c-0.4-0.4-0.8-0.6-1.2-0.8s-0.8-0.2-1.2-0.2c-0.4,0-0.8,0.1-1.1,0.3c-0.3,0.2-0.6,0.4-0.9,0.8s-0.5,0.7-0.6,1.2
					c-0.1,0.5-0.2,1-0.2,1.5c0,1.2,0.2,2.1,0.7,2.7S551.6,128.5,552.5,128.5z"/>
				<path class="st4" d="M560.8,117.9c-0.3,0-0.6-0.1-0.8-0.3c-0.2-0.2-0.3-0.5-0.3-0.8c0-0.3,0.1-0.6,0.3-0.8
					c0.2-0.2,0.5-0.3,0.8-0.3c0.3,0,0.6,0.1,0.8,0.3s0.3,0.5,0.3,0.8c0,0.3-0.1,0.6-0.3,0.8C561.3,117.8,561.1,117.9,560.8,117.9z
					 M559.9,129.6v-9.7h1.6v9.7H559.9z"/>
				<path class="st4" d="M572.1,129.9c-1.2,0-2.2-0.4-2.9-1.2c-0.7-0.8-1.1-2-1.1-3.5c0-0.7,0.1-1.4,0.3-2s0.5-1.1,0.9-1.5
					c0.4-0.4,0.8-0.7,1.3-1c0.5-0.2,1-0.3,1.6-0.3c0.6,0,1,0.1,1.5,0.3c0.4,0.2,0.8,0.5,1.3,0.8l-0.1-1.7v-1.7h-3.2v-1h3.2v-1.9h1.7
					v1.9h1.4v0.9l-1.4,0.1v11.4h-1.4l-0.1-1.1h-0.1c-0.4,0.4-0.8,0.7-1.3,0.9C573.3,129.8,572.7,129.9,572.1,129.9z M572.5,128.5
					c0.5,0,0.9-0.1,1.3-0.3c0.4-0.2,0.8-0.6,1.2-1v-4.3c-0.4-0.4-0.8-0.6-1.2-0.8c-0.4-0.2-0.8-0.2-1.2-0.2c-0.4,0-0.8,0.1-1.1,0.2
					c-0.3,0.2-0.6,0.4-0.9,0.7c-0.3,0.3-0.5,0.6-0.6,1.1c-0.1,0.4-0.2,0.8-0.2,1.3c0,1,0.2,1.8,0.7,2.4S571.7,128.5,572.5,128.5z"/>
				<path class="st4" d="M583.7,129.9c-0.6,0-1.2-0.1-1.7-0.3s-1-0.6-1.4-1s-0.7-1-1-1.6c-0.2-0.6-0.4-1.3-0.4-2.1
					c0-0.8,0.1-1.5,0.4-2.2c0.2-0.6,0.6-1.2,1-1.6c0.4-0.4,0.9-0.8,1.4-1s1.1-0.3,1.7-0.3c0.6,0,1.2,0.1,1.7,0.3s1,0.6,1.4,1
					c0.4,0.4,0.7,1,1,1.6c0.2,0.6,0.4,1.4,0.4,2.2c0,0.8-0.1,1.5-0.4,2.1c-0.2,0.6-0.6,1.2-1,1.6c-0.4,0.4-0.9,0.8-1.4,1
					S584.3,129.9,583.7,129.9z M580.6,117.6l2.3-2.8h1.6l2.3,2.8l-0.7,0.6l-2.4-2.3h-0.1l-2.4,2.3L580.6,117.6z M583.7,128.5
					c0.4,0,0.8-0.1,1.1-0.3c0.3-0.2,0.6-0.4,0.9-0.8c0.2-0.3,0.4-0.7,0.6-1.2c0.1-0.5,0.2-1,0.2-1.5c0-0.6-0.1-1.1-0.2-1.5
					c-0.1-0.5-0.3-0.9-0.6-1.2c-0.2-0.3-0.5-0.6-0.9-0.8c-0.3-0.2-0.7-0.3-1.1-0.3s-0.8,0.1-1.1,0.3s-0.6,0.4-0.9,0.8
					c-0.2,0.3-0.4,0.7-0.6,1.2c-0.1,0.5-0.2,1-0.2,1.5c0,0.6,0.1,1.1,0.2,1.5c0.1,0.5,0.3,0.8,0.6,1.2c0.2,0.3,0.5,0.6,0.9,0.8
					C582.9,128.4,583.3,128.5,583.7,128.5z M583.7,133.7c-0.3,0-0.6-0.1-0.8-0.3s-0.3-0.5-0.3-0.8c0-0.3,0.1-0.6,0.3-0.8
					s0.5-0.3,0.8-0.3s0.6,0.1,0.8,0.3s0.3,0.5,0.3,0.8c0,0.3-0.1,0.6-0.3,0.8S584,133.7,583.7,133.7z"/>
				<path class="st4" d="M590.8,129.6v-9.7h1.4l0.1,1.4h0.1c0.5-0.5,1-0.9,1.5-1.2c0.5-0.3,1.1-0.5,1.8-0.5c1,0,1.8,0.3,2.2,1
					s0.7,1.6,0.7,2.8v6.2h-1.6v-5.9c0-0.9-0.1-1.6-0.4-2c-0.3-0.4-0.8-0.6-1.4-0.6c-0.5,0-1,0.1-1.3,0.4c-0.4,0.3-0.8,0.6-1.3,1.1v7
					H590.8z"/>
				<path class="st4" d="M605,134.1c-0.6,0-1.1-0.1-1.6-0.2s-0.9-0.3-1.3-0.5s-0.6-0.5-0.8-0.8c-0.2-0.3-0.3-0.7-0.3-1.1
					c0-0.4,0.1-0.8,0.4-1.2c0.3-0.4,0.6-0.7,1-1v-0.1c-0.2-0.1-0.4-0.3-0.6-0.6c-0.2-0.3-0.2-0.6-0.2-1c0-0.4,0.1-0.8,0.3-1.1
					s0.5-0.5,0.7-0.7v-0.1c-0.3-0.3-0.6-0.6-0.9-1.1c-0.3-0.4-0.4-1-0.4-1.5c0-0.5,0.1-1,0.3-1.4c0.2-0.4,0.5-0.8,0.8-1.1
					c0.3-0.3,0.7-0.5,1.2-0.7c0.4-0.2,0.9-0.2,1.4-0.2c0.3,0,0.5,0,0.8,0.1s0.4,0.1,0.6,0.2h3.4v1.3h-2c0.2,0.2,0.4,0.5,0.6,0.9
					s0.2,0.7,0.2,1.1c0,0.5-0.1,1-0.3,1.4c-0.2,0.4-0.4,0.8-0.8,1.1c-0.3,0.3-0.7,0.5-1.1,0.7s-0.9,0.2-1.4,0.2
					c-0.2,0-0.5,0-0.7-0.1c-0.3-0.1-0.5-0.1-0.7-0.2c-0.2,0.1-0.3,0.3-0.4,0.5c-0.1,0.2-0.2,0.4-0.2,0.7c0,0.3,0.1,0.6,0.4,0.8
					c0.2,0.2,0.7,0.3,1.4,0.3h1.9c1.1,0,2,0.2,2.6,0.5c0.6,0.4,0.8,1,0.8,1.8c0,0.5-0.1,0.9-0.3,1.3c-0.2,0.4-0.6,0.8-1,1.1
					c-0.4,0.3-0.9,0.5-1.5,0.7S605.7,134.1,605,134.1z M605.2,133c0.5,0,0.9-0.1,1.3-0.2s0.7-0.3,1-0.4c0.3-0.2,0.5-0.4,0.6-0.6
					c0.1-0.2,0.2-0.5,0.2-0.7c0-0.5-0.2-0.8-0.5-0.9c-0.3-0.2-0.8-0.3-1.5-0.3h-1.7c-0.2,0-0.4,0-0.6,0c-0.2,0-0.4-0.1-0.7-0.1
					c-0.3,0.3-0.6,0.5-0.8,0.8s-0.2,0.6-0.2,0.8c0,0.5,0.2,0.9,0.8,1.2S604.3,133,605.2,133z M605,125.5c0.3,0,0.5-0.1,0.8-0.2
					c0.2-0.1,0.5-0.3,0.7-0.5c0.2-0.2,0.3-0.4,0.4-0.7c0.1-0.3,0.2-0.6,0.2-1c0-0.7-0.2-1.3-0.6-1.7c-0.4-0.4-0.9-0.6-1.5-0.6
					s-1.1,0.2-1.5,0.6c-0.4,0.4-0.6,1-0.6,1.7c0,0.4,0.1,0.7,0.2,1c0.1,0.3,0.3,0.5,0.5,0.7s0.4,0.4,0.7,0.5
					C604.4,125.4,604.7,125.5,605,125.5z"/>
			</g>
			
				<linearGradient id="SVGID_1_" gradientUnits="userSpaceOnUse" x1="34.25" y1="78.375" x2="765" y2="78.375" gradientTransform="matrix(1 0 0 -1 0 182)">
				<stop  offset="0" style="stop-color:#F34000"/>
				<stop  offset="0.74" style="stop-color:#F34000"/>
			</linearGradient>
			<path class="st5" d="M743.9,179.9H55.3c-11.6,0-21.1-9.7-21.1-21.6V48.9c0-11.9,9.5-21.6,21.1-21.6h688.6
				c11.6,0,21.1,9.7,21.1,21.6v109.4C765,170.2,755.5,179.9,743.9,179.9z M55.3,35.6c-7.3,0.1-13.1,6-13,13.3v109.4
				c-0.1,7.3,5.7,13.2,13,13.3h688.6c7.3-0.1,13.1-6,13-13.3c0,0,0,0,0,0V48.9c0.1-7.3-5.7-13.2-13-13.3H55.3z"/>
			<path class="st6" d="M34.8,43.7l8.2,0.8c0,0,3-7.2,7.9-8.2l-1.2-8.3C49.7,27.9,38.6,29.9,34.8,43.7z"/>
			<polygon class="st7" points="36.2,39.7 43.9,42.3 45.2,40.5 39.1,34.9 			"/>
			<polygon class="st7" points="47.2,38.6 42.3,31.8 44.1,30.4 48,38 			"/>
			<polygon class="st7" points="39.7,34.1 45.7,39.9 46.3,39.4 40.5,33.3 			"/>
			<polygon class="st6" points="34,132.4 42.1,130.9 42.1,84.1 34,81.6 			"/>
			<polygon class="st7" points="34,120.4 42.5,119 42.5,114.1 34,114.9 			"/>
			<polygon class="st7" points="34,128.5 42.5,127 42.5,122.1 34,122.9 			"/>
			<polygon class="st7" points="42.5,111.6 34,112.3 34,111 42.5,110.2 			"/>
			<polygon class="st7" points="42.3,92.5 34,90.4 33.8,91.7 42.1,93.8 			"/>
			<polygon class="st7" points="34,97.3 42.5,98.9 42.5,95.7 34,93.3 			"/>
			<path class="st8" d="M743.9,179.8H55.3c-11.6,0-21.1-9.7-21.1-21.6V48.7c0-11.9,9.5-21.6,21.1-21.6h688.6
				c11.6,0,21.1,9.7,21.1,21.6v109.4C765,170.1,755.5,179.8,743.9,179.8z M55.3,35.4c-7.3,0.1-13.1,6-13,13.3v109.4
				c-0.1,7.3,5.7,13.2,13,13.3h688.6c7.3-0.1,13.1-6,13-13.3V48.7c0.1-7.3-5.7-13.2-13-13.3L55.3,35.4z"/>
			<path class="st9" d="M34.3,5.7c0,0,10,5.6,13.7,12.4s4.4,15.6,4.4,15.6l-5.2,5.7C47.3,39.5,26.3,28,34.3,5.7z"/>
			<path class="st9" d="M10.2,32.4c0,0,6.6,9.4,13.7,12.4s16,2.9,16,2.9l5.2-5.7C45.1,42,31.5,22.2,10.2,32.4z"/>
			<path class="st10" d="M10.2,32.4l32.8,12l3.3-3.6C46.3,40.8,24.8,22.2,10.2,32.4z"/>
			<path class="st10" d="M34.1,5.9l15.2,31.4L46,41C46,41,25.4,21.5,34.1,5.9z"/>
			
				<linearGradient id="SVGID_2_" gradientUnits="userSpaceOnUse" x1="-987.0374" y1="644.307" x2="-924.6657" y2="644.307" gradientTransform="matrix(0.6712 -0.7413 -0.7413 -0.6712 1150.1274 -249.1559)">
				<stop  offset="0" style="stop-color:#FFCA27"/>
				<stop  offset="0.62" style="stop-color:#FFA727"/>
			</linearGradient>
			<path class="st11" d="M43.7,25.4c0,0-16.2-11.7-28.1-12.4c1.9,11.9,15.1,26.8,15.1,26.8c-9.9-3-24.9,6.4-24.9,6.4
				c8,1,26.5,10.2,26.5,10.2l28.1-31.1c0,0-10.9-17.5-12.7-25.3C47.7,0,39.8,15.9,43.7,25.4z"/>
			<path class="st12" d="M7.3,45.7c0.1,2-1.4,3.8-3.4,3.9c-2,0.1-3.8-1.4-3.9-3.4c-0.1-2,1.4-3.8,3.4-3.9
				C5.4,42.2,7.1,43.7,7.3,45.7z"/>
			<path class="st13" d="M5,42.6c1.1,1.7,0.7,3.9-1,5.1c-1,0.7-2.3,0.8-3.4,0.4c1.1,1.7,3.4,2.1,5.1,1c1.7-1.1,2.1-3.4,1-5.1
				C6.3,43.3,5.7,42.9,5,42.6z"/>
			
				<linearGradient id="SVGID_3_" gradientUnits="userSpaceOnUse" x1="-967.1729" y1="640.9987" x2="-974.3629" y2="636.2388" gradientTransform="matrix(0.6712 -0.7413 -0.7413 -0.6712 1150.1274 -249.1559)">
				<stop  offset="0" style="stop-color:#FFCA27"/>
				<stop  offset="0.93" style="stop-color:#FF9D27"/>
			</linearGradient>
			<path class="st14" d="M7.3,46.3c0,0,18.6-4.3,30.5,4l4.3-4.7c0,0-16.2-14.5-34.9-0.6L7.3,46.3z"/>
			
				<linearGradient id="SVGID_4_" gradientUnits="userSpaceOnUse" x1="-944.1212" y1="640.2664" x2="-937.1712" y2="636.2264" gradientTransform="matrix(0.6712 -0.7413 -0.7413 -0.6712 1150.1274 -249.1559)">
				<stop  offset="0" style="stop-color:#FFCA27"/>
				<stop  offset="0.93" style="stop-color:#FF9D27"/>
			</linearGradient>
			<path class="st15" d="M47.9,1.4c0,0-2.4,18.9,7,30l-4.3,4.7c0,0-16-14.7-4-34.7L47.9,1.4z"/>
			
				<linearGradient id="SVGID_5_" gradientUnits="userSpaceOnUse" x1="-945.7962" y1="645.4163" x2="-956.9662" y2="643.2163" gradientTransform="matrix(0.6712 -0.7413 -0.7413 -0.6712 1150.1274 -249.1559)">
				<stop  offset="0" style="stop-color:#FFCA27"/>
				<stop  offset="0.93" style="stop-color:#FF9D27"/>
			</linearGradient>
			<path class="st16" d="M15.6,13l30.7,27.9l5.9-6.5C52.2,34.3,37.6,14.6,15.6,13z"/>
			<path class="st17" d="M17.3,14.6l29,26.3l1.8-2C48.1,38.9,33.5,23.3,17.3,14.6z"/>
			<path class="st17" d="M7.3,46.2c10.4-4.3,22.3-3.4,31.9,2.5l-1.3,1.5C37.8,50.2,28.4,42.2,7.3,46.2z"/>
			<path class="st17" d="M47.8,1.5c-3.3,10.8-1.2,22.5,5.7,31.5l1.3-1.5C54.8,31.5,45.8,22.9,47.8,1.5z"/>
			
				<linearGradient id="SVGID_6_" gradientUnits="userSpaceOnUse" x1="-955.5314" y1="623.801" x2="-955.5314" y2="620.441" gradientTransform="matrix(0.6712 -0.7413 -0.7413 -0.6712 1150.1274 -249.1559)">
				<stop  offset="0" style="stop-color:#FFCA27"/>
				<stop  offset="0.93" style="stop-color:#FF9D27"/>
			</linearGradient>
			<path class="st18" d="M31.9,56.8c0,0-0.8,0.5,1.6,2.7L64,25.7c0,0-2.2-1.9-2.9-1.1L31.9,56.8z"/>
			<circle class="st19" cx="34" cy="56.6" r="1.1"/>
			<circle class="st19" cx="36.4" cy="54" r="1.1"/>
			<circle class="st19" cx="38.8" cy="51.3" r="1.1"/>
			<circle class="st19" cx="41.3" cy="48.6" r="1.1"/>
			<circle class="st19" cx="43.5" cy="46.1" r="1.1"/>
			<circle class="st19" cx="45.9" cy="43.6" r="1.1"/>
			<circle class="st19" cx="48.1" cy="41.1" r="1.1"/>
			<circle class="st19" cx="50.4" cy="38.6" r="1.1"/>
			<circle class="st19" cx="52.7" cy="36" r="1.1"/>
			<circle class="st19" cx="55" cy="33.5" r="1.1"/>
			<circle class="st19" cx="57.2" cy="31" r="1.1"/>
			
				<rect x="26.2" y="42.5" transform="matrix(0.6712 -0.7413 0.7413 0.6712 -15.6417 50.4292)" class="st20" width="45.6" height="0.8"/>
			<circle class="st21" cx="57.2" cy="30.5" r="0.4"/>
			<circle class="st21" cx="54.9" cy="33.1" r="0.4"/>
			<circle class="st21" cx="52.6" cy="35.7" r="0.4"/>
			<circle class="st21" cx="50.3" cy="38.2" r="0.4"/>
			<circle class="st21" cx="48.1" cy="40.7" r="0.4"/>
			<circle class="st21" cx="45.5" cy="43.5" r="0.4"/>
			<circle class="st21" cx="43.1" cy="46.2" r="0.4"/>
			<circle class="st21" cx="40.9" cy="48.6" r="0.4"/>
			<circle class="st21" cx="38.5" cy="51.3" r="0.4"/>
			<circle class="st21" cx="35.9" cy="54.1" r="0.4"/>
			<circle class="st21" cx="33.6" cy="56.6" r="0.4"/>
		</g>
	</g>
</g>
</svg>
