<svg xmlns="http://www.w3.org/2000/svg" xmlns:xlink="http://www.w3.org/1999/xlink" viewBox="0 0 753.5 337.29"><defs><style>.cls-1{isolation:isolate;}.cls-2{fill:#fff;}.cls-3{font-size:28px;fill:#6d0000;font-family:Arial-BoldMT, Arial;font-weight:700;}.cls-4{font-size:20px;fill:#ff8b00;}.cls-4,.cls-8{font-family:SourceSansPro-Regular, Source Sans Pro;}.cls-5,.cls-6{fill:#dd1b24;font-family:ArialMT, Arial;}.cls-6,.cls-7{letter-spacing:-0.07em;}.cls-9{fill:url(#linear-gradient);}.cls-10{fill:#ffdc7c;}.cls-11{fill:#fff6e6;}.cls-12{fill:none;stroke:#d47f02;stroke-miterlimit:10;}.cls-13{fill:#f98526;mix-blend-mode:multiply;}.cls-14{fill:#ff9d27;}.cls-15{fill:url(#linear-gradient-2);}.cls-16{fill:#ffdc01;}.cls-17{fill:#ffb703;}.cls-18{fill:url(#linear-gradient-3);}.cls-19{fill:url(#linear-gradient-4);}.cls-20{fill:url(#linear-gradient-5);}.cls-21,.cls-23,.cls-25{fill:#fff876;}.cls-21{opacity:0.86;}.cls-22{fill:url(#linear-gradient-6);}.cls-23{opacity:0.35;}.cls-24{fill:#e5890e;}.cls-25{opacity:0.52;}</style><linearGradient id="linear-gradient" x1="34.25" y1="185.49" x2="753" y2="185.49" gradientUnits="userSpaceOnUse"><stop offset="0" stop-color="#f34000"/><stop offset="0.74" stop-color="#f34000"/></linearGradient><linearGradient id="linear-gradient-2" x1="-761.89" y1="390.25" x2="-699.5" y2="390.25" gradientTransform="translate(232.09 -771.27) rotate(-47.84)" gradientUnits="userSpaceOnUse"><stop offset="0" stop-color="#ffca27"/><stop offset="0.62" stop-color="#ffa727"/></linearGradient><linearGradient id="linear-gradient-3" x1="-742.03" y1="393.57" x2="-749.22" y2="398.32" gradientTransform="translate(232.09 -771.27) rotate(-47.84)" gradientUnits="userSpaceOnUse"><stop offset="0" stop-color="#ffca27"/><stop offset="0.93" stop-color="#ff9d27"/></linearGradient><linearGradient id="linear-gradient-4" x1="-718.95" y1="394.28" x2="-712" y2="398.32" xlink:href="#linear-gradient-3"/><linearGradient id="linear-gradient-5" x1="-720.65" y1="389.14" x2="-731.82" y2="391.34" xlink:href="#linear-gradient-3"/><linearGradient id="linear-gradient-6" x1="-730.36" y1="410.78" x2="-730.36" y2="414.14" xlink:href="#linear-gradient-3"/></defs><g class="cls-1"><g id="Layer_2" data-name="Layer 2"><g id="Layer_1-2" data-name="Layer 1"><rect class="cls-2" x="36.29" y="40.75" width="714.67" height="293.02" rx="16.85"/><text class="cls-3" transform="translate(75.67 90.63)">5. THỂ LỆ CHƯƠNG TRÌNH</text><text class="cls-4" transform="translate(75.88 126.77)"><tspan xml:space="preserve">◆  </tspan><tspan class="cls-5" x="25.9" y="0">Chương trình Vòng Quay Catback diễn ra liên tục trong vòng 14 ngày</tspan></text><text class="cls-4" transform="translate(76.85 165.9)"><tspan xml:space="preserve">◆  </tspan><tspan class="cls-5" x="25.9" y="0">Mỗi người chơi sẽ có 2 lượt quay / ngà</tspan><tspan class="cls-6" x="372.18" y="0">y</tspan><tspan class="cls-5" x="380.69" y="0">. Riêng với tài khoản chơi lần </tspan><tspan class="cls-5"><tspan x="0" y="30">đầu sẽ nhận được 3 lượt quay / ngà</tspan><tspan class="cls-7" x="320.99" y="30">y</tspan><tspan x="329.5" y="30">. Các lượt này không được cộng </tspan><tspan x="0" y="60">dồn sang ngày tiếp theo </tspan></tspan></text><text class="cls-4" transform="translate(75.67 256.81)"><tspan xml:space="preserve">◆  </tspan><tspan class="cls-5" x="25.9" y="0">Tất cả người chơi có thể nhận thêm lượt bằng cách chia sẻ thông tin </tspan><tspan class="cls-5"><tspan x="0" y="30">chương trình lên Facebook cá nhân ở chế độ công khai (tối đa 2 lượt </tspan><tspan x="0" y="60">quay / ngày)</tspan><tspan class="cls-8" x="110.07" y="60"> </tspan></tspan></text><path class="cls-9" d="M731.94,336.79H55.32c-11.62,0-21.07-9.68-21.07-21.58V55.77c0-11.9,9.45-21.58,21.07-21.58H731.94c11.61,0,21.06,9.68,21.06,21.58V315.21C753,327.11,743.55,336.79,731.94,336.79ZM55.32,42.47a13.17,13.17,0,0,0-13,13.3V315.21a13.17,13.17,0,0,0,13,13.3H731.94a13.16,13.16,0,0,0,13-13.3V55.77a13.16,13.16,0,0,0-13-13.3Z"/><path class="cls-10" d="M736.9,34.79l-.81,8.38s7.06,3,8,8.07l8.11-1.19S750.28,38.66,736.9,34.79Z"/><polygon class="cls-11" points="740.79 36.26 738.22 44.14 739.94 45.47 745.41 39.19 740.79 36.26"/><polygon class="cls-11" points="741.82 47.54 748.52 42.47 749.86 44.29 742.43 48.37 741.82 47.54"/><polygon class="cls-11" points="746.19 39.86 740.54 45.95 741.06 46.61 747.03 40.67 746.19 39.86"/><path class="cls-10" d="M752.19,320.55l-8.17-.83s-3,7.23-7.88,8.25l1.16,8.31S748.42,334.27,752.19,320.55Z"/><polygon class="cls-11" points="750.76 324.54 743.08 321.91 741.77 323.66 747.9 329.27 750.76 324.54"/><polygon class="cls-11" points="739.76 325.59 744.7 332.45 742.93 333.83 738.94 326.22 739.76 325.59"/><polygon class="cls-11" points="747.25 330.07 741.31 324.28 740.66 324.81 746.46 330.93 747.25 330.07"/><polygon class="cls-10" points="753 171.77 744.92 173.35 744.92 280.14 753 282.65 753 171.77"/><polygon class="cls-11" points="753 183.79 744.45 185.25 744.45 190.14 753 189.34 753 183.79"/><polygon class="cls-11" points="753 175.73 744.45 177.19 744.45 182.07 753 181.28 753 175.73"/><polygon class="cls-11" points="744.45 192.65 753 191.86 753 193.18 744.45 193.97 744.45 192.65"/><polygon class="cls-11" points="744.7 271.67 753.03 273.79 753.23 272.48 744.89 270.37 744.7 271.67"/><polygon class="cls-11" points="753 266.92 744.45 265.27 744.45 268.51 753 270.95 753 266.92"/><path class="cls-10" d="M50.09,336.28l.82-8.37s-7.07-3.06-8.06-8.07L34.74,321S36.71,332.42,50.09,336.28Z"/><polygon class="cls-11" points="46.2 334.82 48.77 326.94 47.05 325.61 41.58 331.89 46.2 334.82"/><polygon class="cls-11" points="45.17 323.54 38.48 328.61 37.13 326.79 44.56 322.7 45.17 323.54"/><polygon class="cls-11" points="40.8 331.21 46.45 325.13 45.93 324.46 39.96 330.41 40.8 331.21"/><path class="cls-10" d="M34.8,50.52l8.17.84s3-7.24,7.88-8.26l-1.16-8.31S38.57,36.81,34.8,50.52Z"/><polygon class="cls-11" points="36.23 46.53 43.91 49.17 45.22 47.41 39.09 41.81 36.23 46.53"/><polygon class="cls-11" points="47.23 45.49 42.29 38.62 44.06 37.25 48.05 44.85 47.23 45.49"/><polygon class="cls-11" points="39.74 41 45.68 46.79 46.33 46.26 40.53 40.15 39.74 41"/><polygon class="cls-10" points="33.99 289.31 42.07 287.72 42.07 180.94 33.99 178.43 33.99 289.31"/><polygon class="cls-11" points="33.99 277.28 42.54 275.83 42.54 270.94 33.99 271.73 33.99 277.28"/><polygon class="cls-11" points="33.99 285.34 42.54 283.89 42.54 279 33.99 279.79 33.99 285.34"/><polygon class="cls-11" points="42.54 268.43 33.99 269.22 33.99 267.9 42.54 267.11 42.54 268.43"/><polygon class="cls-11" points="42.3 189.4 33.96 187.29 33.76 188.6 42.1 190.71 42.3 189.4"/><polygon class="cls-11" points="33.99 194.15 42.54 195.81 42.54 192.57 33.99 190.12 33.99 194.15"/><polygon class="cls-10" points="621.14 336.57 612.2 328.28 126.47 328.74 119.64 336.57 621.14 336.57"/><polygon class="cls-11" points="502.61 336.57 488.28 328.28 440.08 328.28 447.89 336.57 502.61 336.57"/><polygon class="cls-11" points="582.07 336.57 567.74 328.28 519.54 328.28 527.36 336.57 582.07 336.57"/><polygon class="cls-11" points="415.33 328.28 423.14 336.57 410.12 336.57 402.3 328.28 415.33 328.28"/><polygon class="cls-11" points="227.82 328.52 207 336.6 219.87 336.79 240.69 328.71 227.82 328.52"/><polygon class="cls-11" points="274.65 336.57 290.93 328.28 259.01 328.28 234.92 336.57 274.65 336.57"/><polygon class="cls-10" points="119.64 34.08 128.58 42.37 614.31 41.91 621.14 34.08 119.64 34.08"/><polygon class="cls-11" points="238.17 34.08 252.5 42.37 300.7 42.37 292.88 34.08 238.17 34.08"/><polygon class="cls-11" points="158.71 34.08 173.04 42.37 221.24 42.37 213.42 34.08 158.71 34.08"/><polygon class="cls-11" points="325.45 42.37 317.63 34.08 330.66 34.08 338.48 42.37 325.45 42.37"/><polygon class="cls-11" points="512.96 42.13 533.78 34.05 520.91 33.86 500.08 41.94 512.96 42.13"/><polygon class="cls-11" points="466.13 34.08 449.85 42.37 481.76 42.37 505.86 34.08 466.13 34.08"/><path class="cls-12" d="M731.94,336.79H55.32c-11.62,0-21.07-9.68-21.07-21.58V55.77c0-11.9,9.45-21.58,21.07-21.58H731.94c11.61,0,21.06,9.68,21.06,21.58V315.21C753,327.11,743.55,336.79,731.94,336.79ZM55.32,42.47a13.17,13.17,0,0,0-13,13.3V315.21a13.17,13.17,0,0,0,13,13.3H731.94a13.16,13.16,0,0,0,13-13.3V55.77a13.16,13.16,0,0,0-13-13.3Z"/><path class="cls-13" d="M34.31,11.11s10,5.61,13.74,12.44,4.43,15.64,4.43,15.64l-5.17,5.72S26.32,33.33,34.31,11.11Z"/><path class="cls-13" d="M10.17,37.77s6.58,9.42,13.74,12.44,16,2.86,16,2.86l5.17-5.71S31.49,27.62,10.17,37.77Z"/><path class="cls-14" d="M10.17,37.77,43,49.79l3.28-3.63S24.84,27.56,10.17,37.77Z"/><path class="cls-14" d="M34.13,11.31l15.2,31.42-3.28,3.63S25.42,26.91,34.13,11.31Z"/><path class="cls-15" d="M43.73,30.78S27.56,19.11,15.58,18.41c1.88,11.85,15.1,26.79,15.1,26.79-9.9-3-24.89,6.43-24.89,6.43,8,1,26.46,10.15,26.46,10.15L60.39,30.7S49.49,13.21,47.67,5.38C47.67,5.38,39.75,21.23,43.73,30.78Z"/><path class="cls-16" d="M16.51,15.68a3.65,3.65,0,1,1-3.92-3.36A3.66,3.66,0,0,1,16.51,15.68Z"/><path class="cls-17" d="M14.21,12.56A3.66,3.66,0,0,1,9.85,18a3.65,3.65,0,1,0,4.36-5.44Z"/><path class="cls-16" d="M7.29,51.08a3.65,3.65,0,1,1-3.92-3.37A3.65,3.65,0,0,1,7.29,51.08Z"/><path class="cls-17" d="M5,48A3.65,3.65,0,0,1,.62,53.39,3.65,3.65,0,1,0,5,48Z"/><path class="cls-18" d="M7.29,51.64s18.59-4.27,30.53,4l4.26-4.7S25.89,36.44,7.17,50.4Z"/><path class="cls-19" d="M47.88,6.8s-2.4,18.92,7,30l-4.26,4.7s-16-14.67-4-34.68Z"/><path class="cls-16" d="M49.63,3.37A3.65,3.65,0,1,1,45.71,0,3.66,3.66,0,0,1,49.63,3.37Z"/><path class="cls-17" d="M47.33.25A3.66,3.66,0,0,1,43,5.69,3.65,3.65,0,1,0,47.33.25Z"/><path class="cls-20" d="M15.58,18.41,46.32,46.24l5.92-6.53S37.59,20,15.58,18.41Z"/><path class="cls-21" d="M17.28,20l29,26.29,1.84-2S33.54,28.66,17.28,20Z"/><path class="cls-21" d="M7.28,51.63a35,35,0,0,1,31.87,2.53l-1.31,1.45S28.36,47.54,7.28,51.63Z"/><path class="cls-21" d="M47.83,6.85A35,35,0,0,0,53.5,38.32l1.31-1.46S45.84,28.23,47.83,6.85Z"/><path class="cls-22" d="M31.86,62.21s-.84.48,1.57,2.66L64,31.06s-2.24-1.92-2.94-1.14Z"/><circle class="cls-23" cx="34.03" cy="62.02" r="1.09"/><circle class="cls-23" cx="36.39" cy="59.42" r="1.09"/><circle class="cls-23" cx="38.83" cy="56.72" r="1.09"/><circle class="cls-23" cx="41.27" cy="54.02" r="1.09"/><circle class="cls-23" cx="43.55" cy="51.51" r="1.09"/><circle class="cls-23" cx="45.86" cy="48.95" r="1.09"/><circle class="cls-23" cx="48.11" cy="46.46" r="1.09"/><circle class="cls-23" cx="50.39" cy="43.95" r="1.09"/><circle class="cls-23" cx="52.7" cy="41.4" r="1.09"/><circle class="cls-23" cx="54.95" cy="38.91" r="1.09"/><circle class="cls-23" cx="57.23" cy="36.4" r="1.09"/><circle class="cls-23" cx="59.54" cy="33.84" r="1.09"/><circle class="cls-23" cx="61.87" cy="31.26" r="1.09"/><rect class="cls-24" x="26.22" y="47.83" width="45.61" height="0.79" transform="translate(-19.63 52.2) rotate(-47.84)"/><circle class="cls-25" cx="61.88" cy="30.78" r="0.37"/><circle class="cls-25" cx="57.23" cy="35.91" r="0.37"/><circle class="cls-25" cx="54.89" cy="38.49" r="0.37"/><circle class="cls-25" cx="52.59" cy="41.03" r="0.37"/><circle class="cls-25" cx="50.33" cy="43.53" r="0.37"/><circle class="cls-25" cx="48.06" cy="46.05" r="0.37"/><circle class="cls-25" cx="45.45" cy="48.93" r="0.37"/><circle class="cls-25" cx="43.06" cy="51.56" r="0.37"/><circle class="cls-25" cx="40.9" cy="53.95" r="0.37"/><circle class="cls-25" cx="38.45" cy="56.66" r="0.37"/><circle class="cls-25" cx="35.9" cy="59.47" r="0.37"/><circle class="cls-25" cx="33.63" cy="61.98" r="0.37"/><circle class="cls-25" cx="59.49" cy="33.42" r="0.37"/></g></g></g></svg>