<svg xmlns="http://www.w3.org/2000/svg" xmlns:xlink="http://www.w3.org/1999/xlink" viewBox="0 0 765.5 179.82"><defs><style>.cls-1{fill:#c62828;}.cls-2{fill:#fff;}.cls-19,.cls-21,.cls-23,.cls-3{isolation:isolate;}.cls-4{fill:#6d0000;}.cls-5{fill:#ff8b00;}.cls-6{fill:#dd1b24;}.cls-7{fill:url(#linear-gradient);}.cls-8{fill:#ffdc7c;}.cls-9{fill:#fff6e6;}.cls-10{fill:none;stroke:#d47f02;stroke-miterlimit:10;}.cls-11{fill:#f98526;}.cls-12{fill:#ff9d27;}.cls-13{fill:url(#linear-gradient-2);}.cls-14{fill:#ffdc01;}.cls-15{fill:#ffb703;}.cls-16{fill:url(#linear-gradient-3);}.cls-17{fill:url(#linear-gradient-4);}.cls-18{fill:url(#linear-gradient-5);}.cls-19,.cls-21,.cls-23{fill:#fff876;}.cls-19{opacity:0.86;}.cls-20{fill:url(#linear-gradient-6);}.cls-21{opacity:0.35;}.cls-22{fill:#e5890e;}.cls-23{opacity:0.52;}</style><linearGradient id="linear-gradient" x1="34.25" y1="78.98" x2="765" y2="78.98" gradientTransform="matrix(1, 0, 0, -1, 0, 182)" gradientUnits="userSpaceOnUse"><stop offset="0" stop-color="#f34000"/><stop offset="0.74" stop-color="#f34000"/></linearGradient><linearGradient id="linear-gradient-2" x1="-851.39" y1="584.14" x2="-789.01" y2="584.14" gradientTransform="matrix(0.67, -0.74, -0.74, -0.67, 1014.48, -188.99)" gradientUnits="userSpaceOnUse"><stop offset="0" stop-color="#ffca27"/><stop offset="0.62" stop-color="#ffa727"/></linearGradient><linearGradient id="linear-gradient-3" x1="-831.52" y1="580.83" x2="-838.71" y2="576.07" gradientTransform="matrix(0.67, -0.74, -0.74, -0.67, 1014.48, -188.99)" gradientUnits="userSpaceOnUse"><stop offset="0" stop-color="#ffca27"/><stop offset="0.93" stop-color="#ff9d27"/></linearGradient><linearGradient id="linear-gradient-4" x1="-808.47" y1="580.1" x2="-801.52" y2="576.06" xlink:href="#linear-gradient-3"/><linearGradient id="linear-gradient-5" x1="-810.15" y1="585.25" x2="-821.32" y2="583.05" xlink:href="#linear-gradient-3"/><linearGradient id="linear-gradient-6" x1="-819.88" y1="563.63" x2="-819.88" y2="560.27" xlink:href="#linear-gradient-3"/></defs><g id="Layer_2" data-name="Layer 2"><g id="Layer_1-2" data-name="Layer 1"><g id="Layer_2-2" data-name="Layer 2"><g id="Layer_1-2-2" data-name="Layer 1-2"><rect class="cls-1" x="42.16" y="33.32" width="715.22" height="139.4" rx="16.85"/><rect class="cls-2" x="42.16" y="29.83" width="715.22" height="139.4" rx="16.85"/><g class="cls-3"><g class="cls-3"><path class="cls-4" d="M76.43,85.07V82.72c1.13-1.07,2.18-2.06,3.12-3s1.75-1.8,2.43-2.61a13.5,13.5,0,0,0,1.6-2.27,4.18,4.18,0,0,0,.57-2,2.73,2.73,0,0,0-.67-2,2.46,2.46,0,0,0-1.85-.69,2.9,2.9,0,0,0-1.73.55A9.43,9.43,0,0,0,78.47,72l-2.24-2.21a10.12,10.12,0,0,1,2.69-2.11A6.92,6.92,0,0,1,82.19,67a6.79,6.79,0,0,1,2.4.41,5.35,5.35,0,0,1,1.86,1.15,5,5,0,0,1,1.2,1.78,6.11,6.11,0,0,1,.42,2.32,5.89,5.89,0,0,1-.47,2.28,12.24,12.24,0,0,1-1.28,2.33,23,23,0,0,1-1.82,2.32c-.68.77-1.38,1.54-2.11,2.28.45,0,1-.11,1.5-.15s1-.07,1.47-.07h3.58v3.47Z"/><path class="cls-4" d="M94.37,85.41a2.33,2.33,0,0,1-1.77-.75,2.51,2.51,0,0,1-.72-1.83A2.55,2.55,0,0,1,92.6,81a2.5,2.5,0,0,1,3.55,0,2.55,2.55,0,0,1,.72,1.86,2.51,2.51,0,0,1-.72,1.83A2.35,2.35,0,0,1,94.37,85.41Z"/><path class="cls-4" d="M109.89,85.07V70.29h-5V66.81H119v3.48h-5V85.07Z"/><path class="cls-4" d="M121.9,85.07V66.81H126v7h6.3v-7h4.15V85.07h-4.15V77.45H126v7.62Z"/><path class="cls-4" d="M148.22,85.41a8.46,8.46,0,0,1-3.38-.66,7.33,7.33,0,0,1-2.61-1.89,8.61,8.61,0,0,1-1.7-3,12.36,12.36,0,0,1-.6-4,12.22,12.22,0,0,1,.6-4,8.16,8.16,0,0,1,1.7-2.94,7.16,7.16,0,0,1,2.61-1.82,8.81,8.81,0,0,1,3.38-.63,8.56,8.56,0,0,1,3.89.87,2.72,2.72,0,0,0,1.25-.68,1.83,1.83,0,0,0,.43-1.34,3.84,3.84,0,0,0-.14-1,4.22,4.22,0,0,0-.31-.78l3-1.23a4.71,4.71,0,0,1,.59,1.19,4.54,4.54,0,0,1,.25,1.55,3.42,3.42,0,0,1-.81,2.4,4.91,4.91,0,0,1-2.41,1.3,8.52,8.52,0,0,1,1.84,3,11.81,11.81,0,0,1,.66,4.13,12.09,12.09,0,0,1-.61,4,8.59,8.59,0,0,1-1.69,3,7.37,7.37,0,0,1-2.62,1.89A8.41,8.41,0,0,1,148.22,85.41ZM148.47,66l-5.12-3.33L145.53,60,150.32,64Zm-.25,15.82a3.42,3.42,0,0,0,3-1.61,7.75,7.75,0,0,0,1.09-4.38,7.39,7.39,0,0,0-1.09-4.29,3.63,3.63,0,0,0-5.94,0,7.32,7.32,0,0,0-1.09,4.29,7.67,7.67,0,0,0,1.09,4.38A3.42,3.42,0,0,0,148.22,81.85Z"/><path class="cls-4" d="M159.92,85.07V66.81H164V85.07Z"/><path class="cls-4" d="M182,85.41a10.11,10.11,0,0,1-3.51-.61A7.93,7.93,0,0,1,175.66,83a8.06,8.06,0,0,1-1.89-2.93,11,11,0,0,1-.69-4,10.86,10.86,0,0,1,.7-4,8.83,8.83,0,0,1,1.92-3,8.24,8.24,0,0,1,2.84-1.88,9.24,9.24,0,0,1,3.45-.64,7.37,7.37,0,0,1,3.41.73,8.62,8.62,0,0,1,2.33,1.65l-2.16,2.63a8.1,8.1,0,0,0-1.48-1,4.15,4.15,0,0,0-2-.42,4.63,4.63,0,0,0-1.95.41,4.44,4.44,0,0,0-1.53,1.16,5.28,5.28,0,0,0-1,1.85,8.16,8.16,0,0,0-.35,2.46,6.75,6.75,0,0,0,1.27,4.39,4.71,4.71,0,0,0,3.85,1.55,4.48,4.48,0,0,0,1.1-.14,2.1,2.1,0,0,0,.86-.42V78.15h-3V74.79H188v8.4a7.71,7.71,0,0,1-2.52,1.57A9.09,9.09,0,0,1,182,85.41Z"/><path class="cls-4" d="M191.81,85.07V66.81h4.12V85.07Z"/><path class="cls-4" d="M197.92,85.07l5.71-18.26h5l5.72,18.26h-4.37l-1.12-4.34h-5.57l-1.12,4.34Zm6.6-9.24-.44,1.68H208l-.42-1.68c-.26-.91-.52-1.89-.76-2.91s-.48-2-.73-3H206c-.22,1-.45,2-.68,3S204.79,74.92,204.52,75.83Z"/><path class="cls-4" d="M216.28,85.07V66.81h4.23l4.76,9.08,1.79,4h.12c-.1-1-.2-2.06-.33-3.25a34.12,34.12,0,0,1-.18-3.42V66.81h3.92V85.07h-4.23L221.6,76l-1.79-4h-.11c.09,1,.2,2.09.32,3.25a32.67,32.67,0,0,1,.18,3.36v6.47Z"/><path class="cls-4" d="M240.5,85.07V66.81h5.16a12.32,12.32,0,0,1,3.78.54A7.56,7.56,0,0,1,252.32,69a7.26,7.26,0,0,1,1.85,2.82,11.5,11.5,0,0,1,.64,4.06,11.75,11.75,0,0,1-.64,4.09,7.72,7.72,0,0,1-1.82,2.87,7.51,7.51,0,0,1-2.82,1.69,11.32,11.32,0,0,1-3.65.56Zm4.12-3.33h.78a6.72,6.72,0,0,0,2.13-.31,3.94,3.94,0,0,0,1.63-1,4.89,4.89,0,0,0,1.05-1.81,8.84,8.84,0,0,0,.37-2.77,8.62,8.62,0,0,0-.37-2.73,4.63,4.63,0,0,0-1.05-1.77,3.83,3.83,0,0,0-1.63-.93,7.38,7.38,0,0,0-2.13-.28h-.78Z"/><path class="cls-4" d="M258.28,85.07V66.81h4.12V85.07Z"/><path class="cls-4" d="M266.71,85.07V66.81h11.43v3.48h-7.31V74H277V77.4h-6.21v4.2h7.59v3.47Zm1.63-23.86a3.75,3.75,0,0,1,.75-2.35,2.37,2.37,0,0,1,1.85-.75,2.61,2.61,0,0,1,1,.19,6.81,6.81,0,0,1,.81.42l.66.42a1.05,1.05,0,0,0,.6.2c.48,0,.78-.37.89-1.09l2,.25a3.73,3.73,0,0,1-.75,2.35,2.37,2.37,0,0,1-1.85.76,2.61,2.61,0,0,1-1-.2,6.81,6.81,0,0,1-.81-.42l-.67-.42a1.12,1.12,0,0,0-.59-.2c-.48,0-.78.36-.89,1.07ZM270,65.89l-1.65-1.09,2.52-2.58h3.52l2.52,2.58-1.65,1.09-2.57-1.76h-.12Z"/><path class="cls-4" d="M282.06,85.07V66.81h4.22L291,75.89l1.8,4H293c-.1-1-.2-2.06-.32-3.25a31.48,31.48,0,0,1-.19-3.42V66.81h3.92V85.07h-4.22L287.38,76l-1.8-4h-.11c.09,1,.2,2.09.32,3.25A32.75,32.75,0,0,1,286,78.6v6.47Z"/></g><g class="cls-3"><path class="cls-4" d="M306.28,85.07V66.81h6.58a13.15,13.15,0,0,1,2.73.28,6.18,6.18,0,0,1,2.22.94,4.59,4.59,0,0,1,1.51,1.75,5.86,5.86,0,0,1,.56,2.72,5.8,5.8,0,0,1-.88,3.32,5.42,5.42,0,0,1-2.36,1.94l4.14,7.31h-4.62l-3.5-6.58h-2.27v6.58Zm4.11-9.86h2.13a3.88,3.88,0,0,0,2.48-.68,2.46,2.46,0,0,0,.85-2,2,2,0,0,0-.85-1.88,4.79,4.79,0,0,0-2.48-.53h-2.13Z"/></g><g class="cls-3"><path class="cls-4" d="M320.89,85.07l5.71-18.26h5l5.71,18.26H332.9l-1.12-4.34h-5.57l-1.12,4.34Zm6.61-9.24-.45,1.68h3.89l-.42-1.68c-.26-.91-.51-1.89-.75-2.91s-.49-2-.73-3h-.11c-.23,1-.45,2-.69,3S327.76,74.92,327.5,75.83Z"/></g></g><g class="cls-3"><g class="cls-3"><path class="cls-5" d="M78.43,123.15a2.24,2.24,0,0,1-.86-.17,2.15,2.15,0,0,1-.71-.49,2.31,2.31,0,0,1-.49-.76,2.55,2.55,0,0,1-.18-1,2.64,2.64,0,0,1,.18-1,2.21,2.21,0,0,1,.49-.76,2.31,2.31,0,0,1,.71-.49,2.07,2.07,0,0,1,.86-.18,2.09,2.09,0,0,1,.85.18A2.36,2.36,0,0,1,80,119a2.21,2.21,0,0,1,.49.76,2.64,2.64,0,0,1,.18,1,2.55,2.55,0,0,1-.18,1,2.31,2.31,0,0,1-.49.76,2.19,2.19,0,0,1-.72.49A2.26,2.26,0,0,1,78.43,123.15Z"/></g><g class="cls-3"><path class="cls-6" d="M90,126V114.29H86v-1.4h9.6v1.4h-4V126Z"/></g><g class="cls-3"><path class="cls-6" d="M99.75,126.25a2.63,2.63,0,0,1-2.27-1,4.78,4.78,0,0,1-.71-2.84v-6.16h1.66v5.94a3.52,3.52,0,0,0,.43,2,1.58,1.58,0,0,0,1.39.61,2.34,2.34,0,0,0,1.34-.39,6.38,6.38,0,0,0,1.28-1.25v-6.9h.42a3.18,3.18,0,0,0,.66-.18,1.55,1.55,0,0,0,.53-.34,1.59,1.59,0,0,0,.36-.56,2.32,2.32,0,0,0,.13-.84,2.24,2.24,0,0,0-.08-.57,2.77,2.77,0,0,0-.2-.53l1.28-.6a4.15,4.15,0,0,1,.33.74,2.63,2.63,0,0,1,.13.84,3,3,0,0,1-.17,1,2.5,2.5,0,0,1-.44.77,2.35,2.35,0,0,1-.62.52,4.26,4.26,0,0,1-.69.32V126h-1.36l-.14-1.52H103a6.49,6.49,0,0,1-1.43,1.28A3.21,3.21,0,0,1,99.75,126.25Zm1.12-11.7-3.14-3.06,1.16-1.1,2.82,3.34Z"/><path class="cls-6" d="M111.79,126v-9.72h1.36l.14,1.4h.06a7.86,7.86,0,0,1,1.47-1.17,3.39,3.39,0,0,1,1.79-.47,2.6,2.6,0,0,1,2.25,1,4.78,4.78,0,0,1,.71,2.84V126h-1.64v-5.94a3.51,3.51,0,0,0-.44-2,1.6,1.6,0,0,0-1.4-.61,2.42,2.42,0,0,0-1.34.38,8.38,8.38,0,0,0-1.32,1.12v7Z"/></g><g class="cls-3"><path class="cls-6" d="M126,130.49a7.51,7.51,0,0,1-1.64-.17,3.84,3.84,0,0,1-1.27-.51,2.57,2.57,0,0,1-.82-.82,2.15,2.15,0,0,1-.29-1.12,2.09,2.09,0,0,1,.38-1.18,4,4,0,0,1,1-1v-.08a2,2,0,0,1-.61-.61,1.73,1.73,0,0,1-.25-1,1.76,1.76,0,0,1,.34-1.08,3.06,3.06,0,0,1,.72-.72v-.08a4,4,0,0,1-.87-1.07,3,3,0,0,1-.39-1.55,3.53,3.53,0,0,1,.29-1.44,3.22,3.22,0,0,1,.79-1.09,3.42,3.42,0,0,1,1.17-.69,4.18,4.18,0,0,1,1.41-.24,3.54,3.54,0,0,1,.75.07,4.77,4.77,0,0,1,.63.17h3.38v1.26h-2a2.69,2.69,0,0,1,.57.86,2.87,2.87,0,0,1,.23,1.14,3.38,3.38,0,0,1-.28,1.41,3.16,3.16,0,0,1-.76,1.06,3.46,3.46,0,0,1-1.13.67,4,4,0,0,1-1.39.24,3.18,3.18,0,0,1-.74-.09,3.61,3.61,0,0,1-.72-.25,2.54,2.54,0,0,0-.44.49,1.17,1.17,0,0,0-.18.67.94.94,0,0,0,.36.76,2.21,2.21,0,0,0,1.36.3h1.88a4.74,4.74,0,0,1,2.55.55,2,2,0,0,1,.85,1.77,2.59,2.59,0,0,1-.34,1.29,3.3,3.3,0,0,1-1,1.07,5.06,5.06,0,0,1-1.55.73A7.22,7.22,0,0,1,126,130.49Zm.24-1.14a4.54,4.54,0,0,0,1.27-.17,3.48,3.48,0,0,0,1-.44,2.06,2.06,0,0,0,.62-.63,1.38,1.38,0,0,0,.22-.74,1,1,0,0,0-.5-.94,3.29,3.29,0,0,0-1.46-.26h-1.68l-.61,0a2.88,2.88,0,0,1-.65-.13,2.58,2.58,0,0,0-.76.8,1.68,1.68,0,0,0-.24.84,1.4,1.4,0,0,0,.75,1.24A3.92,3.92,0,0,0,126.25,129.35Zm-.24-7.52a1.92,1.92,0,0,0,.79-.16,2,2,0,0,0,.66-.46,2.15,2.15,0,0,0,.45-.73,2.7,2.7,0,0,0,.16-1,2.23,2.23,0,0,0-.6-1.67,2.1,2.1,0,0,0-2.92,0,2.23,2.23,0,0,0-.6,1.67,2.7,2.7,0,0,0,.16,1,2.15,2.15,0,0,0,.45.73,2,2,0,0,0,.66.46A1.92,1.92,0,0,0,126,121.83Z"/></g><g class="cls-3"><path class="cls-6" d="M134.73,126.25a3,3,0,0,1-2-.72,2.59,2.59,0,0,1-.81-2,2.69,2.69,0,0,1,1.42-2.45,11.74,11.74,0,0,1,4.54-1.19,4.43,4.43,0,0,0-.09-.9,2.24,2.24,0,0,0-.31-.78,1.63,1.63,0,0,0-.61-.55,2.07,2.07,0,0,0-1-.21,4,4,0,0,0-1.58.32,7.51,7.51,0,0,0-1.32.72l-.64-1.14a10.61,10.61,0,0,1,1.66-.85,5.58,5.58,0,0,1,2.16-.41,3,3,0,0,1,2.58,1.09,4.85,4.85,0,0,1,.8,2.91v6h-1.36l-.14-1.16H138a8.11,8.11,0,0,1-1.5,1A3.76,3.76,0,0,1,134.73,126.25Zm1.64-11.7-3.14-3.06,1.16-1.1,2.82,3.34Zm-1.16,10.38a2.75,2.75,0,0,0,1.32-.33,6.67,6.67,0,0,0,1.32-1v-2.7a16.59,16.59,0,0,0-2,.38,5.59,5.59,0,0,0-1.34.52,2,2,0,0,0-.74.69,1.67,1.67,0,0,0-.23.85,1.39,1.39,0,0,0,.5,1.2A2,2,0,0,0,135.21,124.93Z"/><path class="cls-6" d="M142.73,130.19a3.89,3.89,0,0,1-.62-.05,2.1,2.1,0,0,1-.52-.15l.32-1.3.36.09a1.73,1.73,0,0,0,.38.05,1.76,1.76,0,0,0,1.37-.59,4.19,4.19,0,0,0,.83-1.49l.22-.72-3.9-9.74h1.7l2,5.38c.15.43.3.88.47,1.35s.32.94.47,1.39h.08q.23-.66.42-1.38c.13-.48.27-.93.4-1.36l1.74-5.38H150l-3.66,10.52a11,11,0,0,1-.58,1.34,4.48,4.48,0,0,1-.76,1.07,3.32,3.32,0,0,1-1,.71A3.11,3.11,0,0,1,142.73,130.19Z"/><path class="cls-6" d="M155.85,126v-1.36h2.92v-9.4h-2.32v-1.06a10.58,10.58,0,0,0,1.53-.39,6.32,6.32,0,0,0,1.17-.55h1.26v11.4h2.64V126Z"/><path class="cls-6" d="M164.41,129.21l5.34-17.4H171l-5.34,17.4Z"/><path class="cls-6" d="M172.79,126v-1.36h2.92v-9.4h-2.32v-1.06a10.58,10.58,0,0,0,1.53-.39,6.32,6.32,0,0,0,1.17-.55h1.26v11.4H180V126Z"/><path class="cls-6" d="M186.13,126.25a3.38,3.38,0,0,1-3-1.72,9.33,9.33,0,0,1-1.08-4.94,9.11,9.11,0,0,1,1.08-4.9,3.54,3.54,0,0,1,6,0,9.11,9.11,0,0,1,1.08,4.9,9.33,9.33,0,0,1-1.08,4.94A3.36,3.36,0,0,1,186.13,126.25Zm0-1.32a1.72,1.72,0,0,0,1-.31,2.56,2.56,0,0,0,.78-1,6,6,0,0,0,.51-1.66,16.16,16.16,0,0,0,0-4.81,5.7,5.7,0,0,0-.51-1.63,2.45,2.45,0,0,0-.78-.93,1.79,1.79,0,0,0-1-.3,1.84,1.84,0,0,0-1,.3,2.38,2.38,0,0,0-.79.93,5.7,5.7,0,0,0-.51,1.63,13.82,13.82,0,0,0-.18,2.4,9,9,0,0,0,.69,4.07A2,2,0,0,0,186.13,124.93Z"/><path class="cls-6" d="M191.29,129.21l5.34-17.4h1.2l-5.34,17.4Z"/><path class="cls-6" d="M198.89,126v-1c1-1,1.81-1.83,2.56-2.6a25,25,0,0,0,1.88-2.15,10.8,10.8,0,0,0,1.16-1.82,3.64,3.64,0,0,0,.4-1.61,2.68,2.68,0,0,0-.6-1.8,2.26,2.26,0,0,0-1.82-.7,2.63,2.63,0,0,0-1.48.45,6.07,6.07,0,0,0-1.24,1.09l-.94-.94a7.12,7.12,0,0,1,1.7-1.41,4.22,4.22,0,0,1,2.16-.53,3.53,3.53,0,0,1,3.82,3.76,4.58,4.58,0,0,1-.39,1.81,10.22,10.22,0,0,1-1.08,1.88,22.44,22.44,0,0,1-1.64,2c-.63.7-1.33,1.44-2.09,2.23l1.08-.08c.37,0,.73,0,1.06,0h3.7V126Z"/><path class="cls-6" d="M213,126.25a3.38,3.38,0,0,1-3-1.72,9.33,9.33,0,0,1-1.08-4.94,9.11,9.11,0,0,1,1.08-4.9,3.54,3.54,0,0,1,6,0,9.11,9.11,0,0,1,1.08,4.9,9.33,9.33,0,0,1-1.08,4.94A3.36,3.36,0,0,1,213,126.25Zm0-1.32a1.72,1.72,0,0,0,1-.31,2.56,2.56,0,0,0,.78-1,6,6,0,0,0,.51-1.66,16.16,16.16,0,0,0,0-4.81,5.7,5.7,0,0,0-.51-1.63,2.45,2.45,0,0,0-.78-.93,1.79,1.79,0,0,0-1-.3,1.84,1.84,0,0,0-1,.3,2.38,2.38,0,0,0-.79.93,5.7,5.7,0,0,0-.51,1.63,13.82,13.82,0,0,0-.18,2.4,9,9,0,0,0,.69,4.07A2,2,0,0,0,213,124.93Z"/><path class="cls-6" d="M218.77,126v-1c1-1,1.81-1.83,2.56-2.6a25,25,0,0,0,1.88-2.15,10.8,10.8,0,0,0,1.16-1.82,3.64,3.64,0,0,0,.4-1.61,2.68,2.68,0,0,0-.6-1.8,2.26,2.26,0,0,0-1.82-.7,2.63,2.63,0,0,0-1.48.45,6.07,6.07,0,0,0-1.24,1.09l-.94-.94a7.12,7.12,0,0,1,1.7-1.41,4.22,4.22,0,0,1,2.16-.53,3.53,3.53,0,0,1,3.82,3.76,4.58,4.58,0,0,1-.39,1.81,10.22,10.22,0,0,1-1.08,1.88,22.44,22.44,0,0,1-1.64,2c-.63.7-1.33,1.44-2.09,2.23l1.08-.08c.37,0,.73,0,1.06,0H227V126Z"/><path class="cls-6" d="M232.89,126.25a3.38,3.38,0,0,1-3-1.72,9.33,9.33,0,0,1-1.08-4.94,9.11,9.11,0,0,1,1.08-4.9,3.54,3.54,0,0,1,6,0,9.11,9.11,0,0,1,1.08,4.9,9.33,9.33,0,0,1-1.08,4.94A3.36,3.36,0,0,1,232.89,126.25Zm0-1.32a1.72,1.72,0,0,0,1-.31,2.56,2.56,0,0,0,.78-1,6,6,0,0,0,.51-1.66,16.16,16.16,0,0,0,0-4.81,5.7,5.7,0,0,0-.51-1.63,2.45,2.45,0,0,0-.78-.93,1.79,1.79,0,0,0-1-.3,1.84,1.84,0,0,0-1,.3,2.38,2.38,0,0,0-.79.93,5.7,5.7,0,0,0-.51,1.63,13.82,13.82,0,0,0-.18,2.4,9,9,0,0,0,.69,4.07A2,2,0,0,0,232.89,124.93Z"/><path class="cls-6" d="M246.81,126.25a3.72,3.72,0,0,1-2.93-1.23,5,5,0,0,1-1.09-3.47,5.25,5.25,0,0,1,.35-2,4.55,4.55,0,0,1,.93-1.48,4.2,4.2,0,0,1,1.34-1,3.83,3.83,0,0,1,1.6-.34,3.17,3.17,0,0,1,1.46.31,7.17,7.17,0,0,1,1.26.83l-.08-1.68v-1.7h-3.22v-1h3.22v-1.86h1.66v1.86h1.44v.86l-1.44.1V126h-1.4l-.12-1.1h-.06a5.44,5.44,0,0,1-1.3,1A3.4,3.4,0,0,1,246.81,126.25Zm.36-1.38a2.62,2.62,0,0,0,1.28-.33,4.67,4.67,0,0,0,1.2-1v-4.3a4.09,4.09,0,0,0-1.19-.79,3.17,3.17,0,0,0-1.17-.23,2.39,2.39,0,0,0-1.09.25,2.85,2.85,0,0,0-.89.69,3.35,3.35,0,0,0-.6,1,4.43,4.43,0,0,0,.48,3.77A2.37,2.37,0,0,0,247.17,124.87Z"/><path class="cls-6" d="M258.53,126.25a4.85,4.85,0,0,1-1.83-.35,4.31,4.31,0,0,1-1.48-1,4.57,4.57,0,0,1-1-1.59,6,6,0,0,1-.36-2.14,5.81,5.81,0,0,1,.37-2.15,5.07,5.07,0,0,1,1-1.61,4.24,4.24,0,0,1,1.39-1,4,4,0,0,1,1.62-.35,4.15,4.15,0,0,1,1.65.32,3.18,3.18,0,0,1,1.22.92,4.11,4.11,0,0,1,.75,1.44,6.47,6.47,0,0,1,.26,1.88c0,.17,0,.34,0,.51a2.42,2.42,0,0,1-.05.43h-6.56a3.82,3.82,0,0,0,1,2.47,3,3,0,0,0,2.27.91,3.79,3.79,0,0,0,1.29-.21,5.61,5.61,0,0,0,1.13-.55l.58,1.08a8.16,8.16,0,0,1-1.42.7A4.92,4.92,0,0,1,258.53,126.25Zm-3.06-5.88h5.2a3.47,3.47,0,0,0-.63-2.25,2.17,2.17,0,0,0-1.77-.77,2.53,2.53,0,0,0-1.84.79,3.42,3.42,0,0,0-.63,1A4.07,4.07,0,0,0,255.47,120.37Zm.68-5.76-.58-.68,2-1.84h1.36l2,1.84-.58.68-2.06-1.44h-.08Zm4.08-1.9,1.74-2.4,1,.68-2,2.28Z"/><path class="cls-6" d="M264.51,126v-9.72h1.36l.14,1.4h.06a7.55,7.55,0,0,1,1.47-1.17,3.39,3.39,0,0,1,1.79-.47,2.63,2.63,0,0,1,2.25,1,4.78,4.78,0,0,1,.71,2.84V126h-1.64v-5.94a3.51,3.51,0,0,0-.44-2,1.61,1.61,0,0,0-1.4-.61,2.39,2.39,0,0,0-1.34.38,8.38,8.38,0,0,0-1.32,1.12v7Z"/><path class="cls-6" d="M279.45,126V111.77h1.64v3.88l-.06,2a8.54,8.54,0,0,1,1.46-1.13,3.33,3.33,0,0,1,1.78-.47,2.63,2.63,0,0,1,2.25,1,4.78,4.78,0,0,1,.71,2.84V126h-1.64v-5.94a3.51,3.51,0,0,0-.44-2,1.61,1.61,0,0,0-1.4-.61,2.39,2.39,0,0,0-1.34.38,8.38,8.38,0,0,0-1.32,1.12v7Z"/></g><g class="cls-3"><path class="cls-6" d="M294.27,126.25a4.85,4.85,0,0,1-1.83-.35,4.31,4.31,0,0,1-1.48-1,4.57,4.57,0,0,1-1-1.59,6,6,0,0,1-.36-2.14A5.81,5.81,0,0,1,290,119a5.07,5.07,0,0,1,1-1.61,4.24,4.24,0,0,1,1.39-1,4,4,0,0,1,1.62-.35,4.15,4.15,0,0,1,1.65.32,3.18,3.18,0,0,1,1.22.92,4.11,4.11,0,0,1,.75,1.44,6.47,6.47,0,0,1,.26,1.88c0,.17,0,.34,0,.51a2.42,2.42,0,0,1,0,.43h-6.56a3.82,3.82,0,0,0,1,2.47,3,3,0,0,0,2.27.91,3.79,3.79,0,0,0,1.29-.21,5.61,5.61,0,0,0,1.13-.55l.58,1.08a8.16,8.16,0,0,1-1.42.7A4.92,4.92,0,0,1,294.27,126.25Zm-3.06-5.88h5.2a3.47,3.47,0,0,0-.63-2.25,2.17,2.17,0,0,0-1.77-.77,2.53,2.53,0,0,0-1.84.79,3.42,3.42,0,0,0-.63,1A4.07,4.07,0,0,0,291.21,120.37Zm.68-5.76-.58-.68,2-1.84h1.36l2,1.84-.58.68L294,113.17H294Zm4.08-1.9,1.74-2.4,1,.68-2,2.28Z"/></g><g class="cls-3"><path class="cls-6" d="M303.11,126.25a3.16,3.16,0,0,1-1.31-.24,2.28,2.28,0,0,1-.86-.66,2.53,2.53,0,0,1-.47-1,6,6,0,0,1-.14-1.32v-5.38h-1.44v-1.24l1.52-.1.2-2.72H302v2.72h2.62v1.34H302V123a2.48,2.48,0,0,0,.33,1.39,1.3,1.3,0,0,0,1.17.49,2.36,2.36,0,0,0,.56-.08,3.42,3.42,0,0,0,.54-.18l.32,1.24a9,9,0,0,1-.87.25A4.22,4.22,0,0,1,303.11,126.25Z"/><path class="cls-6" d="M310.81,126v-9.72h1.36l.14,1.4h.06a7.86,7.86,0,0,1,1.47-1.17,3.39,3.39,0,0,1,1.79-.47,2.6,2.6,0,0,1,2.25,1,4.78,4.78,0,0,1,.71,2.84V126H317v-5.94a3.51,3.51,0,0,0-.44-2,1.6,1.6,0,0,0-1.4-.61,2.42,2.42,0,0,0-1.34.38,8.38,8.38,0,0,0-1.32,1.12v7Z"/></g><g class="cls-3"><path class="cls-6" d="M325,130.49a7.51,7.51,0,0,1-1.64-.17,3.84,3.84,0,0,1-1.27-.51,2.57,2.57,0,0,1-.82-.82,2.15,2.15,0,0,1-.29-1.12,2.09,2.09,0,0,1,.38-1.18,4,4,0,0,1,1-1v-.08a2,2,0,0,1-.61-.61,1.73,1.73,0,0,1-.25-1,1.76,1.76,0,0,1,.34-1.08,3.06,3.06,0,0,1,.72-.72v-.08a4,4,0,0,1-.87-1.07,3,3,0,0,1-.39-1.55,3.53,3.53,0,0,1,.29-1.44,3.22,3.22,0,0,1,.79-1.09,3.42,3.42,0,0,1,1.17-.69,4.18,4.18,0,0,1,1.41-.24,3.54,3.54,0,0,1,.75.07,4.77,4.77,0,0,1,.63.17h3.38v1.26h-2a2.69,2.69,0,0,1,.57.86,2.87,2.87,0,0,1,.23,1.14,3.38,3.38,0,0,1-.28,1.41,3.16,3.16,0,0,1-.76,1.06,3.46,3.46,0,0,1-1.13.67,4,4,0,0,1-1.39.24,3.18,3.18,0,0,1-.74-.09,3.61,3.61,0,0,1-.72-.25,2.54,2.54,0,0,0-.44.49,1.17,1.17,0,0,0-.18.67.94.94,0,0,0,.36.76,2.21,2.21,0,0,0,1.36.3h1.88a4.74,4.74,0,0,1,2.55.55,2,2,0,0,1,.85,1.77,2.59,2.59,0,0,1-.34,1.29,3.3,3.3,0,0,1-1,1.07,5.06,5.06,0,0,1-1.55.73A7.22,7.22,0,0,1,325,130.49Zm.24-1.14a4.54,4.54,0,0,0,1.27-.17,3.48,3.48,0,0,0,1-.44,2.06,2.06,0,0,0,.62-.63,1.38,1.38,0,0,0,.22-.74,1,1,0,0,0-.5-.94,3.29,3.29,0,0,0-1.46-.26h-1.68l-.61,0a2.88,2.88,0,0,1-.65-.13,2.58,2.58,0,0,0-.76.8,1.68,1.68,0,0,0-.24.84,1.4,1.4,0,0,0,.75,1.24A3.92,3.92,0,0,0,325.27,129.35Zm-.24-7.52a1.92,1.92,0,0,0,.79-.16,2,2,0,0,0,.66-.46,2.15,2.15,0,0,0,.45-.73,2.7,2.7,0,0,0,.16-1,2.23,2.23,0,0,0-.6-1.67,2.1,2.1,0,0,0-2.92,0,2.23,2.23,0,0,0-.6,1.67,2.7,2.7,0,0,0,.16,1,2.15,2.15,0,0,0,.45.73,2,2,0,0,0,.66.46A1.92,1.92,0,0,0,325,121.83Z"/></g><g class="cls-3"><path class="cls-6" d="M333.75,126.25a3,3,0,0,1-2-.72,2.59,2.59,0,0,1-.81-2,2.69,2.69,0,0,1,1.42-2.45,11.74,11.74,0,0,1,4.54-1.19,4.43,4.43,0,0,0-.09-.9,2.24,2.24,0,0,0-.31-.78,1.63,1.63,0,0,0-.61-.55,2.07,2.07,0,0,0-1-.21,4,4,0,0,0-1.58.32,7.51,7.51,0,0,0-1.32.72l-.64-1.14a10.61,10.61,0,0,1,1.66-.85,5.58,5.58,0,0,1,2.16-.41,3,3,0,0,1,2.58,1.09,4.85,4.85,0,0,1,.8,2.91v6h-1.36l-.14-1.16H337a8.11,8.11,0,0,1-1.5,1A3.76,3.76,0,0,1,333.75,126.25Zm1.64-11.7-3.14-3.06,1.16-1.1,2.82,3.34Zm-1.16,10.38a2.75,2.75,0,0,0,1.32-.33,6.67,6.67,0,0,0,1.32-1v-2.7a16.59,16.59,0,0,0-2.05.38,5.59,5.59,0,0,0-1.34.52,2,2,0,0,0-.74.69,1.67,1.67,0,0,0-.23.85,1.39,1.39,0,0,0,.5,1.2A2,2,0,0,0,334.23,124.93Z"/><path class="cls-6" d="M341.75,130.19a3.89,3.89,0,0,1-.62-.05,2.1,2.1,0,0,1-.52-.15l.32-1.3.36.09a1.73,1.73,0,0,0,.38.05,1.76,1.76,0,0,0,1.37-.59,4.19,4.19,0,0,0,.83-1.49l.22-.72-3.9-9.74h1.7l2,5.38c.15.43.3.88.47,1.35s.32.94.47,1.39h.08q.23-.66.42-1.38c.13-.48.27-.93.4-1.36l1.74-5.38h1.6l-3.66,10.52a11,11,0,0,1-.58,1.34,4.48,4.48,0,0,1-.76,1.07,3.32,3.32,0,0,1-1,.71A3.11,3.11,0,0,1,341.75,130.19Z"/><path class="cls-6" d="M354.87,126v-1.36h2.92v-9.4h-2.32v-1.06a10.58,10.58,0,0,0,1.53-.39,6.32,6.32,0,0,0,1.17-.55h1.26v11.4h2.64V126Z"/><path class="cls-6" d="M369.31,126v-3.52h-5.74v-1.08l5.46-8.16h1.84v7.92h1.74v1.32h-1.74V126Zm-4-4.84h4v-3.7q0-.52,0-1.23c0-.47,0-.88.07-1.23h-.08c-.16.31-.33.61-.5.9l-.54.9Z"/><path class="cls-6" d="M373.37,129.21l5.34-17.4h1.2l-5.34,17.4Z"/><path class="cls-6" d="M381.75,126v-1.36h2.92v-9.4h-2.32v-1.06a10.58,10.58,0,0,0,1.53-.39,6.32,6.32,0,0,0,1.17-.55h1.26v11.4H389V126Z"/><path class="cls-6" d="M395.09,126.25a3.38,3.38,0,0,1-3-1.72,9.33,9.33,0,0,1-1.08-4.94,9.11,9.11,0,0,1,1.08-4.9,3.54,3.54,0,0,1,6,0,9.11,9.11,0,0,1,1.08,4.9,9.33,9.33,0,0,1-1.08,4.94A3.36,3.36,0,0,1,395.09,126.25Zm0-1.32a1.72,1.72,0,0,0,1-.31,2.56,2.56,0,0,0,.78-1,6,6,0,0,0,.51-1.66,16.16,16.16,0,0,0,0-4.81,5.7,5.7,0,0,0-.51-1.63,2.45,2.45,0,0,0-.78-.93,1.79,1.79,0,0,0-1-.3,1.84,1.84,0,0,0-1,.3,2.38,2.38,0,0,0-.79.93,5.7,5.7,0,0,0-.51,1.63,13.82,13.82,0,0,0-.18,2.4,9,9,0,0,0,.69,4.07A2,2,0,0,0,395.09,124.93Z"/><path class="cls-6" d="M400.25,129.21l5.34-17.4h1.2l-5.34,17.4Z"/><path class="cls-6" d="M407.85,126v-1c1-1,1.81-1.83,2.56-2.6a25,25,0,0,0,1.88-2.15,10.8,10.8,0,0,0,1.16-1.82,3.64,3.64,0,0,0,.4-1.61,2.68,2.68,0,0,0-.6-1.8,2.26,2.26,0,0,0-1.82-.7,2.63,2.63,0,0,0-1.48.45,6.07,6.07,0,0,0-1.24,1.09l-.94-.94a7.12,7.12,0,0,1,1.7-1.41,4.22,4.22,0,0,1,2.16-.53,3.53,3.53,0,0,1,3.82,3.76,4.58,4.58,0,0,1-.39,1.81,10.22,10.22,0,0,1-1.08,1.88,22.44,22.44,0,0,1-1.64,2c-.63.7-1.33,1.44-2.09,2.23l1.08-.08c.37,0,.72,0,1.06,0h3.7V126Z"/><path class="cls-6" d="M422,126.25a3.38,3.38,0,0,1-3-1.72,9.33,9.33,0,0,1-1.08-4.94,9.11,9.11,0,0,1,1.08-4.9,3.54,3.54,0,0,1,6,0,9.11,9.11,0,0,1,1.08,4.9,9.33,9.33,0,0,1-1.08,4.94A3.36,3.36,0,0,1,422,126.25Zm0-1.32a1.72,1.72,0,0,0,1-.31,2.56,2.56,0,0,0,.78-1,6,6,0,0,0,.51-1.66,16.16,16.16,0,0,0,0-4.81,5.7,5.7,0,0,0-.51-1.63,2.45,2.45,0,0,0-.78-.93,1.79,1.79,0,0,0-1-.3,1.82,1.82,0,0,0-1,.3,2.38,2.38,0,0,0-.79.93,5.7,5.7,0,0,0-.51,1.63,13.82,13.82,0,0,0-.18,2.4,9,9,0,0,0,.69,4.07A2,2,0,0,0,422,124.93Z"/><path class="cls-6" d="M427.73,126v-1c1-1,1.81-1.83,2.56-2.6a25,25,0,0,0,1.88-2.15,10.8,10.8,0,0,0,1.16-1.82,3.78,3.78,0,0,0,.4-1.61,2.68,2.68,0,0,0-.6-1.8,2.26,2.26,0,0,0-1.82-.7,2.63,2.63,0,0,0-1.48.45,6.07,6.07,0,0,0-1.24,1.09l-.94-.94a7.12,7.12,0,0,1,1.7-1.41,4.22,4.22,0,0,1,2.16-.53,3.53,3.53,0,0,1,3.82,3.76,4.58,4.58,0,0,1-.39,1.81,10.22,10.22,0,0,1-1.08,1.88,22.44,22.44,0,0,1-1.64,2c-.63.7-1.33,1.44-2.09,2.23l1.08-.08c.37,0,.72,0,1.06,0H436V126Z"/><path class="cls-6" d="M441.85,126.25a3.37,3.37,0,0,1-3-1.72,9.33,9.33,0,0,1-1.08-4.94,9.11,9.11,0,0,1,1.08-4.9,3.54,3.54,0,0,1,6,0,9.11,9.11,0,0,1,1.08,4.9,9.33,9.33,0,0,1-1.08,4.94A3.36,3.36,0,0,1,441.85,126.25Zm0-1.32a1.72,1.72,0,0,0,1-.31,2.56,2.56,0,0,0,.78-1,6,6,0,0,0,.51-1.66,16.16,16.16,0,0,0,0-4.81,5.7,5.7,0,0,0-.51-1.63,2.45,2.45,0,0,0-.78-.93,1.87,1.87,0,0,0-2,0,2.38,2.38,0,0,0-.79.93,5.7,5.7,0,0,0-.51,1.63,13.82,13.82,0,0,0-.18,2.4,9,9,0,0,0,.69,4.07A2,2,0,0,0,441.85,124.93Z"/></g></g><path class="cls-7" d="M743.94,179.32H55.32c-11.62,0-21.07-9.68-21.07-21.59V48.3c0-11.9,9.45-21.58,21.07-21.58H743.94C755.55,26.72,765,36.4,765,48.3V157.73C765,169.64,755.55,179.32,743.94,179.32ZM55.32,35a13.17,13.17,0,0,0-13,13.3V157.73a13.17,13.17,0,0,0,13,13.31H743.94a13.17,13.17,0,0,0,13-13.31V48.3a13.16,13.16,0,0,0-13-13.3Z"/><path class="cls-8" d="M34.8,43.05l8.17.84s3-7.24,7.88-8.26l-1.16-8.31S38.57,29.34,34.8,43.05Z"/><polygon class="cls-9" points="36.23 39.06 43.91 41.7 45.22 39.94 39.09 34.34 36.23 39.06"/><polygon class="cls-9" points="47.23 38.02 42.29 31.15 44.06 29.78 48.05 37.38 47.23 38.02"/><polygon class="cls-9" points="39.74 33.53 45.68 39.32 46.33 38.79 40.53 32.67 39.74 33.53"/><polygon class="cls-8" points="33.99 131.84 42.07 130.25 42.07 83.47 33.99 80.95 33.99 131.84"/><polygon class="cls-9" points="33.99 119.81 42.54 118.36 42.54 113.47 33.99 114.26 33.99 119.81"/><polygon class="cls-9" points="33.99 127.87 42.54 126.42 42.54 121.53 33.99 122.32 33.99 127.87"/><polygon class="cls-9" points="42.54 110.95 33.99 111.75 33.99 110.43 42.54 109.63 42.54 110.95"/><polygon class="cls-9" points="42.3 91.93 33.96 89.82 33.76 91.12 42.1 93.24 42.3 91.93"/><polygon class="cls-9" points="33.99 96.68 42.54 98.33 42.54 95.09 33.99 92.65 33.99 96.68"/><polygon class="cls-8" points="119.64 26.6 128.58 34.9 614.31 34.44 621.14 26.6 119.64 26.6"/><path class="cls-10" d="M743.94,179.32H55.32c-11.62,0-21.07-9.68-21.07-21.59V48.3c0-11.9,9.45-21.58,21.07-21.58H743.94C755.55,26.72,765,36.4,765,48.3V157.73C765,169.64,755.55,179.32,743.94,179.32ZM55.32,35a13.17,13.17,0,0,0-13,13.3V157.73a13.17,13.17,0,0,0,13,13.31H743.94a13.17,13.17,0,0,0,13-13.31V48.3a13.16,13.16,0,0,0-13-13.3Z"/><path class="cls-11" d="M34.31,5.73s10,5.61,13.74,12.44,4.43,15.64,4.43,15.64l-5.17,5.72S26.32,28,34.31,5.73Z"/><path class="cls-11" d="M10.17,32.39s6.58,9.42,13.74,12.44,16,2.86,16,2.86L45.09,42S31.49,22.24,10.17,32.39Z"/><path class="cls-12" d="M10.17,32.39,43,44.41l3.28-3.63S24.84,22.18,10.17,32.39Z"/><path class="cls-12" d="M34.13,5.93l15.2,31.42L46.05,41S25.42,21.53,34.13,5.93Z"/><path class="cls-13" d="M43.73,25.4S27.56,13.73,15.58,13c1.88,11.85,15.1,26.79,15.1,26.79-9.9-3-24.89,6.43-24.89,6.43,8,1,26.46,10.15,26.46,10.15l28.14-31S49.49,7.83,47.67,0C47.67,0,39.75,15.85,43.73,25.4Z"/><path class="cls-14" d="M16.51,10.3a3.65,3.65,0,1,1-3.92-3.36A3.66,3.66,0,0,1,16.51,10.3Z"/><path class="cls-15" d="M14.21,7.18a3.66,3.66,0,0,1-4.36,5.44,3.65,3.65,0,1,0,4.36-5.44Z"/><path class="cls-14" d="M7.29,45.7a3.65,3.65,0,1,1-3.92-3.37A3.65,3.65,0,0,1,7.29,45.7Z"/><path class="cls-15" d="M5,42.58A3.65,3.65,0,0,1,.62,48a3.65,3.65,0,1,0,6.07-4A3.6,3.6,0,0,0,5,42.58Z"/><path class="cls-16" d="M7.29,46.26s18.59-4.27,30.53,4l4.26-4.7S25.89,31.06,7.17,45Z"/><path class="cls-17" d="M47.88,1.42s-2.4,18.92,7,30l-4.26,4.7s-16-14.67-4-34.68Z"/><path class="cls-18" d="M15.58,13,46.32,40.86l5.92-6.53S37.59,14.6,15.58,13Z"/><path class="cls-19" d="M17.28,14.57l29,26.29,1.84-2S33.54,23.27,17.28,14.57Z"/><path class="cls-19" d="M7.28,46.25a35,35,0,0,1,31.87,2.53l-1.31,1.45S28.36,42.16,7.28,46.25Z"/><path class="cls-19" d="M47.83,1.47A35,35,0,0,0,53.5,32.94l1.31-1.46S45.84,22.85,47.83,1.47Z"/><path class="cls-20" d="M31.86,56.83s-.84.48,1.57,2.66L64,25.68s-2.24-1.92-2.94-1.14Z"/><circle class="cls-21" cx="34.03" cy="56.64" r="1.09"/><circle class="cls-21" cx="36.39" cy="54.04" r="1.09"/><circle class="cls-21" cx="38.83" cy="51.34" r="1.09"/><circle class="cls-21" cx="41.27" cy="48.64" r="1.09"/><circle class="cls-21" cx="43.55" cy="46.13" r="1.09"/><circle class="cls-21" cx="45.86" cy="43.57" r="1.09"/><circle class="cls-21" cx="48.11" cy="41.08" r="1.09"/><circle class="cls-21" cx="50.39" cy="38.57" r="1.09"/><circle class="cls-21" cx="52.7" cy="36.02" r="1.09"/><circle class="cls-21" cx="54.95" cy="33.53" r="1.09"/><circle class="cls-21" cx="57.23" cy="31.02" r="1.09"/><circle class="cls-21" cx="59.54" cy="28.46" r="1.09"/><circle class="cls-21" cx="61.87" cy="25.88" r="1.09"/><rect class="cls-22" x="26.22" y="42.45" width="45.61" height="0.79" transform="translate(-15.64 50.43) rotate(-47.84)"/><circle class="cls-23" cx="61.88" cy="25.4" r="0.37"/><circle class="cls-23" cx="57.23" cy="30.53" r="0.37"/><circle class="cls-23" cx="54.89" cy="33.11" r="0.37"/><circle class="cls-23" cx="52.59" cy="35.65" r="0.37"/><circle class="cls-23" cx="50.33" cy="38.15" r="0.37"/><circle class="cls-23" cx="48.06" cy="40.67" r="0.37"/><circle class="cls-23" cx="45.45" cy="43.55" r="0.37"/><circle class="cls-23" cx="43.06" cy="46.18" r="0.37"/><circle class="cls-23" cx="40.9" cy="48.57" r="0.37"/><circle class="cls-23" cx="38.45" cy="51.28" r="0.37"/><circle class="cls-23" cx="35.9" cy="54.09" r="0.37"/><circle class="cls-23" cx="33.63" cy="56.6" r="0.37"/><circle class="cls-23" cx="59.49" cy="28.04" r="0.37"/></g></g></g></g></svg>