<svg xmlns="http://www.w3.org/2000/svg" xmlns:xlink="http://www.w3.org/1999/xlink" viewBox="0 0 765.5 185.2"><defs><style>.cls-1{isolation:isolate;}.cls-2{fill:#c62828;}.cls-3{fill:#fff;}.cls-4{font-size:28px;fill:#6d0000;font-family:Arial-BoldMT, Arial;font-weight:700;}.cls-5{letter-spacing:-0.04em;}.cls-6{font-size:21.5px;fill:#ff8b00;font-family:SourceSansPro-Regular, Source Sans Pro;}.cls-7,.cls-8,.cls-9{font-family:ArialMT, Arial;}.cls-8{letter-spacing:-0.02em;}.cls-9{fill:#dd1b24;}.cls-10{fill:url(#linear-gradient);}.cls-11{fill:#ffdc7c;}.cls-12{fill:#fff6e6;}.cls-13{fill:none;stroke:#d47f02;stroke-miterlimit:10;}.cls-14{fill:#f98526;mix-blend-mode:multiply;}.cls-15{fill:#ff9d27;}.cls-16{fill:url(#linear-gradient-2);}.cls-17{fill:#ffdc01;}.cls-18{fill:#ffb703;}.cls-19{fill:url(#linear-gradient-3);}.cls-20{fill:url(#linear-gradient-4);}.cls-21{fill:url(#linear-gradient-5);}.cls-22,.cls-24,.cls-26{fill:#fff876;}.cls-22{opacity:0.86;}.cls-23{fill:url(#linear-gradient-6);}.cls-24{opacity:0.35;}.cls-25{fill:#e5890e;}.cls-26{opacity:0.52;}</style><linearGradient id="linear-gradient" x1="34.25" y1="108.4" x2="765" y2="108.4" gradientUnits="userSpaceOnUse"><stop offset="0" stop-color="#f34000"/><stop offset="0.74" stop-color="#f34000"/></linearGradient><linearGradient id="linear-gradient-2" x1="-650.63" y1="-239.42" x2="-588.23" y2="-239.42" gradientTransform="translate(624.17 -266.17) rotate(-47.84)" gradientUnits="userSpaceOnUse"><stop offset="0" stop-color="#ffca27"/><stop offset="0.62" stop-color="#ffa727"/></linearGradient><linearGradient id="linear-gradient-3" x1="-630.76" y1="-236.1" x2="-637.95" y2="-231.34" gradientTransform="translate(624.17 -266.17) rotate(-47.84)" gradientUnits="userSpaceOnUse"><stop offset="0" stop-color="#ffca27"/><stop offset="0.93" stop-color="#ff9d27"/></linearGradient><linearGradient id="linear-gradient-4" x1="-607.68" y1="-235.39" x2="-600.73" y2="-231.35" xlink:href="#linear-gradient-3"/><linearGradient id="linear-gradient-5" x1="-609.38" y1="-240.53" x2="-620.55" y2="-238.33" xlink:href="#linear-gradient-3"/><linearGradient id="linear-gradient-6" x1="-619.09" y1="-218.89" x2="-619.09" y2="-215.53" xlink:href="#linear-gradient-3"/></defs><g class="cls-1"><g id="Layer_2" data-name="Layer 2"><g id="Layer_1-2" data-name="Layer 1"><rect class="cls-2" x="42.16" y="38.7" width="715.22" height="139.4" rx="16.85"/><rect class="cls-3" x="42.16" y="35.21" width="715.22" height="139.4" rx="16.85"/><text class="cls-4" transform="translate(75.39 90.87)">2. THỜI GIAN DIỄN R<tspan class="cls-5" x="280.57" y="0">A</tspan></text><text class="cls-6" transform="translate(75.39 131.09)">◆<tspan class="cls-7" x="19.24" y="0"> </tspan><tspan class="cls-8" x="25.22" y="0"> </tspan><tspan class="cls-9" x="30.8" y="0">Từ ngày 29/9/2020 đến hết ngày 12/10/2020</tspan></text><path class="cls-10" d="M743.94,184.7H55.32c-11.62,0-21.07-9.68-21.07-21.59V53.68c0-11.9,9.45-21.58,21.07-21.58H743.94c11.61,0,21.06,9.68,21.06,21.58V163.11C765,175,755.55,184.7,743.94,184.7ZM55.32,40.38a13.17,13.17,0,0,0-13,13.3V163.11a13.17,13.17,0,0,0,13,13.31H743.94a13.16,13.16,0,0,0,13-13.31V53.68a13.16,13.16,0,0,0-13-13.3Z"/><path class="cls-11" d="M748.9,32.7l-.81,8.38s7.06,3.05,8,8.07L764.25,48S762.28,36.57,748.9,32.7Z"/><polygon class="cls-12" points="752.79 34.17 750.22 42.05 751.94 43.38 757.41 37.1 752.79 34.17"/><polygon class="cls-12" points="753.82 45.44 760.52 40.38 761.86 42.19 754.43 46.28 753.82 45.44"/><polygon class="cls-12" points="758.19 37.77 752.54 43.86 753.06 44.52 759.03 38.58 758.19 37.77"/><path class="cls-11" d="M764.19,168.46l-8.17-.83s-3,7.23-7.88,8.25l1.16,8.31S760.42,182.17,764.19,168.46Z"/><polygon class="cls-12" points="762.76 172.45 755.08 169.82 753.77 171.57 759.9 177.18 762.76 172.45"/><polygon class="cls-12" points="751.76 173.5 756.7 180.36 754.93 181.74 750.94 174.13 751.76 173.5"/><polygon class="cls-12" points="759.25 177.98 753.31 172.19 752.66 172.72 758.46 178.84 759.25 177.98"/><polygon class="cls-11" points="765 79.67 756.92 81.26 756.92 128.05 765 130.56 765 79.67"/><polygon class="cls-12" points="765 91.7 756.45 93.16 756.45 98.05 765 97.25 765 91.7"/><polygon class="cls-12" points="765 83.64 756.45 85.09 756.45 89.98 765 89.19 765 83.64"/><polygon class="cls-12" points="756.45 100.56 765 99.76 765 101.09 756.45 101.88 756.45 100.56"/><polygon class="cls-12" points="756.7 119.58 765.03 121.69 765.23 120.39 756.89 118.28 756.7 119.58"/><polygon class="cls-12" points="765 114.83 756.45 113.18 756.45 116.42 765 118.86 765 114.83"/><path class="cls-11" d="M50.09,184.19l.82-8.37s-7.07-3.06-8.06-8.08l-8.11,1.19S36.71,180.33,50.09,184.19Z"/><polygon class="cls-12" points="46.2 182.72 48.77 174.85 47.05 173.51 41.58 179.79 46.2 182.72"/><polygon class="cls-12" points="45.17 171.45 38.48 176.51 37.13 174.7 44.56 170.61 45.17 171.45"/><polygon class="cls-12" points="40.8 179.12 46.45 173.04 45.93 172.37 39.96 178.31 40.8 179.12"/><path class="cls-11" d="M34.8,48.43l8.17.84S46,42,50.85,41L49.69,32.7S38.57,34.72,34.8,48.43Z"/><polygon class="cls-12" points="36.23 44.44 43.91 47.08 45.22 45.32 39.09 39.72 36.23 44.44"/><polygon class="cls-12" points="47.23 43.4 42.29 36.53 44.06 35.16 48.05 42.76 47.23 43.4"/><polygon class="cls-12" points="39.74 38.91 45.68 44.7 46.33 44.17 40.53 38.05 39.74 38.91"/><polygon class="cls-11" points="33.99 137.22 42.07 135.63 42.07 88.84 33.99 86.33 33.99 137.22"/><polygon class="cls-12" points="33.99 125.19 42.54 123.74 42.54 118.85 33.99 119.64 33.99 125.19"/><polygon class="cls-12" points="33.99 133.25 42.54 131.8 42.54 126.91 33.99 127.7 33.99 133.25"/><polygon class="cls-12" points="42.54 116.33 33.99 117.13 33.99 115.81 42.54 115.01 42.54 116.33"/><polygon class="cls-12" points="42.3 97.31 33.96 95.2 33.76 96.5 42.1 98.62 42.3 97.31"/><polygon class="cls-12" points="33.99 102.06 42.54 103.71 42.54 100.48 33.99 98.03 33.99 102.06"/><polygon class="cls-11" points="621.14 184.48 612.2 176.19 126.47 176.65 119.64 184.48 621.14 184.48"/><polygon class="cls-12" points="502.61 184.48 488.28 176.19 440.08 176.19 447.89 184.48 502.61 184.48"/><polygon class="cls-12" points="582.07 184.48 567.74 176.19 519.54 176.19 527.36 184.48 582.07 184.48"/><polygon class="cls-12" points="415.33 176.19 423.14 184.48 410.12 184.48 402.3 176.19 415.33 176.19"/><polygon class="cls-12" points="227.82 176.43 207 184.51 219.87 184.7 240.69 176.62 227.82 176.43"/><polygon class="cls-12" points="274.65 184.48 290.93 176.19 259.01 176.19 234.92 184.48 274.65 184.48"/><polygon class="cls-11" points="119.64 31.98 128.58 40.28 614.31 39.82 621.14 31.98 119.64 31.98"/><polygon class="cls-12" points="238.17 31.98 252.5 40.28 300.7 40.28 292.88 31.98 238.17 31.98"/><polygon class="cls-12" points="158.71 31.98 173.04 40.28 221.24 40.28 213.42 31.98 158.71 31.98"/><polygon class="cls-12" points="325.45 40.28 317.63 31.98 330.66 31.98 338.48 40.28 325.45 40.28"/><polygon class="cls-12" points="512.96 40.04 533.78 31.95 520.91 31.77 500.08 39.85 512.96 40.04"/><polygon class="cls-12" points="466.13 31.98 449.85 40.28 481.76 40.28 505.86 31.98 466.13 31.98"/><path class="cls-13" d="M743.94,184.7H55.32c-11.62,0-21.07-9.68-21.07-21.59V53.68c0-11.9,9.45-21.58,21.07-21.58H743.94c11.61,0,21.06,9.68,21.06,21.58V163.11C765,175,755.55,184.7,743.94,184.7ZM55.32,40.38a13.17,13.17,0,0,0-13,13.3V163.11a13.17,13.17,0,0,0,13,13.31H743.94a13.16,13.16,0,0,0,13-13.31V53.68a13.16,13.16,0,0,0-13-13.3Z"/><path class="cls-14" d="M34.31,11.11s10,5.61,13.74,12.44,4.43,15.64,4.43,15.64l-5.17,5.72S26.32,33.33,34.31,11.11Z"/><path class="cls-14" d="M10.17,37.77s6.58,9.42,13.74,12.44,16,2.86,16,2.86l5.17-5.71S31.49,27.62,10.17,37.77Z"/><path class="cls-15" d="M10.17,37.77,43,49.79l3.28-3.63S24.84,27.56,10.17,37.77Z"/><path class="cls-15" d="M34.13,11.31l15.2,31.42-3.28,3.63S25.42,26.91,34.13,11.31Z"/><path class="cls-16" d="M43.73,30.78S27.56,19.11,15.58,18.41c1.88,11.85,15.1,26.79,15.1,26.79-9.9-3-24.89,6.43-24.89,6.43,8,1,26.46,10.15,26.46,10.15L60.39,30.7S49.49,13.21,47.67,5.38C47.67,5.38,39.75,21.23,43.73,30.78Z"/><path class="cls-17" d="M16.51,15.68a3.65,3.65,0,1,1-3.92-3.36A3.66,3.66,0,0,1,16.51,15.68Z"/><path class="cls-18" d="M14.21,12.56A3.66,3.66,0,0,1,9.85,18a3.65,3.65,0,1,0,4.36-5.44Z"/><path class="cls-17" d="M7.29,51.08a3.65,3.65,0,1,1-3.92-3.37A3.65,3.65,0,0,1,7.29,51.08Z"/><path class="cls-18" d="M5,48A3.65,3.65,0,0,1,.62,53.39,3.65,3.65,0,1,0,5,48Z"/><path class="cls-19" d="M7.29,51.64s18.59-4.27,30.53,4l4.26-4.7S25.89,36.44,7.17,50.4Z"/><path class="cls-20" d="M47.88,6.8s-2.4,18.92,7,30l-4.26,4.7s-16-14.67-4-34.68Z"/><path class="cls-17" d="M49.63,3.37A3.65,3.65,0,1,1,45.71,0,3.66,3.66,0,0,1,49.63,3.37Z"/><path class="cls-18" d="M47.33.25A3.66,3.66,0,0,1,43,5.69,3.65,3.65,0,1,0,47.33.25Z"/><path class="cls-21" d="M15.58,18.41,46.32,46.24l5.92-6.53S37.59,20,15.58,18.41Z"/><path class="cls-22" d="M17.28,20l29,26.29,1.84-2S33.54,28.66,17.28,20Z"/><path class="cls-22" d="M7.28,51.63a35,35,0,0,1,31.87,2.53l-1.31,1.45S28.36,47.54,7.28,51.63Z"/><path class="cls-22" d="M47.83,6.85A35,35,0,0,0,53.5,38.32l1.31-1.46S45.84,28.23,47.83,6.85Z"/><path class="cls-23" d="M31.86,62.21s-.84.48,1.57,2.66L64,31.06s-2.24-1.92-2.94-1.14Z"/><circle class="cls-24" cx="34.03" cy="62.02" r="1.09"/><circle class="cls-24" cx="36.39" cy="59.42" r="1.09"/><circle class="cls-24" cx="38.83" cy="56.72" r="1.09"/><circle class="cls-24" cx="41.27" cy="54.02" r="1.09"/><circle class="cls-24" cx="43.55" cy="51.51" r="1.09"/><circle class="cls-24" cx="45.86" cy="48.95" r="1.09"/><circle class="cls-24" cx="48.11" cy="46.46" r="1.09"/><circle class="cls-24" cx="50.39" cy="43.95" r="1.09"/><circle class="cls-24" cx="52.7" cy="41.4" r="1.09"/><circle class="cls-24" cx="54.95" cy="38.91" r="1.09"/><circle class="cls-24" cx="57.23" cy="36.4" r="1.09"/><circle class="cls-24" cx="59.54" cy="33.84" r="1.09"/><circle class="cls-24" cx="61.87" cy="31.26" r="1.09"/><rect class="cls-25" x="26.22" y="47.83" width="45.61" height="0.79" transform="translate(-19.63 52.2) rotate(-47.84)"/><circle class="cls-26" cx="61.88" cy="30.78" r="0.37"/><circle class="cls-26" cx="57.23" cy="35.91" r="0.37"/><circle class="cls-26" cx="54.89" cy="38.49" r="0.37"/><circle class="cls-26" cx="52.59" cy="41.03" r="0.37"/><circle class="cls-26" cx="50.33" cy="43.53" r="0.37"/><circle class="cls-26" cx="48.06" cy="46.05" r="0.37"/><circle class="cls-26" cx="45.45" cy="48.93" r="0.37"/><circle class="cls-26" cx="43.06" cy="51.56" r="0.37"/><circle class="cls-26" cx="40.9" cy="53.95" r="0.37"/><circle class="cls-26" cx="38.45" cy="56.66" r="0.37"/><circle class="cls-26" cx="35.9" cy="59.47" r="0.37"/><circle class="cls-26" cx="33.63" cy="61.98" r="0.37"/><circle class="cls-26" cx="59.49" cy="33.42" r="0.37"/></g></g></g></svg>