<svg xmlns="http://www.w3.org/2000/svg" xmlns:xlink="http://www.w3.org/1999/xlink" viewBox="0 0 765.5 187.29"><defs><style>.cls-1{isolation:isolate;}.cls-2{fill:#fff;}.cls-3{font-size:28px;fill:#6d0000;font-family:SourceSansPro-Bold, Source Sans Pro;font-weight:700;}.cls-4{font-size:21.5px;fill:#ff8b00;font-family:SourceSansPro-Regular, Source Sans Pro;}.cls-5,.cls-6,.cls-7,.cls-8{fill:#dd1b24;}.cls-5{letter-spacing:-0.01em;}.cls-7{letter-spacing:-0.02em;}.cls-8{letter-spacing:-0.01em;}.cls-9{fill:url(#linear-gradient);}.cls-10{fill:#ffdc7c;}.cls-11{fill:#fff6e6;}.cls-12{fill:none;stroke:#d47f02;stroke-miterlimit:10;}.cls-13{fill:#f98526;mix-blend-mode:multiply;}.cls-14{fill:#ff9d27;}.cls-15{fill:url(#linear-gradient-2);}.cls-16{fill:#ffdc01;}.cls-17{fill:#ffb703;}.cls-18{fill:url(#linear-gradient-3);}.cls-19{fill:url(#linear-gradient-4);}.cls-20{fill:url(#linear-gradient-5);}.cls-21,.cls-23,.cls-25{fill:#fff876;}.cls-21{opacity:0.86;}.cls-22{fill:url(#linear-gradient-6);}.cls-23{opacity:0.35;}.cls-24{fill:#e5890e;}.cls-25{opacity:0.52;}</style><linearGradient id="linear-gradient" x1="34.25" y1="110.49" x2="765" y2="110.49" gradientUnits="userSpaceOnUse"><stop offset="0" stop-color="#f34000"/><stop offset="0.74" stop-color="#f34000"/></linearGradient><linearGradient id="linear-gradient-2" x1="-510.22" y1="-177.13" x2="-447.82" y2="-177.13" gradientTransform="translate(483.76 -203.88) rotate(-47.84)" gradientUnits="userSpaceOnUse"><stop offset="0" stop-color="#ffca27"/><stop offset="0.62" stop-color="#ffa727"/></linearGradient><linearGradient id="linear-gradient-3" x1="-490.35" y1="-173.81" x2="-497.54" y2="-169.06" gradientTransform="translate(483.76 -203.88) rotate(-47.84)" gradientUnits="userSpaceOnUse"><stop offset="0" stop-color="#ffca27"/><stop offset="0.93" stop-color="#ff9d27"/></linearGradient><linearGradient id="linear-gradient-4" x1="-467.27" y1="-173.11" x2="-460.32" y2="-169.06" xlink:href="#linear-gradient-3"/><linearGradient id="linear-gradient-5" x1="-468.97" y1="-178.24" x2="-480.14" y2="-176.05" xlink:href="#linear-gradient-3"/><linearGradient id="linear-gradient-6" x1="-478.68" y1="-156.6" x2="-478.68" y2="-153.24" xlink:href="#linear-gradient-3"/></defs><g class="cls-1"><g id="Layer_2" data-name="Layer 2"><g id="Layer_1-2" data-name="Layer 1"><rect class="cls-2" x="42.16" y="40.75" width="715.22" height="139.4" rx="16.85"/><text class="cls-3" transform="translate(75.39 90.21)">1. TÊN CHƯƠNG TRÌNH</text><text class="cls-4" transform="translate(73.18 135.47)"><tspan xml:space="preserve">◆  </tspan><tspan class="cls-5" x="27.84" y="0">V</tspan><tspan class="cls-6" x="38.59" y="0">òng Quay Nhân Phẩm - Quay hăng say - Quà mỗi n</tspan><tspan class="cls-7" x="486.28" y="0">g</tspan><tspan class="cls-6" x="496.77" y="0">ày cùng C</tspan><tspan class="cls-8" x="582.62" y="0">a</tspan><tspan class="cls-6" x="593.15" y="0">t</tspan><tspan class="cls-8" x="600.42" y="0">b</tspan><tspan class="cls-6" x="612.01" y="0">ack</tspan></text><path class="cls-9" d="M743.94,186.79H55.32c-11.62,0-21.07-9.68-21.07-21.58V55.77c0-11.9,9.45-21.58,21.07-21.58H743.94c11.61,0,21.06,9.68,21.06,21.58V165.21C765,177.11,755.55,186.79,743.94,186.79ZM55.32,42.47a13.17,13.17,0,0,0-13,13.3V165.21a13.17,13.17,0,0,0,13,13.3H743.94a13.16,13.16,0,0,0,13-13.3V55.77a13.16,13.16,0,0,0-13-13.3Z"/><path class="cls-10" d="M748.9,34.79l-.81,8.38s7.06,3,8,8.07l8.11-1.19S762.28,38.66,748.9,34.79Z"/><polygon class="cls-11" points="752.79 36.26 750.22 44.14 751.94 45.47 757.41 39.19 752.79 36.26"/><polygon class="cls-11" points="753.82 47.54 760.52 42.47 761.86 44.29 754.43 48.37 753.82 47.54"/><polygon class="cls-11" points="758.19 39.86 752.54 45.95 753.06 46.61 759.03 40.67 758.19 39.86"/><path class="cls-10" d="M764.19,170.55l-8.17-.83s-3,7.23-7.88,8.25l1.16,8.31S760.42,184.27,764.19,170.55Z"/><polygon class="cls-11" points="762.76 174.54 755.08 171.91 753.77 173.66 759.9 179.27 762.76 174.54"/><polygon class="cls-11" points="751.76 175.59 756.7 182.45 754.93 183.83 750.94 176.22 751.76 175.59"/><polygon class="cls-11" points="759.25 180.07 753.31 174.28 752.66 174.81 758.46 180.93 759.25 180.07"/><polygon class="cls-10" points="765 81.77 756.92 83.35 756.92 130.14 765 132.65 765 81.77"/><polygon class="cls-11" points="765 93.79 756.45 95.25 756.45 100.14 765 99.34 765 93.79"/><polygon class="cls-11" points="765 85.73 756.45 87.19 756.45 92.08 765 91.28 765 85.73"/><polygon class="cls-11" points="756.45 102.65 765 101.86 765 103.18 756.45 103.97 756.45 102.65"/><polygon class="cls-11" points="756.7 121.67 765.03 123.79 765.23 122.48 756.89 120.37 756.7 121.67"/><polygon class="cls-11" points="765 116.92 756.45 115.27 756.45 118.51 765 120.95 765 116.92"/><path class="cls-10" d="M50.09,186.28l.82-8.37s-7.07-3.06-8.06-8.07L34.74,171S36.71,182.42,50.09,186.28Z"/><polygon class="cls-11" points="46.2 184.82 48.77 176.94 47.05 175.61 41.58 181.89 46.2 184.82"/><polygon class="cls-11" points="45.17 173.54 38.48 178.61 37.13 176.79 44.56 172.7 45.17 173.54"/><polygon class="cls-11" points="40.8 181.21 46.45 175.13 45.93 174.47 39.96 180.41 40.8 181.21"/><path class="cls-10" d="M34.8,50.52l8.17.84s3-7.24,7.88-8.26l-1.16-8.31S38.57,36.81,34.8,50.52Z"/><polygon class="cls-11" points="36.23 46.53 43.91 49.17 45.22 47.41 39.09 41.81 36.23 46.53"/><polygon class="cls-11" points="47.23 45.49 42.29 38.62 44.06 37.25 48.05 44.85 47.23 45.49"/><polygon class="cls-11" points="39.74 41 45.68 46.79 46.33 46.26 40.53 40.15 39.74 41"/><polygon class="cls-10" points="33.99 139.31 42.07 137.72 42.07 90.94 33.99 88.43 33.99 139.31"/><polygon class="cls-11" points="33.99 127.28 42.54 125.83 42.54 120.94 33.99 121.73 33.99 127.28"/><polygon class="cls-11" points="33.99 135.34 42.54 133.89 42.54 129 33.99 129.79 33.99 135.34"/><polygon class="cls-11" points="42.54 118.43 33.99 119.22 33.99 117.9 42.54 117.11 42.54 118.43"/><polygon class="cls-11" points="42.3 99.4 33.96 97.29 33.76 98.6 42.1 100.71 42.3 99.4"/><polygon class="cls-11" points="33.99 104.15 42.54 105.81 42.54 102.57 33.99 100.12 33.99 104.15"/><polygon class="cls-10" points="621.14 186.57 612.2 178.28 126.47 178.74 119.64 186.57 621.14 186.57"/><polygon class="cls-11" points="502.61 186.57 488.28 178.28 440.08 178.28 447.89 186.57 502.61 186.57"/><polygon class="cls-11" points="582.07 186.57 567.74 178.28 519.54 178.28 527.36 186.57 582.07 186.57"/><polygon class="cls-11" points="415.33 178.28 423.14 186.57 410.12 186.57 402.3 178.28 415.33 178.28"/><polygon class="cls-11" points="227.82 178.52 207 186.6 219.87 186.79 240.69 178.71 227.82 178.52"/><polygon class="cls-11" points="274.65 186.57 290.93 178.28 259.01 178.28 234.92 186.57 274.65 186.57"/><polygon class="cls-10" points="119.64 34.08 128.58 42.37 614.31 41.91 621.14 34.08 119.64 34.08"/><polygon class="cls-11" points="238.17 34.08 252.5 42.37 300.7 42.37 292.88 34.08 238.17 34.08"/><polygon class="cls-11" points="158.71 34.08 173.04 42.37 221.24 42.37 213.42 34.08 158.71 34.08"/><polygon class="cls-11" points="325.45 42.37 317.63 34.08 330.66 34.08 338.48 42.37 325.45 42.37"/><polygon class="cls-11" points="512.96 42.13 533.78 34.05 520.91 33.86 500.08 41.94 512.96 42.13"/><polygon class="cls-11" points="466.13 34.08 449.85 42.37 481.76 42.37 505.86 34.08 466.13 34.08"/><path class="cls-12" d="M743.94,186.79H55.32c-11.62,0-21.07-9.68-21.07-21.58V55.77c0-11.9,9.45-21.58,21.07-21.58H743.94c11.61,0,21.06,9.68,21.06,21.58V165.21C765,177.11,755.55,186.79,743.94,186.79ZM55.32,42.47a13.17,13.17,0,0,0-13,13.3V165.21a13.17,13.17,0,0,0,13,13.3H743.94a13.16,13.16,0,0,0,13-13.3V55.77a13.16,13.16,0,0,0-13-13.3Z"/><path class="cls-13" d="M34.31,11.11s10,5.61,13.74,12.44,4.43,15.64,4.43,15.64l-5.17,5.72S26.32,33.33,34.31,11.11Z"/><path class="cls-13" d="M10.17,37.77s6.58,9.42,13.74,12.44,16,2.86,16,2.86l5.17-5.71S31.49,27.62,10.17,37.77Z"/><path class="cls-14" d="M10.17,37.77,43,49.79l3.28-3.63S24.84,27.56,10.17,37.77Z"/><path class="cls-14" d="M34.13,11.31l15.2,31.42-3.28,3.63S25.42,26.91,34.13,11.31Z"/><path class="cls-15" d="M43.73,30.78S27.56,19.11,15.58,18.41c1.88,11.85,15.1,26.79,15.1,26.79-9.9-3-24.89,6.43-24.89,6.43,8,1,26.46,10.15,26.46,10.15L60.39,30.7S49.49,13.21,47.67,5.38C47.67,5.38,39.75,21.23,43.73,30.78Z"/><path class="cls-16" d="M16.51,15.68a3.65,3.65,0,1,1-3.92-3.36A3.66,3.66,0,0,1,16.51,15.68Z"/><path class="cls-17" d="M14.21,12.56A3.66,3.66,0,0,1,9.85,18a3.65,3.65,0,1,0,4.36-5.44Z"/><path class="cls-16" d="M7.29,51.08a3.65,3.65,0,1,1-3.92-3.37A3.65,3.65,0,0,1,7.29,51.08Z"/><path class="cls-17" d="M5,48A3.65,3.65,0,0,1,.62,53.39,3.65,3.65,0,1,0,5,48Z"/><path class="cls-18" d="M7.29,51.64s18.59-4.27,30.53,4l4.26-4.7S25.89,36.44,7.17,50.4Z"/><path class="cls-19" d="M47.88,6.8s-2.4,18.92,7,30l-4.26,4.7s-16-14.67-4-34.68Z"/><path class="cls-16" d="M49.63,3.37A3.65,3.65,0,1,1,45.71,0,3.66,3.66,0,0,1,49.63,3.37Z"/><path class="cls-17" d="M47.33.25A3.66,3.66,0,0,1,43,5.69,3.65,3.65,0,1,0,47.33.25Z"/><path class="cls-20" d="M15.58,18.41,46.32,46.24l5.92-6.53S37.59,20,15.58,18.41Z"/><path class="cls-21" d="M17.28,20l29,26.29,1.84-2S33.54,28.66,17.28,20Z"/><path class="cls-21" d="M7.28,51.63a35,35,0,0,1,31.87,2.53l-1.31,1.45S28.36,47.54,7.28,51.63Z"/><path class="cls-21" d="M47.83,6.85A35,35,0,0,0,53.5,38.32l1.31-1.46S45.84,28.23,47.83,6.85Z"/><path class="cls-22" d="M31.86,62.21s-.84.48,1.57,2.66L64,31.06s-2.24-1.92-2.94-1.14Z"/><circle class="cls-23" cx="34.03" cy="62.02" r="1.09"/><circle class="cls-23" cx="36.39" cy="59.42" r="1.09"/><circle class="cls-23" cx="38.83" cy="56.72" r="1.09"/><circle class="cls-23" cx="41.27" cy="54.02" r="1.09"/><circle class="cls-23" cx="43.55" cy="51.51" r="1.09"/><circle class="cls-23" cx="45.86" cy="48.95" r="1.09"/><circle class="cls-23" cx="48.11" cy="46.46" r="1.09"/><circle class="cls-23" cx="50.39" cy="43.95" r="1.09"/><circle class="cls-23" cx="52.7" cy="41.4" r="1.09"/><circle class="cls-23" cx="54.95" cy="38.91" r="1.09"/><circle class="cls-23" cx="57.23" cy="36.4" r="1.09"/><circle class="cls-23" cx="59.54" cy="33.84" r="1.09"/><circle class="cls-23" cx="61.87" cy="31.26" r="1.09"/><rect class="cls-24" x="26.22" y="47.83" width="45.61" height="0.79" transform="translate(-19.63 52.2) rotate(-47.84)"/><circle class="cls-25" cx="61.88" cy="30.78" r="0.37"/><circle class="cls-25" cx="57.23" cy="35.91" r="0.37"/><circle class="cls-25" cx="54.89" cy="38.49" r="0.37"/><circle class="cls-25" cx="52.59" cy="41.03" r="0.37"/><circle class="cls-25" cx="50.33" cy="43.53" r="0.37"/><circle class="cls-25" cx="48.06" cy="46.05" r="0.37"/><circle class="cls-25" cx="45.45" cy="48.93" r="0.37"/><circle class="cls-25" cx="43.06" cy="51.56" r="0.37"/><circle class="cls-25" cx="40.9" cy="53.95" r="0.37"/><circle class="cls-25" cx="38.45" cy="56.66" r="0.37"/><circle class="cls-25" cx="35.9" cy="59.47" r="0.37"/><circle class="cls-25" cx="33.63" cy="61.98" r="0.37"/><circle class="cls-25" cx="59.49" cy="33.42" r="0.37"/></g></g></g></svg>