<svg xmlns="http://www.w3.org/2000/svg" xmlns:xlink="http://www.w3.org/1999/xlink" viewBox="0 0 765.5 180.26"><defs><style>.cls-1{isolation:isolate;}.cls-2{fill:#fff;}.cls-3{fill:#6d0000;}.cls-4{fill:#ff8b00;}.cls-5{fill:#dd1b24;}.cls-6{fill:url(#linear-gradient);}.cls-7{fill:#ffdc7c;}.cls-8{fill:#fff6e6;}.cls-9{fill:none;stroke:#d47f02;stroke-miterlimit:10;}.cls-10{fill:#f98526;mix-blend-mode:multiply;}.cls-11{fill:#ff9d27;}.cls-12{fill:url(#linear-gradient-2);}.cls-13{fill:#ffdc01;}.cls-14{fill:#ffb703;}.cls-15{fill:url(#linear-gradient-3);}.cls-16{fill:url(#linear-gradient-4);}.cls-17{fill:url(#linear-gradient-5);}.cls-18,.cls-20,.cls-22{fill:#fff876;}.cls-18{opacity:0.86;}.cls-19{fill:url(#linear-gradient-6);}.cls-20{opacity:0.35;}.cls-21{fill:#e5890e;}.cls-22{opacity:0.52;}</style><linearGradient id="linear-gradient" x1="34.25" y1="103.62" x2="765" y2="103.62" gradientUnits="userSpaceOnUse"><stop offset="0" stop-color="#f34000"/><stop offset="0.74" stop-color="#f34000"/></linearGradient><linearGradient id="linear-gradient-2" x1="-727.86" y1="-279.11" x2="-665.47" y2="-279.11" gradientTransform="translate(705.44 -302.16) rotate(-47.84)" gradientUnits="userSpaceOnUse"><stop offset="0" stop-color="#ffca27"/><stop offset="0.62" stop-color="#ffa727"/></linearGradient><linearGradient id="linear-gradient-3" x1="-708" y1="-275.79" x2="-715.19" y2="-271.04" gradientTransform="translate(705.44 -302.16) rotate(-47.84)" gradientUnits="userSpaceOnUse"><stop offset="0" stop-color="#ffca27"/><stop offset="0.93" stop-color="#ff9d27"/></linearGradient><linearGradient id="linear-gradient-4" x1="-684.92" y1="-275.08" x2="-677.96" y2="-271.04" xlink:href="#linear-gradient-3"/><linearGradient id="linear-gradient-5" x1="-686.61" y1="-280.22" x2="-697.79" y2="-278.02" xlink:href="#linear-gradient-3"/><linearGradient id="linear-gradient-6" x1="-696.32" y1="-258.58" x2="-696.32" y2="-255.22" xlink:href="#linear-gradient-3"/></defs><g class="cls-1"><g id="Layer_2" data-name="Layer 2"><g id="Layer_1-2" data-name="Layer 1"><rect class="cls-2" x="38.26" y="30.64" width="721.64" height="141.76" rx="16.85"/><path class="cls-3" d="M91.6,88.38a9,9,0,0,1-3.69-.68,7.11,7.11,0,0,1-2.5-1.84l1.91-2.6a7.7,7.7,0,0,0,1.78,1.29,4.53,4.53,0,0,0,2.11.5,3.56,3.56,0,0,0,2.1-.55A1.77,1.77,0,0,0,94.09,83a2.57,2.57,0,0,0-.21-1.06,1.72,1.72,0,0,0-.74-.8,4.58,4.58,0,0,0-1.45-.51,12.88,12.88,0,0,0-2.38-.18V77.49a9.37,9.37,0,0,0,2-.17,3.66,3.66,0,0,0,1.29-.49,1.92,1.92,0,0,0,.7-.75,2.19,2.19,0,0,0,.21-1A1.86,1.86,0,0,0,93,73.67a2.31,2.31,0,0,0-1.63-.52,3.53,3.53,0,0,0-1.72.42A9.19,9.19,0,0,0,88,74.72L85.92,72.2a10.29,10.29,0,0,1,2.59-1.67,7.35,7.35,0,0,1,3-.6,9.29,9.29,0,0,1,2.5.32,5.67,5.67,0,0,1,1.94,1,4.48,4.48,0,0,1,1.24,1.53,4.57,4.57,0,0,1,.45,2.07,3.71,3.71,0,0,1-.77,2.37,5.58,5.58,0,0,1-2.2,1.58v.11a5.47,5.47,0,0,1,2.54,1.53,4,4,0,0,1,1,2.81,4.53,4.53,0,0,1-.53,2.2A4.94,4.94,0,0,1,96.25,87a6.61,6.61,0,0,1-2.1,1A8.83,8.83,0,0,1,91.6,88.38Z"/><path class="cls-3" d="M103.78,88.38a2.36,2.36,0,0,1-1.78-.74,2.56,2.56,0,0,1-.71-1.83,2.62,2.62,0,0,1,.71-1.87,2.51,2.51,0,0,1,3.56,0,2.58,2.58,0,0,1,.71,1.87,2.52,2.52,0,0,1-.71,1.83A2.36,2.36,0,0,1,103.78,88.38Z"/><path class="cls-3" d="M114.31,79.62V77.77l2.13-.14V69.79h5.15a12.65,12.65,0,0,1,3.78.53A7.58,7.58,0,0,1,128.25,72a7.19,7.19,0,0,1,1.85,2.81,11.53,11.53,0,0,1,.64,4.06,11.71,11.71,0,0,1-.64,4.09,7.3,7.3,0,0,1-4.63,4.57,11.34,11.34,0,0,1-3.66.56h-5.37V79.62Zm6.24,5.09h.79a7.12,7.12,0,0,0,2.13-.3,4,4,0,0,0,1.62-1,4.59,4.59,0,0,0,1-1.8,8.84,8.84,0,0,0,.38-2.78,8.6,8.6,0,0,0-.38-2.73,4.42,4.42,0,0,0-1-1.76,3.87,3.87,0,0,0-1.62-.94,7.85,7.85,0,0,0-2.13-.28h-.79v4.51h3.5v2h-3.5Z"/><path class="cls-3" d="M141.64,88.38a8.63,8.63,0,0,1-3.38-.65,7.16,7.16,0,0,1-2.61-1.9,8.65,8.65,0,0,1-1.7-3,12.43,12.43,0,0,1-.6-4,12.3,12.3,0,0,1,.6-4,8.33,8.33,0,0,1,1.7-2.94,7.19,7.19,0,0,1,2.61-1.82,9.36,9.36,0,0,1,6.75,0,7.24,7.24,0,0,1,2.62,1.84,8.36,8.36,0,0,1,1.69,3,12.2,12.2,0,0,1,.6,4,12.43,12.43,0,0,1-.6,4,8.64,8.64,0,0,1-1.69,3,7.28,7.28,0,0,1-2.62,1.9A8.58,8.58,0,0,1,141.64,88.38ZM139,68.87l-1.65-1.1L139.87,65h3.53l2.52,2.79-1.65,1.1-2.58-2h-.11Zm2.64,16a3.4,3.4,0,0,0,3-1.61,7.73,7.73,0,0,0,1.1-4.39,7.31,7.31,0,0,0-1.1-4.28,3.62,3.62,0,0,0-5.93,0,7.31,7.31,0,0,0-1.09,4.28,7.73,7.73,0,0,0,1.09,4.39A3.42,3.42,0,0,0,141.64,84.83Zm4.25-18-1.23-1.4,2.8-2.4,1.37,1.68Z"/><path class="cls-3" d="M153.37,88.05V69.79h4.12V88.05Z"/><path class="cls-3" d="M171,88.05V73.26h-5V69.79h14.17v3.47h-5V88.05Z"/><path class="cls-3" d="M190.16,88.38a6.9,6.9,0,0,1-5.43-2.1q-1.87-2.1-1.88-6.69v-9.8H187V80a6.42,6.42,0,0,0,.81,3.75,2.77,2.77,0,0,0,2.35,1.07,2.85,2.85,0,0,0,2.38-1.07,6.24,6.24,0,0,0,.84-3.75V69.79h2a8,8,0,0,0,.84-.11,2.13,2.13,0,0,0,.74-.3,1.56,1.56,0,0,0,.53-.6,2.16,2.16,0,0,0,.21-1,3.44,3.44,0,0,0-.14-1,3.75,3.75,0,0,0-.3-.78l3.05-1.24a7,7,0,0,1,.57,1.19,4.41,4.41,0,0,1,.27,1.56,3.36,3.36,0,0,1-1,2.64,5.27,5.27,0,0,1-2.75,1.22v8.29c0,3.06-.62,5.29-1.84,6.69A6.73,6.73,0,0,1,190.16,88.38Z"/><path class="cls-3" d="M209.54,88.38a8.59,8.59,0,0,1-3.38-.65,7.36,7.36,0,0,1-2.62-1.9,8.8,8.8,0,0,1-1.69-3,12.43,12.43,0,0,1-.6-4,12.3,12.3,0,0,1,.6-4,8.47,8.47,0,0,1,1.69-2.94,7.4,7.4,0,0,1,2.62-1.82,8.77,8.77,0,0,1,3.38-.63,8.59,8.59,0,0,1,3.89.87,2.67,2.67,0,0,0,1.24-.67,1.86,1.86,0,0,0,.44-1.34,3.79,3.79,0,0,0-.14-1,4.35,4.35,0,0,0-.31-.78l3.05-1.24a4.89,4.89,0,0,1,.59,1.19,4.64,4.64,0,0,1,.25,1.56,3.39,3.39,0,0,1-.81,2.39,4.83,4.83,0,0,1-2.41,1.3,8.71,8.71,0,0,1,1.84,3,12.13,12.13,0,0,1,.66,4.13,12.42,12.42,0,0,1-.61,4,8.64,8.64,0,0,1-1.69,3,7.28,7.28,0,0,1-2.62,1.9A8.58,8.58,0,0,1,209.54,88.38Zm0-3.55a3.4,3.4,0,0,0,3-1.61,7.73,7.73,0,0,0,1.1-4.39,7.31,7.31,0,0,0-1.1-4.28,3.62,3.62,0,0,0-5.93,0,7.31,7.31,0,0,0-1.09,4.28,7.73,7.73,0,0,0,1.09,4.39A3.42,3.42,0,0,0,209.54,84.83Zm0,9.52a2.25,2.25,0,0,1-1.64-.61,2.22,2.22,0,0,1,0-3.1,2.51,2.51,0,0,1,3.28,0,2.22,2.22,0,0,1,0,3.1A2.25,2.25,0,0,1,209.51,94.35Z"/><path class="cls-3" d="M221.24,88.05V69.79h4.23l4.76,9.07,1.79,4h.11c-.09-1-.2-2-.32-3.24s-.18-2.34-.18-3.42V69.79h3.92V88.05h-4.23L226.56,79l-1.79-4h-.11c.09,1,.2,2.09.32,3.25a32.67,32.67,0,0,1,.18,3.36v6.47Z"/><path class="cls-3" d="M247.92,88.38a10.11,10.11,0,0,1-3.51-.6A7.82,7.82,0,0,1,241.57,86a8.15,8.15,0,0,1-1.89-2.92,11,11,0,0,1-.69-4,11.16,11.16,0,0,1,.7-4,8.89,8.89,0,0,1,1.92-3,8.1,8.1,0,0,1,2.84-1.88,9.24,9.24,0,0,1,3.45-.65,7.49,7.49,0,0,1,3.41.73,9.08,9.08,0,0,1,2.33,1.65l-2.16,2.64a8.1,8.1,0,0,0-1.48-1,4.15,4.15,0,0,0-2-.42,4.63,4.63,0,0,0-1.95.41,4.32,4.32,0,0,0-1.53,1.16,5.2,5.2,0,0,0-1,1.85,8.12,8.12,0,0,0-.35,2.46,6.71,6.71,0,0,0,1.27,4.38,4.69,4.69,0,0,0,3.85,1.56,4.48,4.48,0,0,0,1.1-.14,2.38,2.38,0,0,0,.86-.42V81.13h-3V77.77h6.66v8.4a7.71,7.71,0,0,1-2.52,1.57A9.09,9.09,0,0,1,247.92,88.38Z"/><path class="cls-3" d="M266.88,88.05V73.26h-5V69.79H276v3.47h-5V88.05Z"/><path class="cls-3" d="M278.89,88.05V69.79H283v7h6.3v-7h4.14V88.05h-4.14V80.43H283v7.62Z"/><path class="cls-3" d="M295.44,88.05l5.71-18.26h5l5.71,18.26h-4.37l-1.12-4.34h-5.57l-1.12,4.34Zm6.61-9.24-.45,1.68h3.89l-.42-1.68c-.26-.92-.51-1.89-.75-2.92s-.49-2-.73-3h-.11c-.23,1-.46,2-.69,3S302.31,77.89,302.05,78.81Z"/><path class="cls-3" d="M313.81,88.05V69.79h4.51l2.94,8.12c.18.54.36,1.1.53,1.67s.34,1.13.53,1.69h.11c.19-.56.36-1.12.52-1.69s.33-1.13.52-1.67l2.88-8.12h4.48V88.05h-3.75v-6.7c0-.44,0-.94.06-1.48s.08-1.09.14-1.64.11-1.09.16-1.62.12-1,.17-1.47h-.11L326,79.48l-2.61,7h-2.27l-2.6-7-1.46-4.34H317c.06.45.11.94.17,1.47s.11,1.07.17,1.62.1,1.1.14,1.64.05,1,.05,1.48v6.7Z"/><path class="cls-3" d="M348.81,88.38a10.21,10.21,0,0,1-3.52-.6A7.82,7.82,0,0,1,342.45,86a8.28,8.28,0,0,1-1.89-2.92,12.23,12.23,0,0,1,0-8.1,8.72,8.72,0,0,1,1.91-3,8.14,8.14,0,0,1,2.85-1.88,9.23,9.23,0,0,1,3.44-.65,7.54,7.54,0,0,1,3.42.73,9,9,0,0,1,2.32,1.65l-2.16,2.64a7.77,7.77,0,0,0-1.48-1,4.12,4.12,0,0,0-2-.42,4.63,4.63,0,0,0-1.95.41,4.38,4.38,0,0,0-1.52,1.16,5.37,5.37,0,0,0-1,1.85,8.12,8.12,0,0,0-.35,2.46,6.71,6.71,0,0,0,1.28,4.38,4.68,4.68,0,0,0,3.85,1.56,4.46,4.46,0,0,0,1.09-.14,2.52,2.52,0,0,0,.87-.42V81.13h-3V77.77h6.67v8.4a7.92,7.92,0,0,1-2.52,1.57A9.13,9.13,0,0,1,348.81,88.38Z"/><path class="cls-3" d="M358.61,88.05V69.79h4.11V88.05Z"/><path class="cls-3" d="M364.71,88.05l5.71-18.26h5l5.71,18.26h-4.37l-1.12-4.34H370l-1.12,4.34Zm6.61-9.24-.45,1.68h3.89l-.42-1.68c-.26-.92-.51-1.89-.75-2.92s-.49-2-.73-3h-.11c-.23,1-.46,2-.69,3S371.58,77.89,371.32,78.81Z"/><path class="cls-4" d="M86.82,126.78a2,2,0,0,1-.86-.17,1.93,1.93,0,0,1-.71-.49,2.21,2.21,0,0,1-.49-.76,2.55,2.55,0,0,1-.18-1,2.64,2.64,0,0,1,.18-1,2.21,2.21,0,0,1,.49-.76,2.37,2.37,0,0,1,.71-.49,2,2,0,0,1,.86-.18,2.13,2.13,0,0,1,.85.18,2.55,2.55,0,0,1,.72.49,2.37,2.37,0,0,1,.49.76,2.64,2.64,0,0,1,.18,1,2.55,2.55,0,0,1-.18,1,2.37,2.37,0,0,1-.49.76,2.05,2.05,0,0,1-.72.49A2.12,2.12,0,0,1,86.82,126.78Z"/><path class="cls-5" d="M98.38,129.64V117.92h-4v-1.4H104v1.4h-4v11.72Z"/><path class="cls-5" d="M107,129.88a2.93,2.93,0,0,1-2-.72,2.59,2.59,0,0,1-.81-2,2.7,2.7,0,0,1,1.42-2.45,11.87,11.87,0,0,1,4.54-1.19,4.58,4.58,0,0,0-.09-.9,2.45,2.45,0,0,0-.31-.78,1.71,1.71,0,0,0-.61-.55,2.07,2.07,0,0,0-1-.21,4,4,0,0,0-1.58.32,7.44,7.44,0,0,0-1.32.72l-.64-1.14a11,11,0,0,1,1.66-.85,5.58,5.58,0,0,1,2.16-.41,3,3,0,0,1,2.58,1.09,4.85,4.85,0,0,1,.8,2.91v6h-1.36l-.14-1.16h-.06a8.11,8.11,0,0,1-1.5,1A3.79,3.79,0,0,1,107,129.88Zm-.74-11.64-.58-.68,2-1.84H109l2,1.84-.58.68-2.06-1.44h-.08Zm1.22,10.32a2.81,2.81,0,0,0,1.32-.33,6.67,6.67,0,0,0,1.32-1v-2.7a18.26,18.26,0,0,0-2.05.38,5.43,5.43,0,0,0-1.34.52,2,2,0,0,0-.74.69,1.6,1.6,0,0,0-.23.85,1.36,1.36,0,0,0,.5,1.2A2,2,0,0,0,107.48,128.56Zm2.86-12.22,1.74-2.4,1,.68-2,2.28Z"/><path class="cls-5" d="M117.62,129.88a3.16,3.16,0,0,1-1.31-.24,2.2,2.2,0,0,1-.86-.66,2.53,2.53,0,0,1-.47-1,5.46,5.46,0,0,1-.14-1.32v-5.38H113.4V120l1.52-.1.2-2.72h1.38v2.72h2.62v1.34H116.5v5.4a2.46,2.46,0,0,0,.33,1.39,1.3,1.3,0,0,0,1.17.49,1.94,1.94,0,0,0,.56-.08,3.42,3.42,0,0,0,.54-.18l.32,1.24a6.85,6.85,0,0,1-.87.25A3.8,3.8,0,0,1,117.62,129.88Z"/><path class="cls-5" d="M129.16,129.88a4.69,4.69,0,0,1-1.8-.34,4.07,4.07,0,0,1-1.45-1,4.47,4.47,0,0,1-1-1.6,6,6,0,0,1-.35-2.15,5.71,5.71,0,0,1,.38-2.17,4.82,4.82,0,0,1,1-1.61,4.21,4.21,0,0,1,1.49-1,4.87,4.87,0,0,1,1.79-.34,3.75,3.75,0,0,1,1.64.34,6.12,6.12,0,0,1,1.2.8l-.84,1.08a4.33,4.33,0,0,0-.89-.62,2.31,2.31,0,0,0-1-.24,2.76,2.76,0,0,0-1.22.27,2.66,2.66,0,0,0-1,.77,3.75,3.75,0,0,0-.63,1.19,4.64,4.64,0,0,0-.23,1.53,4.81,4.81,0,0,0,.22,1.52,3.42,3.42,0,0,0,.61,1.17,2.6,2.6,0,0,0,1,.76,2.76,2.76,0,0,0,1.22.27,2.64,2.64,0,0,0,1.25-.29,4.88,4.88,0,0,0,1-.69l.72,1.1a5.18,5.18,0,0,1-1.46.91A4.41,4.41,0,0,1,129.16,129.88Z"/><path class="cls-5" d="M136.48,129.88a2.93,2.93,0,0,1-2-.72,2.59,2.59,0,0,1-.81-2,2.7,2.7,0,0,1,1.42-2.45,11.87,11.87,0,0,1,4.54-1.19,4.58,4.58,0,0,0-.09-.9,2.45,2.45,0,0,0-.31-.78,1.71,1.71,0,0,0-.61-.55,2.07,2.07,0,0,0-1-.21,4,4,0,0,0-1.58.32,7.44,7.44,0,0,0-1.32.72l-.64-1.14a11,11,0,0,1,1.66-.85,5.58,5.58,0,0,1,2.16-.41,3,3,0,0,1,2.58,1.09,4.85,4.85,0,0,1,.8,2.91v6H139.9l-.14-1.16h-.06a8.11,8.11,0,0,1-1.5,1A3.79,3.79,0,0,1,136.48,129.88Zm.48-1.32a2.81,2.81,0,0,0,1.32-.33,6.67,6.67,0,0,0,1.32-1v-2.7a18.26,18.26,0,0,0-2,.38,5.43,5.43,0,0,0-1.34.52,2,2,0,0,0-.74.69,1.6,1.6,0,0,0-.23.85,1.36,1.36,0,0,0,.5,1.2A2,2,0,0,0,137,128.56Zm.24-10.36-.18-.8a2.68,2.68,0,0,0,.8-.33.69.69,0,0,0,.32-.61c0-.57-.56-.88-1.66-.94l.1-1.08a4.29,4.29,0,0,1,2.12.51,1.54,1.54,0,0,1,.74,1.37,1.44,1.44,0,0,1-.19.75,2,2,0,0,1-.5.54,2.52,2.52,0,0,1-.71.37A4.71,4.71,0,0,1,137.2,118.2Z"/><path class="cls-5" d="M151.38,129.88a3.16,3.16,0,0,1-1.31-.24,2.2,2.2,0,0,1-.86-.66,2.53,2.53,0,0,1-.47-1,5.46,5.46,0,0,1-.14-1.32v-5.38h-1.44V120l1.52-.1.2-2.72h1.38v2.72h2.62v1.34h-2.62v5.4a2.46,2.46,0,0,0,.33,1.39,1.3,1.3,0,0,0,1.17.49,1.94,1.94,0,0,0,.56-.08,3.42,3.42,0,0,0,.54-.18l.32,1.24a6.85,6.85,0,0,1-.87.25A3.8,3.8,0,0,1,151.38,129.88Z"/><path class="cls-5" d="M155.08,129.64V115.4h1.64v3.88l-.06,2a9.07,9.07,0,0,1,1.46-1.13,3.33,3.33,0,0,1,1.78-.47,2.63,2.63,0,0,1,2.25,1,4.78,4.78,0,0,1,.71,2.84v6.16h-1.64V123.7a3.51,3.51,0,0,0-.44-2,1.63,1.63,0,0,0-1.4-.61,2.39,2.39,0,0,0-1.34.38,8.38,8.38,0,0,0-1.32,1.12v7Z"/><path class="cls-5" d="M168.2,129.88a2.93,2.93,0,0,1-2-.72,2.59,2.59,0,0,1-.81-2,2.7,2.7,0,0,1,1.42-2.45,11.87,11.87,0,0,1,4.54-1.19,4.58,4.58,0,0,0-.09-.9,2.45,2.45,0,0,0-.31-.78,1.71,1.71,0,0,0-.61-.55,2.07,2.07,0,0,0-1-.21,4,4,0,0,0-1.58.32,7.44,7.44,0,0,0-1.32.72l-.64-1.14a11,11,0,0,1,1.66-.85,5.58,5.58,0,0,1,2.16-.41,3,3,0,0,1,2.58,1.09,4.85,4.85,0,0,1,.8,2.91v6h-1.36l-.14-1.16h-.06a8.11,8.11,0,0,1-1.5,1A3.79,3.79,0,0,1,168.2,129.88Zm1.64-11.7-3.14-3.06,1.16-1.1,2.82,3.34Zm-1.16,10.38a2.81,2.81,0,0,0,1.32-.33,6.67,6.67,0,0,0,1.32-1v-2.7a18.26,18.26,0,0,0-2,.38,5.43,5.43,0,0,0-1.34.52,2,2,0,0,0-.74.69,1.6,1.6,0,0,0-.23.85,1.36,1.36,0,0,0,.5,1.2A2,2,0,0,0,168.68,128.56Z"/><path class="cls-5" d="M176,129.64v-9.72h1.36l.14,1.4h.06a8,8,0,0,1,1.47-1.17,3.39,3.39,0,0,1,1.79-.47,2.63,2.63,0,0,1,2.25,1,4.78,4.78,0,0,1,.71,2.84v6.16h-1.64V123.7a3.51,3.51,0,0,0-.44-2,1.63,1.63,0,0,0-1.4-.61,2.39,2.39,0,0,0-1.34.38,8.38,8.38,0,0,0-1.32,1.12v7Z"/><path class="cls-5" d="M187,129.64V115.4h1.64v3.88l-.06,2a9.07,9.07,0,0,1,1.46-1.13,3.32,3.32,0,0,1,1.77-.47,2.6,2.6,0,0,1,2.25,1,4.7,4.7,0,0,1,.71,2.84v6.16h-1.63V123.7a3.42,3.42,0,0,0-.45-2,1.61,1.61,0,0,0-1.39-.61,2.39,2.39,0,0,0-1.34.38,8.38,8.38,0,0,0-1.32,1.12v7Z"/><path class="cls-5" d="M204,129.64l-3.5-9.72h1.71l1.83,5.52c.15.48.3,1,.46,1.44s.3,1,.45,1.42H205c.15-.46.3-.94.44-1.42l.45-1.44,1.84-5.52h1.62l-3.45,9.72Z"/><path class="cls-5" d="M212,117.92a1.18,1.18,0,0,1-.81-.3,1.05,1.05,0,0,1,0-1.53,1.22,1.22,0,0,1,.81-.29,1.2,1.2,0,0,1,.81.29,1.05,1.05,0,0,1,0,1.53A1.16,1.16,0,0,1,212,117.92Zm-.83,11.72v-9.72h1.63v9.72Z"/><path class="cls-5" d="M220.05,129.88a4.66,4.66,0,0,1-1.83-.35,4.26,4.26,0,0,1-1.48-1,4.72,4.72,0,0,1-1-1.59,6,6,0,0,1-.36-2.14,6.06,6.06,0,0,1,.37-2.15,5.26,5.26,0,0,1,1-1.61,4.5,4.5,0,0,1,1.39-1,4,4,0,0,1,1.62-.35,4.16,4.16,0,0,1,1.66.32,3.25,3.25,0,0,1,1.21.92,4.11,4.11,0,0,1,.75,1.44,6.15,6.15,0,0,1,.26,1.88c0,.18,0,.35,0,.51a2.52,2.52,0,0,1,0,.43H217a3.85,3.85,0,0,0,1,2.47,3,3,0,0,0,2.27.91,3.79,3.79,0,0,0,1.29-.21,5.37,5.37,0,0,0,1.13-.55l.58,1.08a7.82,7.82,0,0,1-1.42.7A4.92,4.92,0,0,1,220.05,129.88Zm-3.38-12.24,2.28-2.8h1.64l2.28,2.8-.7.64L219.81,116h-.08l-2.36,2.26ZM217,124h5.21a3.51,3.51,0,0,0-.64-2.25,2.17,2.17,0,0,0-1.77-.77,2.61,2.61,0,0,0-1,.2,2.66,2.66,0,0,0-.85.59,3.19,3.19,0,0,0-.62,1A4.45,4.45,0,0,0,217,124Z"/><path class="cls-5" d="M226,129.64v-9.72h1.36l.14,1.4h.06a8.77,8.77,0,0,1,1.47-1.17,3.41,3.41,0,0,1,1.79-.47,2.6,2.6,0,0,1,2.25,1,4.7,4.7,0,0,1,.71,2.84v6.16h-1.64V123.7a3.43,3.43,0,0,0-.44-2,1.62,1.62,0,0,0-1.4-.61,2.44,2.44,0,0,0-1.34.38,9.39,9.39,0,0,0-1.32,1.12v7Z"/><path class="cls-5" d="M244.82,129.88a4.65,4.65,0,0,1-1.8-.34,4,4,0,0,1-1.45-1,4.47,4.47,0,0,1-1-1.6,6,6,0,0,1-.36-2.15,5.91,5.91,0,0,1,.38-2.17,5,5,0,0,1,1-1.61,4.21,4.21,0,0,1,1.49-1,4.87,4.87,0,0,1,1.79-.34,3.75,3.75,0,0,1,1.64.34,6.12,6.12,0,0,1,1.2.8l-.84,1.08a4.13,4.13,0,0,0-.9-.62,2.26,2.26,0,0,0-1-.24,2.75,2.75,0,0,0-1.21.27,2.66,2.66,0,0,0-1,.77,3.75,3.75,0,0,0-.63,1.19,4.63,4.63,0,0,0-.24,1.53,5.11,5.11,0,0,0,.22,1.52,3.8,3.8,0,0,0,.61,1.17,2.64,2.64,0,0,0,1,.76,2.75,2.75,0,0,0,1.21.27,2.59,2.59,0,0,0,1.25-.29,5,5,0,0,0,1-.69l.71,1.1a4.91,4.91,0,0,1-1.46.91A4.33,4.33,0,0,1,244.82,129.88Z"/><path class="cls-5" d="M252.94,129.88a2.66,2.66,0,0,1-2.28-1,4.75,4.75,0,0,1-.71-2.84v-6.16h1.67v5.94a3.59,3.59,0,0,0,.42,2,1.58,1.58,0,0,0,1.4.61,2.37,2.37,0,0,0,1.34-.39,6.65,6.65,0,0,0,1.28-1.25v-6.9h1.64v9.72h-1.37l-.13-1.52h-.06a6.5,6.5,0,0,1-1.44,1.28A3.18,3.18,0,0,1,252.94,129.88Zm.31-11.68-.17-.8a2.51,2.51,0,0,0,.79-.33.68.68,0,0,0,.33-.61c0-.57-.56-.88-1.67-.94l.11-1.08a4.22,4.22,0,0,1,2.11.51,1.52,1.52,0,0,1,.74,1.37,1.44,1.44,0,0,1-.18.75,2,2,0,0,1-.5.54,2.52,2.52,0,0,1-.71.37A4.6,4.6,0,0,1,253.25,118.2Z"/><path class="cls-5" d="M263.21,129.88a2.92,2.92,0,0,1-2-.72,2.59,2.59,0,0,1-.82-2,2.72,2.72,0,0,1,1.42-2.45,11.93,11.93,0,0,1,4.54-1.19,3.93,3.93,0,0,0-.09-.9,2.22,2.22,0,0,0-.3-.78,1.8,1.8,0,0,0-.61-.55,2.09,2.09,0,0,0-1-.21,4.06,4.06,0,0,0-1.58.32,7.7,7.7,0,0,0-1.31.72l-.65-1.14a12.11,12.11,0,0,1,1.66-.85,5.67,5.67,0,0,1,2.17-.41,3,3,0,0,1,2.58,1.09,4.85,4.85,0,0,1,.79,2.91v6h-1.36l-.14-1.16h-.05a8.11,8.11,0,0,1-1.5,1A3.8,3.8,0,0,1,263.21,129.88Zm.49-1.32a2.81,2.81,0,0,0,1.32-.33,6.36,6.36,0,0,0,1.31-1v-2.7a19.17,19.17,0,0,0-2.05.38,5.34,5.34,0,0,0-1.33.52,2.11,2.11,0,0,0-.75.69,1.68,1.68,0,0,0-.22.85,1.36,1.36,0,0,0,.5,1.2A2,2,0,0,0,263.7,128.56Z"/><path class="cls-5" d="M280.17,129.88a5.48,5.48,0,0,1-2.27-.46,5.16,5.16,0,0,1-1.82-1.33,6.07,6.07,0,0,1-1.19-2.14,8.78,8.78,0,0,1-.44-2.87,8.42,8.42,0,0,1,.45-2.84,6.3,6.3,0,0,1,1.22-2.14,5.38,5.38,0,0,1,1.83-1.35,5.77,5.77,0,0,1,2.33-.47,4.47,4.47,0,0,1,2.11.49,5.66,5.66,0,0,1,1.48,1.13L283,119a4.35,4.35,0,0,0-1.19-.9,3.25,3.25,0,0,0-1.5-.34,3.88,3.88,0,0,0-1.69.37,3.81,3.81,0,0,0-1.31,1.06,5.33,5.33,0,0,0-.83,1.67,7.92,7.92,0,0,0-.29,2.2,8,8,0,0,0,.29,2.23,5.32,5.32,0,0,0,.82,1.69,3.44,3.44,0,0,0,1.26,1.08,3.64,3.64,0,0,0,1.7.38,3.43,3.43,0,0,0,1.67-.39,5.1,5.1,0,0,0,1.37-1.09l.92,1a5.94,5.94,0,0,1-1.76,1.4A4.86,4.86,0,0,1,280.17,129.88Z"/><path class="cls-5" d="M288.71,129.88a2.92,2.92,0,0,1-2-.72,2.59,2.59,0,0,1-.82-2,2.72,2.72,0,0,1,1.42-2.45,11.93,11.93,0,0,1,4.54-1.19,3.93,3.93,0,0,0-.09-.9,2.22,2.22,0,0,0-.3-.78,1.8,1.8,0,0,0-.61-.55,2.09,2.09,0,0,0-1-.21,4.06,4.06,0,0,0-1.58.32,7.7,7.7,0,0,0-1.31.72l-.65-1.14a12.11,12.11,0,0,1,1.66-.85,5.67,5.67,0,0,1,2.17-.41,3,3,0,0,1,2.58,1.09,4.85,4.85,0,0,1,.79,2.91v6h-1.36l-.14-1.16h-.05a8.11,8.11,0,0,1-1.5,1A3.8,3.8,0,0,1,288.71,129.88Zm.49-1.32a2.81,2.81,0,0,0,1.32-.33,6.36,6.36,0,0,0,1.31-1v-2.7a19.17,19.17,0,0,0-2.05.38,5.34,5.34,0,0,0-1.33.52,2.11,2.11,0,0,0-.75.69,1.68,1.68,0,0,0-.22.85,1.36,1.36,0,0,0,.5,1.2A2,2,0,0,0,289.2,128.56Z"/><path class="cls-5" d="M299.33,129.88a3.14,3.14,0,0,1-1.3-.24,2.24,2.24,0,0,1-.87-.66,2.65,2.65,0,0,1-.46-1,5.44,5.44,0,0,1-.15-1.32v-5.38h-1.43V120l1.51-.1.2-2.72h1.38v2.72h2.62v1.34h-2.62v5.4a2.55,2.55,0,0,0,.33,1.39,1.31,1.31,0,0,0,1.17.49,2,2,0,0,0,.57-.08,3.8,3.8,0,0,0,.54-.18l.31,1.24a6,6,0,0,1-.87.25A3.69,3.69,0,0,1,299.33,129.88Z"/><path class="cls-5" d="M307.33,129.88a3.44,3.44,0,0,1-1.41-.33,5.36,5.36,0,0,1-1.37-.91h-.06l-.14,1H303V115.4h1.64v3.88l0,1.76a7.06,7.06,0,0,1,1.45-1,3.49,3.49,0,0,1,1.59-.39,3.79,3.79,0,0,1,1.66.35,3.35,3.35,0,0,1,1.21,1,4.43,4.43,0,0,1,.74,1.56,7.58,7.58,0,0,1,.25,2,6.64,6.64,0,0,1-.34,2.22,4.83,4.83,0,0,1-.92,1.66,3.81,3.81,0,0,1-2.94,1.38Zm-.28-1.38a2.31,2.31,0,0,0,1.11-.27,2.55,2.55,0,0,0,.88-.76,3.68,3.68,0,0,0,.58-1.21,5.78,5.78,0,0,0,.21-1.62,6.64,6.64,0,0,0-.14-1.46,3.19,3.19,0,0,0-.45-1.13,2.16,2.16,0,0,0-.8-.73,2.47,2.47,0,0,0-1.17-.26,4.06,4.06,0,0,0-2.6,1.32v5.1a3.94,3.94,0,0,0,1.27.79A3.19,3.19,0,0,0,307.05,128.5Z"/><path class="cls-5" d="M316.05,129.88a2.92,2.92,0,0,1-2-.72,2.59,2.59,0,0,1-.82-2,2.72,2.72,0,0,1,1.42-2.45,11.93,11.93,0,0,1,4.54-1.19,3.93,3.93,0,0,0-.09-.9,2.22,2.22,0,0,0-.3-.78,1.75,1.75,0,0,0-.62-.55,2,2,0,0,0-1-.21,4.06,4.06,0,0,0-1.58.32,7.7,7.7,0,0,0-1.31.72l-.65-1.14a12.11,12.11,0,0,1,1.66-.85,5.65,5.65,0,0,1,2.16-.41,3,3,0,0,1,2.58,1.09,4.78,4.78,0,0,1,.8,2.91v6h-1.36l-.14-1.16h-.05a8.11,8.11,0,0,1-1.5,1A3.8,3.8,0,0,1,316.05,129.88Zm.48-1.32a2.82,2.82,0,0,0,1.33-.33,6.36,6.36,0,0,0,1.31-1v-2.7a19.17,19.17,0,0,0-2.05.38,5.59,5.59,0,0,0-1.34.52,2.16,2.16,0,0,0-.74.69,1.68,1.68,0,0,0-.22.85,1.36,1.36,0,0,0,.5,1.2A2,2,0,0,0,316.53,128.56Z"/><path class="cls-5" d="M327.74,129.88a4.62,4.62,0,0,1-1.8-.34,4,4,0,0,1-1.45-1,4.47,4.47,0,0,1-1-1.6,6,6,0,0,1-.36-2.15,5.91,5.91,0,0,1,.38-2.17,5,5,0,0,1,1-1.61,4.21,4.21,0,0,1,1.49-1,4.87,4.87,0,0,1,1.79-.34,3.7,3.7,0,0,1,1.63.34,5.91,5.91,0,0,1,1.21.8l-.84,1.08a4.13,4.13,0,0,0-.9-.62,2.26,2.26,0,0,0-1-.24,2.75,2.75,0,0,0-1.21.27,2.66,2.66,0,0,0-1,.77,3.75,3.75,0,0,0-.63,1.19,4.63,4.63,0,0,0-.24,1.53,5.11,5.11,0,0,0,.22,1.52,3.8,3.8,0,0,0,.61,1.17,2.64,2.64,0,0,0,1,.76,2.75,2.75,0,0,0,1.21.27,2.62,2.62,0,0,0,1.25-.29,5,5,0,0,0,1-.69l.71,1.1a4.91,4.91,0,0,1-1.46.91A4.33,4.33,0,0,1,327.74,129.88Z"/><path class="cls-5" d="M333,129.64V115.4h1.62V125h.07l4.13-5.12h1.82l-3.26,3.9,3.7,5.82h-1.8L336.45,125l-1.82,2.12v2.56Z"/><path class="cls-5" d="M350,129.88a3.19,3.19,0,0,1-1.31-.24,2.28,2.28,0,0,1-.86-.66,2.67,2.67,0,0,1-.47-1,6,6,0,0,1-.14-1.32v-5.38h-1.44V120l1.52-.1.2-2.72h1.38v2.72h2.62v1.34h-2.62v5.4a2.46,2.46,0,0,0,.33,1.39,1.3,1.3,0,0,0,1.17.49,1.89,1.89,0,0,0,.56-.08,3.42,3.42,0,0,0,.54-.18l.32,1.24a6,6,0,0,1-.87.25A3.69,3.69,0,0,1,350,129.88Z"/><path class="cls-5" d="M353.67,129.64v-9.72H355l.14,1.76h.06a4.66,4.66,0,0,1,1.21-1.46,2.52,2.52,0,0,1,1.55-.54,2.61,2.61,0,0,1,1,.2l-.32,1.44-.44-.12a3.26,3.26,0,0,0-.5,0,2.22,2.22,0,0,0-1.29.5,4.18,4.18,0,0,0-1.17,1.74v6.24Z"/><path class="cls-5" d="M364.35,129.88a4.66,4.66,0,0,1-1.83-.35,4.26,4.26,0,0,1-1.48-1,4.57,4.57,0,0,1-1-1.59,6,6,0,0,1-.36-2.14,6.06,6.06,0,0,1,.37-2.15,5.26,5.26,0,0,1,1-1.61,4.39,4.39,0,0,1,1.39-1,4,4,0,0,1,1.62-.35,4.08,4.08,0,0,1,1.65.32,3.21,3.21,0,0,1,1.22.92,4.11,4.11,0,0,1,.75,1.44,6.15,6.15,0,0,1,.26,1.88c0,.18,0,.35,0,.51a1.75,1.75,0,0,1-.05.43h-6.56a3.8,3.8,0,0,0,1,2.47,3,3,0,0,0,2.27.91,3.79,3.79,0,0,0,1.29-.21,5.37,5.37,0,0,0,1.13-.55l.58,1.08a7.82,7.82,0,0,1-1.42.7A4.92,4.92,0,0,1,364.35,129.88ZM361,117.64l2.28-2.8h1.64l2.28,2.8-.7.64L364.11,116H364l-2.36,2.26Zm.32,6.36h5.2a3.51,3.51,0,0,0-.63-2.25,2.17,2.17,0,0,0-1.77-.77,2.61,2.61,0,0,0-1,.2,2.66,2.66,0,0,0-.85.59,3.42,3.42,0,0,0-.63,1A4.8,4.8,0,0,0,361.29,124Z"/><path class="cls-5" d="M370.33,129.64v-9.72h1.36l.14,1.4h.06a8.77,8.77,0,0,1,1.47-1.17,3.41,3.41,0,0,1,1.79-.47,2.6,2.6,0,0,1,2.25,1,4.7,4.7,0,0,1,.71,2.84v6.16h-1.64V123.7a3.43,3.43,0,0,0-.44-2,1.62,1.62,0,0,0-1.4-.61,2.44,2.44,0,0,0-1.34.38A9.39,9.39,0,0,0,372,122.6v7Z"/><path class="cls-5" d="M388.33,129.88a3.19,3.19,0,0,1-1.31-.24,2.28,2.28,0,0,1-.86-.66,2.67,2.67,0,0,1-.47-1,6,6,0,0,1-.14-1.32v-5.38h-1.44V120l1.52-.1.2-2.72h1.38v2.72h2.62v1.34h-2.62v5.4a2.46,2.46,0,0,0,.33,1.39,1.3,1.3,0,0,0,1.17.49,1.89,1.89,0,0,0,.56-.08,3.42,3.42,0,0,0,.54-.18l.32,1.24a6,6,0,0,1-.87.25A3.69,3.69,0,0,1,388.33,129.88Z"/><path class="cls-5" d="M392,129.64V115.4h1.64v3.88l-.06,2a10,10,0,0,1,1.46-1.13,3.35,3.35,0,0,1,1.78-.47,2.6,2.6,0,0,1,2.25,1,4.7,4.7,0,0,1,.71,2.84v6.16h-1.64V123.7a3.43,3.43,0,0,0-.44-2,1.62,1.62,0,0,0-1.4-.61,2.44,2.44,0,0,0-1.34.38,9.39,9.39,0,0,0-1.32,1.12v7Z"/><path class="cls-5" d="M403.75,117.92a1.16,1.16,0,0,1-.81-.3,1.05,1.05,0,0,1,0-1.53,1.28,1.28,0,0,1,1.62,0,1.05,1.05,0,0,1,0,1.53A1.16,1.16,0,0,1,403.75,117.92Zm-.84,11.72v-9.72h1.64v9.72Z"/><path class="cls-5" d="M411.77,129.88a4.66,4.66,0,0,1-1.83-.35,4.26,4.26,0,0,1-1.48-1,4.57,4.57,0,0,1-1-1.59,6,6,0,0,1-.36-2.14,6.06,6.06,0,0,1,.37-2.15,5.26,5.26,0,0,1,1-1.61,4.39,4.39,0,0,1,1.39-1,4,4,0,0,1,1.62-.35,4.08,4.08,0,0,1,1.65.32,3.21,3.21,0,0,1,1.22.92,4.11,4.11,0,0,1,.75,1.44,6.15,6.15,0,0,1,.26,1.88c0,.18,0,.35,0,.51a1.75,1.75,0,0,1,0,.43h-6.56a3.8,3.8,0,0,0,1,2.47,3,3,0,0,0,2.27.91,3.79,3.79,0,0,0,1.29-.21,5.37,5.37,0,0,0,1.13-.55l.58,1.08a7.82,7.82,0,0,1-1.42.7A4.92,4.92,0,0,1,411.77,129.88ZM408.71,124h5.2a3.51,3.51,0,0,0-.63-2.25,2.17,2.17,0,0,0-1.77-.77,2.57,2.57,0,0,0-1,.2,2.66,2.66,0,0,0-.85.59,3.42,3.42,0,0,0-.63,1A4.8,4.8,0,0,0,408.71,124Zm.68-5.76-.58-.68,2-1.84h1.36l2,1.84-.58.68-2.06-1.44h-.08Zm4.08-1.9,1.74-2.4,1,.68-2,2.28Z"/><path class="cls-5" d="M420.61,129.88a3.19,3.19,0,0,1-1.31-.24,2.28,2.28,0,0,1-.86-.66,2.67,2.67,0,0,1-.47-1,6,6,0,0,1-.14-1.32v-5.38h-1.44V120l1.52-.1.2-2.72h1.38v2.72h2.62v1.34h-2.62v5.4a2.46,2.46,0,0,0,.33,1.39,1.3,1.3,0,0,0,1.17.49,1.94,1.94,0,0,0,.56-.08,3.42,3.42,0,0,0,.54-.18l.32,1.24a6,6,0,0,1-.87.25A3.69,3.69,0,0,1,420.61,129.88Z"/><path class="cls-5" d="M432.61,129.88a3.44,3.44,0,0,1-1.41-.33,5.19,5.19,0,0,1-1.37-.91h-.06l-.14,1h-1.32V115.4H430v3.88l0,1.76a7,7,0,0,1,1.44-1,3.56,3.56,0,0,1,1.6-.39,3.79,3.79,0,0,1,1.66.35,3.44,3.44,0,0,1,1.21,1,4.61,4.61,0,0,1,.74,1.56,7.58,7.58,0,0,1,.25,2,6.64,6.64,0,0,1-.34,2.22,5,5,0,0,1-.92,1.66,3.77,3.77,0,0,1-1.34,1A3.69,3.69,0,0,1,432.61,129.88Zm-.28-1.38a2.34,2.34,0,0,0,1.11-.27,2.55,2.55,0,0,0,.88-.76,3.68,3.68,0,0,0,.58-1.21,5.78,5.78,0,0,0,.21-1.62,6.64,6.64,0,0,0-.14-1.46,3.19,3.19,0,0,0-.45-1.13,2.16,2.16,0,0,0-.8-.73,2.52,2.52,0,0,0-1.17-.26,4,4,0,0,0-2.6,1.32v5.1a3.94,3.94,0,0,0,1.27.79A3.14,3.14,0,0,0,432.33,128.5Z"/><path class="cls-5" d="M440.21,117.92a1.16,1.16,0,0,1-.81-.3,1.05,1.05,0,0,1,0-1.53,1.28,1.28,0,0,1,1.62,0,1.05,1.05,0,0,1,0,1.53A1.16,1.16,0,0,1,440.21,117.92Zm0,15.82a1.06,1.06,0,0,1-.77-.3,1.12,1.12,0,0,1,0-1.55,1.11,1.11,0,0,1,1.54,0,1.12,1.12,0,0,1,0,1.55A1.06,1.06,0,0,1,440.21,133.74Zm-.84-4.1v-9.72H441v9.72Z"/><path class="cls-5" d="M448.29,129.64v-9.72h1.36l.14,1.4h.06a7.26,7.26,0,0,1,1.39-1.17,3,3,0,0,1,1.63-.47,2.82,2.82,0,0,1,1.75.49,2.89,2.89,0,0,1,.93,1.37,8.42,8.42,0,0,1,1.53-1.35,3,3,0,0,1,1.67-.51,2.63,2.63,0,0,1,2.23,1,4.63,4.63,0,0,1,.73,2.84v6.16h-1.64V123.7a3.51,3.51,0,0,0-.44-2,1.58,1.58,0,0,0-1.36-.61,3.61,3.61,0,0,0-2.44,1.5v7h-1.64V123.7a3.51,3.51,0,0,0-.44-2,1.59,1.59,0,0,0-1.38-.61,3.61,3.61,0,0,0-2.44,1.5v7Z"/><path class="cls-5" d="M467.11,129.88a3,3,0,0,1-2-.72,2.59,2.59,0,0,1-.81-2,2.7,2.7,0,0,1,1.42-2.45,11.93,11.93,0,0,1,4.54-1.19,4.58,4.58,0,0,0-.09-.9,2.24,2.24,0,0,0-.31-.78,1.71,1.71,0,0,0-.61-.55,2.07,2.07,0,0,0-1-.21,4,4,0,0,0-1.58.32,8.22,8.22,0,0,0-1.32.72l-.64-1.14a11.55,11.55,0,0,1,1.66-.85,5.58,5.58,0,0,1,2.16-.41,3,3,0,0,1,2.58,1.09,4.85,4.85,0,0,1,.8,2.91v6h-1.36l-.14-1.16h-.06a8.11,8.11,0,0,1-1.5,1A3.76,3.76,0,0,1,467.11,129.88Zm.48-1.32a2.75,2.75,0,0,0,1.32-.33,6.67,6.67,0,0,0,1.32-1v-2.7a18.71,18.71,0,0,0-2.05.38,5.59,5.59,0,0,0-1.34.52,2,2,0,0,0-.74.69,1.69,1.69,0,0,0-.23.85,1.39,1.39,0,0,0,.5,1.2A2,2,0,0,0,467.59,128.56Zm.6-10.38-.84-.82,2.82-3.34,1.16,1.1Z"/><path class="cls-5" d="M475.11,133.82a3,3,0,0,1-.62,0,2.1,2.1,0,0,1-.52-.15l.32-1.3.36.09a1.28,1.28,0,0,0,.38.05,1.73,1.73,0,0,0,1.37-.59,4.19,4.19,0,0,0,.83-1.49l.22-.72-3.9-9.74h1.7l2,5.38c.15.43.3.88.47,1.35s.32.94.47,1.39h.08q.22-.66.42-1.38c.13-.48.27-.93.4-1.36l1.74-5.38h1.6l-3.66,10.52a11,11,0,0,1-.58,1.34,4.28,4.28,0,0,1-.76,1.07,3.32,3.32,0,0,1-1,.71A3.11,3.11,0,0,1,475.11,133.82Z"/><path class="cls-5" d="M491.35,129.88a3.16,3.16,0,0,1-1.31-.24,2.28,2.28,0,0,1-.86-.66,2.53,2.53,0,0,1-.47-1,6,6,0,0,1-.14-1.32v-5.38h-1.44V120l1.52-.1.2-2.72h1.38v2.72h2.62v1.34h-2.62v5.4a2.46,2.46,0,0,0,.33,1.39,1.3,1.3,0,0,0,1.17.49,1.94,1.94,0,0,0,.56-.08,3.42,3.42,0,0,0,.54-.18l.32,1.24a6.85,6.85,0,0,1-.87.25A3.69,3.69,0,0,1,491.35,129.88Z"/><path class="cls-5" d="M495.59,118.18l-.84-.82,2.82-3.34,1.16,1.1Zm-.54,11.46v-9.72h1.64v9.72Z"/><path class="cls-5" d="M500,129.64v-9.72h1.36l.14,1.4h.06a8.77,8.77,0,0,1,1.47-1.17,3.39,3.39,0,0,1,1.79-.47,2.6,2.6,0,0,1,2.25,1,4.78,4.78,0,0,1,.71,2.84v6.16h-1.64V123.7a3.51,3.51,0,0,0-.44-2,1.62,1.62,0,0,0-1.4-.61,2.42,2.42,0,0,0-1.34.38,8.38,8.38,0,0,0-1.32,1.12v7Z"/><path class="cls-5" d="M510.91,129.64V115.4h1.64v3.88l-.06,2a9.54,9.54,0,0,1,1.46-1.13,3.35,3.35,0,0,1,1.78-.47,2.6,2.6,0,0,1,2.25,1,4.78,4.78,0,0,1,.71,2.84v6.16h-1.64V123.7a3.51,3.51,0,0,0-.44-2,1.62,1.62,0,0,0-1.4-.61,2.42,2.42,0,0,0-1.34.38,8.38,8.38,0,0,0-1.32,1.12v7Z"/><path class="cls-5" d="M527.89,129.64l-3.5-9.72h1.7l1.84,5.52.45,1.44c.15.48.3,1,.45,1.42h.08c.15-.46.29-.94.44-1.42s.29-1,.44-1.44l1.84-5.52h1.62l-3.44,9.72Z"/><path class="cls-5" d="M537,129.88a3,3,0,0,1-2-.72,2.59,2.59,0,0,1-.81-2,2.7,2.7,0,0,1,1.42-2.45,11.93,11.93,0,0,1,4.54-1.19,4.58,4.58,0,0,0-.09-.9,2.24,2.24,0,0,0-.31-.78,1.71,1.71,0,0,0-.61-.55,2.07,2.07,0,0,0-1-.21,4,4,0,0,0-1.58.32,8.22,8.22,0,0,0-1.32.72l-.64-1.14a11.55,11.55,0,0,1,1.66-.85,5.58,5.58,0,0,1,2.16-.41,3,3,0,0,1,2.58,1.09,4.85,4.85,0,0,1,.8,2.91v6h-1.36l-.14-1.16h-.06a8.11,8.11,0,0,1-1.5,1A3.76,3.76,0,0,1,537,129.88Zm1.64-11.7-3.14-3.06,1.16-1.1,2.82,3.34Zm-1.16,10.38a2.75,2.75,0,0,0,1.32-.33,6.67,6.67,0,0,0,1.32-1v-2.7a18.71,18.71,0,0,0-2.05.38,5.59,5.59,0,0,0-1.34.52,2,2,0,0,0-.74.69,1.69,1.69,0,0,0-.23.85,1.39,1.39,0,0,0,.5,1.2A2,2,0,0,0,537.45,128.56Z"/><path class="cls-5" d="M552.13,129.88a3.6,3.6,0,0,1-2.93-1.32,5.73,5.73,0,0,1-1.09-3.76,6.26,6.26,0,0,1,.35-2.13,5,5,0,0,1,.93-1.61,4.12,4.12,0,0,1,1.34-1,3.7,3.7,0,0,1,1.6-.36,3.31,3.31,0,0,1,1.46.3,7.08,7.08,0,0,1,1.26.82l-.08-1.66V115.4h1.66v14.24h-1.36l-.14-1.14h-.06a5.91,5.91,0,0,1-1.33,1A3.35,3.35,0,0,1,552.13,129.88Zm.36-1.38a2.62,2.62,0,0,0,1.28-.33,4.48,4.48,0,0,0,1.2-1v-5.08a4.3,4.3,0,0,0-1.19-.79,3.17,3.17,0,0,0-1.17-.23,2.29,2.29,0,0,0-1.09.27,2.8,2.8,0,0,0-.89.76,4,4,0,0,0-.6,1.17,4.85,4.85,0,0,0-.22,1.52,4.61,4.61,0,0,0,.7,2.74A2.28,2.28,0,0,0,552.49,128.5Z"/><path class="cls-5" d="M560.75,117.92a1.16,1.16,0,0,1-.81-.3,1.05,1.05,0,0,1,0-1.53,1.28,1.28,0,0,1,1.62,0,1.05,1.05,0,0,1,0,1.53A1.16,1.16,0,0,1,560.75,117.92Zm-.84,11.72v-9.72h1.64v9.72Z"/><path class="cls-5" d="M572.15,129.88a3.72,3.72,0,0,1-2.93-1.23,5,5,0,0,1-1.09-3.47,5.25,5.25,0,0,1,.35-2,4.55,4.55,0,0,1,.93-1.48,4.36,4.36,0,0,1,1.34-1,4,4,0,0,1,1.6-.34,3.17,3.17,0,0,1,1.46.31,7.78,7.78,0,0,1,1.26.83l-.08-1.68v-1.7h-3.22v-1H575V115.4h1.66v1.86h1.44v.86l-1.44.1v11.42h-1.4l-.12-1.1h-.06a5.18,5.18,0,0,1-1.3,1A3.4,3.4,0,0,1,572.15,129.88Zm.36-1.38a2.62,2.62,0,0,0,1.28-.33,4.48,4.48,0,0,0,1.2-1v-4.3a4.3,4.3,0,0,0-1.19-.79,3.17,3.17,0,0,0-1.17-.23,2.53,2.53,0,0,0-1.09.25,2.85,2.85,0,0,0-.89.69,3.6,3.6,0,0,0-.6,1,4.43,4.43,0,0,0,.48,3.77A2.37,2.37,0,0,0,572.51,128.5Z"/><path class="cls-5" d="M583.71,129.88a4.28,4.28,0,0,1-3.14-1.33,4.83,4.83,0,0,1-1-1.6,5.81,5.81,0,0,1-.37-2.15,5.91,5.91,0,0,1,.37-2.17,5.09,5.09,0,0,1,1-1.61,4.16,4.16,0,0,1,1.43-1,4.47,4.47,0,0,1,3.42,0,4.16,4.16,0,0,1,1.43,1,5.09,5.09,0,0,1,1,1.61,5.91,5.91,0,0,1,.37,2.17,5.81,5.81,0,0,1-.37,2.15,4.83,4.83,0,0,1-1,1.6,4.28,4.28,0,0,1-3.14,1.33Zm-3.1-12.24,2.28-2.8h1.64l2.28,2.8-.7.64L583.75,116h-.08l-2.36,2.26Zm3.1,10.88a2.46,2.46,0,0,0,1.14-.27,2.58,2.58,0,0,0,.89-.76,3.36,3.36,0,0,0,.57-1.17,5.49,5.49,0,0,0,.2-1.52,5.61,5.61,0,0,0-.2-1.53,3.65,3.65,0,0,0-.57-1.19,2.61,2.61,0,0,0-.89-.77,2.54,2.54,0,0,0-2.28,0,2.61,2.61,0,0,0-.89.77,3.65,3.65,0,0,0-.57,1.19,5.61,5.61,0,0,0-.2,1.53,5.49,5.49,0,0,0,.2,1.52,3.36,3.36,0,0,0,.57,1.17,2.58,2.58,0,0,0,.89.76A2.46,2.46,0,0,0,583.71,128.52Zm0,5.22a1.06,1.06,0,0,1-.77-.3,1.12,1.12,0,0,1,0-1.55,1.11,1.11,0,0,1,1.54,0,1.12,1.12,0,0,1,0,1.55A1.06,1.06,0,0,1,583.73,133.74Z"/><path class="cls-5" d="M590.77,129.64v-9.72h1.36l.14,1.4h.06a8.77,8.77,0,0,1,1.47-1.17,3.39,3.39,0,0,1,1.79-.47,2.6,2.6,0,0,1,2.25,1,4.78,4.78,0,0,1,.71,2.84v6.16h-1.64V123.7a3.51,3.51,0,0,0-.44-2,1.62,1.62,0,0,0-1.4-.61,2.42,2.42,0,0,0-1.34.38,8.38,8.38,0,0,0-1.32,1.12v7Z"/><path class="cls-5" d="M605,134.12a7.51,7.51,0,0,1-1.64-.17,3.84,3.84,0,0,1-1.27-.51,2.47,2.47,0,0,1-.82-.82,2.15,2.15,0,0,1-.29-1.12,2.12,2.12,0,0,1,.38-1.18,4,4,0,0,1,1-1v-.08a1.87,1.87,0,0,1-.61-.61,1.73,1.73,0,0,1-.25-1,1.76,1.76,0,0,1,.34-1.08,3.5,3.5,0,0,1,.72-.72v-.08a3.83,3.83,0,0,1-.87-1.07,3,3,0,0,1-.39-1.55,3.53,3.53,0,0,1,.29-1.44,3.32,3.32,0,0,1,.79-1.09,3.42,3.42,0,0,1,1.17-.69,4.18,4.18,0,0,1,1.41-.24,4.35,4.35,0,0,1,.75.07c.23,0,.44.11.63.17h3.38v1.26h-2a2.8,2.8,0,0,1,.57.86,2.87,2.87,0,0,1,.23,1.14,3.38,3.38,0,0,1-.28,1.41,3.06,3.06,0,0,1-.76,1.06,3.46,3.46,0,0,1-1.13.67,4,4,0,0,1-1.39.24,3.18,3.18,0,0,1-.74-.09,3.61,3.61,0,0,1-.72-.25,2.54,2.54,0,0,0-.44.49,1.2,1.2,0,0,0-.18.67.94.94,0,0,0,.36.76,2.21,2.21,0,0,0,1.36.3h1.88a4.83,4.83,0,0,1,2.55.55,2,2,0,0,1,.85,1.77,2.57,2.57,0,0,1-.34,1.29,3.3,3.3,0,0,1-1,1.07,5.06,5.06,0,0,1-1.55.73A7.22,7.22,0,0,1,605,134.12Zm.24-1.14a4.2,4.2,0,0,0,1.27-.17,3.48,3.48,0,0,0,1-.44,2.06,2.06,0,0,0,.62-.63,1.36,1.36,0,0,0,.22-.74,1,1,0,0,0-.5-.94,3.29,3.29,0,0,0-1.46-.26h-1.68l-.61,0a2.88,2.88,0,0,1-.65-.13,2.58,2.58,0,0,0-.76.8,1.68,1.68,0,0,0-.24.84,1.39,1.39,0,0,0,.75,1.24A3.92,3.92,0,0,0,605.23,133Zm-.24-7.52a1.92,1.92,0,0,0,.79-.16,1.88,1.88,0,0,0,.66-.46,2.15,2.15,0,0,0,.45-.73,2.67,2.67,0,0,0,.16-1,2.25,2.25,0,0,0-.6-1.67,2.1,2.1,0,0,0-2.92,0,2.25,2.25,0,0,0-.6,1.67,2.67,2.67,0,0,0,.16,1,2.15,2.15,0,0,0,.45.73,1.88,1.88,0,0,0,.66.46A1.92,1.92,0,0,0,605,125.46Z"/><path class="cls-6" d="M743.94,179.93H55.32c-11.62,0-21.07-9.69-21.07-21.59V48.91c0-11.91,9.45-21.59,21.07-21.59H743.94C755.55,27.32,765,37,765,48.91V158.34C765,170.24,755.55,179.93,743.94,179.93ZM55.32,35.6a13.17,13.17,0,0,0-13,13.31V158.34a13.16,13.16,0,0,0,13,13.3H743.94a13.15,13.15,0,0,0,13-13.3V48.91a13.16,13.16,0,0,0-13-13.31Z"/><path class="cls-7" d="M34.8,43.66l8.17.83s3-7.23,7.88-8.25l-1.16-8.31S38.57,29.94,34.8,43.66Z"/><polygon class="cls-8" points="36.23 39.67 43.91 42.3 45.22 40.55 39.09 34.94 36.23 39.67"/><polygon class="cls-8" points="47.23 38.62 42.29 31.76 44.06 30.38 48.05 37.99 47.23 38.62"/><polygon class="cls-8" points="39.74 34.13 45.68 39.92 46.33 39.4 40.53 33.28 39.74 34.13"/><polygon class="cls-7" points="33.99 132.44 42.07 130.86 42.07 84.07 33.99 81.56 33.99 132.44"/><polygon class="cls-8" points="33.99 120.42 42.54 118.96 42.54 114.07 33.99 114.86 33.99 120.42"/><polygon class="cls-8" points="33.99 128.48 42.54 127.02 42.54 122.13 33.99 122.93 33.99 128.48"/><polygon class="cls-8" points="42.54 111.56 33.99 112.35 33.99 111.03 42.54 110.24 42.54 111.56"/><polygon class="cls-8" points="42.3 92.54 33.96 90.42 33.76 91.73 42.1 93.84 42.3 92.54"/><polygon class="cls-8" points="33.99 97.29 42.54 98.94 42.54 95.7 33.99 93.26 33.99 97.29"/><polygon class="cls-7" points="119.64 27.21 128.58 35.5 614.31 35.05 621.14 27.21 119.64 27.21"/><polygon class="cls-8" points="238.17 27.21 252.5 35.5 300.7 35.5 292.88 27.21 238.17 27.21"/><polygon class="cls-8" points="158.71 27.21 173.04 35.5 221.24 35.5 213.42 27.21 158.71 27.21"/><polygon class="cls-8" points="325.45 35.5 317.63 27.21 330.66 27.21 338.48 35.5 325.45 35.5"/><polygon class="cls-8" points="512.96 35.27 533.78 27.18 520.91 26.99 500.08 35.08 512.96 35.27"/><polygon class="cls-8" points="466.13 27.21 449.85 35.5 481.76 35.5 505.86 27.21 466.13 27.21"/><path class="cls-9" d="M743.94,179.76H55.32c-11.62,0-21.07-9.68-21.07-21.58V48.74c0-11.9,9.45-21.58,21.07-21.58H743.94c11.61,0,21.06,9.68,21.06,21.58V158.18C765,170.08,755.55,179.76,743.94,179.76ZM55.32,35.44a13.17,13.17,0,0,0-13,13.3V158.18a13.17,13.17,0,0,0,13,13.3H743.94a13.16,13.16,0,0,0,13-13.3V48.74a13.16,13.16,0,0,0-13-13.3Z"/><path class="cls-10" d="M34.31,5.73s10,5.61,13.74,12.44,4.43,15.64,4.43,15.64l-5.17,5.72S26.32,28,34.31,5.73Z"/><path class="cls-10" d="M10.17,32.39s6.58,9.42,13.74,12.44,16,2.86,16,2.86L45.09,42S31.49,22.24,10.17,32.39Z"/><path class="cls-11" d="M10.17,32.39,43,44.41l3.28-3.63S24.84,22.18,10.17,32.39Z"/><path class="cls-11" d="M34.13,5.93l15.2,31.42L46.05,41S25.42,21.53,34.13,5.93Z"/><path class="cls-12" d="M43.73,25.4S27.56,13.73,15.58,13c1.88,11.85,15.1,26.79,15.1,26.79-9.9-3-24.89,6.43-24.89,6.43,8,1,26.46,10.15,26.46,10.15L60.39,25.32S49.49,7.83,47.67,0C47.67,0,39.75,15.85,43.73,25.4Z"/><path class="cls-13" d="M16.51,10.3a3.65,3.65,0,1,1-3.92-3.36A3.66,3.66,0,0,1,16.51,10.3Z"/><path class="cls-14" d="M14.21,7.18a3.66,3.66,0,0,1-4.36,5.44,3.65,3.65,0,1,0,4.36-5.44Z"/><path class="cls-13" d="M7.29,45.7a3.65,3.65,0,1,1-3.92-3.37A3.66,3.66,0,0,1,7.29,45.7Z"/><path class="cls-14" d="M5,42.58A3.65,3.65,0,0,1,.62,48,3.65,3.65,0,1,0,5,42.58Z"/><path class="cls-15" d="M7.29,46.26s18.59-4.27,30.53,4l4.26-4.7S25.89,31.06,7.17,45Z"/><path class="cls-16" d="M47.88,1.42s-2.4,18.92,7,30l-4.26,4.7s-16-14.67-4-34.68Z"/><path class="cls-17" d="M15.58,13,46.32,40.86l5.92-6.53S37.59,14.6,15.58,13Z"/><path class="cls-18" d="M17.28,14.57l29,26.29,1.84-2S33.54,23.27,17.28,14.57Z"/><path class="cls-18" d="M7.28,46.25a35,35,0,0,1,31.87,2.53l-1.31,1.45S28.36,42.16,7.28,46.25Z"/><path class="cls-18" d="M47.83,1.47A35,35,0,0,0,53.5,32.94l1.31-1.46S45.84,22.85,47.83,1.47Z"/><path class="cls-19" d="M31.86,56.83s-.84.48,1.57,2.66L64,25.68s-2.24-1.92-2.94-1.14Z"/><circle class="cls-20" cx="34.03" cy="56.64" r="1.09"/><circle class="cls-20" cx="36.39" cy="54.04" r="1.09"/><circle class="cls-20" cx="38.83" cy="51.34" r="1.09"/><circle class="cls-20" cx="41.27" cy="48.64" r="1.09"/><circle class="cls-20" cx="43.55" cy="46.13" r="1.09"/><circle class="cls-20" cx="45.86" cy="43.57" r="1.09"/><circle class="cls-20" cx="48.11" cy="41.08" r="1.09"/><circle class="cls-20" cx="50.39" cy="38.57" r="1.09"/><circle class="cls-20" cx="52.7" cy="36.02" r="1.09"/><circle class="cls-20" cx="54.95" cy="33.53" r="1.09"/><circle class="cls-20" cx="57.23" cy="31.02" r="1.09"/><circle class="cls-20" cx="59.54" cy="28.46" r="1.09"/><circle class="cls-20" cx="61.87" cy="25.88" r="1.09"/><rect class="cls-21" x="26.22" y="42.45" width="45.61" height="0.79" transform="translate(-15.64 50.43) rotate(-47.84)"/><circle class="cls-22" cx="61.88" cy="25.4" r="0.37"/><circle class="cls-22" cx="57.23" cy="30.53" r="0.37"/><circle class="cls-22" cx="54.89" cy="33.11" r="0.37"/><circle class="cls-22" cx="52.59" cy="35.65" r="0.37"/><circle class="cls-22" cx="50.33" cy="38.15" r="0.37"/><circle class="cls-22" cx="48.06" cy="40.67" r="0.37"/><circle class="cls-22" cx="45.45" cy="43.55" r="0.37"/><circle class="cls-22" cx="43.06" cy="46.18" r="0.37"/><circle class="cls-22" cx="40.9" cy="48.57" r="0.37"/><circle class="cls-22" cx="38.45" cy="51.28" r="0.37"/><circle class="cls-22" cx="35.9" cy="54.09" r="0.37"/><circle class="cls-22" cx="33.63" cy="56.6" r="0.37"/><circle class="cls-22" cx="59.49" cy="28.04" r="0.37"/></g></g></g></svg>