<?xml version="1.0" encoding="utf-8"?>
<!-- Generator: Adobe Illustrator 24.2.3, SVG Export Plug-In . SVG Version: 6.00 Build 0)  -->
<svg version="1.1" id="Layer_1" xmlns="http://www.w3.org/2000/svg" xmlns:xlink="http://www.w3.org/1999/xlink" x="0px" y="0px"
	 viewBox="0 0 223.3 76.3" style="enable-background:new 0 0 223.3 76.3;" xml:space="preserve">
<style type="text/css">
	.st0{opacity:0.24;fill:url(#SVGID_1_);enable-background:new    ;}
	.st1{enable-background:new    ;}
	.st2{fill:#FFFFFF;}
	.st3{fill:#B22020;}
	.st4{fill:#FCBA35;}
	.st5{fill:#FFD033;}
	.st6{fill:#F9A435;}
	.st7{fill:#DD3737;}
	.st8{fill:#CE2E2E;}
</style>
<g id="Layer_2_1_">
	<g id="Layer_1-2">
		
			<linearGradient id="SVGID_1_" gradientUnits="userSpaceOnUse" x1="0" y1="39.86" x2="223.29" y2="39.86" gradientTransform="matrix(1 0 0 -1 0 78)">
			<stop  offset="0" style="stop-color:#FFCA27"/>
			<stop  offset="0.62" style="stop-color:#FFA727"/>
		</linearGradient>
		<path class="st0" d="M10,0h203.3c5.5,0,10,4.5,10,10v56.3c0,5.5-4.5,10-10,10H10c-5.5,0-10-4.5-10-10V10C0,4.5,4.5,0,10,0z"/>
		<g class="st1">
			<path class="st2" d="M62.7,21.3h-4v-2.4h11v2.4h-4v10.2h-2.9V21.3z"/>
			<path class="st2" d="M82.8,18.9v12.6h-2.9v-5.2h-5.7v5.2h-2.9V18.9h2.9v5h5.7v-5H82.8z"/>
			<path class="st2" d="M95.5,29.1v2.3h-9.8V18.9h9.5v2.3h-6.6V24h5.9v2.3h-5.9v2.9H95.5z M89,17.9h-2.1l2.4-2.1h2.4l2.4,2.1h-2.1
				l-1.5-1L89,17.9z M92.3,14.7l-0.5-0.9c0.4-0.3,1-0.4,1.5-0.4c1,0,1.7,0.6,1.7,1.4c0,0.7-0.6,1.3-1.3,1.6l-0.7-0.7
				c0.5-0.2,0.7-0.5,0.7-0.8c0-0.3-0.3-0.5-0.6-0.5C92.8,14.5,92.6,14.6,92.3,14.7z"/>
			<path class="st2" d="M102.9,18.9h2.9v10.2h6.3v2.4h-9.2V18.9z"/>
			<path class="st2" d="M123.6,29.1v2.3h-9.8V18.9h9.5v2.3h-6.6V24h5.9v2.3h-5.9v2.9H123.6z M117,17.9H115l2.4-2.6h2.5l2.4,2.6h-2.1
				l-1.6-1.4L117,17.9z M119.9,34.1c0,0.7-0.5,1.2-1.2,1.2s-1.2-0.5-1.2-1.2c0-0.7,0.5-1.3,1.2-1.3S119.9,33.3,119.9,34.1z"/>
		</g>
		<g class="st1">
			<path class="st2" d="M59.3,52.2c0-3.8,2.9-6.5,6.8-6.5c2.2,0,4,0.8,5.2,2.2l-1.9,1.7c-0.8-1-1.9-1.5-3.2-1.5c-2.4,0-4,1.7-4,4
				s1.7,4,4,4c1.3,0,2.3-0.5,3.2-1.5l1.9,1.7c-1.2,1.5-3,2.2-5.2,2.2C62.2,58.7,59.3,56,59.3,52.2z"/>
			<path class="st2" d="M84.9,45.9v12.6h-2.9v-5.2h-5.7v5.2h-2.9V45.9h2.9v5h5.7v-5H84.9z"/>
			<path class="st2" d="M99.1,47.6v5.3c0,3.7-2.1,5.8-5.7,5.8s-5.7-2.1-5.7-5.8v-7.1h2.9v7c0,2.4,1,3.4,2.8,3.4c1.8,0,2.8-1,2.8-3.4
				v-7h1.9c0.6,0,1.1-0.5,1.1-1.1c0-0.4-0.1-0.8-0.4-1.1l1.7-0.6c0.4,0.5,0.6,1.1,0.6,1.8C101.1,46.3,100.4,47.3,99.1,47.6z"/>
			<path class="st2" d="M115.3,52.2c0,3.8-2.9,6.5-6.9,6.5c-4,0-6.9-2.8-6.9-6.5c0-3.8,2.9-6.5,7-6.5c1.4,0,2.4,0.3,3.3,0.3
				c0.9,0,1.5-0.4,1.5-1.2c0-0.4-0.2-0.8-0.4-1.1l1.7-0.6c0.3,0.5,0.6,1.1,0.6,1.8c0,1.4-0.7,2.2-2,2.6
				C114.4,48.5,115.3,50.2,115.3,52.2z M112.3,52.2c0-2.4-1.7-4-3.9-4c-2.2,0-3.9,1.6-3.9,4s1.7,4,3.9,4
				C110.6,56.2,112.3,54.6,112.3,52.2z"/>
			<path class="st2" d="M129,45.9v12.6h-2.4l-6.3-7.7v7.7h-2.9V45.9h2.4l6.3,7.7v-7.7H129z"/>
			<path class="st2" d="M140.5,52h2.7v5.1c-1.4,1-3.3,1.6-5.1,1.6c-4,0-6.9-2.7-6.9-6.5s2.9-6.5,6.9-6.5c2.2,0,4.1,0.8,5.3,2.2
				l-1.9,1.7c-0.9-1-2-1.4-3.3-1.4c-2.4,0-4.1,1.6-4.1,4c0,2.4,1.7,4,4.1,4c0.8,0,1.5-0.1,2.3-0.5V52z"/>
			<path class="st2" d="M153.6,48.3h-4v-2.4h11v2.4h-4v10.2h-2.9V48.3z"/>
			<path class="st2" d="M170.1,58.5l-2.4-3.5h-0.1H165v3.5h-2.9V45.9h5.5c3.4,0,5.5,1.7,5.5,4.6c0,1.9-1,3.3-2.6,4l2.8,4.1H170.1z
				 M167.4,48.3H165v4.4h2.4c1.8,0,2.7-0.8,2.7-2.2C170.1,49.1,169.2,48.3,167.4,48.3z"/>
			<path class="st2" d="M173,42.3h3l2.4,2.6h-2.2L173,42.3z M175.3,45.9h2.9v12.6h-2.9V45.9z"/>
			<path class="st2" d="M192.8,45.9v12.6h-2.4l-6.3-7.7v7.7h-2.9V45.9h2.4l6.3,7.7v-7.7H192.8z"/>
			<path class="st2" d="M207.3,45.9v12.6h-2.9v-5.2h-5.7v5.2h-2.9V45.9h2.9v5h5.7v-5H207.3z"/>
		</g>
		<path class="st3" d="M33.4,65c0,1.5-1.2,2.7-2.8,2.7c-1.5,0-2.7-1.2-2.7-2.8c0-1.5,1.2-2.7,2.8-2.7c0,0,0,0,0,0
			C32.2,62.2,33.4,63.5,33.4,65C33.4,65,33.4,65,33.4,65z"/>
		<path class="st4" d="M39.6,56.6v-2.2c0.3-3.1,0-4.5,1.8-5.4c9.8-6,12.9-18.9,6.9-28.7S29.5,7.4,19.6,13.4S6.7,32.3,12.7,42.1
			c1.7,2.8,4.1,5.2,6.9,6.9c2.1,1.5,1.6,2.3,1.9,5.4v2.2H39.6z"/>
		<path class="st5" d="M47.8,29.5c-2,2.5-7.8,1.2-12.8-2.9s-7.6-9.4-5.6-11.9s7.8-1.2,12.9,2.9S49.8,27,47.8,29.5z"/>
		<path class="st6" d="M51.2,33.1c-0.3,1.3-0.7,2.6-1.2,3.8c-1.5,2.8-3.7,5.1-6.5,6.7c-2.7,1.7-5.8,2.7-9,3
			c-3.1,0.3-6.2-0.4-8.8-1.9c-2.7-1.8-4.9-4.2-6.3-7.1c-1.5-2.9-2.4-6-2.5-9.3c0-3.3,0.9-6.5,2.7-9.2c2.8-4.3,7.2-7.4,12.2-8.7
			c-0.4,0-0.8,0-1.3,0C19,10.5,9.7,19.9,9.8,31.4c0,7.2,3.8,13.8,9.8,17.6c2.1,1.5,1.6,2.3,1.9,5.4v2.2h18.1v-2.2
			c0.3-3.1,0-4.5,1.8-5.4c5.8-3.5,9.4-9.6,9.9-16.3C51.3,32.8,51.3,32.9,51.2,33.1z"/>
		<rect x="21.5" y="53" class="st7" width="18.1" height="7.4"/>
		<path class="st7" d="M33,46h-4.9v-1.9c-0.7-0.1-1.4-0.3-2.1-0.6l-1,1.6l-4.2-2.5l1-1.7c-0.5-0.5-1-1-1.4-1.6l-1.8,1L16.1,36l2-1.1
			c-0.2-0.7-0.3-1.3-0.4-2l-2.4-0.1l0.1-4.8l2.6,0.1c0.2-0.6,0.4-1.2,0.6-1.7l-2.2-1.5l2.6-4.1l2.4,1.5c0.3-0.4,0.7-0.7,1.1-1
			l-1.4-2.5l4.3-2.3l1.4,2.7c0.3-0.1,0.7-0.2,1-0.2v-3h5v3c0.5,0.1,1.1,0.2,1.6,0.4l1.5-2.6l4.2,2.5l-1.5,2.5
			c0.4,0.4,0.9,0.8,1.2,1.2l2.5-1.4l2.4,4.3l-2.3,1.3c0.2,0.6,0.4,1.2,0.5,1.8l2.5,0.1l-0.2,4.9l-2.3-0.1c-0.1,0.7-0.3,1.3-0.5,2
			l1.9,1.2l-2.7,4.1L40.2,40c-0.4,0.5-0.9,0.9-1.3,1.3l0.9,1.8l-4.3,2.3l-0.9-1.7c-0.5,0.2-1,0.3-1.5,0.4L33,46z M29,45.1h3.1v-1.7
			l0.4-0.1c0.7-0.1,1.4-0.3,2.1-0.6l0.4-0.1l0.8,1.6l2.8-1.5l-0.9-1.6l0.3-0.2c0.6-0.5,1.2-1.1,1.8-1.7l0.2-0.3l1.6,1l1.7-2.7
			l-1.7-1.1l0.1-0.3c0.3-0.8,0.5-1.6,0.7-2.5v-0.4l2.2,0.1l0.1-3.2l-2.4-0.1l-0.1-0.4c-0.1-0.8-0.4-1.6-0.7-2.3l-0.1-0.4l2.2-1.2
			l-1.5-2.8L39.9,24l-0.2-0.3c-0.5-0.6-1.1-1.1-1.7-1.6l-0.3-0.2l1.4-2.4l-2.7-1.6L35,20.3l-0.3-0.1c-0.7-0.3-1.4-0.4-2.2-0.6
			l-0.4-0.1v-2.9H29v2.9l-0.4,0.1c-0.6,0.1-1.1,0.2-1.6,0.4l-0.4,0.1l-1.3-2.5l-2.8,1.5l1.3,2.4l-0.3,0.2c-0.6,0.4-1.1,0.9-1.5,1.4
			l-0.3,0.3L19.4,22l-1.7,2.7l2.1,1.3l-0.2,0.4c-0.3,0.7-0.6,1.5-0.8,2.3L18.8,29l-2.4-0.1L16.3,32l2.3,0.1v0.4
			c0.1,0.9,0.2,1.7,0.5,2.5l0.1,0.3l-1.9,1l1.5,2.8l1.7-0.9l0.2,0.3c0.5,0.7,1.1,1.4,1.8,2l0.3,0.2l-1,1.6l2.7,1.6l0.9-1.5l0.4,0.2
			c0.9,0.3,1.7,0.6,2.7,0.8l0.4,0.1L29,45.1z"/>
		<path class="st7" d="M30.5,40.2c-5.1,0-9.3-4.1-9.3-9.3s4.1-9.3,9.3-9.3s9.3,4.1,9.3,9.3c0,0,0,0,0,0C39.8,36,35.6,40.2,30.5,40.2
			z M30.5,22.5c-4.6,0-8.4,3.7-8.4,8.4s3.7,8.4,8.4,8.4s8.4-3.7,8.4-8.4c0,0,0,0,0,0C38.9,26.3,35.2,22.5,30.5,22.5z M30.5,37.4
			c-3.6,0-6.5-2.9-6.5-6.5s2.9-6.5,6.5-6.5s6.5,2.9,6.5,6.5c0,0,0,0,0,0C37,34.5,34.1,37.4,30.5,37.4z M30.5,25.3
			c-3.1,0-5.6,2.5-5.6,5.6c0,3.1,2.5,5.6,5.6,5.6s5.6-2.5,5.6-5.6c0,0,0,0,0,0C36.1,27.8,33.6,25.3,30.5,25.3z"/>
		<polygon class="st8" points="32.8,60.5 28.5,60.5 23.9,60.5 25.6,65.4 28.5,65.4 32.8,65.4 35.7,65.4 37.4,60.5 		"/>
	</g>
</g>
</svg>
