<svg xmlns="http://www.w3.org/2000/svg" xmlns:xlink="http://www.w3.org/1999/xlink" viewBox="0 0 752 674.62"><defs><style>.cls-1{mask:url(#mask);filter:url(#luminosity-noclip-4);}.cls-2,.cls-30,.cls-4,.cls-43,.cls-46,.cls-47,.cls-50,.cls-53,.cls-6{mix-blend-mode:multiply;}.cls-2{fill:url(#radial-gradient);}.cls-3{mask:url(#mask-2);filter:url(#luminosity-noclip-5);}.cls-4{fill:url(#radial-gradient-2);}.cls-5{mask:url(#mask-3);filter:url(#luminosity-noclip-6);}.cls-6{fill:url(#radial-gradient-3);}.cls-7{isolation:isolate;}.cls-8{fill:#fff;}.cls-9{font-size:28px;}.cls-10,.cls-9{fill:#6d0000;font-family:Arial-BoldMT, Arial;font-weight:700;}.cls-10{font-size:26px;}.cls-11,.cls-16{font-size:21.5px;fill:#ff8b00;}.cls-11{font-family:SourceSansPro-Regular, Source Sans Pro;}.cls-12{letter-spacing:1.47em;}.cls-13,.cls-14,.cls-15,.cls-18,.cls-19,.cls-20,.cls-21,.cls-22,.cls-23{fill:#dd1b24;}.cls-13,.cls-14,.cls-16,.cls-25{font-family:ArialMT, Arial;}.cls-14,.cls-18{letter-spacing:-0.02em;}.cls-17{letter-spacing:1.4em;}.cls-19{letter-spacing:-0.06em;}.cls-20{letter-spacing:-0.01em;}.cls-21{letter-spacing:-0.02em;}.cls-22{letter-spacing:0em;}.cls-23{letter-spacing:-0.02em;}.cls-24{letter-spacing:0.19em;}.cls-26{fill:url(#linear-gradient);}.cls-27{fill:#ffdc7c;}.cls-28{fill:#fff6e6;}.cls-29{fill:#d07400;}.cls-30{fill:#f98526;}.cls-31{fill:#ff9d27;}.cls-32{fill:url(#linear-gradient-2);}.cls-33{fill:#ffdc01;}.cls-34{fill:#ffb703;}.cls-35{fill:url(#linear-gradient-3);}.cls-36{fill:url(#linear-gradient-4);}.cls-37{fill:url(#linear-gradient-5);}.cls-38,.cls-40,.cls-42{fill:#fff876;}.cls-38{opacity:0.86;}.cls-39{fill:url(#linear-gradient-6);}.cls-40{opacity:0.35;}.cls-41{fill:#e5890e;}.cls-42{opacity:0.52;}.cls-43{fill:#8a7d63;opacity:0.6;}.cls-44{fill:url(#linear-gradient-7);}.cls-45{mask:url(#mask-4);}.cls-46{fill:url(#radial-gradient-4);}.cls-47{fill:#d47f02;}.cls-48{fill:url(#linear-gradient-8);}.cls-49{mask:url(#mask-5);}.cls-50{fill:url(#radial-gradient-5);}.cls-51{fill:url(#linear-gradient-9);}.cls-52{mask:url(#mask-6);}.cls-53{fill:url(#radial-gradient-6);}.cls-54{filter:url(#luminosity-noclip-3);}.cls-55{filter:url(#luminosity-noclip-2);}.cls-56{filter:url(#luminosity-noclip);}</style><filter id="luminosity-noclip" x="587.14" y="-7363.65" width="149.45" height="32766" filterUnits="userSpaceOnUse" color-interpolation-filters="sRGB"><feFlood flood-color="#fff" result="bg"/><feBlend in="SourceGraphic" in2="bg"/></filter><mask id="mask" x="587.14" y="-7363.65" width="149.45" height="32766" maskUnits="userSpaceOnUse"><g class="cls-56"/></mask><radialGradient id="radial-gradient" cx="-2316.41" cy="683.33" r="108.15" gradientTransform="translate(2880.66 -407.9) rotate(-7.12)" gradientUnits="userSpaceOnUse"><stop offset="0.41"/><stop offset="0.85" stop-color="#fff"/></radialGradient><filter id="luminosity-noclip-2" x="448.98" y="-7363.65" width="115.9" height="32766" filterUnits="userSpaceOnUse" color-interpolation-filters="sRGB"><feFlood flood-color="#fff" result="bg"/><feBlend in="SourceGraphic" in2="bg"/></filter><mask id="mask-2" x="448.98" y="-7363.65" width="115.9" height="32766" maskUnits="userSpaceOnUse"><g class="cls-55"/></mask><radialGradient id="radial-gradient-2" cx="-2818.96" cy="804.16" r="83.24" gradientTransform="translate(2853.61 -1178.27) rotate(-20.88)" xlink:href="#radial-gradient"/><filter id="luminosity-noclip-3" x="326.53" y="-7363.65" width="100.55" height="32766" filterUnits="userSpaceOnUse" color-interpolation-filters="sRGB"><feFlood flood-color="#fff" result="bg"/><feBlend in="SourceGraphic" in2="bg"/></filter><mask id="mask-3" x="326.53" y="-7363.65" width="100.55" height="32766" maskUnits="userSpaceOnUse"><g class="cls-54"/></mask><radialGradient id="radial-gradient-3" cx="-3270.22" cy="787.16" r="74.8" gradientTransform="matrix(0.83, -0.55, 0.55, 0.83, 2668.09, -1865.05)" xlink:href="#radial-gradient"/><linearGradient id="linear-gradient" x1="34.78" y1="307.08" x2="751.49" y2="307.08" gradientUnits="userSpaceOnUse"><stop offset="0" stop-color="#f34000"/><stop offset="0.74" stop-color="#f34000"/></linearGradient><linearGradient id="linear-gradient-2" x1="-1017" y1="278.65" x2="-954.61" y2="278.65" gradientTransform="translate(486.03 -885.47) rotate(-47.84)" gradientUnits="userSpaceOnUse"><stop offset="0" stop-color="#ffca27"/><stop offset="0.62" stop-color="#ffa727"/></linearGradient><linearGradient id="linear-gradient-3" x1="-997.14" y1="281.97" x2="-1004.33" y2="286.73" gradientTransform="translate(486.03 -885.47) rotate(-47.84)" gradientUnits="userSpaceOnUse"><stop offset="0" stop-color="#ffca27"/><stop offset="0.93" stop-color="#ff9d27"/></linearGradient><linearGradient id="linear-gradient-4" x1="-974.06" y1="282.68" x2="-967.1" y2="286.72" xlink:href="#linear-gradient-3"/><linearGradient id="linear-gradient-5" x1="-975.75" y1="277.54" x2="-986.92" y2="279.74" xlink:href="#linear-gradient-3"/><linearGradient id="linear-gradient-6" x1="-985.46" y1="299.18" x2="-985.46" y2="302.54" xlink:href="#linear-gradient-3"/><linearGradient id="linear-gradient-7" x1="-2341.81" y1="785.56" x2="-2319.83" y2="685.88" gradientTransform="translate(2880.66 -407.9) rotate(-7.12)" gradientUnits="userSpaceOnUse"><stop offset="0.11" stop-color="#fffb74"/><stop offset="0.49" stop-color="#fffa00"/><stop offset="0.93" stop-color="#ffc921"/></linearGradient><filter id="luminosity-noclip-4" x="587.14" y="520.16" width="149.45" height="139.56" filterUnits="userSpaceOnUse" color-interpolation-filters="sRGB"><feFlood flood-color="#fff" result="bg"/><feBlend in="SourceGraphic" in2="bg"/></filter><mask id="mask-4" x="587.14" y="520.16" width="149.45" height="139.56" maskUnits="userSpaceOnUse"><g class="cls-1"><path class="cls-2" d="M723,576c-1.47-.87-3-1.68-4.52-2.52,6.82,5.42,8.77,11.47,6.62,16.52-3,7-15.53,10.06-23.08,11.61-10,2-2.59,10-5.45,19.64-5.54,18.89-28.81,12.1-37.27,2.3-5.55-6.41-22,10-34.76-.95-3.77-3.22-5.81-10-4.76-14.79,2.32-10.56-3.59-11.44-9.62-17.81-9.33-9.86-16.58-24.25-3.81-26.27a303.72,303.72,0,0,1,30.85-3.08c5.5-.27,6.19-10.64,12.46-23.68,1.47-3.07,6.37-13.56,7.56-16.82-5.06,5.42-8.89,12.94-12.25,19a102.58,102.58,0,0,0-6.62,14.93,2.57,2.57,0,0,0-1.18-.08c-11,1.49-21.42,1.46-32.32,4.17-8,2-17.38,3.1-17.71,12.07-.21,5.91,5.06,11.39,9,15.21,6.37,6.27,11.79,11.4,18.62,17.15-3.92,9.59-8.4,19.12-10.76,28.68-1.24,5.09-3.41,16.76,2.79,20,5,2.57,11.68-.06,18.23-3.06,10.31-4.69,29.2-17.5,30.11-18.59,7.39,7,16.65,14,27.24,21.91,5,3.75,16.34,11.73,21.91,6.44,4.58-4.35,3.47-12.65,2.84-18.24-1.21-10.39-3.2-21-5.16-31.28,7.95-1.93,15.87-3.9,23.67-6.39,5.51-1.76,11.73-5.55,10.9-12.19S728.17,579,723,576Z"/></g></mask><radialGradient id="radial-gradient-4" cx="-2316.41" cy="683.33" r="108.15" gradientTransform="translate(2880.66 -407.9) rotate(-7.12)" gradientUnits="userSpaceOnUse"><stop offset="0.41" stop-color="#fffb62"/><stop offset="0.85" stop-color="#f39f46"/></radialGradient><linearGradient id="linear-gradient-8" x1="-2838.5" y1="882.83" x2="-2821.59" y2="806.12" gradientTransform="translate(2853.61 -1178.27) rotate(-20.88)" xlink:href="#linear-gradient-7"/><filter id="luminosity-noclip-5" x="448.98" y="551.68" width="115.9" height="107.42" filterUnits="userSpaceOnUse" color-interpolation-filters="sRGB"><feFlood flood-color="#fff" result="bg"/><feBlend in="SourceGraphic" in2="bg"/></filter><mask id="mask-5" x="448.98" y="551.68" width="115.9" height="107.42" maskUnits="userSpaceOnUse"><g class="cls-3"><path class="cls-4" d="M551.8,581.4c-1.29-.37-2.56-.7-3.86-1,6.09,2.8,8.64,7,8,11.14-.94,5.81-9.75,10.36-15.11,12.88-7.13,3.36-.13,7.94-.49,15.71-.7,15.13-19.34,14.28-27.47,8.51-5.31-3.79-14.63,11.53-26.15,5.66-3.38-1.73-6.14-6.38-6.24-10.17-.22-8.34-4.8-7.89-10.47-11.54-8.77-5.69-16.82-15.13-7.66-19a237.79,237.79,0,0,1,22.53-8c4-1.22,2.65-9.08,4.95-20,.56-2.59,2.29-11.29,2.59-13.94-2.81,5-4.28,11.33-5.69,16.44a78.94,78.94,0,0,0-2.22,12.38,2.73,2.73,0,0,0-.89.17c-8,3.12-15.74,5-23.4,9-5.64,3-12.43,5.47-11,12.27.94,4.44,5.86,7.58,9.48,9.73,5.94,3.5,10.91,6.36,17.09,9.4-1.21,7.9-2.79,15.81-2.8,23.4,0,4,.51,13.17,5.74,14.41,4.2,1,8.7-2.18,13.05-5.62,6.85-5.4,18.64-18.43,19.11-19.41,6.81,3.88,15,7.41,24.38,11.39,4.4,1.9,14.36,5.78,17.55.84,2.62-4.11.28-10.12-1.22-14.17-2.78-7.53-6.21-15.17-9.58-22.47,5.58-2.89,11.17-5.79,16.53-9.07,3.79-2.33,7.76-6.34,5.92-11.14S556.21,582.72,551.8,581.4Z"/></g></mask><radialGradient id="radial-gradient-5" cx="-2818.96" cy="804.16" r="83.24" gradientTransform="translate(2853.61 -1178.27) rotate(-20.88)" xlink:href="#radial-gradient-4"/><linearGradient id="linear-gradient-9" x1="-3287.78" y1="857.85" x2="-3272.58" y2="788.91" gradientTransform="matrix(0.83, -0.55, 0.55, 0.83, 2668.09, -1865.05)" xlink:href="#linear-gradient-7"/><filter id="luminosity-noclip-6" x="326.53" y="573.36" width="100.55" height="96.75" filterUnits="userSpaceOnUse" color-interpolation-filters="sRGB"><feFlood flood-color="#fff" result="bg"/><feBlend in="SourceGraphic" in2="bg"/></filter><mask id="mask-6" x="326.53" y="573.36" width="100.55" height="96.75" maskUnits="userSpaceOnUse"><g class="cls-5"><path class="cls-6" d="M413.2,587.81c-1.18-.06-2.39-.12-3.58-.15,5.88,1.27,8.94,4.4,9.16,8.2.33,5.3-6.53,11-10.74,14.26-5.59,4.35,1.42,7,2.64,13.87,2.35,13.42-14.14,16.32-22.43,12.83-5.41-2.27-10.58,13-21.83,10.08-3.33-.85-6.64-4.4-7.48-7.7-1.81-7.27-5.74-6-11.43-8.11-8.81-3.23-17.73-10-10.42-15.11a204.23,204.23,0,0,1,18.2-11.37c3.32-1.86.57-8.5.46-18.53,0-2.35-.2-10.35-.45-12.72-1.49,4.9-1.57,10.76-1.8,15.52a71.1,71.1,0,0,0,.49,11.3,2,2,0,0,0-.76.32c-6.39,4.3-12.82,7.46-18.75,12.49-4.39,3.69-9.85,7.24-7.3,12.9,1.68,3.73,6.64,5.51,10.23,6.7,5.89,1.92,10.82,3.44,16.83,4.94.47,7.12.63,14.4,2.12,21.05.75,3.54,3,11.44,7.82,11.53,3.9.06,7.23-3.6,10.38-7.47,4.93-6.09,12.75-19.81,13-20.76,6.73,2.06,14.62,3.55,23.62,5.22,4.23.79,13.72,2.26,15.55-2.72,1.51-4.11-1.74-8.9-3.83-12.16-3.92-6.11-8.42-12.09-12.78-17.83,4.34-3.62,8.67-7.29,12.71-11.21,2.9-2.79,5.58-7,3-10.9S417.33,588.13,413.2,587.81Z"/></g></mask><radialGradient id="radial-gradient-6" cx="-3270.22" cy="787.16" r="74.8" gradientTransform="matrix(0.83, -0.55, 0.55, 0.83, 2668.09, -1865.05)" xlink:href="#radial-gradient-4"/></defs><g class="cls-7"><g id="Layer_2" data-name="Layer 2"><g id="Layer_1-2" data-name="Layer 1"><rect class="cls-8" x="34.53" y="34.89" width="714.67" height="541.32" rx="16.85"/><text class="cls-9" transform="translate(77.17 92.85)">6. CƠ CẤU GIẢI THƯỞNG VÀ CÁCH THỨC TÍNH </text><text class="cls-10" transform="translate(77.17 135.57)">6.1 Giải thưởng vòng quay ngày </text><text class="cls-11" transform="translate(76.15 178.03)"><tspan class="cls-12">	</tspan><tspan x="36" y="0" xml:space="preserve">  </tspan><tspan class="cls-13" x="44.6" y="0">Giải đặc biệt:</tspan><tspan class="cls-14" x="170.08" y="0"> </tspan><tspan class="cls-13" x="175.67" y="0">Thẻ điện thoại mệnh giá 100.000đ </tspan><tspan class="cls-15"><tspan x="0" y="25.8" xml:space="preserve">  </tspan></tspan></text><text class="cls-10" transform="translate(77.17 334.74)">6.2 Điều khoản áp dụng </text><text class="cls-11" transform="translate(76.15 380.28)"><tspan xml:space="preserve">◆  </tspan><tspan class="cls-13" x="27.84" y="0">Người chơi cần đăng nhập vào </tspan><tspan class="cls-14" x="331" y="0">W</tspan><tspan class="cls-13" x="350.91" y="0">ebsite từ máy tính / di động / </tspan><tspan class="cls-13"><tspan x="0" y="30">App Catback để tham gia vòng quay may mắn</tspan></tspan></text><text class="cls-16" transform="translate(71.25 216.22)"><tspan class="cls-17">	</tspan><tspan x="36" y="0" xml:space="preserve">  </tspan><tspan class="cls-15" x="47.95" y="0">Giải thưởng</tspan><tspan class="cls-18" x="162.49" y="0"> </tspan><tspan class="cls-15" x="168.08" y="0">Thẻ điện thoại mệnh giá 10.000đ và 20.000đ</tspan></text><text class="cls-16" transform="translate(73.15 252.89)"><tspan class="cls-17">	</tspan><tspan x="36" y="0" xml:space="preserve">  </tspan><tspan class="cls-19" x="47.95" y="0">V</tspan><tspan class="cls-20" x="60.99" y="0">oucher mua sắm giảm giá từ các sàn</tspan><tspan class="cls-21" x="411.11" y="0"> </tspan><tspan class="cls-22" x="416.59" y="0">TMĐ</tspan><tspan class="cls-23" x="462.83" y="0">T</tspan><tspan class="cls-22" x="475.47" y="0" xml:space="preserve"> liên kết với Cat</tspan><tspan class="cls-22" x="622.77" y="0">-</tspan></text><text class="cls-16" transform="translate(74.25 288.59)"><tspan xml:space="preserve">    </tspan><tspan class="cls-24" x="23.89" y="0">	</tspan><tspan x="34" y="0" xml:space="preserve">  </tspan><tspan class="cls-15" x="45.95" y="0">Chúc bạn may mắn, vẫn có thể tiếp tục tham gia vòng quay</tspan></text><text class="cls-11" transform="translate(76.15 452.34)">◆<tspan class="cls-25" x="19.24" y="0" xml:space="preserve">  </tspan><tspan class="cls-13" x="31.19" y="0">Người chơi cần đăng nhập lần đầu bằng tài khoản Facebook </tspan><tspan class="cls-13"><tspan x="0" y="30">hoặc Google để tạo tài khoản tham gia vòng quay của Catback</tspan></tspan></text><text class="cls-11" transform="translate(76.15 521.12)"><tspan xml:space="preserve">◆  </tspan><tspan class="cls-13" x="27.84" y="0">Chương trình không áp dụng cho nhân viên Catback</tspan></text><path class="cls-26" d="M729.8,582.11H56.47a21.71,21.71,0,0,1-21.69-21.69V53.75A21.71,21.71,0,0,1,56.47,32.06H729.8a21.71,21.71,0,0,1,21.69,21.69V560.42A21.71,21.71,0,0,1,729.8,582.11ZM56.47,42A11.77,11.77,0,0,0,44.71,53.75V560.42a11.77,11.77,0,0,0,11.76,11.76H729.8a11.78,11.78,0,0,0,11.76-11.76V53.75A11.77,11.77,0,0,0,729.8,42Z"/><path class="cls-27" d="M53.79,582.34l.66-9.76s-8.52-3.28-9.89-9.08L35,565.18S37.71,578.35,53.79,582.34Z"/><polygon class="cls-28" points="49.1 580.78 51.87 571.53 49.78 570.05 43.5 577.55 49.1 580.78"/><polygon class="cls-28" points="47.47 567.72 39.68 573.86 38.02 571.79 46.7 566.77 47.47 567.72"/><polygon class="cls-28" points="42.54 576.8 49.05 569.51 48.41 568.76 41.52 575.89 42.54 576.8"/><path class="cls-27" d="M36.39,45.16l8.84,3.65S51,41.51,56.82,42l1.53-9.91S45.26,30.69,36.39,45.16Z"/><polygon class="cls-28" points="39.35 41.06 47.02 46.62 49.07 45.03 44.14 36.59 39.35 41.06"/><polygon class="cls-28" points="51.98 43.5 48.79 33.99 51.24 33.01 53.1 43.04 51.98 43.5"/><polygon class="cls-28" points="45.15 35.88 49.8 44.48 50.7 44.09 46.32 35.16 45.15 35.88"/><polygon class="cls-27" points="34.85 286.87 44.6 281.24 44.6 115.06 34.85 106.14 34.85 286.87"/><polygon class="cls-28" points="34.28 244.16 44.6 238.99 44.6 221.62 34.28 224.44 34.28 244.16"/><polygon class="cls-28" points="34.85 272.79 44.61 267.91 44.8 250.36 34.85 253.07 34.85 272.79"/><polygon class="cls-28" points="44.78 212.7 34.46 215.52 34.46 210.82 44.78 208.01 44.78 212.7"/><polygon class="cls-28" points="44.88 145.13 34.82 137.62 34.58 142.26 44.64 149.77 44.88 145.13"/><polygon class="cls-28" points="34.55 161.84 44.88 167.7 44.88 156.2 34.55 147.52 34.55 161.84"/><polygon class="cls-27" points="655.27 582.2 646.39 572.27 164.23 572.82 157.45 582.2 655.27 582.2"/><polygon class="cls-28" points="537.6 582.2 523.38 572.27 475.54 572.27 483.3 582.2 537.6 582.2"/><polygon class="cls-28" points="616.48 582.2 602.26 572.27 554.41 572.27 562.17 582.2 616.48 582.2"/><polygon class="cls-28" points="450.97 572.27 458.73 582.2 445.8 582.2 438.04 572.27 450.97 572.27"/><polygon class="cls-28" points="264.83 572.56 244.16 582.23 256.95 582.46 277.62 572.79 264.83 572.56"/><polygon class="cls-28" points="311.32 582.2 327.48 572.27 295.8 572.27 271.88 582.2 311.32 582.2"/><path class="cls-27" d="M732.49,31.88l-.66,9.76s8.52,3.28,9.89,9.08L751.33,49S748.57,35.87,732.49,31.88Z"/><polygon class="cls-28" points="737.18 33.44 734.41 42.69 736.5 44.17 742.78 36.67 737.18 33.44"/><polygon class="cls-28" points="738.81 46.5 746.6 40.36 748.26 42.42 739.58 47.45 738.81 46.5"/><polygon class="cls-28" points="743.74 37.42 737.24 44.7 737.87 45.45 744.77 38.33 743.74 37.42"/><polygon class="cls-27" points="751.43 127.34 741.68 132.98 741.68 299.16 751.43 308.08 751.43 127.34"/><polygon class="cls-28" points="752 170.06 741.68 175.23 741.68 192.59 752 189.78 752 170.06"/><polygon class="cls-28" points="751.43 141.43 741.67 146.31 741.48 163.86 751.43 161.14 751.43 141.43"/><polygon class="cls-28" points="741.5 201.51 751.82 198.7 751.82 203.39 741.5 206.21 741.5 201.51"/><polygon class="cls-28" points="741.4 269.09 751.47 276.59 751.7 271.95 741.64 264.45 741.4 269.09"/><polygon class="cls-28" points="751.73 252.38 741.4 246.51 741.4 258.02 751.73 266.7 751.73 252.38"/><polygon class="cls-27" points="751.43 387.17 741.68 392.8 741.68 558.98 751.43 567.9 751.43 387.17"/><polygon class="cls-28" points="752 429.89 741.68 435.05 741.68 452.42 752 449.61 752 429.89"/><polygon class="cls-28" points="751.43 401.25 741.67 406.14 741.48 423.69 751.43 420.97 751.43 401.25"/><polygon class="cls-28" points="741.5 461.34 751.82 458.52 751.82 463.22 741.5 466.04 741.5 461.34"/><polygon class="cls-28" points="741.4 528.92 751.47 536.42 751.7 531.78 741.64 524.27 741.4 528.92"/><polygon class="cls-28" points="751.73 512.21 741.4 506.34 741.4 517.84 751.73 526.53 751.73 512.21"/><polygon class="cls-27" points="171.01 32.02 179.89 41.94 662.05 41.4 668.83 32.02 171.01 32.02"/><polygon class="cls-28" points="288.68 32.02 302.9 41.94 350.74 41.94 342.99 32.02 288.68 32.02"/><polygon class="cls-28" points="209.8 32.02 224.02 41.94 271.87 41.94 264.11 32.02 209.8 32.02"/><polygon class="cls-28" points="375.31 41.94 367.55 32.02 380.48 32.02 388.24 41.94 375.31 41.94"/><polygon class="cls-28" points="561.45 41.66 582.12 31.98 569.33 31.76 548.66 41.43 561.45 41.66"/><polygon class="cls-28" points="514.96 32.02 498.8 41.94 530.48 41.94 554.4 32.02 514.96 32.02"/><path class="cls-29" d="M729.8,582.6H56.47a22.21,22.21,0,0,1-22.19-22.18V53.75A22.22,22.22,0,0,1,56.47,31.56H729.8A22.21,22.21,0,0,1,752,53.75V560.42A22.21,22.21,0,0,1,729.8,582.6ZM56.47,32.56a21.22,21.22,0,0,0-21.2,21.19V560.42a21.22,21.22,0,0,0,21.2,21.19H729.8A21.22,21.22,0,0,0,751,560.42V53.75A21.21,21.21,0,0,0,729.8,32.56ZM729.8,572.68H56.47a12.27,12.27,0,0,1-12.26-12.26V53.75A12.27,12.27,0,0,1,56.47,41.49H729.8a12.27,12.27,0,0,1,12.26,12.26V560.42A12.27,12.27,0,0,1,729.8,572.68ZM56.47,42.48A11.29,11.29,0,0,0,45.2,53.75V560.42a11.29,11.29,0,0,0,11.27,11.27H729.8a11.28,11.28,0,0,0,11.26-11.27V53.75A11.28,11.28,0,0,0,729.8,42.48Z"/><path class="cls-30" d="M34.31,11.11s10,5.61,13.74,12.44,4.43,15.64,4.43,15.64l-5.17,5.72S26.32,33.33,34.31,11.11Z"/><path class="cls-30" d="M10.17,37.77s6.58,9.42,13.74,12.44,16,2.86,16,2.86l5.17-5.71S31.49,27.62,10.17,37.77Z"/><path class="cls-31" d="M10.17,37.77,43,49.79l3.28-3.63S24.84,27.56,10.17,37.77Z"/><path class="cls-31" d="M34.13,11.31l15.2,31.42-3.28,3.63S25.42,26.91,34.13,11.31Z"/><path class="cls-32" d="M43.73,30.78S27.56,19.11,15.58,18.41c1.88,11.85,15.1,26.79,15.1,26.79-9.9-3-24.89,6.43-24.89,6.43,8,1,26.46,10.15,26.46,10.15L60.39,30.7S49.49,13.21,47.67,5.38C47.67,5.38,39.75,21.23,43.73,30.78Z"/><path class="cls-33" d="M16.51,15.68a3.65,3.65,0,1,1-3.92-3.36A3.66,3.66,0,0,1,16.51,15.68Z"/><path class="cls-34" d="M14.21,12.56A3.66,3.66,0,0,1,9.85,18a3.65,3.65,0,1,0,4.36-5.44Z"/><path class="cls-33" d="M7.29,51.08a3.65,3.65,0,1,1-3.92-3.37A3.65,3.65,0,0,1,7.29,51.08Z"/><path class="cls-34" d="M5,48A3.65,3.65,0,0,1,.62,53.39,3.65,3.65,0,1,0,5,48Z"/><path class="cls-35" d="M7.29,51.64s18.59-4.27,30.53,4l4.26-4.7S25.89,36.44,7.17,50.4Z"/><path class="cls-36" d="M47.88,6.8s-2.4,18.92,7,30l-4.26,4.7s-16-14.67-4-34.68Z"/><path class="cls-33" d="M49.63,3.37A3.65,3.65,0,1,1,45.71,0,3.66,3.66,0,0,1,49.63,3.37Z"/><path class="cls-34" d="M47.33.25A3.66,3.66,0,0,1,43,5.69,3.65,3.65,0,1,0,47.33.25Z"/><path class="cls-37" d="M15.58,18.41,46.32,46.24l5.92-6.53S37.59,20,15.58,18.41Z"/><path class="cls-38" d="M17.28,20l29,26.29,1.84-2S33.54,28.66,17.28,20Z"/><path class="cls-38" d="M7.28,51.63a35,35,0,0,1,31.87,2.53l-1.31,1.45S28.36,47.54,7.28,51.63Z"/><path class="cls-38" d="M47.83,6.85A35,35,0,0,0,53.5,38.32l1.31-1.46S45.84,28.23,47.83,6.85Z"/><path class="cls-39" d="M31.86,62.21s-.84.48,1.57,2.66L64,31.06s-2.24-1.92-2.94-1.14Z"/><circle class="cls-40" cx="34.03" cy="62.02" r="1.09"/><circle class="cls-40" cx="36.39" cy="59.42" r="1.09"/><circle class="cls-40" cx="38.83" cy="56.72" r="1.09"/><circle class="cls-40" cx="41.27" cy="54.02" r="1.09"/><circle class="cls-40" cx="43.55" cy="51.51" r="1.09"/><circle class="cls-40" cx="45.86" cy="48.95" r="1.09"/><circle class="cls-40" cx="48.11" cy="46.46" r="1.09"/><circle class="cls-40" cx="50.39" cy="43.95" r="1.09"/><circle class="cls-40" cx="52.7" cy="41.4" r="1.09"/><circle class="cls-40" cx="54.95" cy="38.91" r="1.09"/><circle class="cls-40" cx="57.23" cy="36.4" r="1.09"/><circle class="cls-40" cx="59.54" cy="33.84" r="1.09"/><circle class="cls-40" cx="61.87" cy="31.26" r="1.09"/><rect class="cls-41" x="26.22" y="47.83" width="45.61" height="0.79" transform="translate(-19.63 52.2) rotate(-47.84)"/><circle class="cls-42" cx="61.88" cy="30.78" r="0.37"/><circle class="cls-42" cx="57.23" cy="35.91" r="0.37"/><circle class="cls-42" cx="54.89" cy="38.49" r="0.37"/><circle class="cls-42" cx="52.59" cy="41.03" r="0.37"/><circle class="cls-42" cx="50.33" cy="43.53" r="0.37"/><circle class="cls-42" cx="48.06" cy="46.05" r="0.37"/><circle class="cls-42" cx="45.45" cy="48.93" r="0.37"/><circle class="cls-42" cx="43.06" cy="51.56" r="0.37"/><circle class="cls-42" cx="40.9" cy="53.95" r="0.37"/><circle class="cls-42" cx="38.45" cy="56.66" r="0.37"/><circle class="cls-42" cx="35.9" cy="59.47" r="0.37"/><circle class="cls-42" cx="33.63" cy="61.98" r="0.37"/><circle class="cls-42" cx="59.49" cy="33.42" r="0.37"/><path class="cls-43" d="M730.15,580.78c-10.94-6.65-14.93-7.8-27.65-13.5-3.85-13.43-9.41-29.84-15.42-42.41-3.6-7.54-14.48-14-21.58-9-7.75,5.46-12.93,16.4-17.36,24.69a114.16,114.16,0,0,0-6.9,16.11,3.31,3.31,0,0,0-1.24-.09c-11.56,1.58-22.43,1.51-33.86,4.38-8.45,2.13-18.22,3.28-18.52,13-.19,6.42,9.25,27,24.81,41.54-4.09,10.35-6.57,14.6-9,25-1.3,5.46-2.16,11.77,3.86,18,4.17,4.29,17.65,2.49,24.56-.62,16.44-7.37,23-9.44,28.37-12.15,11.71,6.73,17.45,13.41,30.24,19.2,13.58,6.14,18,5.91,21.77,3,7-5.37,7.06-36.72,4.91-47.84,8.33-2,28.46-8.55,27.68-21.11C744.32,591.66,735.58,584.07,730.15,580.78Z"/><path class="cls-44" d="M723,576c-10.39-6.1-21.42-11.12-33.52-16.33-3.62-12.42-4.37-25.71-10.08-37.33-3.4-6.93-11-10.75-17.79-6.06-7.43,5.08-12.38,15.2-16.64,22.88a102.58,102.58,0,0,0-6.62,14.93,2.57,2.57,0,0,0-1.18-.08c-11,1.49-21.42,1.46-32.32,4.17-8,2-17.38,3.1-17.71,12.07-.21,5.91,5.06,11.39,9,15.21,6.37,6.27,11.79,11.4,18.62,17.15-3.92,9.59-8.4,19.12-10.76,28.68-1.24,5.09-3.41,16.76,2.79,20,5,2.57,11.68-.06,18.23-3.06,10.31-4.69,29.2-17.5,30.11-18.59,7.39,7,16.65,14,27.24,21.91,5,3.75,16.34,11.73,21.91,6.44,4.58-4.35,3.47-12.65,2.84-18.24-1.21-10.39-3.2-21-5.16-31.28,7.95-1.93,15.87-3.9,23.67-6.39,5.51-1.76,11.73-5.55,10.9-12.19S728.17,579,723,576Z"/><g class="cls-45"><path class="cls-46" d="M723,576c-1.47-.87-3-1.68-4.52-2.52,6.82,5.42,8.77,11.47,6.62,16.52-3,7-15.53,10.06-23.08,11.61-10,2-2.59,10-5.45,19.64-5.54,18.89-28.81,12.1-37.27,2.3-5.55-6.41-22,10-34.76-.95-3.77-3.22-5.81-10-4.76-14.79,2.32-10.56-3.59-11.44-9.62-17.81-9.33-9.86-16.58-24.25-3.81-26.27a303.72,303.72,0,0,1,30.85-3.08c5.5-.27,6.19-10.64,12.46-23.68,1.47-3.07,6.37-13.56,7.56-16.82-5.06,5.42-8.89,12.94-12.25,19a102.58,102.58,0,0,0-6.62,14.93,2.57,2.57,0,0,0-1.18-.08c-11,1.49-21.42,1.46-32.32,4.17-8,2-17.38,3.1-17.71,12.07-.21,5.91,5.06,11.39,9,15.21,6.37,6.27,11.79,11.4,18.62,17.15-3.92,9.59-8.4,19.12-10.76,28.68-1.24,5.09-3.41,16.76,2.79,20,5,2.57,11.68-.06,18.23-3.06,10.31-4.69,29.2-17.5,30.11-18.59,7.39,7,16.65,14,27.24,21.91,5,3.75,16.34,11.73,21.91,6.44,4.58-4.35,3.47-12.65,2.84-18.24-1.21-10.39-3.2-21-5.16-31.28,7.95-1.93,15.87-3.9,23.67-6.39,5.51-1.76,11.73-5.55,10.9-12.19S728.17,579,723,576Z"/></g><path class="cls-47" d="M723,576c-10.39-6.1-21.42-11.12-33.52-16.33-3.62-12.42-4.37-25.71-10.08-37.33-3.4-6.93-11-10.75-17.79-6.06-7.43,5.08-12.38,15.2-16.64,22.88a102.58,102.58,0,0,0-6.62,14.93,2.57,2.57,0,0,0-1.18-.08c-11,1.49-21.42,1.46-32.32,4.17-8,2-17.38,3.1-17.71,12.07-.21,5.91,5.06,11.39,9,15.21,6.37,6.27,11.79,11.4,18.62,17.15-3.92,9.59-8.4,19.12-10.76,28.68-1.24,5.09-3.41,16.76,2.79,20,5,2.57,11.68-.06,18.23-3.06,10.31-4.69,29.2-17.5,30.11-18.59,7.39,7,16.65,14,27.24,21.91,5,3.75,16.34,11.73,21.91,6.44,4.58-4.35,3.47-12.65,2.84-18.24-1.21-10.39-3.2-21-5.16-31.28,7.95-1.93,15.87-3.9,23.67-6.39,5.51-1.76,11.73-5.55,10.9-12.19S728.17,579,723,576Zm5.26,18c-2.39,2.16-7.08,3-10.09,3.78-6.83,1.79-13.62,3.62-20.54,5.08a3.45,3.45,0,0,0-2,5.43c1.5,8,2.39,16,4,24,1.1,5.53,2.2,11.34,1.62,17-1,10.73-15.73-2.43-19.41-5.31-8.53-6.65-15.39-11.4-23.33-18.75-1.75-1.36-3.17-1.91-3.76-1.55-5.85,3.74-20.19,12.48-24.07,14.94a81,81,0,0,1-16.45,8.28c-11.2,4-4.17-15.52-2.81-19.71,2.49-7.71,6-15,8.66-22.64.91-2.73,2-3.71.22-5.43-7.76-7.32-16.64-14.57-23.49-22.77-2.35-2.81-4.19-7.82-.24-10.16s32.07-6.78,37.52-6.72c4.34.07,6.91.33,7.11-.09,4.8-10.47,6.76-15,10.89-21.94,2.11-3.55,10.08-20.63,17.74-17.8,4.73,1.7,6.95,11,8.06,15.38,2.36,9.41,4,18.08,6,27.93.18.87,3.86,2.11,8.7,4.26,10.86,4.76,22.33,9.45,32.06,16.14C727.13,585.05,732.48,590.19,728.26,594Z"/><path class="cls-28" d="M595.39,571.06s-1.63-2.43,6.84-4.3c12.41-2.71,23.42-2.65,30.51-2.61,4.59,0,9.63,0,9.63,0,2.73-6.67,5.14-14.26,5.14-14.26l-5.62,10.43s-10.08.07-36.48,4C598.39,565.3,593.5,568.52,595.39,571.06Z"/><path class="cls-28" d="M648.37,548.82s7-18.1,17.92-14.92,13.54,18.28,15.69,27.51c-2-8.59-2-11.74-5.58-28.77-3.37-16-11.34-14.8-18.69-2.6S648.37,548.82,648.37,548.82Z"/><path class="cls-28" d="M680.21,555.28s1.36,8.72,1.74,13.41c0,0,34.63,11.69,40.08,15.75s6.62,6.95,5.5,9.24c0,0,4.39-2.93-3.36-9.45s-42.09-20.46-42.09-20.46Z"/><path class="cls-28" d="M607.49,585.54a122.32,122.32,0,0,0,19.8,13s-20.19,36.92-17.87,46.12c0,0-3.1-3.46,1.88-16s11.38-29.21,11.38-29.21S612.22,590.3,607.49,585.54Z"/><path class="cls-43" d="M558,583.64c-9.39-3-12.6-3.11-23.15-5-5.33-9.33-12.46-20.6-19.26-28.91-4.08-5-13.4-7.78-17.79-2.71-4.81,5.5-6.67,14.62-8.47,21.61a85.29,85.29,0,0,0-2.2,13.32,2.37,2.37,0,0,0-.95.16c-8.36,3.29-16.5,5.21-24.5,9.48-5.92,3.14-13,5.77-11.48,13.09,1,4.79,11.87,18.49,26.14,26.51-1.17,8.47-2.23,12.09-2.16,20.28,0,4.31.55,9.2,6.18,12.73,3.91,2.45,13.66-1.38,18.25-4.94,10.94-8.55,15.5-11.28,19-14.28,10,2.87,15.51,6.85,26.12,8.82,11.29,2.12,14.59,1.13,16.85-1.7,4.24-5.35-1.46-28.75-5.08-36.67,5.85-3,19.69-11.63,16.79-20.85C570.58,589.16,562.65,585.11,558,583.64Z"/><path class="cls-48" d="M551.8,581.4a232.28,232.28,0,0,0-28.08-6.08c-5-8.62-8-18.42-14.37-26.06-3.8-4.57-10.18-6-14.4-1.28-4.61,5.17-6.47,13.61-8.25,20.14a78.94,78.94,0,0,0-2.22,12.38,2.73,2.73,0,0,0-.89.17c-8,3.12-15.74,5-23.4,9-5.64,3-12.43,5.47-11,12.27.94,4.44,5.86,7.58,9.48,9.73,5.94,3.5,10.91,6.36,17.09,9.4-1.21,7.9-2.79,15.81-2.8,23.4,0,4,.51,13.17,5.74,14.41,4.2,1,8.7-2.18,13.05-5.62,6.85-5.4,18.64-18.43,19.11-19.41,6.81,3.88,15,7.41,24.38,11.39,4.4,1.9,14.36,5.78,17.55.84,2.62-4.11.28-10.12-1.22-14.17-2.78-7.53-6.21-15.17-9.58-22.47,5.58-2.89,11.17-5.79,16.53-9.07,3.79-2.33,7.76-6.34,5.92-11.14S556.21,582.72,551.8,581.4Z"/><g class="cls-49"><path class="cls-50" d="M551.8,581.4c-1.29-.37-2.56-.7-3.86-1,6.09,2.8,8.64,7,8,11.14-.94,5.81-9.75,10.36-15.11,12.88-7.13,3.36-.13,7.94-.49,15.71-.7,15.13-19.34,14.28-27.47,8.51-5.31-3.79-14.63,11.53-26.15,5.66-3.38-1.73-6.14-6.38-6.24-10.17-.22-8.34-4.8-7.89-10.47-11.54-8.77-5.69-16.82-15.13-7.66-19a237.79,237.79,0,0,1,22.53-8c4-1.22,2.65-9.08,4.95-20,.56-2.59,2.29-11.29,2.59-13.94-2.81,5-4.28,11.33-5.69,16.44a78.94,78.94,0,0,0-2.22,12.38,2.73,2.73,0,0,0-.89.17c-8,3.12-15.74,5-23.4,9-5.64,3-12.43,5.47-11,12.27.94,4.44,5.86,7.58,9.48,9.73,5.94,3.5,10.91,6.36,17.09,9.4-1.21,7.9-2.79,15.81-2.8,23.4,0,4,.51,13.17,5.74,14.41,4.2,1,8.7-2.18,13.05-5.62,6.85-5.4,18.64-18.43,19.11-19.41,6.81,3.88,15,7.41,24.38,11.39,4.4,1.9,14.36,5.78,17.55.84,2.62-4.11.28-10.12-1.22-14.17-2.78-7.53-6.21-15.17-9.58-22.47,5.58-2.89,11.17-5.79,16.53-9.07,3.79-2.33,7.76-6.34,5.92-11.14S556.21,582.72,551.8,581.4Z"/></g><path class="cls-47" d="M551.8,581.4a232.28,232.28,0,0,0-28.08-6.08c-5-8.62-8-18.42-14.37-26.06-3.8-4.57-10.18-6-14.4-1.28-4.61,5.17-6.47,13.61-8.25,20.14a78.94,78.94,0,0,0-2.22,12.38,2.73,2.73,0,0,0-.89.17c-8,3.12-15.74,5-23.4,9-5.64,3-12.43,5.47-11,12.27.94,4.44,5.86,7.58,9.48,9.73,5.94,3.5,10.91,6.36,17.09,9.4-1.21,7.9-2.79,15.81-2.8,23.4,0,4,.51,13.17,5.74,14.41,4.2,1,8.7-2.18,13.05-5.62,6.85-5.4,18.64-18.43,19.11-19.41,6.81,3.88,15,7.41,24.38,11.39,4.4,1.9,14.36,5.78,17.55.84,2.62-4.11.28-10.12-1.22-14.17-2.78-7.53-6.21-15.17-9.58-22.47,5.58-2.89,11.17-5.79,16.53-9.07,3.79-2.33,7.76-6.34,5.92-11.14S556.21,582.72,551.8,581.4ZM559,593.89c-1.38,2.06-4.76,3.51-6.85,4.68-4.79,2.58-9.53,5.17-14.43,7.54a2.65,2.65,0,0,0-.48,4.42c2.57,5.68,4.7,11.53,7.35,17.18,1.84,4,3.71,8.09,4.34,12.45,1.18,8.21-12.21,1.05-15.48-.41-7.6-3.41-13.58-5.69-20.87-9.75-1.56-.71-2.74-.87-3.1-.48-3.7,3.87-12.82,13-15.27,15.6a63.15,63.15,0,0,1-10.79,9.17c-7.61,5-5.93-10.81-5.69-14.22.46-6.19,1.74-12.32,2.31-18.5.21-2.2.87-3.14-.8-4.11-7.16-4-15.11-7.83-21.74-12.73-2.27-1.66-4.58-5.08-2.06-7.51s22.76-10.94,26.82-11.91c3.29-.77,5.24-1,5.31-1.36,1.68-8.75,2.33-12.42,4.14-18.41.91-3,3.76-17.24,10-16.56,3.84.42,7.22,6.94,8.83,10,3.49,6.59,6.34,12.76,9.59,19.79.28.6,3.27.85,7.28,1.58,9,1.57,18.41,3,27,6.17C556.52,587.39,561.44,590.27,559,593.89Z"/><path class="cls-28" d="M455.48,601.06s-1.69-1.54,4.32-4.47a104.47,104.47,0,0,1,22.35-7.53c3.43-.83,7.2-1.79,7.2-1.79.78-5.47,1.21-11.59,1.21-11.59l-2.29,8.8s-7.52,1.91-26.53,9.66C456.66,596.17,453.59,599.48,455.48,601.06Z"/><path class="cls-28" d="M491,574.72S493,559.9,501.66,560.3s13.49,11.2,16.8,17.69c-3.09-6.07-3.64-8.41-9.45-20.49-5.47-11.34-11.19-9-14.48,1.47S491,574.72,491,574.72Z"/><path class="cls-28" d="M516,573.75s2.61,6.25,3.74,9.69c0,0,28,2.38,32.86,4.41s6.18,4,5.79,5.93c0,0,2.74-3-4.23-6.47S519,579.72,519,579.72Z"/><path class="cls-28" d="M467.18,609.65a95.36,95.36,0,0,0,17.18,6.06S476,647,479.44,653.47c0,0-3-2-1.52-12.26s3.15-23.91,3.15-23.91S471.58,612.35,467.18,609.65Z"/><path class="cls-43" d="M419.09,588.58c-8.82-.76-11.64-.26-21.3.11a201.8,201.8,0,0,0-22.55-21.6c-4.54-3.56-13.26-4.19-16.12,1.09-3.15,5.75-3,14.12-3.19,20.61a76.71,76.71,0,0,0,.66,12.11,2.55,2.55,0,0,0-.8.31c-6.7,4.55-13.47,7.82-19.65,13.12-4.58,3.93-10.3,7.62-7.52,13.73,1.84,4,14,13.94,28.1,18.13.66,7.69.41,11.08,2.07,18.22.89,3.8,2.29,8,7.92,10,3.89,1.38,11.7-3.84,15-7.9,7.93-9.62,11.39-12.94,13.87-16.23,9.32.58,14.94,2.94,24.64,2.62,10.29-.34,13-1.85,14.42-4.78,2.68-5.5-6.87-24.92-11.61-31.17,4.56-3.82,15-14,10.68-21.55C431.22,591,423.47,589,419.09,588.58Z"/><path class="cls-51" d="M413.2,587.81a208.63,208.63,0,0,0-25.81.17c-6.05-6.61-10.59-14.62-17.67-20.07-4.25-3.26-10.12-3.28-12.9,1.71-3,5.43-3,13.21-3.32,19.26a71.1,71.1,0,0,0,.49,11.3,2,2,0,0,0-.76.32c-6.39,4.3-12.82,7.46-18.75,12.49-4.39,3.69-9.85,7.24-7.3,12.9,1.68,3.73,6.64,5.51,10.23,6.7,5.89,1.92,10.82,3.44,16.83,4.94.47,7.12.63,14.4,2.12,21.05.75,3.54,3,11.44,7.82,11.53,3.9.06,7.23-3.6,10.38-7.47,4.93-6.09,12.75-19.81,13-20.76,6.73,2.06,14.62,3.55,23.62,5.22,4.23.79,13.72,2.26,15.55-2.72,1.51-4.11-1.74-8.9-3.83-12.16-3.92-6.11-8.42-12.09-12.78-17.83,4.34-3.62,8.67-7.29,12.71-11.21,2.9-2.79,5.58-7,3-10.9S417.33,588.13,413.2,587.81Z"/><g class="cls-52"><path class="cls-53" d="M413.2,587.81c-1.18-.06-2.39-.12-3.58-.15,5.88,1.27,8.94,4.4,9.16,8.2.33,5.3-6.53,11-10.74,14.26-5.59,4.35,1.42,7,2.64,13.87,2.35,13.42-14.14,16.32-22.43,12.83-5.41-2.27-10.58,13-21.83,10.08-3.33-.85-6.64-4.4-7.48-7.7-1.81-7.27-5.74-6-11.43-8.11-8.81-3.23-17.73-10-10.42-15.11a204.23,204.23,0,0,1,18.2-11.37c3.32-1.86.57-8.5.46-18.53,0-2.35-.2-10.35-.45-12.72-1.49,4.9-1.57,10.76-1.8,15.52a71.1,71.1,0,0,0,.49,11.3,2,2,0,0,0-.76.32c-6.39,4.3-12.82,7.46-18.75,12.49-4.39,3.69-9.85,7.24-7.3,12.9,1.68,3.73,6.64,5.51,10.23,6.7,5.89,1.92,10.82,3.44,16.83,4.94.47,7.12.63,14.4,2.12,21.05.75,3.54,3,11.44,7.82,11.53,3.9.06,7.23-3.6,10.38-7.47,4.93-6.09,12.75-19.81,13-20.76,6.73,2.06,14.62,3.55,23.62,5.22,4.23.79,13.72,2.26,15.55-2.72,1.51-4.11-1.74-8.9-3.83-12.16-3.92-6.11-8.42-12.09-12.78-17.83,4.34-3.62,8.67-7.29,12.71-11.21,2.9-2.79,5.58-7,3-10.9S417.33,588.13,413.2,587.81Z"/></g><path class="cls-47" d="M413.2,587.81a208.63,208.63,0,0,0-25.81.17c-6.05-6.61-10.59-14.62-17.67-20.07-4.25-3.26-10.12-3.28-12.9,1.71-3,5.43-3,13.21-3.32,19.26a71.1,71.1,0,0,0,.49,11.3,2,2,0,0,0-.76.32c-6.39,4.3-12.82,7.46-18.75,12.49-4.39,3.69-9.85,7.24-7.3,12.9,1.68,3.73,6.64,5.51,10.23,6.7,5.89,1.92,10.82,3.44,16.83,4.94.47,7.12.63,14.4,2.12,21.05.75,3.54,3,11.44,7.82,11.53,3.9.06,7.23-3.6,10.38-7.47,4.93-6.09,12.75-19.81,13-20.76,6.73,2.06,14.62,3.55,23.62,5.22,4.23.79,13.72,2.26,15.55-2.72,1.51-4.11-1.74-8.9-3.83-12.16-3.92-6.11-8.42-12.09-12.78-17.83,4.34-3.62,8.67-7.29,12.71-11.21,2.9-2.79,5.58-7,3-10.9S417.33,588.13,413.2,587.81Zm8.77,9.55c-.82,2.08-3.47,4-5.09,5.45-3.69,3.19-7.35,6.4-11.19,9.45a2.39,2.39,0,0,0,.45,4c3.37,4.48,6.36,9.18,9.81,13.66,2.38,3.08,4.83,6.34,6.22,10,2.64,7-10.49,3.32-13.66,2.66-7.33-1.5-13-2.37-20.2-4.49-1.52-.28-2.58-.22-2.82.21-2.48,4.11-8.7,13.91-10.36,16.66a55.7,55.7,0,0,1-7.66,10.16c-5.71,5.89-7.33-8.33-7.79-11.38-.79-5.52-.85-11.13-1.56-16.7-.26-1.92.15-2.91-1.52-3.43-7.07-2.14-14.78-3.93-21.57-6.91-2.29-1-5-3.56-3.26-6.22s17.81-14,21.23-15.66c2.71-1.3,4.39-1.93,4.37-2.25-.22-8-.38-11.36,0-17,.21-2.81-.07-15.85,5.53-16.49,3.45-.35,7.69,4.72,9.71,7.1,4.36,5.1,8,10,12.29,15.49.36.47,3.05.13,6.7-.05,8.21-.37,16.74-1,24.84.19C418.53,592.16,423.41,593.72,422,597.36Z"/><path class="cls-28" d="M332.56,623.84s-1.78-1,2.89-4.72a96.23,96.23,0,0,1,18.14-11c2.84-1.39,6-3,6-3-.37-5-1.2-10.4-1.2-10.4l-.3,8.18s-6.21,3.13-21.38,13.65C332.63,619.36,330.58,622.87,332.56,623.84Z"/><path class="cls-28" d="M358.56,593.85s-1.17-13.39,6.56-14.75,14,7.17,18.16,12.24c-3.86-4.71-4.83-6.66-12.27-16.12-7-8.88-11.57-5.71-12.41,4.1S358.56,593.85,358.56,593.85Z"/><path class="cls-28" d="M380.32,588.1s3.48,5,5.16,7.77c0,0,25.07-3.39,29.7-2.52s6.22,2.28,6.25,4c0,0,1.81-3.14-5-4.83s-32.37.23-32.37.23Z"/><path class="cls-28" d="M344.48,629.15a87.24,87.24,0,0,0,16.27,2s-1.22,29.08,3,34.09c0,0-3-1.21-3.72-10.48s-1.89-21.59-1.89-21.59S348.89,630.62,344.48,629.15Z"/></g></g></g></svg>