<?xml version="1.0" encoding="utf-8"?>
<!-- Generator: Adobe Illustrator 24.2.3, SVG Export Plug-In . SVG Version: 6.00 Build 0)  -->
<svg version="1.1" id="Layer_1" xmlns="http://www.w3.org/2000/svg" xmlns:xlink="http://www.w3.org/1999/xlink" x="0px" y="0px"
	 viewBox="0 0 765.5 181.9" style="enable-background:new 0 0 765.5 181.9;" xml:space="preserve">
<style type="text/css">
	.st0{fill:#FFFFFF;}
	.st1{enable-background:new    ;}
	.st2{fill:#6D0000;}
	.st3{fill:#FF8B00;}
	.st4{fill:#DD1B24;}
	.st5{fill:url(#SVGID_1_);}
	.st6{fill:#FFDC7C;}
	.st7{fill:#FFF6E6;}
	.st8{fill:none;stroke:#D47F02;stroke-miterlimit:10;}
	.st9{fill:#F98526;}
	.st10{fill:#FF9D27;}
	.st11{fill:url(#SVGID_2_);}
	.st12{fill:#FFDC01;}
	.st13{fill:#FFB703;}
	.st14{fill:url(#SVGID_3_);}
	.st15{fill:url(#SVGID_4_);}
	.st16{fill:url(#SVGID_5_);}
	.st17{opacity:0.86;fill:#FFF876;enable-background:new    ;}
	.st18{fill:url(#SVGID_6_);}
	.st19{opacity:0.35;fill:#FFF876;enable-background:new    ;}
	.st20{fill:#E5890E;}
	.st21{opacity:0.52;fill:#FFF876;enable-background:new    ;}
</style>
<g>
	<g id="Layer_2_1_">
		<g id="Layer_1-2">
			<path class="st0" d="M59,35.4h681.5c9.3,0,16.8,7.5,16.8,16.9v105.7c0,9.3-7.5,16.9-16.8,16.9H59c-9.3,0-16.9-7.5-16.9-16.9V52.2
				C42.2,42.9,49.7,35.4,59,35.4z"/>
			<g class="st1">
				<path class="st2" d="M77.4,84.8v-3.3h3.9V71.2h-3.3v-2.5c1-0.2,1.8-0.4,2.5-0.7c0.7-0.3,1.3-0.6,2-1h3v14.4h3.3v3.3H77.4z"/>
				<path class="st2" d="M94.4,85.2c-0.7,0-1.3-0.2-1.8-0.7s-0.7-1.1-0.7-1.8c0-0.7,0.2-1.4,0.7-1.9c0.5-0.5,1.1-0.7,1.8-0.7
					c0.7,0,1.3,0.2,1.8,0.7c0.5,0.5,0.7,1.1,0.7,1.9c0,0.7-0.2,1.3-0.7,1.8S95.1,85.2,94.4,85.2z"/>
				<path class="st2" d="M109.9,84.8V70h-5v-3.5H119V70h-5v14.8H109.9z"/>
				<path class="st2" d="M121.9,84.8V66.6h11.4V70H126v3.7h6.2v3.4H126v4.2h7.6v3.5H121.9z M123,64.6l2.5-3.1h4.5l2.5,3.1l-1.8,1.1
					l-2.9-2.4h-0.1l-2.9,2.4L123,64.6z"/>
				<path class="st2" d="M137.2,84.8V66.6h4.2l4.8,9.1l1.8,4h0.1c-0.1-1-0.2-2.1-0.3-3.2c-0.1-1.2-0.2-2.3-0.2-3.4v-6.4h3.9v18.3
					h-4.2l-4.8-9.1l-1.8-4h-0.1c0.1,1,0.2,2.1,0.3,3.2c0.1,1.2,0.2,2.3,0.2,3.4v6.5H137.2z"/>
				<path class="st2" d="M169.1,85.2c-1.2,0-2.2-0.2-3.3-0.6c-1-0.4-1.9-1-2.7-1.8c-0.8-0.8-1.4-1.8-1.8-2.9c-0.4-1.2-0.7-2.5-0.7-4
					c0-1.5,0.2-2.9,0.7-4s1.1-2.2,1.9-3c0.8-0.8,1.7-1.4,2.7-1.9c1-0.4,2.1-0.6,3.3-0.6c1.2,0,2.2,0.2,3.2,0.7
					c0.9,0.5,1.7,1,2.3,1.7l-2.2,2.6c-0.5-0.4-1-0.8-1.5-1c-0.5-0.3-1.1-0.4-1.8-0.4c-0.6,0-1.2,0.1-1.8,0.4c-0.6,0.3-1,0.7-1.4,1.2
					s-0.7,1.1-1,1.8c-0.2,0.7-0.4,1.5-0.4,2.5c0,1.9,0.4,3.3,1.2,4.4c0.8,1,1.9,1.6,3.2,1.6c0.7,0,1.4-0.2,2-0.5
					c0.6-0.3,1.1-0.7,1.6-1.2l2.2,2.6C173.5,84.3,171.5,85.2,169.1,85.2z"/>
				<path class="st2" d="M177.8,84.8V66.6h4.1v7h6.3v-7h4.1v18.3h-4.1v-7.6h-6.3v7.6H177.8z"/>
				<path class="st2" d="M203.8,85.2c-2.4,0-4.2-0.7-5.4-2.1c-1.3-1.4-1.9-3.6-1.9-6.7v-9.8h4.1v10.2c0,1.8,0.3,3,0.8,3.8
					c0.5,0.7,1.3,1.1,2.4,1.1c1,0,1.8-0.4,2.4-1.1c0.6-0.7,0.8-2,0.8-3.8V66.6h2c0.3,0,0.6-0.1,0.8-0.1c0.3-0.1,0.5-0.2,0.7-0.3
					c0.2-0.1,0.4-0.3,0.5-0.6s0.2-0.6,0.2-1c0-0.4,0-0.7-0.1-1s-0.2-0.6-0.3-0.8l3.1-1.2c0.2,0.3,0.4,0.7,0.6,1.2
					c0.2,0.5,0.3,1,0.3,1.6c0,1.2-0.3,2-1,2.6c-0.7,0.6-1.6,1-2.8,1.2v8.3c0,3.1-0.6,5.3-1.8,6.7C208,84.5,206.2,85.2,203.8,85.2z"
					/>
				<path class="st2" d="M223.2,85.2c-1.2,0-2.4-0.2-3.4-0.7c-1-0.4-1.9-1.1-2.6-1.9s-1.3-1.8-1.7-3s-0.6-2.5-0.6-4s0.2-2.8,0.6-4
					c0.4-1.2,1-2.1,1.7-2.9c0.7-0.8,1.6-1.4,2.6-1.8c1-0.4,2.1-0.6,3.4-0.6c1.4,0,2.7,0.3,3.9,0.9c0.5-0.1,1-0.4,1.2-0.7
					c0.3-0.3,0.4-0.7,0.4-1.3c0-0.4,0-0.7-0.1-1c-0.1-0.3-0.2-0.6-0.3-0.8l3.1-1.2c0.2,0.3,0.4,0.7,0.6,1.2c0.2,0.5,0.3,1,0.3,1.6
					c0,1-0.3,1.8-0.8,2.4c-0.5,0.6-1.3,1-2.4,1.3c0.8,0.8,1.4,1.8,1.8,3s0.7,2.6,0.7,4.1c0,1.5-0.2,2.8-0.6,4c-0.4,1.2-1,2.2-1.7,3
					s-1.6,1.5-2.6,1.9C225.6,84.9,224.4,85.2,223.2,85.2z M223.2,81.6c1.3,0,2.2-0.5,3-1.6c0.7-1.1,1.1-2.5,1.1-4.4
					c0-1.8-0.4-3.3-1.1-4.3c-0.7-1-1.7-1.5-3-1.5c-1.3,0-2.2,0.5-3,1.5c-0.7,1-1.1,2.5-1.1,4.3c0,1.8,0.4,3.3,1.1,4.4
					C221,81.1,221.9,81.6,223.2,81.6z"/>
				<path class="st2" d="M234.9,84.8V66.6h4.2l4.8,9.1l1.8,4h0.1c-0.1-1-0.2-2.1-0.3-3.2c-0.1-1.2-0.2-2.3-0.2-3.4v-6.4h3.9v18.3
					H245l-4.8-9.1l-1.8-4h-0.1c0.1,1,0.2,2.1,0.3,3.2c0.1,1.2,0.2,2.3,0.2,3.4v6.5H234.9z"/>
				<path class="st2" d="M261.6,85.2c-1.3,0-2.4-0.2-3.5-0.6c-1.1-0.4-2-1-2.8-1.8s-1.4-1.8-1.9-2.9c-0.5-1.2-0.7-2.5-0.7-4
					c0-1.5,0.2-2.9,0.7-4s1.1-2.2,1.9-3c0.8-0.8,1.8-1.4,2.8-1.9c1.1-0.4,2.2-0.6,3.4-0.6c1.3,0,2.5,0.2,3.4,0.7
					c1,0.5,1.7,1,2.3,1.7l-2.2,2.6c-0.5-0.4-1-0.8-1.5-1c-0.5-0.3-1.2-0.4-2-0.4c-0.7,0-1.4,0.1-1.9,0.4c-0.6,0.3-1.1,0.7-1.5,1.2
					c-0.4,0.5-0.8,1.1-1,1.8c-0.2,0.7-0.4,1.5-0.4,2.5c0,1.9,0.4,3.3,1.3,4.4c0.8,1,2.1,1.6,3.9,1.6c0.4,0,0.7,0,1.1-0.1
					c0.4-0.1,0.6-0.2,0.9-0.4v-3.1h-3v-3.4h6.7V83c-0.6,0.6-1.5,1.1-2.5,1.6C264,85,262.9,85.2,261.6,85.2z"/>
				<path class="st2" d="M280.5,84.8V70h-5v-3.5h14.2V70h-5v14.8H280.5z"/>
				<path class="st2" d="M292.6,84.8V66.6h6.6c1,0,1.9,0.1,2.7,0.3s1.6,0.5,2.2,0.9c0.6,0.4,1.1,1,1.5,1.8c0.4,0.7,0.6,1.6,0.6,2.7
					c0,1.3-0.3,2.5-0.9,3.3c-0.6,0.9-1.4,1.5-2.4,1.9l4.1,7.3h-4.6l-3.5-6.6h-2.3v6.6H292.6z M296.7,75h2.1c1.1,0,1.9-0.2,2.5-0.7
					c0.6-0.5,0.9-1.1,0.9-2c0-0.9-0.3-1.5-0.9-1.9c-0.6-0.4-1.4-0.5-2.5-0.5h-2.1V75z"/>
				<path class="st2" d="M312,65.8l-5.1-3.3l2.2-2.7l4.8,3.9L312,65.8z M309.7,84.8V66.6h4.1v18.3H309.7z"/>
				<path class="st2" d="M318.1,84.8V66.6h4.2l4.8,9.1l1.8,4h0.1c-0.1-1-0.2-2.1-0.3-3.2c-0.1-1.2-0.2-2.3-0.2-3.4v-6.4h3.9v18.3
					h-4.2l-4.8-9.1l-1.8-4h-0.1c0.1,1,0.2,2.1,0.3,3.2c0.1,1.2,0.2,2.3,0.2,3.4v6.5H318.1z"/>
				<path class="st2" d="M336.8,84.8V66.6h4.1v7h6.3v-7h4.1v18.3h-4.1v-7.6h-6.3v7.6H336.8z"/>
			</g>
			<g class="st1">
				<path class="st3" d="M76.2,126.2c-0.3,0-0.6-0.1-0.9-0.2c-0.3-0.1-0.5-0.3-0.7-0.5c-0.2-0.2-0.4-0.5-0.5-0.8s-0.2-0.6-0.2-1
					s0.1-0.7,0.2-1c0.1-0.3,0.3-0.6,0.5-0.8c0.2-0.2,0.4-0.4,0.7-0.5c0.3-0.1,0.6-0.2,0.9-0.2c0.3,0,0.6,0.1,0.9,0.2
					c0.3,0.1,0.5,0.3,0.7,0.5s0.4,0.5,0.5,0.8c0.1,0.3,0.2,0.6,0.2,1s-0.1,0.7-0.2,1s-0.3,0.5-0.5,0.8s-0.4,0.4-0.7,0.5
					C76.8,126.1,76.5,126.2,76.2,126.2z"/>
			</g>
			<g class="st1">
				<path class="st4" d="M87.5,129l-4.2-13.1H85l2.1,7.1c0.2,0.8,0.5,1.5,0.6,2.2c0.2,0.7,0.4,1.4,0.7,2.2h0.1
					c0.2-0.8,0.5-1.5,0.6-2.2s0.4-1.4,0.6-2.2l2.1-7.1h1.7L89.4,129H87.5z"/>
			</g>
			<g class="st1">
				<path class="st4" d="M98.7,129.3c-0.6,0-1.2-0.1-1.7-0.3s-1-0.6-1.4-1c-0.4-0.4-0.7-1-1-1.6c-0.2-0.6-0.4-1.3-0.4-2.2
					c0-0.8,0.1-1.5,0.4-2.2c0.2-0.6,0.6-1.2,1-1.6c0.4-0.4,0.9-0.8,1.4-1s1.1-0.3,1.7-0.3s1.2,0.1,1.7,0.3s1,0.6,1.4,1
					c0.4,0.4,0.7,1,1,1.6s0.4,1.4,0.4,2.2c0,0.8-0.1,1.5-0.4,2.2s-0.6,1.2-1,1.6c-0.4,0.4-0.9,0.8-1.4,1S99.3,129.3,98.7,129.3z
					 M99,117.6l-3.1-3.1l1.2-1.1l2.8,3.3L99,117.6z M98.7,127.9c0.4,0,0.8-0.1,1.1-0.3c0.3-0.2,0.6-0.4,0.9-0.8
					c0.2-0.3,0.4-0.7,0.6-1.2c0.1-0.5,0.2-1,0.2-1.5s-0.1-1.1-0.2-1.5c-0.1-0.5-0.3-0.9-0.6-1.2c-0.2-0.3-0.5-0.6-0.9-0.8
					c-0.3-0.2-0.7-0.3-1.1-0.3c-0.4,0-0.8,0.1-1.1,0.3s-0.6,0.4-0.9,0.8c-0.2,0.3-0.4,0.7-0.6,1.2c-0.1,0.5-0.2,1-0.2,1.5
					s0.1,1.1,0.2,1.5c0.1,0.5,0.3,0.8,0.6,1.2c0.2,0.3,0.5,0.6,0.9,0.8C97.9,127.8,98.3,127.9,98.7,127.9z"/>
				<path class="st4" d="M105.7,129v-9.7h1.4l0.1,1.4h0.1c0.5-0.5,1-0.9,1.5-1.2c0.5-0.3,1.1-0.5,1.8-0.5c1,0,1.8,0.3,2.2,1
					c0.5,0.6,0.7,1.6,0.7,2.8v6.2h-1.6v-5.9c0-0.9-0.1-1.6-0.4-2s-0.8-0.6-1.4-0.6c-0.5,0-1,0.1-1.3,0.4c-0.4,0.3-0.8,0.6-1.3,1.1v7
					H105.7z"/>
				<path class="st4" d="M120,133.5c-0.6,0-1.1-0.1-1.6-0.2s-0.9-0.3-1.3-0.5c-0.4-0.2-0.6-0.5-0.8-0.8s-0.3-0.7-0.3-1.1
					c0-0.4,0.1-0.8,0.4-1.2s0.6-0.7,1-1v-0.1c-0.2-0.1-0.4-0.3-0.6-0.6c-0.2-0.3-0.2-0.6-0.2-1c0-0.4,0.1-0.8,0.3-1.1
					s0.5-0.5,0.7-0.7v-0.1c-0.3-0.3-0.6-0.6-0.9-1.1c-0.3-0.4-0.4-1-0.4-1.6c0-0.5,0.1-1,0.3-1.4c0.2-0.4,0.5-0.8,0.8-1.1
					c0.3-0.3,0.7-0.5,1.2-0.7s0.9-0.2,1.4-0.2c0.3,0,0.5,0,0.8,0.1s0.4,0.1,0.6,0.2h3.4v1.3h-2c0.2,0.2,0.4,0.5,0.6,0.9
					c0.2,0.3,0.2,0.7,0.2,1.1c0,0.5-0.1,1-0.3,1.4c-0.2,0.4-0.4,0.8-0.8,1.1c-0.3,0.3-0.7,0.5-1.1,0.7c-0.4,0.2-0.9,0.2-1.4,0.2
					c-0.2,0-0.5,0-0.7-0.1c-0.3-0.1-0.5-0.1-0.7-0.2c-0.2,0.1-0.3,0.3-0.4,0.5s-0.2,0.4-0.2,0.7c0,0.3,0.1,0.6,0.4,0.8
					c0.2,0.2,0.7,0.3,1.4,0.3h1.9c1.1,0,2,0.2,2.6,0.5c0.6,0.4,0.8,1,0.8,1.8c0,0.5-0.1,0.9-0.3,1.3c-0.2,0.4-0.6,0.8-1,1.1
					s-0.9,0.6-1.5,0.7C121.4,133.4,120.7,133.5,120,133.5z M120.2,132.4c0.5,0,0.9-0.1,1.3-0.2c0.4-0.1,0.7-0.3,1-0.4
					s0.5-0.4,0.6-0.6c0.1-0.2,0.2-0.5,0.2-0.7c0-0.5-0.2-0.8-0.5-0.9c-0.3-0.2-0.8-0.3-1.5-0.3h-1.7c-0.2,0-0.4,0-0.6,0
					c-0.2,0-0.4-0.1-0.7-0.1c-0.3,0.3-0.6,0.5-0.8,0.8c-0.2,0.3-0.2,0.6-0.2,0.8c0,0.5,0.2,0.9,0.8,1.2S119.3,132.4,120.2,132.4z
					 M120,124.8c0.3,0,0.5-0.1,0.8-0.2c0.2-0.1,0.5-0.3,0.7-0.5c0.2-0.2,0.3-0.4,0.4-0.7s0.2-0.6,0.2-1c0-0.7-0.2-1.3-0.6-1.7
					c-0.4-0.4-0.9-0.6-1.5-0.6s-1.1,0.2-1.5,0.6c-0.4,0.4-0.6,1-0.6,1.7c0,0.4,0.1,0.7,0.2,1c0.1,0.3,0.3,0.5,0.5,0.7
					c0.2,0.2,0.4,0.4,0.7,0.5C119.4,124.8,119.7,124.8,120,124.8z"/>
				<path class="st4" d="M139.8,132.3c-0.6,0-1.2-0.1-1.7-0.2c-0.5-0.2-1-0.4-1.4-0.7c-0.4-0.3-0.8-0.6-1.1-1
					c-0.3-0.4-0.5-0.8-0.7-1.2c-0.7-0.1-1.4-0.3-2-0.7c-0.6-0.4-1.1-0.8-1.5-1.4c-0.4-0.6-0.7-1.3-1-2.1c-0.2-0.8-0.3-1.7-0.3-2.6
					c0-1.1,0.1-2,0.4-2.8c0.3-0.8,0.7-1.5,1.1-2.1c0.5-0.6,1.1-1,1.8-1.3c0.7-0.3,1.4-0.5,2.3-0.5c0.8,0,1.6,0.2,2.3,0.5
					c0.7,0.3,1.3,0.8,1.8,1.3s0.9,1.3,1.2,2.1c0.3,0.8,0.4,1.8,0.4,2.8c0,0.9-0.1,1.8-0.3,2.6c-0.2,0.8-0.5,1.5-0.9,2
					c-0.4,0.6-0.9,1.1-1.5,1.4c-0.6,0.4-1.2,0.6-1.9,0.7c0.3,0.6,0.7,1,1.3,1.3s1.2,0.4,1.9,0.4c0.3,0,0.6,0,0.8-0.1
					c0.2,0,0.4-0.1,0.6-0.1l0.3,1.3c-0.2,0.1-0.5,0.2-0.8,0.2C140.5,132.3,140.2,132.3,139.8,132.3z M135.8,127.9
					c0.6,0,1.1-0.1,1.6-0.4c0.5-0.3,0.9-0.6,1.2-1.1c0.3-0.5,0.6-1.1,0.8-1.7c0.2-0.7,0.3-1.4,0.3-2.3c0-0.8-0.1-1.5-0.3-2.2
					c-0.2-0.7-0.5-1.2-0.8-1.7c-0.3-0.5-0.7-0.8-1.2-1c-0.5-0.2-1-0.4-1.6-0.4c-0.6,0-1.1,0.1-1.6,0.4s-0.9,0.6-1.2,1
					c-0.3,0.5-0.6,1-0.8,1.7c-0.2,0.7-0.3,1.4-0.3,2.2c0,0.8,0.1,1.6,0.3,2.3c0.2,0.7,0.5,1.2,0.8,1.7s0.7,0.8,1.2,1.1
					S135.2,127.9,135.8,127.9z"/>
				<path class="st4" d="M146.9,129.3c-1,0-1.8-0.3-2.3-1c-0.5-0.6-0.7-1.6-0.7-2.8v-6.2h1.7v5.9c0,0.9,0.1,1.6,0.4,2
					s0.8,0.6,1.4,0.6c0.5,0,1-0.1,1.3-0.4c0.4-0.3,0.8-0.7,1.3-1.2v-6.9h1.6v9.7h-1.4l-0.1-1.5h-0.1c-0.5,0.5-0.9,1-1.4,1.3
					C148.1,129.1,147.6,129.3,146.9,129.3z"/>
				<path class="st4" d="M157.2,129.3c-0.8,0-1.5-0.2-2-0.7c-0.5-0.5-0.8-1.2-0.8-2c0-1.1,0.5-1.9,1.4-2.4s2.5-1,4.5-1.2
					c0-0.3,0-0.6-0.1-0.9c-0.1-0.3-0.2-0.6-0.3-0.8c-0.1-0.2-0.4-0.4-0.6-0.5c-0.3-0.1-0.6-0.2-1-0.2c-0.6,0-1.1,0.1-1.6,0.3
					s-0.9,0.5-1.3,0.7l-0.6-1.1c0.5-0.3,1-0.6,1.7-0.8c0.7-0.3,1.4-0.4,2.2-0.4c1.2,0,2,0.4,2.6,1.1s0.8,1.7,0.8,2.9v6h-1.4
					l-0.1-1.2h-0.1c-0.5,0.4-1,0.7-1.5,1C158.3,129.1,157.8,129.3,157.2,129.3z M157.6,127.9c0.5,0,0.9-0.1,1.3-0.3
					c0.4-0.2,0.9-0.5,1.3-1v-2.7c-0.8,0.1-1.5,0.2-2,0.4c-0.6,0.1-1,0.3-1.3,0.5c-0.3,0.2-0.6,0.4-0.7,0.7c-0.2,0.3-0.2,0.5-0.2,0.9
					c0,0.6,0.2,1,0.5,1.2C156.8,127.8,157.2,127.9,157.6,127.9z"/>
				<path class="st4" d="M165.2,133.2c-0.2,0-0.4,0-0.6,0c-0.2,0-0.4-0.1-0.5-0.2l0.3-1.3c0.1,0,0.2,0.1,0.4,0.1s0.3,0.1,0.4,0.1
					c0.6,0,1-0.2,1.4-0.6s0.6-0.9,0.8-1.5l0.2-0.7l-3.9-9.7h1.7l2,5.4c0.1,0.4,0.3,0.9,0.5,1.3c0.2,0.5,0.3,0.9,0.5,1.4h0.1
					c0.1-0.4,0.3-0.9,0.4-1.4c0.1-0.5,0.3-0.9,0.4-1.4l1.7-5.4h1.6l-3.7,10.5c-0.2,0.5-0.4,0.9-0.6,1.3c-0.2,0.4-0.5,0.8-0.8,1.1
					c-0.3,0.3-0.6,0.5-1,0.7C166.1,133.1,165.7,133.2,165.2,133.2z"/>
				<path class="st4" d="M178.5,129v-13.1h1.7l4.7,8.2l1.4,2.7h0.1c0-0.7-0.1-1.4-0.1-2.1c0-0.7-0.1-1.4-0.1-2.1v-6.8h1.6V129h-1.7
					l-4.8-8.3l-1.4-2.7h-0.1c0.1,0.7,0.1,1.3,0.1,2c0,0.7,0.1,1.4,0.1,2.1v6.9H178.5z"/>
				<path class="st4" d="M191.3,129v-14.2h1.6v3.9l-0.1,2c0.5-0.4,1-0.8,1.5-1.1c0.5-0.3,1.1-0.5,1.8-0.5c1,0,1.8,0.3,2.2,1
					c0.5,0.6,0.7,1.6,0.7,2.8v6.2h-1.6v-5.9c0-0.9-0.1-1.6-0.4-2s-0.8-0.6-1.4-0.6c-0.5,0-1,0.1-1.3,0.4c-0.4,0.3-0.8,0.6-1.3,1.1v7
					H191.3z"/>
				<path class="st4" d="M204.4,129.3c-0.8,0-1.5-0.2-2-0.7c-0.5-0.5-0.8-1.2-0.8-2c0-1.1,0.5-1.9,1.4-2.4s2.5-1,4.5-1.2
					c0-0.3,0-0.6-0.1-0.9c-0.1-0.3-0.2-0.6-0.3-0.8c-0.1-0.2-0.4-0.4-0.6-0.5c-0.3-0.1-0.6-0.2-1-0.2c-0.6,0-1.1,0.1-1.6,0.3
					s-0.9,0.5-1.3,0.7l-0.6-1.1c0.5-0.3,1-0.6,1.7-0.8c0.7-0.3,1.4-0.4,2.2-0.4c1.2,0,2,0.4,2.6,1.1s0.8,1.7,0.8,2.9v6h-1.4
					l-0.1-1.2h-0.1c-0.5,0.4-1,0.7-1.5,1C205.6,129.1,205,129.3,204.4,129.3z M202.7,117l2.3-2.8h1.6l2.3,2.8l-0.7,0.6l-2.4-2.3
					h-0.1l-2.4,2.3L202.7,117z M204.9,127.9c0.5,0,0.9-0.1,1.3-0.3c0.4-0.2,0.9-0.5,1.3-1v-2.7c-0.8,0.1-1.5,0.2-2,0.4
					c-0.6,0.1-1,0.3-1.3,0.5c-0.3,0.2-0.6,0.4-0.7,0.7c-0.2,0.3-0.2,0.5-0.2,0.9c0,0.6,0.2,1,0.5,1.2
					C204,127.8,204.4,127.9,204.9,127.9z"/>
				<path class="st4" d="M212.2,129v-9.7h1.4l0.1,1.4h0.1c0.5-0.5,1-0.9,1.5-1.2c0.5-0.3,1.1-0.5,1.8-0.5c1,0,1.8,0.3,2.2,1
					c0.5,0.6,0.7,1.6,0.7,2.8v6.2h-1.6v-5.9c0-0.9-0.1-1.6-0.4-2s-0.8-0.6-1.4-0.6c-0.5,0-1,0.1-1.3,0.4c-0.4,0.3-0.8,0.6-1.3,1.1v7
					H212.2z"/>
				<path class="st4" d="M227.3,129v-13.1h3.7c0.7,0,1.4,0.1,2,0.2c0.6,0.1,1.1,0.3,1.6,0.7c0.4,0.3,0.8,0.7,1,1.2
					c0.2,0.5,0.4,1.1,0.4,1.8c0,0.7-0.1,1.3-0.4,1.8c-0.2,0.5-0.6,0.9-1,1.3c-0.4,0.3-0.9,0.6-1.5,0.8s-1.2,0.2-2,0.2H229v5.2H227.3
					z M229,122.5h2c1.1,0,2-0.2,2.6-0.7c0.6-0.4,0.8-1.1,0.8-2.1c0-0.9-0.3-1.6-0.9-2c-0.6-0.4-1.4-0.5-2.6-0.5H229V122.5z"/>
				<path class="st4" d="M238.5,129v-14.2h1.6v3.9l-0.1,2c0.5-0.4,1-0.8,1.5-1.1c0.5-0.3,1.1-0.5,1.8-0.5c1,0,1.8,0.3,2.2,1
					c0.5,0.6,0.7,1.6,0.7,2.8v6.2h-1.6v-5.9c0-0.9-0.1-1.6-0.4-2s-0.8-0.6-1.4-0.6c-0.5,0-1,0.1-1.3,0.4c-0.4,0.3-0.8,0.6-1.3,1.1v7
					H238.5z"/>
				<path class="st4" d="M251.6,129.3c-0.8,0-1.5-0.2-2-0.7c-0.5-0.5-0.8-1.2-0.8-2c0-1.1,0.5-1.9,1.4-2.4s2.5-1,4.5-1.2
					c0-0.3,0-0.6-0.1-0.9c-0.1-0.3-0.2-0.6-0.3-0.8c-0.1-0.2-0.4-0.4-0.6-0.5c-0.3-0.1-0.6-0.2-1-0.2c-0.6,0-1.1,0.1-1.6,0.3
					s-0.9,0.5-1.3,0.7l-0.6-1.1c0.5-0.3,1-0.6,1.7-0.8c0.7-0.3,1.4-0.4,2.2-0.4c1.2,0,2,0.4,2.6,1.1s0.8,1.7,0.8,2.9v6H255l-0.1-1.2
					h-0.1c-0.5,0.4-1,0.7-1.5,1C252.8,129.1,252.2,129.3,251.6,129.3z M250.9,117.6l-0.6-0.7l2-1.8h1.4l2,1.8l-0.6,0.7l-2.1-1.4
					h-0.1L250.9,117.6z M252.1,127.9c0.5,0,0.9-0.1,1.3-0.3c0.4-0.2,0.9-0.5,1.3-1v-2.7c-0.8,0.1-1.5,0.2-2,0.4
					c-0.6,0.1-1,0.3-1.3,0.5c-0.3,0.2-0.6,0.4-0.7,0.7c-0.2,0.3-0.2,0.5-0.2,0.9c0,0.6,0.2,1,0.5,1.2
					C251.2,127.8,251.6,127.9,252.1,127.9z M255.3,116.3l-0.2-0.7c0.3-0.1,0.5-0.2,0.6-0.3c0.2-0.1,0.2-0.3,0.2-0.5
					c0-0.3-0.1-0.5-0.3-0.6s-0.6-0.2-1.1-0.2l0.1-0.8c0.8,0,1.4,0.2,1.8,0.4s0.6,0.6,0.6,1.1c0,0.3-0.1,0.5-0.2,0.7
					c-0.1,0.2-0.2,0.3-0.4,0.5s-0.4,0.2-0.6,0.3S255.5,116.3,255.3,116.3z"/>
				<path class="st4" d="M259.5,129v-9.7h1.4l0.1,1.4h0.1c0.4-0.5,0.9-0.9,1.4-1.2c0.5-0.3,1-0.5,1.6-0.5c0.7,0,1.3,0.2,1.8,0.5
					c0.4,0.3,0.7,0.8,0.9,1.4c0.5-0.6,1-1,1.5-1.3c0.5-0.3,1.1-0.5,1.7-0.5c1,0,1.7,0.3,2.2,1c0.5,0.6,0.7,1.6,0.7,2.8v6.2h-1.6
					v-5.9c0-0.9-0.1-1.6-0.4-2c-0.3-0.4-0.7-0.6-1.4-0.6c-0.7,0-1.5,0.5-2.4,1.5v7h-1.6v-5.9c0-0.9-0.1-1.6-0.4-2
					c-0.3-0.4-0.8-0.6-1.4-0.6c-0.7,0-1.5,0.5-2.4,1.5v7H259.5z"/>
				<path class="st4" d="M279.2,124.6v-1.3h4.6v1.3H279.2z"/>
				<path class="st4" d="M299.3,132.3c-0.6,0-1.2-0.1-1.7-0.2c-0.5-0.2-1-0.4-1.4-0.7c-0.4-0.3-0.8-0.6-1.1-1
					c-0.3-0.4-0.5-0.8-0.7-1.2c-0.7-0.1-1.4-0.3-2-0.7c-0.6-0.4-1.1-0.8-1.5-1.4c-0.4-0.6-0.7-1.3-1-2.1c-0.2-0.8-0.3-1.7-0.3-2.6
					c0-1.1,0.1-2,0.4-2.8c0.3-0.8,0.7-1.5,1.1-2.1c0.5-0.6,1.1-1,1.8-1.3c0.7-0.3,1.4-0.5,2.3-0.5c0.8,0,1.6,0.2,2.3,0.5
					c0.7,0.3,1.3,0.8,1.8,1.3s0.9,1.3,1.2,2.1c0.3,0.8,0.4,1.8,0.4,2.8c0,0.9-0.1,1.8-0.3,2.6c-0.2,0.8-0.5,1.5-0.9,2
					c-0.4,0.6-0.9,1.1-1.5,1.4c-0.6,0.4-1.2,0.6-1.9,0.7c0.3,0.6,0.7,1,1.3,1.3s1.2,0.4,1.9,0.4c0.3,0,0.6,0,0.8-0.1
					c0.2,0,0.4-0.1,0.6-0.1l0.3,1.3c-0.2,0.1-0.5,0.2-0.8,0.2C300,132.3,299.7,132.3,299.3,132.3z M295.3,127.9
					c0.6,0,1.1-0.1,1.6-0.4c0.5-0.3,0.9-0.6,1.2-1.1c0.3-0.5,0.6-1.1,0.8-1.7c0.2-0.7,0.3-1.4,0.3-2.3c0-0.8-0.1-1.5-0.3-2.2
					c-0.2-0.7-0.5-1.2-0.8-1.7c-0.3-0.5-0.7-0.8-1.2-1c-0.5-0.2-1-0.4-1.6-0.4c-0.6,0-1.1,0.1-1.6,0.4s-0.9,0.6-1.2,1
					c-0.3,0.5-0.6,1-0.8,1.7c-0.2,0.7-0.3,1.4-0.3,2.2c0,0.8,0.1,1.6,0.3,2.3c0.2,0.7,0.5,1.2,0.8,1.7s0.7,0.8,1.2,1.1
					S294.7,127.9,295.3,127.9z"/>
				<path class="st4" d="M306.4,129.3c-1,0-1.8-0.3-2.3-1c-0.5-0.6-0.7-1.6-0.7-2.8v-6.2h1.7v5.9c0,0.9,0.1,1.6,0.4,2
					s0.8,0.6,1.4,0.6c0.5,0,1-0.1,1.3-0.4c0.4-0.3,0.8-0.7,1.3-1.2v-6.9h1.6v9.7h-1.4l-0.1-1.5h-0.1c-0.5,0.5-0.9,1-1.4,1.3
					C307.6,129.1,307.1,129.3,306.4,129.3z"/>
				<path class="st4" d="M316.7,129.3c-0.8,0-1.5-0.2-2-0.7c-0.5-0.5-0.8-1.2-0.8-2c0-1.1,0.5-1.9,1.4-2.4s2.5-1,4.5-1.2
					c0-0.3,0-0.6-0.1-0.9c-0.1-0.3-0.2-0.6-0.3-0.8c-0.1-0.2-0.4-0.4-0.6-0.5c-0.3-0.1-0.6-0.2-1-0.2c-0.6,0-1.1,0.1-1.6,0.3
					s-0.9,0.5-1.3,0.7l-0.6-1.1c0.5-0.3,1-0.6,1.7-0.8c0.7-0.3,1.4-0.4,2.2-0.4c1.2,0,2,0.4,2.6,1.1s0.8,1.7,0.8,2.9v6h-1.4
					l-0.1-1.2h-0.1c-0.5,0.4-1,0.7-1.5,1C317.8,129.1,317.3,129.3,316.7,129.3z M317.1,127.9c0.5,0,0.9-0.1,1.3-0.3
					c0.4-0.2,0.9-0.5,1.3-1v-2.7c-0.8,0.1-1.5,0.2-2,0.4c-0.6,0.1-1,0.3-1.3,0.5c-0.3,0.2-0.6,0.4-0.7,0.7c-0.2,0.3-0.2,0.5-0.2,0.9
					c0,0.6,0.2,1,0.5,1.2C316.2,127.8,316.7,127.9,317.1,127.9z"/>
				<path class="st4" d="M324.7,133.2c-0.2,0-0.4,0-0.6,0c-0.2,0-0.4-0.1-0.5-0.2l0.3-1.3c0.1,0,0.2,0.1,0.4,0.1s0.3,0.1,0.4,0.1
					c0.6,0,1-0.2,1.4-0.6s0.6-0.9,0.8-1.5l0.2-0.7l-3.9-9.7h1.7l2,5.4c0.1,0.4,0.3,0.9,0.5,1.3c0.2,0.5,0.3,0.9,0.5,1.4h0.1
					c0.1-0.4,0.3-0.9,0.4-1.4c0.1-0.5,0.3-0.9,0.4-1.4l1.7-5.4h1.6l-3.7,10.5c-0.2,0.5-0.4,0.9-0.6,1.3c-0.2,0.4-0.5,0.8-0.8,1.1
					c-0.3,0.3-0.6,0.5-1,0.7C325.6,133.1,325.1,133.2,324.7,133.2z"/>
				<path class="st4" d="M337.8,129v-14.2h1.6v3.9l-0.1,2c0.5-0.4,1-0.8,1.5-1.1c0.5-0.3,1.1-0.5,1.8-0.5c1,0,1.8,0.3,2.2,1
					c0.5,0.6,0.7,1.6,0.7,2.8v6.2H344v-5.9c0-0.9-0.1-1.6-0.4-2s-0.8-0.6-1.4-0.6c-0.5,0-1,0.1-1.3,0.4c-0.4,0.3-0.8,0.6-1.3,1.1v7
					H337.8z"/>
				<path class="st4" d="M351,129.3c-0.8,0-1.5-0.2-2-0.7c-0.5-0.5-0.8-1.2-0.8-2c0-1.1,0.5-1.9,1.4-2.4s2.5-1,4.5-1.2
					c0-0.3,0-0.6-0.1-0.9c-0.1-0.3-0.2-0.6-0.3-0.8c-0.1-0.2-0.4-0.4-0.6-0.5c-0.3-0.1-0.6-0.2-1-0.2c-0.6,0-1.1,0.1-1.6,0.3
					s-0.9,0.5-1.3,0.7l-0.6-1.1c0.5-0.3,1-0.6,1.7-0.8c0.7-0.3,1.4-0.4,2.2-0.4c1.2,0,2,0.4,2.6,1.1s0.8,1.7,0.8,2.9v6h-1.4
					l-0.1-1.2h-0.1c-0.5,0.4-1,0.7-1.5,1C352.1,129.1,351.6,129.3,351,129.3z M352.3,117.6c-0.5,0-1-0.1-1.4-0.3s-0.7-0.4-0.9-0.7
					c-0.2-0.3-0.4-0.6-0.6-1c-0.1-0.4-0.2-0.7-0.2-1.1l1-0.2c0,0.3,0.1,0.5,0.2,0.8s0.2,0.5,0.4,0.7s0.4,0.4,0.6,0.5
					c0.2,0.1,0.5,0.2,0.9,0.2c0.3,0,0.6-0.1,0.8-0.2c0.2-0.1,0.5-0.3,0.6-0.5c0.2-0.2,0.3-0.4,0.4-0.7s0.2-0.5,0.2-0.8l1,0.2
					c0,0.4-0.1,0.7-0.2,1.1c-0.1,0.4-0.3,0.7-0.6,1c-0.3,0.3-0.6,0.5-1,0.7C353.3,117.5,352.8,117.6,352.3,117.6z M351.4,127.9
					c0.5,0,0.9-0.1,1.3-0.3c0.4-0.2,0.9-0.5,1.3-1v-2.7c-0.8,0.1-1.5,0.2-2,0.4c-0.6,0.1-1,0.3-1.3,0.5c-0.3,0.2-0.6,0.4-0.7,0.7
					c-0.2,0.3-0.2,0.5-0.2,0.9c0,0.6,0.2,1,0.5,1.2C350.5,127.8,351,127.9,351.4,127.9z"/>
				<path class="st4" d="M358.8,129v-9.7h1.4l0.1,1.4h0.1c0.5-0.5,1-0.9,1.5-1.2c0.5-0.3,1.1-0.5,1.8-0.5c1,0,1.8,0.3,2.2,1
					c0.5,0.6,0.7,1.6,0.7,2.8v6.2h-1.6v-5.9c0-0.9-0.1-1.6-0.4-2s-0.8-0.6-1.4-0.6c-0.5,0-1,0.1-1.3,0.4c-0.4,0.3-0.8,0.6-1.3,1.1v7
					H358.8z"/>
				<path class="st4" d="M373,133.5c-0.6,0-1.1-0.1-1.6-0.2s-0.9-0.3-1.3-0.5c-0.4-0.2-0.6-0.5-0.8-0.8s-0.3-0.7-0.3-1.1
					c0-0.4,0.1-0.8,0.4-1.2s0.6-0.7,1-1v-0.1c-0.2-0.1-0.4-0.3-0.6-0.6c-0.2-0.3-0.2-0.6-0.2-1c0-0.4,0.1-0.8,0.3-1.1
					s0.5-0.5,0.7-0.7v-0.1c-0.3-0.3-0.6-0.6-0.9-1.1c-0.3-0.4-0.4-1-0.4-1.6c0-0.5,0.1-1,0.3-1.4c0.2-0.4,0.5-0.8,0.8-1.1
					c0.3-0.3,0.7-0.5,1.2-0.7s0.9-0.2,1.4-0.2c0.3,0,0.5,0,0.8,0.1s0.4,0.1,0.6,0.2h3.4v1.3h-2c0.2,0.2,0.4,0.5,0.6,0.9
					c0.2,0.3,0.2,0.7,0.2,1.1c0,0.5-0.1,1-0.3,1.4c-0.2,0.4-0.4,0.8-0.8,1.1c-0.3,0.3-0.7,0.5-1.1,0.7c-0.4,0.2-0.9,0.2-1.4,0.2
					c-0.2,0-0.5,0-0.7-0.1c-0.3-0.1-0.5-0.1-0.7-0.2c-0.2,0.1-0.3,0.3-0.4,0.5s-0.2,0.4-0.2,0.7c0,0.3,0.1,0.6,0.4,0.8
					c0.2,0.2,0.7,0.3,1.4,0.3h1.9c1.1,0,2,0.2,2.6,0.5c0.6,0.4,0.8,1,0.8,1.8c0,0.5-0.1,0.9-0.3,1.3c-0.2,0.4-0.6,0.8-1,1.1
					s-0.9,0.6-1.5,0.7C374.5,133.4,373.8,133.5,373,133.5z M373.3,132.4c0.5,0,0.9-0.1,1.3-0.2c0.4-0.1,0.7-0.3,1-0.4
					s0.5-0.4,0.6-0.6c0.1-0.2,0.2-0.5,0.2-0.7c0-0.5-0.2-0.8-0.5-0.9c-0.3-0.2-0.8-0.3-1.5-0.3h-1.7c-0.2,0-0.4,0-0.6,0
					c-0.2,0-0.4-0.1-0.7-0.1c-0.3,0.3-0.6,0.5-0.8,0.8c-0.2,0.3-0.2,0.6-0.2,0.8c0,0.5,0.2,0.9,0.8,1.2S372.4,132.4,373.3,132.4z
					 M373,124.8c0.3,0,0.5-0.1,0.8-0.2c0.2-0.1,0.5-0.3,0.7-0.5c0.2-0.2,0.3-0.4,0.4-0.7s0.2-0.6,0.2-1c0-0.7-0.2-1.3-0.6-1.7
					c-0.4-0.4-0.9-0.6-1.5-0.6s-1.1,0.2-1.5,0.6c-0.4,0.4-0.6,1-0.6,1.7c0,0.4,0.1,0.7,0.2,1c0.1,0.3,0.3,0.5,0.5,0.7
					c0.2,0.2,0.4,0.4,0.7,0.5C372.5,124.8,372.7,124.8,373,124.8z"/>
				<path class="st4" d="M386.4,129.3c-0.7,0-1.4-0.1-2-0.4c-0.6-0.3-1.2-0.6-1.6-1l0.8-1.1c0.4,0.3,0.9,0.6,1.3,0.8
					c0.4,0.2,1,0.3,1.6,0.3c0.6,0,1.1-0.1,1.4-0.4c0.3-0.3,0.5-0.7,0.5-1.1c0-0.3-0.1-0.5-0.2-0.7c-0.1-0.2-0.3-0.4-0.5-0.5
					c-0.2-0.1-0.4-0.3-0.7-0.4c-0.3-0.1-0.5-0.2-0.8-0.3c-0.3-0.1-0.7-0.3-1-0.4c-0.3-0.2-0.7-0.3-0.9-0.6c-0.3-0.2-0.5-0.5-0.7-0.8
					c-0.2-0.3-0.3-0.6-0.3-1.1c0-0.4,0.1-0.8,0.2-1.1s0.4-0.6,0.7-0.9c0.3-0.2,0.6-0.4,1-0.6c0.4-0.1,0.9-0.2,1.4-0.2
					c0.6,0,1.2,0.1,1.7,0.3c0.5,0.2,1,0.5,1.3,0.8l-0.8,1c-0.3-0.3-0.7-0.5-1-0.6c-0.4-0.2-0.8-0.2-1.2-0.2c-0.6,0-1.1,0.1-1.3,0.4
					c-0.3,0.3-0.4,0.6-0.4,1c0,0.2,0.1,0.4,0.2,0.6s0.3,0.3,0.5,0.4c0.2,0.1,0.4,0.2,0.7,0.3c0.3,0.1,0.5,0.2,0.8,0.3
					c0.3,0.1,0.7,0.3,1.1,0.4c0.4,0.1,0.7,0.3,0.9,0.6c0.3,0.2,0.5,0.5,0.7,0.8c0.2,0.3,0.3,0.7,0.3,1.2c0,0.4-0.1,0.8-0.2,1.1
					c-0.2,0.3-0.4,0.7-0.7,0.9c-0.3,0.3-0.7,0.5-1.1,0.6C387.4,129.2,386.9,129.3,386.4,129.3z"/>
				<path class="st4" d="M394.4,129.3c-0.8,0-1.5-0.2-2-0.7c-0.5-0.5-0.8-1.2-0.8-2c0-1.1,0.5-1.9,1.4-2.4c0.9-0.6,2.5-1,4.5-1.2
					c0-0.3,0-0.6-0.1-0.9c-0.1-0.3-0.2-0.6-0.3-0.8s-0.3-0.4-0.6-0.5c-0.3-0.1-0.6-0.2-1-0.2c-0.6,0-1.1,0.1-1.6,0.3
					s-0.9,0.5-1.3,0.7l-0.6-1.1c0.5-0.3,1-0.6,1.7-0.8c0.7-0.3,1.4-0.4,2.2-0.4c1.2,0,2,0.4,2.6,1.1s0.8,1.7,0.8,2.9v6h-1.4
					l-0.1-1.2h-0.1c-0.5,0.4-1,0.7-1.5,1S395,129.3,394.4,129.3z M394.9,127.9c0.5,0,0.9-0.1,1.3-0.3c0.4-0.2,0.9-0.5,1.3-1v-2.7
					c-0.8,0.1-1.5,0.2-2,0.4c-0.6,0.1-1,0.3-1.3,0.5c-0.3,0.2-0.6,0.4-0.7,0.7c-0.2,0.3-0.2,0.5-0.2,0.9c0,0.6,0.2,1,0.5,1.2
					S394.4,127.9,394.9,127.9z"/>
				<path class="st4" d="M402.4,133.2c-0.2,0-0.4,0-0.6,0s-0.4-0.1-0.5-0.2l0.3-1.3c0.1,0,0.2,0.1,0.4,0.1s0.3,0.1,0.4,0.1
					c0.6,0,1-0.2,1.4-0.6s0.6-0.9,0.8-1.5l0.2-0.7l-3.9-9.7h1.7l2,5.4c0.1,0.4,0.3,0.9,0.5,1.3c0.2,0.5,0.3,0.9,0.5,1.4h0.1
					c0.1-0.4,0.3-0.9,0.4-1.4c0.1-0.5,0.3-0.9,0.4-1.4l1.7-5.4h1.6l-3.7,10.5c-0.2,0.5-0.4,0.9-0.6,1.3c-0.2,0.4-0.5,0.8-0.8,1.1
					c-0.3,0.3-0.6,0.5-1,0.7S402.9,133.2,402.4,133.2z"/>
				<path class="st4" d="M414.8,124.6v-1.3h4.6v1.3H414.8z"/>
				<path class="st4" d="M434.9,132.3c-0.6,0-1.2-0.1-1.7-0.2c-0.5-0.2-1-0.4-1.4-0.7c-0.4-0.3-0.8-0.6-1.1-1
					c-0.3-0.4-0.5-0.8-0.7-1.2c-0.7-0.1-1.4-0.3-2-0.7c-0.6-0.4-1.1-0.8-1.5-1.4c-0.4-0.6-0.7-1.3-1-2.1c-0.2-0.8-0.3-1.7-0.3-2.6
					c0-1.1,0.1-2,0.4-2.8c0.3-0.8,0.7-1.5,1.1-2.1s1.1-1,1.8-1.3c0.7-0.3,1.4-0.5,2.3-0.5c0.8,0,1.6,0.2,2.3,0.5
					c0.7,0.3,1.3,0.8,1.8,1.3s0.9,1.3,1.2,2.1c0.3,0.8,0.4,1.8,0.4,2.8c0,0.9-0.1,1.8-0.3,2.6c-0.2,0.8-0.5,1.5-0.9,2
					c-0.4,0.6-0.9,1.1-1.5,1.4c-0.6,0.4-1.2,0.6-1.9,0.7c0.3,0.6,0.7,1,1.3,1.3c0.6,0.3,1.2,0.4,1.9,0.4c0.3,0,0.5,0,0.8-0.1
					c0.2,0,0.4-0.1,0.6-0.1l0.3,1.3c-0.2,0.1-0.5,0.2-0.8,0.2C435.6,132.3,435.2,132.3,434.9,132.3z M430.8,127.9
					c0.6,0,1.1-0.1,1.6-0.4c0.5-0.3,0.9-0.6,1.2-1.1s0.6-1.1,0.8-1.7c0.2-0.7,0.3-1.4,0.3-2.3c0-0.8-0.1-1.5-0.3-2.2
					c-0.2-0.7-0.5-1.2-0.8-1.7c-0.3-0.5-0.7-0.8-1.2-1c-0.5-0.2-1-0.4-1.6-0.4s-1.1,0.1-1.6,0.4s-0.9,0.6-1.2,1
					c-0.3,0.5-0.6,1-0.8,1.7c-0.2,0.7-0.3,1.4-0.3,2.2c0,0.8,0.1,1.6,0.3,2.3s0.5,1.2,0.8,1.7s0.7,0.8,1.2,1.1
					S430.2,127.9,430.8,127.9z"/>
				<path class="st4" d="M442,129.3c-1,0-1.8-0.3-2.3-1c-0.5-0.6-0.7-1.6-0.7-2.8v-6.2h1.7v5.9c0,0.9,0.1,1.6,0.4,2s0.8,0.6,1.4,0.6
					c0.5,0,1-0.1,1.3-0.4c0.4-0.3,0.8-0.7,1.3-1.2v-6.9h1.6v9.7h-1.4l-0.1-1.5h-0.1c-0.5,0.5-0.9,1-1.4,1.3
					C443.2,129.1,442.6,129.3,442,129.3z"/>
				<path class="st4" d="M452.2,129.3c-0.8,0-1.5-0.2-2-0.7c-0.5-0.5-0.8-1.2-0.8-2c0-1.1,0.5-1.9,1.4-2.4c0.9-0.6,2.5-1,4.5-1.2
					c0-0.3,0-0.6-0.1-0.9c-0.1-0.3-0.2-0.6-0.3-0.8s-0.3-0.4-0.6-0.5c-0.3-0.1-0.6-0.2-1-0.2c-0.6,0-1.1,0.1-1.6,0.3
					s-0.9,0.5-1.3,0.7l-0.6-1.1c0.5-0.3,1-0.6,1.7-0.8s1.4-0.4,2.2-0.4c1.2,0,2,0.4,2.6,1.1c0.5,0.7,0.8,1.7,0.8,2.9v6h-1.4
					l-0.1-1.2h-0.1c-0.5,0.4-1,0.7-1.5,1S452.8,129.3,452.2,129.3z M453.9,117.6l-3.1-3.1l1.2-1.1l2.8,3.3L453.9,117.6z
					 M452.7,127.9c0.5,0,0.9-0.1,1.3-0.3c0.4-0.2,0.9-0.5,1.3-1v-2.7c-0.8,0.1-1.5,0.2-2,0.4c-0.6,0.1-1,0.3-1.3,0.5
					c-0.3,0.2-0.6,0.4-0.7,0.7s-0.2,0.5-0.2,0.9c0,0.6,0.2,1,0.5,1.2S452.2,127.9,452.7,127.9z"/>
				<path class="st4" d="M464.1,129v-9.7h1.4l0.1,1.4h0.1c0.4-0.5,0.9-0.9,1.4-1.2c0.5-0.3,1-0.5,1.6-0.5c0.7,0,1.3,0.2,1.8,0.5
					c0.4,0.3,0.7,0.8,0.9,1.4c0.5-0.6,1-1,1.5-1.3c0.5-0.3,1.1-0.5,1.7-0.5c1,0,1.7,0.3,2.2,1c0.5,0.6,0.7,1.6,0.7,2.8v6.2h-1.6
					v-5.9c0-0.9-0.1-1.6-0.4-2c-0.3-0.4-0.7-0.6-1.4-0.6c-0.7,0-1.5,0.5-2.4,1.5v7H470v-5.9c0-0.9-0.1-1.6-0.4-2
					c-0.3-0.4-0.8-0.6-1.4-0.6c-0.7,0-1.5,0.5-2.4,1.5v7H464.1z"/>
				<path class="st4" d="M484.4,129.3c-0.6,0-1.2-0.1-1.7-0.3s-1-0.6-1.4-1c-0.4-0.4-0.7-1-1-1.6c-0.2-0.6-0.4-1.3-0.4-2.2
					c0-0.8,0.1-1.5,0.4-2.2c0.2-0.6,0.6-1.2,1-1.6c0.4-0.4,0.9-0.8,1.4-1s1.1-0.3,1.7-0.3s1.2,0.1,1.7,0.3s1,0.6,1.4,1s0.7,1,1,1.6
					s0.4,1.4,0.4,2.2c0,0.8-0.1,1.5-0.4,2.2s-0.6,1.2-1,1.6s-0.9,0.8-1.4,1S485,129.3,484.4,129.3z M484.4,127.9
					c0.4,0,0.8-0.1,1.1-0.3c0.3-0.2,0.6-0.4,0.9-0.8c0.2-0.3,0.4-0.7,0.6-1.2c0.1-0.5,0.2-1,0.2-1.5s-0.1-1.1-0.2-1.5
					c-0.1-0.5-0.3-0.9-0.6-1.2c-0.2-0.3-0.5-0.6-0.9-0.8s-0.7-0.3-1.1-0.3s-0.8,0.1-1.1,0.3s-0.6,0.4-0.9,0.8
					c-0.2,0.3-0.4,0.7-0.6,1.2c-0.1,0.5-0.2,1-0.2,1.5s0.1,1.1,0.2,1.5c0.1,0.5,0.3,0.8,0.6,1.2c0.2,0.3,0.5,0.6,0.9,0.8
					C483.6,127.8,484,127.9,484.4,127.9z M481.7,114.7c0.1-0.5,0.2-0.9,0.4-1.3c0.2-0.3,0.6-0.5,1-0.5c0.3,0,0.6,0,0.8,0.1
					c0.2,0.1,0.4,0.2,0.6,0.3c0.2,0.1,0.4,0.2,0.6,0.3c0.2,0.1,0.4,0.1,0.5,0.1c0.2,0,0.3-0.1,0.4-0.2c0.1-0.1,0.2-0.3,0.2-0.6
					l0.9,0.1c-0.1,0.5-0.2,0.9-0.4,1.3s-0.6,0.5-1,0.5c-0.3,0-0.6,0-0.8-0.1c-0.2-0.1-0.4-0.2-0.6-0.3s-0.4-0.2-0.6-0.3
					c-0.2-0.1-0.4-0.1-0.5-0.1c-0.2,0-0.3,0.1-0.4,0.2c-0.1,0.1-0.2,0.3-0.2,0.6L481.7,114.7z M482.3,117.6l-0.6-0.7l2-1.8h1.4
					l2,1.8l-0.6,0.7l-2.1-1.4h-0.1L482.3,117.6z"/>
				<path class="st4" d="M492.3,117.3c-0.3,0-0.6-0.1-0.8-0.3s-0.3-0.5-0.3-0.8c0-0.3,0.1-0.6,0.3-0.8s0.5-0.3,0.8-0.3
					c0.3,0,0.6,0.1,0.8,0.3s0.3,0.4,0.3,0.8c0,0.3-0.1,0.6-0.3,0.8S492.7,117.3,492.3,117.3z M491.5,129v-9.7h1.6v9.7H491.5z"/>
				<path class="st4" d="M500.4,129v-9.7h1.4l0.1,1.4h0.1c0.5-0.5,1-0.9,1.5-1.2c0.5-0.3,1.1-0.5,1.8-0.5c1,0,1.8,0.3,2.2,1
					c0.5,0.6,0.7,1.6,0.7,2.8v6.2h-1.6v-5.9c0-0.9-0.1-1.6-0.4-2s-0.8-0.6-1.4-0.6c-0.5,0-1,0.1-1.3,0.4c-0.4,0.3-0.8,0.6-1.3,1.1v7
					H500.4z"/>
			</g>
			<g class="st1">
				<path class="st4" d="M514.6,133.5c-0.6,0-1.1-0.1-1.6-0.2s-0.9-0.3-1.3-0.5c-0.4-0.2-0.6-0.5-0.8-0.8s-0.3-0.7-0.3-1.1
					c0-0.4,0.1-0.8,0.4-1.2c0.3-0.4,0.6-0.7,1-1v-0.1c-0.2-0.1-0.4-0.3-0.6-0.6s-0.2-0.6-0.2-1c0-0.4,0.1-0.8,0.3-1.1
					s0.5-0.5,0.7-0.7v-0.1c-0.3-0.3-0.6-0.6-0.9-1.1s-0.4-1-0.4-1.6c0-0.5,0.1-1,0.3-1.4c0.2-0.4,0.5-0.8,0.8-1.1
					c0.3-0.3,0.7-0.5,1.2-0.7c0.4-0.2,0.9-0.2,1.4-0.2c0.3,0,0.5,0,0.8,0.1s0.4,0.1,0.6,0.2h3.4v1.3h-2c0.2,0.2,0.4,0.5,0.6,0.9
					c0.2,0.3,0.2,0.7,0.2,1.1c0,0.5-0.1,1-0.3,1.4s-0.4,0.8-0.8,1.1c-0.3,0.3-0.7,0.5-1.1,0.7c-0.4,0.2-0.9,0.2-1.4,0.2
					c-0.2,0-0.5,0-0.7-0.1c-0.3-0.1-0.5-0.1-0.7-0.2c-0.2,0.1-0.3,0.3-0.4,0.5s-0.2,0.4-0.2,0.7c0,0.3,0.1,0.6,0.4,0.8
					c0.2,0.2,0.7,0.3,1.4,0.3h1.9c1.1,0,2,0.2,2.5,0.5c0.6,0.4,0.8,1,0.8,1.8c0,0.5-0.1,0.9-0.3,1.3s-0.6,0.8-1,1.1
					s-0.9,0.6-1.5,0.7C516.1,133.4,515.4,133.5,514.6,133.5z M514.9,132.4c0.5,0,0.9-0.1,1.3-0.2c0.4-0.1,0.7-0.3,1-0.4
					s0.5-0.4,0.6-0.6c0.1-0.2,0.2-0.5,0.2-0.7c0-0.5-0.2-0.8-0.5-0.9s-0.8-0.3-1.5-0.3h-1.7c-0.2,0-0.4,0-0.6,0s-0.4-0.1-0.7-0.1
					c-0.3,0.3-0.6,0.5-0.8,0.8c-0.2,0.3-0.2,0.6-0.2,0.8c0,0.5,0.2,0.9,0.8,1.2S514,132.4,514.9,132.4z M514.6,124.8
					c0.3,0,0.5-0.1,0.8-0.2c0.2-0.1,0.5-0.3,0.7-0.5c0.2-0.2,0.3-0.4,0.5-0.7c0.1-0.3,0.2-0.6,0.2-1c0-0.7-0.2-1.3-0.6-1.7
					c-0.4-0.4-0.9-0.6-1.5-0.6s-1.1,0.2-1.5,0.6c-0.4,0.4-0.6,1-0.6,1.7c0,0.4,0.1,0.7,0.2,1c0.1,0.3,0.3,0.5,0.5,0.7
					c0.2,0.2,0.4,0.4,0.7,0.5C514.1,124.8,514.4,124.8,514.6,124.8z"/>
			</g>
			<g class="st1">
				<path class="st4" d="M523.4,129.3c-0.8,0-1.5-0.2-2-0.7c-0.5-0.5-0.8-1.2-0.8-2c0-1.1,0.5-1.9,1.4-2.4c0.9-0.6,2.5-1,4.5-1.2
					c0-0.3,0-0.6-0.1-0.9c-0.1-0.3-0.2-0.6-0.3-0.8s-0.3-0.4-0.6-0.5c-0.3-0.1-0.6-0.2-1-0.2c-0.6,0-1.1,0.1-1.6,0.3
					c-0.5,0.2-0.9,0.5-1.3,0.7l-0.6-1.1c0.5-0.3,1-0.6,1.7-0.8c0.7-0.3,1.4-0.4,2.2-0.4c1.2,0,2,0.4,2.6,1.1s0.8,1.7,0.8,2.9v6h-1.4
					l-0.1-1.2h-0.1c-0.5,0.4-1,0.7-1.5,1S524,129.3,523.4,129.3z M525,117.6l-3.1-3.1l1.2-1.1l2.8,3.3L525,117.6z M523.8,127.9
					c0.5,0,0.9-0.1,1.3-0.3c0.4-0.2,0.9-0.5,1.3-1v-2.7c-0.8,0.1-1.5,0.2-2.1,0.4s-1,0.3-1.3,0.5s-0.6,0.4-0.7,0.7
					c-0.2,0.3-0.2,0.5-0.2,0.9c0,0.6,0.2,1,0.5,1.2S523.4,127.9,523.8,127.9z"/>
				<path class="st4" d="M531.4,133.2c-0.2,0-0.4,0-0.6,0c-0.2,0-0.4-0.1-0.5-0.2l0.3-1.3c0.1,0,0.2,0.1,0.4,0.1
					c0.1,0,0.3,0.1,0.4,0.1c0.6,0,1-0.2,1.4-0.6s0.6-0.9,0.8-1.5l0.2-0.7l-3.9-9.7h1.7l2,5.4c0.1,0.4,0.3,0.9,0.5,1.3
					c0.2,0.5,0.3,0.9,0.5,1.4h0.1c0.1-0.4,0.3-0.9,0.4-1.4c0.1-0.5,0.3-0.9,0.4-1.4l1.7-5.4h1.6l-3.7,10.5c-0.2,0.5-0.4,0.9-0.6,1.3
					c-0.2,0.4-0.5,0.8-0.8,1.1c-0.3,0.3-0.6,0.5-1,0.7S531.9,133.2,531.4,133.2z"/>
				<path class="st4" d="M548.4,129.3c-0.6,0-1.2-0.1-1.8-0.3s-1-0.6-1.5-1s-0.7-1-1-1.6c-0.2-0.6-0.3-1.3-0.3-2.2
					c0-0.8,0.1-1.5,0.4-2.2c0.3-0.6,0.6-1.2,1-1.6s0.9-0.8,1.5-1c0.6-0.2,1.2-0.3,1.8-0.3c0.6,0,1.2,0.1,1.6,0.3
					c0.5,0.2,0.9,0.5,1.2,0.8l-0.8,1.1c-0.3-0.3-0.6-0.5-0.9-0.6c-0.3-0.2-0.7-0.2-1-0.2c-0.4,0-0.8,0.1-1.2,0.3s-0.7,0.4-1,0.8
					c-0.3,0.3-0.5,0.7-0.6,1.2c-0.2,0.5-0.2,1-0.2,1.5s0.1,1.1,0.2,1.5c0.1,0.5,0.3,0.8,0.6,1.2c0.3,0.3,0.6,0.6,1,0.8
					c0.4,0.2,0.8,0.3,1.2,0.3c0.5,0,0.9-0.1,1.2-0.3c0.4-0.2,0.7-0.4,1-0.7l0.7,1.1c-0.4,0.4-0.9,0.7-1.5,0.9
					C549.5,129.2,549,129.3,548.4,129.3z"/>
				<path class="st4" d="M556.5,129.3c-1,0-1.8-0.3-2.3-1c-0.5-0.6-0.7-1.6-0.7-2.8v-6.2h1.7v5.9c0,0.9,0.1,1.6,0.4,2
					s0.8,0.6,1.4,0.6c0.5,0,1-0.1,1.3-0.4c0.4-0.3,0.8-0.7,1.3-1.2v-6.9h1.6v9.7h-1.4l-0.1-1.5h-0.1c-0.5,0.5-0.9,1-1.4,1.3
					C557.8,129.1,557.2,129.3,556.5,129.3z M557.7,117.6l-3.1-3.1l1.2-1.1l2.8,3.3L557.7,117.6z"/>
				<path class="st4" d="M564.5,129v-9.7h1.4l0.1,1.4h0.1c0.5-0.5,1-0.9,1.5-1.2c0.5-0.3,1.1-0.5,1.8-0.5c1,0,1.8,0.3,2.2,1
					c0.5,0.6,0.7,1.6,0.7,2.8v6.2h-1.6v-5.9c0-0.9-0.1-1.6-0.4-2s-0.8-0.6-1.4-0.6c-0.5,0-1,0.1-1.3,0.4c-0.4,0.3-0.8,0.6-1.3,1.1v7
					H564.5z"/>
				<path class="st4" d="M578.8,133.5c-0.6,0-1.1-0.1-1.6-0.2s-0.9-0.3-1.3-0.5s-0.6-0.5-0.8-0.8s-0.3-0.7-0.3-1.1
					c0-0.4,0.1-0.8,0.4-1.2s0.6-0.7,1-1v-0.1c-0.2-0.1-0.4-0.3-0.6-0.6c-0.2-0.3-0.2-0.6-0.2-1c0-0.4,0.1-0.8,0.3-1.1
					s0.5-0.5,0.7-0.7v-0.1c-0.3-0.3-0.6-0.6-0.9-1.1c-0.3-0.4-0.4-1-0.4-1.6c0-0.5,0.1-1,0.3-1.4c0.2-0.4,0.5-0.8,0.8-1.1
					c0.3-0.3,0.7-0.5,1.2-0.7c0.4-0.2,0.9-0.2,1.4-0.2c0.3,0,0.5,0,0.8,0.1c0.2,0,0.4,0.1,0.6,0.2h3.4v1.3h-2
					c0.2,0.2,0.4,0.5,0.6,0.9c0.2,0.3,0.2,0.7,0.2,1.1c0,0.5-0.1,1-0.3,1.4c-0.2,0.4-0.4,0.8-0.8,1.1c-0.3,0.3-0.7,0.5-1.1,0.7
					c-0.4,0.2-0.9,0.2-1.4,0.2c-0.2,0-0.5,0-0.7-0.1c-0.3-0.1-0.5-0.1-0.7-0.2c-0.2,0.1-0.3,0.3-0.4,0.5s-0.2,0.4-0.2,0.7
					c0,0.3,0.1,0.6,0.4,0.8c0.2,0.2,0.7,0.3,1.4,0.3h1.9c1.1,0,2,0.2,2.6,0.5c0.6,0.4,0.8,1,0.8,1.8c0,0.5-0.1,0.9-0.3,1.3
					c-0.2,0.4-0.6,0.8-1,1.1s-0.9,0.6-1.5,0.7S579.5,133.5,578.8,133.5z M579,132.4c0.5,0,0.9-0.1,1.3-0.2c0.4-0.1,0.7-0.3,1-0.4
					s0.5-0.4,0.6-0.6c0.1-0.2,0.2-0.5,0.2-0.7c0-0.5-0.2-0.8-0.5-0.9c-0.3-0.2-0.8-0.3-1.5-0.3h-1.7c-0.2,0-0.4,0-0.6,0
					c-0.2,0-0.4-0.1-0.7-0.1c-0.3,0.3-0.6,0.5-0.8,0.8c-0.2,0.3-0.2,0.6-0.2,0.8c0,0.5,0.2,0.9,0.8,1.2S578.1,132.4,579,132.4z
					 M578.8,124.8c0.3,0,0.5-0.1,0.8-0.2c0.2-0.1,0.5-0.3,0.7-0.5c0.2-0.2,0.3-0.4,0.5-0.7s0.2-0.6,0.2-1c0-0.7-0.2-1.3-0.6-1.7
					c-0.4-0.4-0.9-0.6-1.5-0.6c-0.6,0-1.1,0.2-1.5,0.6c-0.4,0.4-0.6,1-0.6,1.7c0,0.4,0.1,0.7,0.2,1c0.1,0.3,0.3,0.5,0.5,0.7
					c0.2,0.2,0.4,0.4,0.7,0.5C578.2,124.8,578.5,124.8,578.8,124.8z"/>
				<path class="st4" d="M594.7,129.3c-0.8,0-1.6-0.2-2.3-0.5s-1.3-0.8-1.8-1.3c-0.5-0.6-0.9-1.3-1.2-2.1c-0.3-0.8-0.4-1.8-0.4-2.9
					c0-1.1,0.1-2,0.4-2.8c0.3-0.8,0.7-1.6,1.2-2.1c0.5-0.6,1.1-1,1.8-1.3c0.7-0.3,1.5-0.5,2.3-0.5c0.8,0,1.5,0.2,2.1,0.5
					s1.1,0.7,1.5,1.1l-0.9,1.1c-0.3-0.4-0.7-0.7-1.2-0.9c-0.4-0.2-0.9-0.3-1.5-0.3c-0.6,0-1.2,0.1-1.7,0.4c-0.5,0.2-0.9,0.6-1.3,1.1
					c-0.4,0.5-0.6,1-0.8,1.7c-0.2,0.7-0.3,1.4-0.3,2.2c0,0.8,0.1,1.6,0.3,2.2s0.5,1.2,0.8,1.7s0.8,0.8,1.3,1.1s1.1,0.4,1.7,0.4
					c0.6,0,1.2-0.1,1.7-0.4c0.5-0.3,0.9-0.6,1.4-1.1l0.9,1c-0.5,0.6-1.1,1.1-1.8,1.4C596.3,129.1,595.5,129.3,594.7,129.3z"/>
			</g>
			<g class="st1">
				<path class="st4" d="M603.2,129.3c-0.8,0-1.5-0.2-2-0.7c-0.5-0.5-0.8-1.2-0.8-2c0-1.1,0.5-1.9,1.4-2.4c0.9-0.6,2.5-1,4.5-1.2
					c0-0.3,0-0.6-0.1-0.9c-0.1-0.3-0.2-0.6-0.3-0.8c-0.1-0.2-0.4-0.4-0.6-0.5c-0.3-0.1-0.6-0.2-1-0.2c-0.6,0-1.1,0.1-1.6,0.3
					s-0.9,0.5-1.3,0.7l-0.6-1.1c0.5-0.3,1-0.6,1.7-0.8s1.4-0.4,2.2-0.4c1.2,0,2,0.4,2.6,1.1s0.8,1.7,0.8,2.9v6h-1.4l-0.1-1.2h-0.1
					c-0.5,0.4-1,0.7-1.5,1C604.4,129.1,603.8,129.3,603.2,129.3z M603.7,127.9c0.5,0,0.9-0.1,1.3-0.3c0.4-0.2,0.9-0.5,1.3-1v-2.7
					c-0.8,0.1-1.5,0.2-2,0.4c-0.6,0.1-1,0.3-1.3,0.5s-0.6,0.4-0.7,0.7s-0.2,0.5-0.2,0.9c0,0.6,0.2,1,0.5,1.2
					C602.8,127.8,603.2,127.9,603.7,127.9z"/>
			</g>
			<g class="st1">
				<path class="st4" d="M613.8,129.3c-0.5,0-1-0.1-1.3-0.2c-0.4-0.2-0.6-0.4-0.9-0.7c-0.2-0.3-0.4-0.6-0.5-1
					c-0.1-0.4-0.1-0.8-0.1-1.3v-5.4h-1.4v-1.2l1.5-0.1l0.2-2.7h1.4v2.7h2.6v1.3h-2.6v5.4c0,0.6,0.1,1.1,0.3,1.4
					c0.2,0.3,0.6,0.5,1.2,0.5c0.2,0,0.4,0,0.6-0.1c0.2-0.1,0.4-0.1,0.5-0.2l0.3,1.2c-0.3,0.1-0.6,0.2-0.9,0.2
					C614.5,129.2,614.1,129.3,613.8,129.3z"/>
			</g>
			<g class="st1">
				<path class="st4" d="M621.8,129.3c-0.5,0-0.9-0.1-1.4-0.3c-0.5-0.2-0.9-0.5-1.4-0.9H619l-0.1,1h-1.3v-14.2h1.6v3.9l0,1.8
					c0.4-0.4,0.9-0.7,1.4-1c0.5-0.3,1.1-0.4,1.6-0.4c0.6,0,1.2,0.1,1.7,0.3c0.5,0.2,0.9,0.6,1.2,1c0.3,0.4,0.6,1,0.7,1.6
					c0.2,0.6,0.2,1.3,0.2,2c0,0.8-0.1,1.6-0.3,2.2c-0.2,0.7-0.5,1.2-0.9,1.7s-0.8,0.8-1.3,1C622.9,129.1,622.4,129.3,621.8,129.3z
					 M621.6,127.9c0.4,0,0.8-0.1,1.1-0.3s0.6-0.4,0.9-0.8c0.2-0.3,0.4-0.7,0.6-1.2c0.1-0.5,0.2-1,0.2-1.6c0-0.5,0-1-0.1-1.5
					c-0.1-0.4-0.2-0.8-0.5-1.1c-0.2-0.3-0.5-0.6-0.8-0.7c-0.3-0.2-0.7-0.3-1.2-0.3c-0.8,0-1.7,0.4-2.6,1.3v5.1
					c0.4,0.4,0.9,0.6,1.3,0.8C620.9,127.8,621.2,127.9,621.6,127.9z"/>
			</g>
			<g class="st1">
				<path class="st4" d="M630.6,129.3c-0.8,0-1.5-0.2-2-0.7c-0.5-0.5-0.8-1.2-0.8-2c0-1.1,0.5-1.9,1.4-2.4c0.9-0.6,2.5-1,4.5-1.2
					c0-0.3,0-0.6-0.1-0.9c-0.1-0.3-0.2-0.6-0.3-0.8c-0.1-0.2-0.4-0.4-0.6-0.5c-0.3-0.1-0.6-0.2-1-0.2c-0.6,0-1.1,0.1-1.6,0.3
					s-0.9,0.5-1.3,0.7l-0.6-1.1c0.5-0.3,1-0.6,1.7-0.8s1.4-0.4,2.2-0.4c1.2,0,2,0.4,2.6,1.1s0.8,1.7,0.8,2.9v6H634l-0.1-1.2h-0.1
					c-0.5,0.4-1,0.7-1.5,1C631.7,129.1,631.2,129.3,630.6,129.3z M631,127.9c0.5,0,0.9-0.1,1.3-0.3c0.4-0.2,0.9-0.5,1.3-1v-2.7
					c-0.8,0.1-1.5,0.2-2,0.4c-0.6,0.1-1,0.3-1.3,0.5s-0.6,0.4-0.7,0.7s-0.2,0.5-0.2,0.9c0,0.6,0.2,1,0.5,1.2
					C630.2,127.8,630.6,127.9,631,127.9z"/>
				<path class="st4" d="M642.2,129.3c-0.6,0-1.2-0.1-1.8-0.3c-0.6-0.2-1-0.6-1.5-1c-0.4-0.4-0.7-1-1-1.6c-0.2-0.6-0.4-1.3-0.4-2.2
					c0-0.8,0.1-1.5,0.4-2.2c0.3-0.6,0.6-1.2,1-1.6s0.9-0.8,1.5-1c0.6-0.2,1.2-0.3,1.8-0.3c0.6,0,1.2,0.1,1.6,0.3s0.9,0.5,1.2,0.8
					l-0.8,1.1c-0.3-0.3-0.6-0.5-0.9-0.6s-0.7-0.2-1-0.2c-0.4,0-0.8,0.1-1.2,0.3c-0.4,0.2-0.7,0.4-1,0.8c-0.3,0.3-0.5,0.7-0.6,1.2
					c-0.2,0.5-0.2,1-0.2,1.5s0.1,1.1,0.2,1.5c0.1,0.5,0.4,0.8,0.6,1.2c0.3,0.3,0.6,0.6,1,0.8c0.4,0.2,0.8,0.3,1.2,0.3
					c0.5,0,0.9-0.1,1.2-0.3s0.7-0.4,1-0.7l0.7,1.1c-0.4,0.4-0.9,0.7-1.5,0.9C643.4,129.2,642.8,129.3,642.2,129.3z"/>
				<path class="st4" d="M647.5,129v-14.2h1.6v9.6h0.1l4.1-5.1h1.8l-3.3,3.9l3.7,5.8h-1.8l-2.8-4.7l-1.8,2.1v2.6H647.5z"/>
			</g>
			
				<linearGradient id="SVGID_1_" gradientUnits="userSpaceOnUse" x1="34.25" y1="78.89" x2="765" y2="78.89" gradientTransform="matrix(1 0 0 -1 0 184)">
				<stop  offset="0" style="stop-color:#F34000"/>
				<stop  offset="0.74" style="stop-color:#F34000"/>
			</linearGradient>
			<path class="st5" d="M743.9,181.4H55.3c-11.6,0-21.1-9.7-21.1-21.6V50.4c0-11.9,9.5-21.6,21.1-21.6h688.6
				c11.6,0,21.1,9.7,21.1,21.6v109.4C765,171.7,755.5,181.4,743.9,181.4z M55.3,37.1c-7.3,0.1-13.1,6-13,13.3v109.4
				c-0.1,7.3,5.7,13.2,13,13.3h688.6c7.3-0.1,13.1-6,13-13.3V50.4c0.1-7.3-5.7-13.2-13-13.3H55.3z"/>
			<path class="st6" d="M34.8,45.1L43,46c0,0,3-7.2,7.9-8.3l-1.2-8.3C49.7,29.4,38.6,31.4,34.8,45.1z"/>
			<polygon class="st7" points="36.2,41.2 43.9,43.8 45.2,42 39.1,36.4 			"/>
			<polygon class="st7" points="47.2,40.1 42.3,33.2 44.1,31.9 48,39.5 			"/>
			<polygon class="st7" points="39.7,35.6 45.7,41.4 46.3,40.9 40.5,34.8 			"/>
			<polygon class="st6" points="34,133.9 42.1,132.3 42.1,85.6 34,83.1 			"/>
			<polygon class="st7" points="34,121.9 42.5,120.4 42.5,115.6 34,116.3 			"/>
			<polygon class="st7" points="34,130 42.5,128.5 42.5,123.6 34,124.4 			"/>
			<polygon class="st7" points="42.5,113.1 34,113.8 34,112.5 42.5,111.7 			"/>
			<polygon class="st7" points="42.3,94 34,91.9 33.8,93.2 42.1,95.3 			"/>
			<polygon class="st7" points="34,98.8 42.5,100.4 42.5,97.2 34,94.7 			"/>
			<polygon class="st6" points="119.6,28.7 128.6,37 614.3,36.5 621.1,28.7 			"/>
			<polygon class="st7" points="238.2,28.7 252.5,37 300.7,37 292.9,28.7 			"/>
			<polygon class="st7" points="158.7,28.7 173,37 221.2,37 213.4,28.7 			"/>
			<path class="st8" d="M743.9,181.4H55.3c-11.6,0-21.1-9.7-21.1-21.6V50.4c0-11.9,9.5-21.6,21.1-21.6h688.6
				c11.6,0,21.1,9.7,21.1,21.6v109.4C765,171.7,755.5,181.4,743.9,181.4z M55.3,37.1c-7.3,0.1-13.1,6-13,13.3v109.4
				c-0.1,7.3,5.7,13.2,13,13.3h688.6c7.3-0.1,13.1-6,13-13.3V50.4c0.1-7.3-5.7-13.2-13-13.3H55.3z"/>
			<path class="st9" d="M34.3,5.7c0,0,10,5.6,13.7,12.4s4.4,15.6,4.4,15.6l-5.2,5.7C47.3,39.5,26.3,28,34.3,5.7z"/>
			<path class="st9" d="M10.2,32.4c0,0,6.6,9.4,13.7,12.4s16,2.9,16,2.9l5.2-5.7C45.1,42,31.5,22.2,10.2,32.4z"/>
			<path class="st10" d="M10.2,32.4l32.8,12l3.3-3.6C46.3,40.8,24.8,22.2,10.2,32.4z"/>
			<path class="st10" d="M34.1,5.9l15.2,31.4L46,41C46,41,25.4,21.5,34.1,5.9z"/>
			
				<linearGradient id="SVGID_2_" gradientUnits="userSpaceOnUse" x1="-710.2274" y1="523.5378" x2="-647.8558" y2="523.5378" gradientTransform="matrix(0.6712 -0.7413 -0.7413 -0.6712 874.8087 -125.0248)">
				<stop  offset="0" style="stop-color:#FFCA27"/>
				<stop  offset="0.62" style="stop-color:#FFA727"/>
			</linearGradient>
			<path class="st11" d="M43.7,25.4c0,0-16.2-11.7-28.1-12.4c1.9,11.9,15.1,26.8,15.1,26.8c-9.9-3-24.9,6.4-24.9,6.4
				c8,1,26.5,10.2,26.5,10.2l28.1-31.1c0,0-10.9-17.5-12.7-25.3C47.7,0,39.8,15.9,43.7,25.4z"/>
			<path class="st12" d="M16.5,10.3c0.2,2-1.4,3.8-3.4,3.9s-3.8-1.4-3.9-3.4c-0.2-2,1.3-3.8,3.4-3.9C14.6,6.8,16.4,8.3,16.5,10.3z"
				/>
			<path class="st13" d="M14.2,7.2c1.1,1.7,0.7,4-1,5.1c-1,0.7-2.2,0.8-3.3,0.4c1.1,1.7,3.4,2.1,5.1,1s2.1-3.4,1-5.1
				C15.5,7.9,14.9,7.5,14.2,7.2z"/>
			<path class="st12" d="M7.3,45.7c0.1,2-1.4,3.8-3.4,3.9c-2,0.1-3.8-1.4-3.9-3.4c-0.1-2,1.4-3.8,3.4-3.9
				C5.4,42.2,7.1,43.7,7.3,45.7z"/>
			<path class="st13" d="M5,42.6c1.1,1.7,0.7,3.9-1,5.1c-1,0.7-2.3,0.8-3.4,0.4c1.1,1.7,3.4,2.1,5.1,1c1.7-1.1,2.1-3.4,1-5.1
				C6.3,43.3,5.7,42.9,5,42.6z"/>
			
				<linearGradient id="SVGID_3_" gradientUnits="userSpaceOnUse" x1="-690.3734" y1="520.2227" x2="-697.5634" y2="515.4626" gradientTransform="matrix(0.6712 -0.7413 -0.7413 -0.6712 874.8087 -125.0248)">
				<stop  offset="0" style="stop-color:#FFCA27"/>
				<stop  offset="0.93" style="stop-color:#FF9D27"/>
			</linearGradient>
			<path class="st14" d="M7.3,46.3c0,0,18.6-4.3,30.5,4l4.3-4.7c0,0-16.2-14.5-34.9-0.6L7.3,46.3z"/>
			
				<linearGradient id="SVGID_4_" gradientUnits="userSpaceOnUse" x1="-667.3097" y1="519.5052" x2="-660.3597" y2="515.4552" gradientTransform="matrix(0.6712 -0.7413 -0.7413 -0.6712 874.8087 -125.0248)">
				<stop  offset="0" style="stop-color:#FFCA27"/>
				<stop  offset="0.93" style="stop-color:#FF9D27"/>
			</linearGradient>
			<path class="st15" d="M47.9,1.4c0,0-2.4,18.9,7,30l-4.3,4.7c0,0-16-14.7-4-34.7L47.9,1.4z"/>
			
				<linearGradient id="SVGID_5_" gradientUnits="userSpaceOnUse" x1="-668.9964" y1="524.6451" x2="-680.1664" y2="522.4451" gradientTransform="matrix(0.6712 -0.7413 -0.7413 -0.6712 874.8087 -125.0248)">
				<stop  offset="0" style="stop-color:#FFCA27"/>
				<stop  offset="0.93" style="stop-color:#FF9D27"/>
			</linearGradient>
			<path class="st16" d="M15.6,13l30.7,27.9l5.9-6.5C52.2,34.3,37.6,14.6,15.6,13z"/>
			<path class="st17" d="M17.3,14.6l29,26.3l1.8-2C48.1,38.9,33.5,23.3,17.3,14.6z"/>
			<path class="st17" d="M7.3,46.2c10.4-4.3,22.3-3.4,31.9,2.5l-1.3,1.5C37.8,50.2,28.4,42.2,7.3,46.2z"/>
			<path class="st17" d="M47.8,1.5c-3.3,10.8-1.2,22.5,5.7,31.5l1.3-1.5C54.8,31.5,45.8,22.9,47.8,1.5z"/>
			
				<linearGradient id="SVGID_6_" gradientUnits="userSpaceOnUse" x1="-678.7215" y1="503.0122" x2="-678.7215" y2="499.6523" gradientTransform="matrix(0.6712 -0.7413 -0.7413 -0.6712 874.8087 -125.0248)">
				<stop  offset="0" style="stop-color:#FFCA27"/>
				<stop  offset="0.93" style="stop-color:#FF9D27"/>
			</linearGradient>
			<path class="st18" d="M31.9,56.8c0,0-0.8,0.5,1.6,2.7L64,25.7c0,0-2.2-1.9-2.9-1.1L31.9,56.8z"/>
			<circle class="st19" cx="34" cy="56.6" r="1.1"/>
			<circle class="st19" cx="36.4" cy="54" r="1.1"/>
			<circle class="st19" cx="38.8" cy="51.3" r="1.1"/>
			<circle class="st19" cx="41.3" cy="48.6" r="1.1"/>
			<circle class="st19" cx="43.5" cy="46.1" r="1.1"/>
			<circle class="st19" cx="45.9" cy="43.6" r="1.1"/>
			<circle class="st19" cx="48.1" cy="41.1" r="1.1"/>
			<circle class="st19" cx="50.4" cy="38.6" r="1.1"/>
			<circle class="st19" cx="52.7" cy="36" r="1.1"/>
			<circle class="st19" cx="55" cy="33.5" r="1.1"/>
			<circle class="st19" cx="57.2" cy="31" r="1.1"/>
			<circle class="st19" cx="59.5" cy="28.5" r="1.1"/>
			<circle class="st19" cx="61.9" cy="25.9" r="1.1"/>
			
				<rect x="26.2" y="42.5" transform="matrix(0.6712 -0.7413 0.7413 0.6712 -15.6417 50.4292)" class="st20" width="45.6" height="0.8"/>
			<circle class="st21" cx="61.9" cy="25.4" r="0.4"/>
			<circle class="st21" cx="57.2" cy="30.5" r="0.4"/>
			<circle class="st21" cx="54.9" cy="33.1" r="0.4"/>
			<circle class="st21" cx="52.6" cy="35.7" r="0.4"/>
			<circle class="st21" cx="50.3" cy="38.2" r="0.4"/>
			<circle class="st21" cx="48.1" cy="40.7" r="0.4"/>
			<circle class="st21" cx="45.5" cy="43.5" r="0.4"/>
			<circle class="st21" cx="43.1" cy="46.2" r="0.4"/>
			<circle class="st21" cx="40.9" cy="48.6" r="0.4"/>
			<circle class="st21" cx="38.5" cy="51.3" r="0.4"/>
			<circle class="st21" cx="35.9" cy="54.1" r="0.4"/>
			<circle class="st21" cx="33.6" cy="56.6" r="0.4"/>
			<circle class="st21" cx="59.5" cy="28" r="0.4"/>
		</g>
	</g>
</g>
</svg>
