<?xml version="1.0" encoding="utf-8"?>
<!-- Generator: Adobe Illustrator 24.2.3, SVG Export Plug-In . SVG Version: 6.00 Build 0)  -->
<svg version="1.1" id="Layer_1" xmlns="http://www.w3.org/2000/svg" xmlns:xlink="http://www.w3.org/1999/xlink" x="0px" y="0px"
	 viewBox="0 0 223.3 76.3" style="enable-background:new 0 0 223.3 76.3;" xml:space="preserve">
<style type="text/css">
	.st0{opacity:0.24;fill:url(#SVGID_1_);enable-background:new    ;}
	.st1{enable-background:new    ;}
	.st2{fill:#FFFFFF;}
	.st3{fill:#F98526;}
	.st4{fill:#FF9D27;}
	.st5{fill:url(#SVGID_2_);}
	.st6{fill:#FFDC01;}
	.st7{fill:#FFB703;}
	.st8{fill:url(#SVGID_3_);}
	.st9{fill:url(#SVGID_4_);}
	.st10{fill:url(#SVGID_5_);}
	.st11{opacity:0.86;fill:#FFF876;enable-background:new    ;}
	.st12{fill:url(#SVGID_6_);}
	.st13{opacity:0.35;fill:#FFF876;enable-background:new    ;}
	.st14{fill:#E5890E;}
	.st15{opacity:0.52;fill:#FFF876;enable-background:new    ;}
</style>
<g>
	<g id="Layer_2_1_">
		<g id="Layer_1-2">
			
				<linearGradient id="SVGID_1_" gradientUnits="userSpaceOnUse" x1="0" y1="39.86" x2="223.29" y2="39.86" gradientTransform="matrix(1 0 0 -1 0 78)">
				<stop  offset="0" style="stop-color:#FFCA27"/>
				<stop  offset="0.62" style="stop-color:#FFA727"/>
			</linearGradient>
			<path class="st0" d="M10,0h203.3c5.5,0,10,4.5,10,10v56.3c0,5.5-4.5,10-10,10H10c-5.5,0-10-4.5-10-10V10C0,4.5,4.5,0,10,0z"/>
			<g class="st1">
				<path class="st2" d="M98.8,18.9h5.7c4.1,0,7,2.5,7,6.3s-2.8,6.3-7,6.3h-5.7V18.9z M104.4,29.1c2.5,0,4.1-1.5,4.1-3.9
					s-1.6-3.9-4.1-3.9h-2.7v7.8H104.4z"/>
			</g>
			<g class="st1">
				<path class="st2" d="M121.8,28.8h-5.9l-1.1,2.7h-3l5.6-12.6h2.9l5.6,12.6h-3.1L121.8,28.8z M120.8,26.6l-2-4.8l-2,4.8H120.8z"/>
				<path class="st2" d="M138.8,18.9v12.6h-2.4l-6.3-7.7v7.7h-2.9V18.9h2.4l6.3,7.7v-7.7H138.8z"/>
				<path class="st2" d="M153.4,18.9v12.6h-2.9v-5.2h-5.7v5.2h-2.9V18.9h2.9v5h5.7v-5H153.4z"/>
				<path class="st2" d="M160.4,30.2l1-2.2c1.1,0.8,2.6,1.3,4.2,1.3c1.7,0,2.4-0.6,2.4-1.3c0-2.4-7.3-0.7-7.3-5.4
					c0-2.1,1.7-3.9,5.3-3.9c1.6,0,3.2,0.4,4.4,1.1l-0.9,2.2c-1.2-0.7-2.4-1-3.5-1c-1.7,0-2.4,0.6-2.4,1.4c0,2.3,7.3,0.7,7.3,5.3
					c0,2.1-1.7,3.9-5.3,3.9C163.6,31.7,161.6,31.1,160.4,30.2z"/>
			</g>
			<g class="st1">
				<path class="st2" d="M181.2,28.8h-5.9l-1.1,2.7h-3l5.6-12.6h2.9l5.6,12.6h-3.1L181.2,28.8z M180.3,26.6l-2-4.8l-2,4.8H180.3z
					 M178.9,17.9h-2.2l2.4-2.6h3L178.9,17.9z"/>
			</g>
			<g class="st1">
				<path class="st2" d="M185.7,25.2c0-3.8,2.9-6.5,6.8-6.5c2.2,0,4,0.8,5.2,2.2l-1.9,1.7c-0.8-1-1.9-1.5-3.2-1.5c-2.4,0-4,1.7-4,4
					s1.7,4,4,4c1.3,0,2.3-0.5,3.2-1.5l1.9,1.7c-1.2,1.5-3,2.2-5.2,2.2C188.6,31.7,185.7,29,185.7,25.2z"/>
				<path class="st2" d="M211.3,18.9v12.6h-2.9v-5.2h-5.7v5.2h-2.9V18.9h2.9v5h5.7v-5H211.3z"/>
			</g>
			<g class="st1">
				<path class="st2" d="M101.4,48.3h-4v-2.4h11v2.4h-4v10.2h-2.9V48.3z"/>
				<path class="st2" d="M117.9,58.5l-2.4-3.5h-0.1h-2.5v3.5h-2.9V45.9h5.5c3.4,0,5.5,1.7,5.5,4.6c0,1.9-1,3.3-2.6,4l2.8,4.1H117.9z
					 M115.2,48.3h-2.4v4.4h2.4c1.8,0,2.7-0.8,2.7-2.2C117.9,49.1,117,48.3,115.2,48.3z"/>
				<path class="st2" d="M123,52.9v-7.1h2.9v7c0,2.4,1,3.4,2.8,3.4c1.8,0,2.8-1,2.8-3.4v-7h2.9v7.1c0,3.7-2.1,5.8-5.7,5.8
					S123,56.7,123,52.9z M129.5,42.3h3l-3.3,2.6h-2.2L129.5,42.3z"/>
				<path class="st2" d="M148.9,45.9v12.6h-2.4l-6.3-7.7v7.7h-2.9V45.9h2.4l6.3,7.7v-7.7H148.9z"/>
				<path class="st2" d="M160.4,52h2.7v5.1c-1.4,1-3.3,1.6-5.1,1.6c-4,0-6.9-2.7-6.9-6.5s2.9-6.5,6.9-6.5c2.2,0,4.1,0.8,5.3,2.2
					l-1.9,1.7c-0.9-1-2-1.4-3.3-1.4c-2.4,0-4.1,1.6-4.1,4c0,2.4,1.7,4,4.1,4c0.8,0,1.5-0.1,2.3-0.5V52z"/>
				<path class="st2" d="M179.3,52h2.7v5.1c-1.4,1-3.3,1.6-5.1,1.6c-4,0-6.9-2.7-6.9-6.5s2.9-6.5,6.9-6.5c2.2,0,4.1,0.8,5.3,2.2
					l-1.9,1.7c-0.9-1-2-1.4-3.3-1.4c-2.4,0-4.1,1.6-4.1,4c0,2.4,1.7,4,4.1,4c0.8,0,1.5-0.1,2.3-0.5V52z"/>
				<path class="st2" d="M184.7,45.9h2.9v12.6h-2.9V45.9z"/>
				<path class="st2" d="M198.9,55.8h-5.9l-1.1,2.7h-3l5.6-12.6h2.9l5.6,12.6H200L198.9,55.8z M198,53.6l-2-4.8l-2,4.8H198z
					 M194.7,42.6l-0.6-1.1c0.5-0.4,1.2-0.6,1.9-0.6c1.3,0,2.2,0.8,2.2,1.9c0,1-0.6,1.8-1.7,2.3l-0.9-0.9c0.7-0.3,0.9-0.7,0.9-1.1
					c0-0.5-0.3-0.8-0.8-0.8C195.4,42.2,195,42.4,194.7,42.6z"/>
				<path class="st2" d="M204.4,45.9h2.9v12.6h-2.9V45.9z"/>
			</g>
			<path class="st3" d="M65.9,27.9c0,0,2.6,11,0.1,18.1s-8.4,13.5-8.4,13.5l-7.6,0C50,59.6,44.5,36.8,65.9,27.9z"/>
			<path class="st3" d="M30.6,28c0,0-2.5,11,0.1,18.2s8.5,13.5,8.5,13.5h7.5C46.8,59.6,52.1,36.7,30.6,28z"/>
			<path class="st4" d="M30.6,28l13,31.7h4.8C48.4,59.7,47.7,31.9,30.6,28z"/>
			<path class="st4" d="M65.6,27.9L52.9,59.6h-4.8C48.1,59.6,48.6,31.9,65.6,27.9z"/>
			
				<linearGradient id="SVGID_2_" gradientUnits="userSpaceOnUse" x1="1101.7999" y1="-1311.9882" x2="1162.9803" y2="-1311.9882" gradientTransform="matrix(1 -4.014247e-03 -4.014247e-03 -1 -1089.3453 -1267.9882)">
				<stop  offset="0" style="stop-color:#FFCA27"/>
				<stop  offset="0.62" style="stop-color:#FFA727"/>
			</linearGradient>
			<path class="st5" d="M57.9,47.7c0,0-2.2-19.4-9.6-28.6c-7.3,9.2-9.4,28.6-9.4,28.6C34.4,38.6,17.7,34,17.7,34
				c4.5,6.5,10.1,25.9,10.1,25.9l41.1-0.2c0,0,5.4-19.5,9.9-26C78.9,33.7,62.2,38.5,57.9,47.7z"/>
			<path class="st6" d="M50.8,18c-1.4,1.4-3.6,1.5-5.1,0.2c-1.4-1.4-1.5-3.6-0.2-5.1c1.4-1.4,3.6-1.5,5.1-0.2c0,0,0,0,0,0
				C52.1,14.3,52.2,16.6,50.8,18z"/>
			<path class="st7" d="M51.5,14.2c-0.5,1.9-2.4,3.1-4.3,2.6c-1.1-0.3-2.1-1.1-2.5-2.2c-0.5,1.9,0.7,3.9,2.6,4.3
				c1.9,0.5,3.9-0.7,4.3-2.6C51.9,15.7,51.8,14.9,51.5,14.2z"/>
			<path class="st6" d="M19.1,34.7c-1.3,1.5-3.6,1.6-5.1,0.2c-1.5-1.3-1.6-3.6-0.2-5.1s3.6-1.6,5.1-0.2c0,0,0,0,0.1,0.1
				C20.3,31,20.4,33.3,19.1,34.7z"/>
			<path class="st7" d="M19.8,31c-0.5,1.9-2.4,3.1-4.3,2.6c-1.1-0.3-2.1-1.1-2.5-2.2c-0.5,1.9,0.7,3.9,2.6,4.3
				c1.9,0.5,3.9-0.7,4.3-2.6C20.1,32.4,20.1,31.7,19.8,31z"/>
			
				<linearGradient id="SVGID_3_" gradientUnits="userSpaceOnUse" x1="1121.3062" y1="-1315.2382" x2="1114.2562" y2="-1319.8982" gradientTransform="matrix(1 -4.014247e-03 -4.014247e-03 -1 -1089.3453 -1267.9882)">
				<stop  offset="0" style="stop-color:#FFCA27"/>
				<stop  offset="0.93" style="stop-color:#FF9D27"/>
			</linearGradient>
			<path class="st8" d="M18.7,35.1c0,0,15.4,10.6,17.3,24.8h6.2c0,0-0.2-21.3-22.7-25.7L18.7,35.1z"/>
			
				<linearGradient id="SVGID_4_" gradientUnits="userSpaceOnUse" x1="1143.9238" y1="-1315.9146" x2="1150.7439" y2="-1319.8845" gradientTransform="matrix(1 -4.014247e-03 -4.014247e-03 -1 -1089.3453 -1267.9882)">
				<stop  offset="0" style="stop-color:#FFCA27"/>
				<stop  offset="0.93" style="stop-color:#FF9D27"/>
			</linearGradient>
			<path class="st9" d="M78,34.8c0,0-15.3,10.8-17.1,24.9h-6.2c0,0,0-21.3,22.5-25.8L78,34.8z"/>
			<path class="st6" d="M81.6,33.8c-1.4,1.4-3.6,1.5-5.1,0.2s-1.5-3.6-0.2-5.1c1.4-1.4,3.6-1.5,5.1-0.2c0,0,0,0,0,0
				C82.9,30.1,83,32.4,81.6,33.8z"/>
			<path class="st7" d="M82.4,30.1c-0.5,1.9-2.4,3.1-4.4,2.6c-1.1-0.3-2.1-1.1-2.5-2.2c-0.5,1.9,0.7,3.9,2.6,4.3
				c1.9,0.5,3.9-0.7,4.3-2.6C82.7,31.5,82.6,30.8,82.4,30.1z"/>
			
				<linearGradient id="SVGID_5_" gradientUnits="userSpaceOnUse" x1="1142.271" y1="-1310.9004" x2="1131.321" y2="-1313.0604" gradientTransform="matrix(1 -4.014247e-03 -4.014247e-03 -1 -1089.3453 -1267.9882)">
				<stop  offset="0" style="stop-color:#FFCA27"/>
				<stop  offset="0.93" style="stop-color:#FF9D27"/>
			</linearGradient>
			<path class="st10" d="M48.2,19.1l0.2,40.7H57C57,59.8,61.6,36.1,48.2,19.1z"/>
			<path class="st11" d="M48.2,21.4l0.2,38.4h2.7C51.1,59.8,52.7,38.9,48.2,21.4z"/>
			<path class="st11" d="M18.7,35.1c10,4.7,17.2,13.9,19.2,24.8H36C36,59.8,35.6,47.6,18.7,35.1z"/>
			<path class="st11" d="M77.9,34.8c-10,4.8-17.1,14-19,24.9h1.9C60.8,59.7,61.1,47.5,77.9,34.8z"/>
			
				<linearGradient id="SVGID_6_" gradientUnits="userSpaceOnUse" x1="1132.7246" y1="-1332.0918" x2="1132.7246" y2="-1335.3918" gradientTransform="matrix(1 -4.014247e-03 -4.014247e-03 -1 -1089.3453 -1267.9882)">
				<stop  offset="0" style="stop-color:#FFCA27"/>
				<stop  offset="0.93" style="stop-color:#FF9D27"/>
			</linearGradient>
			<path class="st12" d="M27.3,59.8c0,0-0.9-0.3-0.9,2.9l44.7-0.2c0,0-0.1-2.9-1.1-2.9L27.3,59.8z"/>
			<circle class="st13" cx="28.8" cy="61.3" r="1.1"/>
			<circle class="st13" cx="32.3" cy="61.3" r="1.1"/>
			<circle class="st13" cx="35.8" cy="61.3" r="1.1"/>
			<circle class="st13" cx="39.4" cy="61.2" r="1.1"/>
			<circle class="st13" cx="42.7" cy="61.2" r="1.1"/>
			<circle class="st13" cx="46.1" cy="61.2" r="1.1"/>
			<circle class="st13" cx="49.4" cy="61.2" r="1.1"/>
			<circle class="st13" cx="52.7" cy="61.2" r="1.1"/>
			<circle class="st13" cx="56.1" cy="61.2" r="1.1"/>
			<circle class="st13" cx="59.4" cy="61.2" r="1.1"/>
			<circle class="st13" cx="62.7" cy="61.2" r="1.1"/>
			<circle class="st13" cx="66.1" cy="61.1" r="1.1"/>
			<circle class="st13" cx="69.5" cy="61.1" r="1.1"/>
			
				<rect x="26.4" y="62.7" transform="matrix(1 -4.014247e-03 4.014247e-03 1 -0.2527 0.1962)" class="st14" width="44.7" height="0.8"/>
			<circle class="st15" cx="69.9" cy="60.8" r="0.4"/>
			<circle class="st15" cx="63.1" cy="60.8" r="0.4"/>
			<circle class="st15" cx="59.7" cy="60.8" r="0.4"/>
			<circle class="st15" cx="56.3" cy="60.9" r="0.4"/>
			<circle class="st15" cx="53" cy="60.9" r="0.4"/>
			<circle class="st15" cx="49.7" cy="60.9" r="0.4"/>
			<circle class="st15" cx="45.9" cy="60.9" r="0.4"/>
			<circle class="st15" cx="42.4" cy="60.9" r="0.4"/>
			<circle class="st15" cx="39.2" cy="60.9" r="0.4"/>
			<circle class="st15" cx="35.6" cy="61" r="0.4"/>
			<circle class="st15" cx="31.9" cy="61" r="0.4"/>
			<circle class="st15" cx="28.6" cy="61" r="0.4"/>
			<circle class="st15" cx="66.4" cy="60.8" r="0.4"/>
		</g>
	</g>
</g>
</svg>
