<?xml version="1.0" encoding="utf-8"?>
<!-- Generator: Adobe Illustrator 24.2.3, SVG Export Plug-In . SVG Version: 6.00 Build 0)  -->
<svg version="1.1" id="Layer_1" xmlns="http://www.w3.org/2000/svg" xmlns:xlink="http://www.w3.org/1999/xlink" x="0px" y="0px"
	 viewBox="0 0 223.3 76.3" style="enable-background:new 0 0 223.3 76.3;" xml:space="preserve">
<style type="text/css">
	.st0{opacity:0.24;fill:url(#SVGID_1_);enable-background:new    ;}
	.st1{enable-background:new    ;}
	.st2{fill:#FFFFFF;}
	.st3{opacity:0.3;fill:#6B6B6B;enable-background:new    ;}
	.st4{fill:url(#SVGID_2_);}
	.st5{opacity:0.86;fill:#FFF876;enable-background:new    ;}
	.st6{fill:none;stroke:#CC2E2E;stroke-width:2.71;stroke-miterlimit:10;}
	.st7{fill:none;stroke:#FF8585;stroke-width:4.02;stroke-linecap:round;stroke-miterlimit:10;}
	.st8{fill:none;stroke:#4F4F4F;stroke-width:2.71;stroke-linecap:round;stroke-miterlimit:10;}
	.st9{fill:#E3E1D2;}
	.st10{fill:#FF5959;}
	.st11{opacity:0.33;fill:#6B6B6B;enable-background:new    ;}
	.st12{fill:#DD3737;}
	.st13{fill:url(#SVGID_3_);}
</style>
<g>
	<g id="Layer_2_1_">
		<g id="Layer_1-2">
			
				<linearGradient id="SVGID_1_" gradientUnits="userSpaceOnUse" x1="0" y1="39.86" x2="223.29" y2="39.86" gradientTransform="matrix(1 0 0 -1 0 78)">
				<stop  offset="0" style="stop-color:#FFCA27"/>
				<stop  offset="0.62" style="stop-color:#FFA727"/>
			</linearGradient>
			<path class="st0" d="M10,0h203.3c5.5,0,10,4.5,10,10v56.3c0,5.5-4.5,10-10,10H10c-5.5,0-10-4.5-10-10V10C0,4.5,4.5,0,10,0z"/>
			<g class="st1">
				<path class="st2" d="M94,18.9h2.9v10.2h6.3v2.4H94V18.9z"/>
				<path class="st2" d="M104.9,18.9h2.9v12.6h-2.9V18.9z M105.1,34.1c0-0.7,0.5-1.3,1.2-1.3c0.7,0,1.2,0.5,1.2,1.3
					c0,0.7-0.5,1.2-1.2,1.2C105.6,35.3,105.1,34.8,105.1,34.1z"/>
				<path class="st2" d="M110,25.2c0-3.8,2.9-6.5,6.8-6.5c2.2,0,4,0.8,5.2,2.2l-1.9,1.7c-0.8-1-1.9-1.5-3.2-1.5c-2.4,0-4,1.7-4,4
					s1.7,4,4,4c1.3,0,2.3-0.5,3.2-1.5l1.9,1.7c-1.2,1.5-3,2.2-5.2,2.2C112.9,31.7,110,29,110,25.2z"/>
				<path class="st2" d="M135.5,18.9v12.6h-2.9v-5.2h-5.7v5.2H124V18.9h2.9v5h5.7v-5H135.5z"/>
			</g>
			<g class="st1">
				<path class="st2" d="M106.1,45.9l-5.5,12.6h-2.9l-5.4-12.6h3.2l3.8,9l3.9-9H106.1z"/>
			</g>
			<g class="st1">
				<path class="st2" d="M106.2,52.2c0-3.7,2.9-6.5,6.9-6.5c4,0,6.9,2.8,6.9,6.5c0,3.8-2.9,6.5-6.9,6.5
					C109.1,58.7,106.2,55.9,106.2,52.2z M117.1,52.2c0-2.4-1.7-4-3.9-4c-2.3,0-3.9,1.6-3.9,4s1.7,4,3.9,4
					C115.4,56.2,117.1,54.6,117.1,52.2z M109.3,42.3h3l2.4,2.6h-2.2L109.3,42.3z"/>
				<path class="st2" d="M133.8,45.9v12.6h-2.4l-6.3-7.7v7.7h-2.9V45.9h2.4l6.3,7.7v-7.7H133.8z"/>
				<path class="st2" d="M145.3,52h2.7v5.1c-1.4,1-3.3,1.6-5.1,1.6c-4,0-6.9-2.7-6.9-6.5s2.9-6.5,6.9-6.5c2.2,0,4.1,0.8,5.3,2.2
					l-1.9,1.7c-0.9-1-2-1.4-3.3-1.4c-2.4,0-4.1,1.6-4.1,4c0,2.4,1.7,4,4.1,4c0.8,0,1.5-0.1,2.3-0.5V52z"/>
				<path class="st2" d="M169.4,59.8c-0.8,1-2,1.5-3.4,1.5c-1.9,0-3.2-0.7-5.1-2.7c-3.5-0.4-5.9-3-5.9-6.5c0-3.7,2.9-6.5,6.9-6.5
					c4,0,6.9,2.8,6.9,6.5c0,3-1.8,5.3-4.5,6.2c0.6,0.6,1.2,0.9,1.8,0.9c0.8,0,1.5-0.3,2.1-0.9L169.4,59.8z M161.8,56.2
					c2.3,0,3.9-1.6,3.9-4s-1.7-4-3.9-4s-3.9,1.6-3.9,4S159.6,56.2,161.8,56.2z"/>
			</g>
			<g class="st1">
				<path class="st2" d="M170.8,52.9v-7.1h2.9v7c0,2.4,1,3.4,2.8,3.4c1.8,0,2.8-1,2.8-3.4v-7h2.9v7.1c0,3.7-2.1,5.8-5.7,5.8
					S170.8,56.7,170.8,52.9z"/>
			</g>
			<g class="st1">
				<path class="st2" d="M193.1,55.8h-5.9l-1.1,2.7h-3l5.6-12.6h2.9l5.6,12.6h-3.1L193.1,55.8z M192.2,53.6l-2-4.8l-2,4.8H192.2z"/>
			</g>
			<g class="st1">
				<path class="st2" d="M203.9,54v4.5H201V54l-4.9-8.1h3.1l3.4,5.6l3.4-5.6h2.9L203.9,54z"/>
			</g>
			<path class="st3" d="M70.1,36.8c-1.1-1.2-2.3-2.3-3.7-3.2v-18c0-1.8-1.4-3.2-3.2-3.2h-46c-1.8,0-3.2,1.4-3.2,3.2c0,0,0,0,0,0v49
				c0,1.8,1.4,3.2,3.2,3.3c0,0,0,0,0.1,0h46c1.8,0,3.2-1.4,3.2-3.2v-6.7c1.3-0.5,2.4-1.1,3.5-2C75.3,51.5,75.4,42.9,70.1,36.8z"/>
			
				<linearGradient id="SVGID_2_" gradientUnits="userSpaceOnUse" x1="16.58" y1="39.965" x2="69" y2="39.965" gradientTransform="matrix(1 0 0 -1 0 78)">
				<stop  offset="0" style="stop-color:#FFCA27"/>
				<stop  offset="0.62" style="stop-color:#FFA727"/>
			</linearGradient>
			<path class="st4" d="M56.5,10.3h9.2c1.8,0,3.2,1.4,3.2,3.2c0,0,0,0,0,0v49.1c0,1.8-1.4,3.2-3.2,3.2l0,0h-46
				c-1.8,0-3.2-1.4-3.2-3.2V13.5c0-1.8,1.4-3.2,3.2-3.2H56.5z"/>
			<path class="st5" d="M56.5,10.3h9.2c1.8,0,3.2,1.4,3.2,3.2c0,0,0,0,0,0v11.3H16.5V13.5c0-1.8,1.4-3.2,3.2-3.2c0,0,0,0,0,0H56.5z"
				/>
			<line class="st6" x1="69" y1="25.7" x2="16.5" y2="25.7"/>
			<line class="st7" x1="52.8" y1="18.4" x2="32.7" y2="18.4"/>
			<line class="st8" x1="57.8" y1="13.5" x2="57.8" y2="8.5"/>
			<line class="st8" x1="27.7" y1="13.5" x2="27.7" y2="8.5"/>
			<path class="st9" d="M36.8,30.7h0.3c1.7,0,3.1,1.4,3.1,3.1v0.3c0,1.7-1.4,3.1-3.1,3.1h-0.3c-1.7,0-3.1-1.4-3.1-3.1v-0.3
				C33.7,32.1,35.1,30.7,36.8,30.7z"/>
			<path class="st9" d="M48.4,30.7h0.3c1.7,0,3.1,1.4,3.1,3.1v0.3c0,1.7-1.4,3.1-3.1,3.1h-0.3c-1.7,0-3.1-1.4-3.1-3.1v-0.3
				C45.3,32.1,46.7,30.7,48.4,30.7z"/>
			<path class="st9" d="M60,30.7h0.3c1.7,0,3.1,1.4,3.1,3.1v0.3c0,1.7-1.4,3.1-3.1,3.1H60c-1.7,0-3.1-1.4-3.1-3.1v-0.3
				C56.9,32.1,58.3,30.7,60,30.7z"/>
			<path class="st9" d="M25.2,42.5h0.3c1.7,0,3.1,1.4,3.1,3.1v0.3c0,1.7-1.4,3.1-3.1,3.1h-0.3c-1.7,0-3.1-1.4-3.1-3.1v-0.3
				C22.1,43.9,23.5,42.5,25.2,42.5z"/>
			<path class="st9" d="M36.8,42.5h0.3c1.7,0,3.1,1.4,3.1,3.1v0.3c0,1.7-1.4,3.1-3.1,3.1h-0.3c-1.7,0-3.1-1.4-3.1-3.1v-0.3
				C33.7,43.9,35.1,42.5,36.8,42.5z"/>
			<path class="st9" d="M48.4,42.5h0.3c1.7,0,3.1,1.4,3.1,3.1v0.3c0,1.7-1.4,3.1-3.1,3.1h-0.3c-1.7,0-3.1-1.4-3.1-3.1v-0.3
				C45.3,43.9,46.7,42.5,48.4,42.5z"/>
			<path class="st9" d="M60,42.5h0.3c1.7,0,3.1,1.4,3.1,3.1v0.3c0,1.7-1.4,3.1-3.1,3.1H60c-1.7,0-3.1-1.4-3.1-3.1v-0.3
				C56.9,43.9,58.3,42.5,60,42.5z"/>
			<path class="st9" d="M25.2,54.3h0.3c1.7,0,3.1,1.4,3.1,3.1v0.3c0,1.7-1.4,3.1-3.1,3.1h-0.3c-1.7,0-3.1-1.4-3.1-3.1v-0.3
				C22.1,55.7,23.5,54.3,25.2,54.3z"/>
			<path class="st9" d="M36.8,54.3h0.3c1.7,0,3.1,1.4,3.1,3.1v0.3c0,1.7-1.4,3.1-3.1,3.1h-0.3c-1.7,0-3.1-1.4-3.1-3.1v-0.3
				C33.7,55.7,35.1,54.3,36.8,54.3z"/>
			<path class="st10" d="M48.4,54.3h0.3c1.7,0,3.1,1.4,3.1,3.1v0.3c0,1.7-1.4,3.1-3.1,3.1h-0.3c-1.7,0-3.1-1.4-3.1-3.1v-0.3
				C45.3,55.7,46.7,54.3,48.4,54.3z"/>
			<path class="st11" d="M73.1,36.7c-5.3-6.1-13.9-7.3-19.3-2.7c-4.8,4.1-5.4,11.3-1.8,17.2l-1.6,5.4l5.7-0.9
				c5.2,4,12.2,4.3,16.8,0.4C78.3,51.4,78.4,42.8,73.1,36.7z"/>
			<polygon class="st12" points="60.8,53.3 53.2,55.5 55.4,47.9 			"/>
			<circle class="st5" cx="66.1" cy="42.3" r="13.6"/>
			
				<linearGradient id="SVGID_3_" gradientUnits="userSpaceOnUse" x1="63.3382" y1="35.995" x2="69.2782" y2="35.995" gradientTransform="matrix(1 0 0 -1 0 78)">
				<stop  offset="0" style="stop-color:#FFCA27"/>
				<stop  offset="0.62" style="stop-color:#FFA727"/>
			</linearGradient>
			<path class="st13" d="M66.3,47.8c0.3,0,0.7,0,1.1,0h0.3c0.5,0,1,0.5,1,1l0,0c0,0.3,0,0.5,0,0.8c0,0.3,0,0.5-0.1,0.8l0,0
				c-0.1,0.5-0.5,0.9-1,0.9h-0.3h-1h-1H65c-0.5,0-0.9-0.4-1-0.9l0,0c0-0.3-0.1-0.5-0.1-0.8c0-0.3,0-0.5,0-0.8l0,0c0-0.5,0.5-1,1-1
				h0.3C65.6,47.8,66,47.8,66.3,47.8z M63.3,34c0-0.6,0.4-1.1,1-1.1h0.6c0.5,0,1,0,1.4,0s0.9,0,1.4,0c0.2,0,0.4,0,0.6,0
				c0.6,0,1,0.4,1,1c0,0,0,0.1,0,0.1l-0.7,10.9c0,0.5-0.4,0.9-0.9,1h-0.3c-0.3,0-0.7,0-1,0c-0.5,0-0.9,0-1.4,0
				c-0.5-0.1-0.9-0.5-0.9-1L63.3,34z"/>
		</g>
	</g>
</g>
</svg>
