<?xml version="1.0" encoding="utf-8"?>
<!-- Generator: Adobe Illustrator 24.2.3, SVG Export Plug-In . SVG Version: 6.00 Build 0)  -->
<svg version="1.1" id="Layer_1" xmlns="http://www.w3.org/2000/svg" xmlns:xlink="http://www.w3.org/1999/xlink" x="0px" y="0px"
	 viewBox="0 0 766.4 613.4" style="enable-background:new 0 0 766.4 613.4;" xml:space="preserve">
<style type="text/css">
	.st0{fill:url(#SVGID_1_);}
	.st1{fill:url(#SVGID_2_);}
	.st2{fill:url(#SVGID_3_);}
	.st3{fill:url(#SVGID_4_);}
	.st4{fill:url(#SVGID_5_);}
	.st5{fill:url(#SVGID_6_);}
	.st6{fill:url(#SVGID_7_);}
	.st7{fill:url(#SVGID_8_);}
	.st8{fill:url(#SVGID_9_);}
	.st9{fill:#FFFFFF;}
	.st10{fill:url(#SVGID_10_);}
	.st11{fill:url(#SVGID_11_);}
	.st12{fill:url(#SVGID_12_);}
	.st13{fill:url(#SVGID_13_);}
	.st14{fill:url(#SVGID_14_);}
	.st15{fill:url(#SVGID_15_);}
	.st16{fill:url(#SVGID_16_);}
	.st17{fill:url(#SVGID_17_);}
	.st18{clip-path:url(#SVGID_19_);}
	.st19{fill:#EAEAE9;}
	.st20{clip-path:url(#SVGID_21_);}
	.st21{fill:#EE4137;}
	.st22{clip-path:url(#SVGID_23_);}
	.st23{fill:#808184;}
	.st24{fill:#DFDFDF;}
	.st25{clip-path:url(#SVGID_25_);}
	.st26{fill:#BC202E;}
	.st27{fill:#981C1F;}
	.st28{clip-path:url(#SVGID_27_);}
	.st29{fill:url(#SVGID_28_);}
	.st30{clip-path:url(#SVGID_30_);}
	.st31{fill:url(#SVGID_31_);}
	.st32{clip-path:url(#SVGID_33_);}
	.st33{fill:url(#SVGID_34_);}
	.st34{clip-path:url(#SVGID_36_);}
	.st35{clip-path:url(#SVGID_38_);}
	.st36{fill:url(#SVGID_39_);}
	.st37{fill:#FFD630;}
	.st38{opacity:0.5;fill:#E8A222;enable-background:new    ;}
	.st39{fill:#52393D;}
	.st40{fill:#E2A33C;}
	.st41{fill:#F1F1F1;}
	.st42{fill:#E5E6E6;}
	.st43{fill:#D91E38;}
	.st44{fill:#BCBDBF;}
	.st45{fill:#6D0000;}
	.st46{opacity:0.25;fill:#E995BF;enable-background:new    ;}
	.st47{fill:none;stroke:#E8E8E8;stroke-width:3.59;stroke-miterlimit:10;}
	.st48{font-family:'Arial-BoldMT';}
	.st49{font-size:31.43px;}
</style>
<g>
	<g id="Layer_2_1_">
		<g id="Layer_1-2">
			
				<linearGradient id="SVGID_1_" gradientUnits="userSpaceOnUse" x1="0" y1="256.9048" x2="766.4058" y2="256.9048" gradientTransform="matrix(1 0 0 -1 0 595.84)">
				<stop  offset="0" style="stop-color:#720000"/>
				<stop  offset="1" style="stop-color:#FF0029"/>
			</linearGradient>
			<path class="st0" d="M111.7,350.6h-25h-0.1c-6.6,0-12.9,2.3-18,6.4c-5.1-4.2-11.4-6.5-18-6.5H28.3c-7.5,0-14.8,3-20.1,8.3
				C2.9,363.9,0,371,0,378.3v84.8c0,7.5,3.1,14.7,8.4,19.9c5.3,5.1,12.4,7.9,19.7,8h0.9l26.2-0.8c6.6-0.2,12.8-2.6,17.8-7
				c5.2,4,11.6,6,18.1,5.8l21.3-0.7c2.9-0.1,5.8-0.6,8.5-1.6c2.5,0.7,5,1.1,7.6,1.1h0.9l24.9-0.8c5-0.1,10-1.6,14.2-4.3
				c4.4,2.4,9.3,3.6,14.3,3.4l23.8-0.8c1.3,0,2.7-0.2,4-0.4c1,0.1,2,0.2,3.1,0.2h0.9l23.4-0.7c7.8-0.2,15.2-3.7,20.4-9.6
				c5.5,5.5,13,8.5,20.8,8.3l22.6-0.7c1.2,0,2.5-0.2,3.7-0.4c0.9,0.1,1.9,0.2,2.8,0.1h0.9l20.9-0.7c5.1-0.1,10.1-1.7,14.4-4.4
				c4.4,2.5,9.4,3.7,14.5,3.5l17.1-0.5c8.2-0.2,15.9-4,21-10.4c0.4,0.4,0.8,0.9,1.2,1.3c5.2,5,12.1,7.8,19.4,7.8h0.8l19.5-0.6
				c9.8-0.3,18.7-5.7,23.4-14.2c1.1,1.8,2.5,3.4,4,4.9c5.2,5,12.1,7.8,19.3,7.8h0.9l18.4-0.6c3.7-0.1,7.3-0.9,10.6-2.4
				c3.4,1.3,7,1.9,10.6,1.8l17.7-0.6c1,0,2-0.1,3-0.3c0.7,0,1.4,0.1,2.1,0.1h0.9l17.5-0.5c5.5-0.2,10.9-2,15.3-5.3
				c4.6,2.9,10.1,4.4,15.5,4.2l17-0.5c0.9,0,1.9-0.1,2.8-0.2c0.7,0,1.3,0.1,2,0.1h0.8l14.6-0.5c6-0.2,11.8-2.3,16.4-6.1
				c4.9,3.4,10.7,5.2,16.7,5l13.9-0.4c14.9-0.4,26.7-12.7,26.7-27.6l-0.1-63.8c0-1.5-0.1-3-0.4-4.5l7.1,0.3c0.4,0,0.8,0,1.2,0
				c14.6,0,26.5-11.9,26.5-26.5v-17.2l20.2-35.4c7.3-12.7,2.8-28.9-9.9-36.2c-3.4-1.9-7.1-3.1-11-3.4l-16.9-1.4
				c-5.4-0.4-10.7,0.8-15.4,3.5c-4.2-3.4-9.3-5.5-14.6-5.9l-19.4-1.6c-3.6-0.3-7.3,0.2-10.7,1.3c-3.2-1.7-6.7-2.7-10.3-3l-18.8-1.5
				c-6-0.5-12,1.1-17,4.5c-4.4-4.2-10.1-6.7-16.1-7.2l-19.8-1.6c-4.9-0.4-9.8,0.6-14.1,2.8c-3.9-2.9-8.6-4.6-13.5-5l-21.1-1.7
				c-6.5-0.5-12.9,1.3-18.1,5.3c-0.3-0.2-0.6-0.4-0.8-0.5c-10.3-6.1-21.8-9.7-33.8-10.5c-12.1-1.2-24.2,0.7-35.4,5.3
				c-7.9,3.3-15,8.2-21,14.3c-5.1-7.3-11.7-13.4-19.4-18c-8.7-5.1-18.5-8.2-28.6-8.8c-10.6-0.9-21.2,0.9-30.8,5.4
				c-4.5-4.2-10.3-6.7-16.5-7.1l-20.2-1.5c-5-0.4-10.1,0.6-14.6,2.9c-4.1-2.9-9-4.7-14-5.1l-18.1-1.4c-6.6-0.5-13.2,1.4-18.6,5.4
				L243,224c-0.8-2-1.8-3.9-3-5.7l-12.1-17.6c-4.7-6.9-12.3-11.3-20.6-12l-19.2-1.7l0,0c-15-1.3-28.4,9.6-30,24.6l-15-1.1
				c-7.9-0.6-15.7,2.2-21.4,7.7c-4.8-6.3-12.1-10.2-20-10.8l-27.3-2.1c-9.5-0.7-18.8,3.5-24.5,11.1c-5.8,7.7-7.1,17.9-3.7,26.9
				l34.3,89c4,10.5,13.8,17.5,25,18L111.7,350.6z M258,416.8l0.2-0.6l0.2,0.6L258,416.8z"/>
			
				<linearGradient id="SVGID_2_" gradientUnits="userSpaceOnUse" x1="17.11" y1="173.0276" x2="113" y2="173.0276" gradientTransform="matrix(1 0 0 -1 0 595.84)">
				<stop  offset="0" style="stop-color:#FF6000"/>
				<stop  offset="1" style="stop-color:#FFBA5E"/>
			</linearGradient>
			<path class="st1" d="M103.9,382.6l9.1,78.6c0,0.7-9.8,4.8-10.7,4.8l-21.3,0.7c-0.5,0-1-0.2-1.3-0.5l-29.8-34.2
				c-1-1.1-3.1-0.5-3.1,0.8l8.8,30.4c0,0.8-9.5,4.6-10.5,4.6l-26.1,0.8c-0.8,0.1-1.6-0.5-1.7-1.3c0,0,0,0,0,0v-84.8
				c0.1-0.9,0.9-1.5,1.7-1.4l8.6-4.1c0.5,0,14.9,4.4,15.2,4.8l30,34.9c0.9,1.1,3,0.5,3-0.8v-33.2c0.1-0.8,0.8-1.4,1.7-1.4l8.7-4.1
				C86.9,377.1,103.9,381.8,103.9,382.6z"/>
			
				<linearGradient id="SVGID_3_" gradientUnits="userSpaceOnUse" x1="297.72" y1="177.2426" x2="376.61" y2="177.2426" gradientTransform="matrix(1 0 0 -1 0 595.84)">
				<stop  offset="0" style="stop-color:#FF6000"/>
				<stop  offset="1" style="stop-color:#FFBA5E"/>
			</linearGradient>
			<path class="st2" d="M367.3,382.9l9.3,70.2c0,0.7-9.9,4.6-10.6,4.6l-17.1,0.5c-0.4,0-0.8-0.2-1.1-0.5l-23.9-30.6
				c-0.5-0.6-1.4-0.7-2-0.2c-0.3,0.2-0.5,0.6-0.5,1l9.1,26.6c0,0.7-9.7,4.6-10.4,4.6l-20.9,0.7c-0.7,0.1-1.4-0.5-1.4-1.2
				c0,0,0,0,0,0v-75.8c0-0.7,0.7-1.3,1.4-1.3l8.9-4.2c3.5,1.4,6.8,3,10.1,4.8l24,31.1c0.5,0.6,1.4,0.7,2,0.2c0.3-0.2,0.5-0.6,0.5-1
				v-29.7c0-0.7,0.6-1.3,1.4-1.2c0,0,0,0,0,0l9.4-4.2C356.1,377.5,367.3,382.3,367.3,382.9z"/>
			
				<linearGradient id="SVGID_4_" gradientUnits="userSpaceOnUse" x1="203.0859" y1="188.1826" x2="302.3086" y2="188.1826" gradientTransform="matrix(1 0 0 -1 0 595.84)">
				<stop  offset="0" style="stop-color:#FF6000"/>
				<stop  offset="1" style="stop-color:#FFBA5E"/>
			</linearGradient>
			<path class="st3" d="M262,447.2l-26.6,0.7c-0.6,0-1.2,0.4-1.4,0.9l4.4,8.7c-0.2,0.5-9.7,4.6-10.4,4.6l-23.4,0.7
				c-0.7,0.1-1.4-0.4-1.5-1.1c0-0.2,0-0.4,0.1-0.6l32.8-78.8c0.3-0.5,0.8-0.9,1.4-0.9l8.8-4.1c0.6,0,15.4,4.5,15.6,5l40.5,73.2
				c0.3,0.8-9.5,4.4-10.5,4.5l-22.6,0.7c-0.6,0-1.2-0.3-1.4-0.9l-4.4-11.9C263.2,447.4,262.6,447.1,262,447.2z M257.6,374.6
				l-7.6-7.4c-0.6-0.6-1.6-0.6-2.2,0l1.5,3.5c-0.3,0.3-9.7,4.2-10.1,4.2l-11.9,0c-0.7,0.1-1.4-0.5-1.4-1.2c0-0.3,0-0.6,0.2-0.8
				l12.1-15.7c0.3-0.4,0.8-0.6,1.2-0.6l9.4-4.2c3.7,1.5,7.4,3.1,11,5l21.1,12.8c0.6,0.9-9.5,4.9-10.6,4.9l-11.6,0
				C258.2,375.1,257.8,374.9,257.6,374.6L257.6,374.6z M255.5,426.3l-5.3-14.5c-0.4-0.8-1.3-1.1-2.1-0.8c-0.3,0.2-0.6,0.4-0.8,0.8
				l-5.3,14.7c-0.2,0.7,0.2,1.4,0.9,1.6c0.2,0,0.3,0.1,0.5,0l10.7-0.2c0.7,0,1.4-0.5,1.4-1.3C255.5,426.6,255.5,426.4,255.5,426.3
				L255.5,426.3z"/>
			
				<linearGradient id="SVGID_5_" gradientUnits="userSpaceOnUse" x1="117.69" y1="174.5289" x2="207.31" y2="174.5289" gradientTransform="matrix(1 0 0 -1 0 595.84)">
				<stop  offset="0" style="stop-color:#FF6000"/>
				<stop  offset="1" style="stop-color:#FFBA5E"/>
			</linearGradient>
			<path class="st4" d="M198.1,382.7l9.2,75.6c0,0.7-9.9,4.7-10.8,4.7l-23.8,0.8c-0.8,0.1-1.5-0.5-1.6-1.3c0,0,0,0,0,0v-27.7
				c-0.1-0.8-0.8-1.4-1.6-1.3c0,0,0,0,0,0l-22.2,0.4c-0.8,0-1.5,0.6-1.6,1.4v28c-0.1,0.8-0.8,1.4-1.6,1.4l-24.8,0.8
				c-0.8,0.1-1.5-0.5-1.6-1.3c0,0,0,0,0,0v-81.6c0.1-0.8,0.8-1.4,1.6-1.4c0,0,0,0,0,0l8.9-4.2c0.9,0,17.5,4.8,17.5,5.6v26.8
				c0.1,0.8,0.8,1.4,1.6,1.3c0,0,0,0,0,0l22.2-0.2c0.8,0,1.5-0.6,1.6-1.4v-26.6c0.1-0.8,0.8-1.4,1.6-1.3l8.6-3.9
				C182.2,377.5,198.1,382,198.1,382.7z"/>
			
				<linearGradient id="SVGID_6_" gradientUnits="userSpaceOnUse" x1="407.15" y1="178.8932" x2="469.1933" y2="178.8932" gradientTransform="matrix(1 0 0 -1 0 595.84)">
				<stop  offset="0" style="stop-color:#FF6000"/>
				<stop  offset="1" style="stop-color:#FFBA5E"/>
			</linearGradient>
			<path class="st5" d="M454,385.2c4.2,2.1,7.7,5.5,10,9.6c2.4,4.5,3.6,9.5,3.5,14.5c0,5.5,3.2,11.9,0.9,16.1s-10,6-14.4,8.3
				c-4.8,2.4-10.1,3.7-15.4,3.7l-8.1,0.2c-0.7,0-1.2,0.6-1.3,1.2l9.2,12.3c0,0.7-9.8,4.7-10.5,4.8l-19.5,0.6
				c-0.7,0.1-1.2-0.4-1.3-1.1c0,0,0,0,0-0.1V383c0-0.7,0.6-1.2,1.3-1.2l8.8-4.3C423.1,377.5,449.6,383,454,385.2z M443.8,415.9
				c1.5-1.8,2.3-4,2.2-6.4c0.1-2.3-0.6-4.6-2.2-6.3c-1.5-1.5-3.7-2.2-6.6-2.2l-6.7,0c-0.7,0-1.2,0.5-1.3,1.2v14.9
				c0,0.7,0.6,1.2,1.2,1.2c0,0,0,0,0,0l6.7-0.1C440.1,418.2,442.3,417.4,443.8,415.9L443.8,415.9z"/>
			
				<linearGradient id="SVGID_7_" gradientUnits="userSpaceOnUse" x1="608.7275" y1="181.864" x2="681.65" y2="181.864" gradientTransform="matrix(1 0 0 -1 0 595.84)">
				<stop  offset="0" style="stop-color:#FF6000"/>
				<stop  offset="1" style="stop-color:#FFBA5E"/>
			</linearGradient>
			<path class="st6" d="M656.6,447.5l-0.1-24.6c0-0.6-0.4-1-0.9-1.1c-0.4,0-0.9,0.2-1,0.6l-0.1,16c-0.2,0.4-9.7,4.5-10.1,4.5
				l-6.6,0.2c-0.4,0-0.7-0.2-0.9-0.6l-9.4-18.8c-0.1-0.6-0.7-0.9-1.3-0.7c-0.6,0.1-0.9,0.7-0.7,1.3l9.2,20.6c0,0.6-9.6,4.6-10.2,4.6
				l-14.6,0.5c-0.6,0-1-0.4-1.1-0.9c0,0,0-0.1,0-0.1v-65.8c0-0.6,0.5-1.1,1-1.1c0,0,0,0,0,0l9.1-4.2c0.4,0,5.1,4.4,5.2,4.8
				l16.2,33.2c0.2,0.5,0.8,0.7,1.3,0.5c0.2-0.1,0.4-0.3,0.5-0.5l15.5-33c0.2-0.4,0.5-0.6,0.9-0.6l9-4.1c0.5,0,4.7,4.6,4.7,5.2
				l9.3,60.2c0,0.6-9.6,4.6-10.2,4.6l-13.9,0.4C657,448.6,656.6,448.1,656.6,447.5C656.6,447.6,656.6,447.6,656.6,447.5z"/>
			
				<linearGradient id="SVGID_8_" gradientUnits="userSpaceOnUse" x1="537.7291" y1="196.3542" x2="614.4947" y2="196.3542" gradientTransform="matrix(1 0 0 -1 0 595.84)">
				<stop  offset="0" style="stop-color:#FF6000"/>
				<stop  offset="1" style="stop-color:#FFBA5E"/>
			</linearGradient>
			<path class="st7" d="M581.8,439l-20,0.5c-0.5,0-0.9,0.3-1.1,0.8l5.6,7c-0.1,0.5-9.5,4.5-10,4.5l-17.5,0.5c-0.6,0-1.1-0.5-1.1-1.1
				c0-0.1,0-0.3,0.1-0.4l24.5-68c0.2-0.4,0.5-0.7,1-0.7l8.9-4c0.5,0,9.3,4.4,9.4,4.8l32.8,62.6c0.2,0.7-9.5,4.8-10.3,4.8l-17,0.5
				c-0.5,0-0.9-0.3-1-0.7l-3.3-10.4C582.8,439.3,582.4,438.9,581.8,439z M578.6,376.2l-5.8-5.1c-0.4-0.4,2.5,0.5,2.1,0.9l-9.4,4.2
				c-0.2,0.2-0.5,0.3-0.7,0.3h-8.7c-0.6,0-1.1-0.5-1.1-1.1c0-0.3,0.1-0.5,0.3-0.7l8.8-10.6c0.2-0.3,0.5-0.4,0.8-0.4l9.4-4.2
				c2,1.5,4,3.1,5.8,4.7l18.2,7.7c0.6,0.7-9.5,4.8-10.4,4.8h-8.5C579,376.5,578.7,376.4,578.6,376.2L578.6,376.2z M576.9,420.8
				l-4-12.5c-0.2-0.6-0.8-0.9-1.4-0.7c-0.3,0.1-0.6,0.4-0.7,0.7l-4,12.7c-0.2,0.6,0.1,1.2,0.7,1.4c0.1,0,0.2,0.1,0.4,0.1l8-0.1
				c0.6,0,1.1-0.6,1.1-1.2C577,421,577,420.9,576.9,420.8z M586.1,364.6c-0.4-0.5-0.4-1.2,0.1-1.6c0,0,0,0,0.1-0.1
				c1-0.6,1.6-1.7,1.7-2.9c0-0.7-0.2-1.3-0.6-1.8c-0.4-0.5-1-0.7-1.7-0.7c-0.9,0-1.9,0.2-2.7,0.6c-0.5,0.3-1.2,0-1.4-0.5
				c0,0,0,0,0,0l-1.9-4.1c-0.2-0.5,0-1.1,0.4-1.4c2-1.2,9.3-4.9,12.1-5.4c2.6-0.5,4.5,3.4,6.1,5s0.8,2.6,0.8,5.3c0,2,2,4.8,0.8,6.4
				c-1,1.4-8.2,3.6-9.7,4.5c-0.4,0.2-1,0.1-1.3-0.2L586.1,364.6z"/>
			
				<linearGradient id="SVGID_9_" gradientUnits="userSpaceOnUse" x1="474.2901" y1="179.8245" x2="543.27" y2="179.8245" gradientTransform="matrix(1 0 0 -1 0 595.84)">
				<stop  offset="0" style="stop-color:#FF6000"/>
				<stop  offset="1" style="stop-color:#FFBA5E"/>
			</linearGradient>
			<path class="st8" d="M534,383.1l9.3,64.9c0,0.6-9.8,4.4-10.4,4.5l-17.7,0.5c-0.6,0-1.1-0.5-1.2-1.1c0,0,0,0,0,0V428
				c0-0.6-0.5-1.1-1.1-1.1c0,0,0,0,0,0l-16.5,0.3c-0.7,0-1.2,0.5-1.2,1.2l9.3,20.6c0,0.6-9.8,4.8-10.5,4.8l-18.4,0.6
				c-0.6,0-1.2-0.5-1.2-1.1c0,0,0,0,0,0v-70.1c0-0.7,0.6-1.2,1.2-1.2l9.4-4.2c0.6,0,10.2,4.7,10.2,5.4v23.1c0,0.6,0.5,1.2,1.2,1.2
				c0,0,0,0,0,0l16.5-0.2c0.6,0,1.2-0.5,1.2-1.1c0,0,0,0,0,0v-22.9c0-0.6,0.5-1.2,1.1-1.2c0,0,0,0,0,0l8.9-4.1
				C524.6,377.8,534,382.5,534,383.1z"/>
			<path class="st9" d="M113.3,378.4v82c-0.1,0.8-0.8,1.4-1.6,1.4l-21.3,0.7c-0.5,0-1-0.2-1.3-0.5l-29.8-34.2
				c-1-1.1-3.1-0.5-3.1,0.8v33.6c-0.1,0.8-0.8,1.5-1.7,1.4l-26.1,0.8c-0.8,0.1-1.6-0.5-1.7-1.3c0,0,0,0,0,0v-84.8
				c0.1-0.9,0.9-1.5,1.7-1.4h22.4c0.5,0,1,0.2,1.4,0.6l30,34.9c0.9,1.1,3,0.5,3-0.8v-33.2c0.1-0.8,0.8-1.4,1.7-1.4h25
				C112.5,377,113.2,377.6,113.3,378.4C113.3,378.4,113.3,378.4,113.3,378.4z"/>
			<path class="st9" d="M207.5,378.6v79c-0.1,0.8-0.7,1.4-1.5,1.4l-23.8,0.8c-0.8,0.1-1.5-0.5-1.6-1.2c0,0,0,0,0,0v-27.8
				c-0.1-0.8-0.8-1.4-1.6-1.3c0,0,0,0,0,0l-22.2,0.4c-0.8,0-1.5,0.6-1.6,1.4v28c-0.1,0.8-0.8,1.4-1.6,1.4l-24.9,0.8
				c-0.8,0.1-1.5-0.5-1.6-1.3c0,0,0,0,0,0v-81.5c0.1-0.8,0.8-1.4,1.6-1.4h24.9c0.8-0.1,1.5,0.5,1.6,1.4v26.8
				c0.1,0.8,0.8,1.4,1.6,1.3l22.2-0.2c0.8,0,1.5-0.6,1.6-1.4v-26.6c0.1-0.8,0.8-1.4,1.6-1.3H206
				C206.7,377.1,207.4,377.7,207.5,378.6C207.5,378.5,207.5,378.5,207.5,378.6z"/>
			<path class="st9" d="M271.4,443l-26.6,0.7c-0.6,0-1.2,0.4-1.4,0.9l-4.5,12.4c-0.2,0.6-0.8,0.9-1.4,1l-23.4,0.7
				c-1.1,0-1.8-0.9-1.4-1.7l32.8-78.8c0.3-0.5,0.8-0.9,1.4-0.9h23.1c0.6,0,1.1,0.3,1.4,0.9l31.3,76c0.2,0.7-0.2,1.5-0.9,1.7
				c-0.1,0-0.3,0.1-0.5,0.1l-22.6,0.7c-0.6,0-1.1-0.3-1.4-0.9l-4.4-11.9C272.5,443.3,272,442.9,271.4,443z M267,370.4l-7.5-7.3
				c-0.6-0.6-1.6-0.6-2.2,0l-7.6,7.3c-0.3,0.3-0.7,0.4-1.1,0.4l-11.9-0.1c-0.7,0.1-1.4-0.4-1.4-1.2c0-0.3,0-0.6,0.2-0.8l12.1-15.7
				c0.3-0.4,0.8-0.6,1.2-0.6l19.2,0.2c0.5,0,0.9,0.2,1.2,0.6l11.7,15.7c0.4,0.6,0.3,1.4-0.3,1.8c-0.3,0.2-0.6,0.3-0.9,0.2l-11.7-0.1
				C267.6,370.8,267.3,370.7,267,370.4z M264.9,422.1l-5.3-14.5c-0.4-0.8-1.3-1.1-2.1-0.8c-0.3,0.2-0.6,0.4-0.8,0.8l-5.4,14.7
				c-0.2,0.7,0.2,1.4,0.9,1.6c0.2,0,0.3,0.1,0.5,0l10.7-0.2c0.7,0,1.4-0.6,1.4-1.3C264.9,422.4,264.9,422.2,264.9,422.1L264.9,422.1
				z"/>
			<path class="st9" d="M376.7,378.8v73.5c0,0.7-0.6,1.3-1.3,1.3l-17.1,0.5c-0.4,0-0.8-0.2-1.1-0.5L333.3,423
				c-0.5-0.6-1.4-0.7-2-0.2c-0.3,0.2-0.5,0.6-0.5,1v30c0,0.7-0.7,1.3-1.4,1.3l-20.9,0.6c-0.7,0.1-1.3-0.5-1.4-1.2c0,0,0,0,0-0.1
				v-75.8c0-0.7,0.7-1.3,1.4-1.3h17.9c0.4,0,0.9,0.2,1.1,0.5l24,31.2c0.5,0.6,1.3,0.7,2,0.2c0.3-0.2,0.5-0.6,0.5-1v-29.6
				c0-0.7,0.6-1.3,1.4-1.2h20C376.1,377.5,376.7,378.1,376.7,378.8z"/>
			<path class="st9" d="M463.3,381c4.2,2.1,7.7,5.5,10,9.6c2.4,4.5,3.6,9.5,3.5,14.5c0.1,5.1-1.1,10.1-3.5,14.6
				c-2.3,4.2-5.8,7.6-10,9.8c-4.8,2.4-10.1,3.7-15.4,3.7l-8.1,0.2c-0.7,0-1.2,0.5-1.3,1.2v15.8c0,0.7-0.6,1.2-1.3,1.2l-19.5,0.6
				c-0.7,0-1.2-0.5-1.3-1.1c0,0,0,0,0-0.1v-72.2c0-0.7,0.6-1.2,1.3-1.2c0,0,0,0,0,0l30.1,0C453.3,377.6,458.5,378.7,463.3,381z
				 M453.1,411.7c1.5-1.8,2.3-4,2.2-6.4c0.1-2.3-0.6-4.6-2.2-6.3c-1.5-1.5-3.7-2.2-6.6-2.2h-6.7c-0.7,0-1.2,0.5-1.3,1.2v14.9
				c0,0.7,0.6,1.2,1.2,1.2c0,0,0,0,0,0l6.7-0.1C449.5,414,451.7,413.2,453.1,411.7z"/>
			<path class="st9" d="M543.4,379v68.2c0,0.6-0.5,1.2-1.2,1.2l-17.7,0.6c-0.6,0-1.1-0.5-1.2-1.1c0,0,0,0,0-0.1v-23.9
				c0-0.6-0.5-1.1-1.1-1.1c0,0,0,0,0,0l-16.5,0.3c-0.7,0-1.2,0.5-1.2,1.2v24.1c0,0.7-0.5,1.2-1.2,1.2l-18.4,0.6
				c-0.6,0-1.2-0.4-1.2-1.1c0,0,0,0,0-0.1v-70.1c0-0.7,0.6-1.2,1.2-1.2h18.4c0.6,0,1.2,0.5,1.2,1.1c0,0,0,0,0,0V402
				c0,0.6,0.5,1.2,1.2,1.1c0,0,0,0,0,0l16.5-0.2c0.6,0,1.2-0.5,1.2-1.2v-22.9c0-0.6,0.5-1.2,1.1-1.2c0,0,0,0,0,0h17.7
				C542.9,377.8,543.4,378.3,543.4,379C543.4,378.9,543.4,378.9,543.4,379z"/>
			<path class="st9" d="M591.2,434.8l-20,0.5c-0.5,0-0.9,0.3-1.1,0.8l-3.4,10.7c-0.1,0.5-0.6,0.8-1.1,0.8l-17.5,0.5
				c-0.6,0-1.1-0.5-1.1-1.1c0-0.1,0-0.3,0.1-0.4l24.5-68c0.2-0.4,0.5-0.7,1-0.7H590c0.5,0,0.8,0.3,1,0.7l23.5,65.9
				c0.2,0.6-0.1,1.2-0.7,1.5c-0.1,0-0.2,0.1-0.3,0.1l-17,0.5c-0.5,0-0.9-0.3-1-0.7l-3.3-10.4C592.1,435.1,591.7,434.8,591.2,434.8z
				 M587.9,372l-5.8-5.2c-0.4-0.4-1-0.4-1.5,0l-5.8,5.1c-0.2,0.2-0.5,0.3-0.7,0.3h-8.7c-0.6,0-1.1-0.5-1.1-1.1
				c0-0.3,0.1-0.5,0.3-0.7l8.8-10.6c0.2-0.3,0.5-0.4,0.9-0.4l14.4,0.1c0.3,0,0.6,0.2,0.8,0.4l8.5,10.6c0.4,0.5,0.3,1.2-0.2,1.6
				c-0.2,0.2-0.4,0.2-0.7,0.2h-8.5C588.4,372.3,588.1,372.2,587.9,372L587.9,372z M586.3,416.7l-4-12.5c-0.2-0.6-0.8-0.9-1.4-0.7
				c-0.3,0.1-0.6,0.4-0.7,0.7l-4,12.7c-0.2,0.6,0.1,1.2,0.7,1.4c0.1,0,0.2,0.1,0.4,0.1l8-0.1c0.6,0,1.1-0.5,1.1-1.2
				C586.4,416.9,586.4,416.8,586.3,416.7L586.3,416.7z M595.5,360.5c-0.4-0.5-0.4-1.2,0.1-1.6c0,0,0,0,0.1-0.1
				c1-0.6,1.6-1.7,1.7-2.9c0-0.7-0.2-1.3-0.6-1.8c-0.4-0.5-1-0.7-1.7-0.7c-0.9,0-1.9,0.2-2.7,0.6c-0.5,0.2-1.2,0-1.4-0.5
				c0,0,0,0,0,0l-1.8-4.2c-0.2-0.5,0-1.1,0.4-1.4c2.2-1.3,4.6-1.9,7.1-1.8c2.3-0.1,4.6,0.8,6.2,2.4c1.6,1.7,2.4,4,2.3,6.3
				c0,2-0.6,3.9-1.8,5.4c-1,1.4-2.3,2.5-3.8,3.3c-0.4,0.2-0.9,0.1-1.3-0.2L595.5,360.5z"/>
			<path class="st9" d="M666,443.4l-0.1-24.6c0-0.6-0.4-1-0.9-1.1c-0.4,0-0.8,0.2-1,0.6l-9.2,19.9c-0.2,0.4-0.5,0.6-0.9,0.6
				l-6.6,0.2c-0.4,0-0.8-0.2-0.9-0.6l-9.4-18.7c-0.2-0.5-0.9-0.8-1.4-0.5c-0.4,0.2-0.7,0.6-0.6,1.1v24.1c0,0.6-0.5,1.1-1,1.1
				l-14.6,0.5c-0.6,0-1.1-0.4-1.1-1c0,0,0,0,0,0v-65.8c0-0.6,0.5-1.1,1.1-1.1c0,0,0,0,0,0h13.4c0.4,0,0.8,0.2,0.9,0.6l16.2,33.2
				c0.2,0.5,0.8,0.7,1.3,0.5c0.2-0.1,0.4-0.3,0.5-0.5l15.5-33.1c0.2-0.4,0.5-0.6,0.9-0.6h12.8c0.6,0,1,0.4,1,1c0,0,0,0,0,0.1
				l0.1,63.8c0,0.6-0.4,1.1-1,1.1l-13.9,0.4C666.4,444.4,666,444,666,443.4C666,443.4,666,443.4,666,443.4z"/>
			
				<linearGradient id="SVGID_10_" gradientUnits="userSpaceOnUse" x1="63.5971" y1="316.1844" x2="158.4666" y2="316.1844" gradientTransform="matrix(1 3.000000e-02 0 -1 0 593.02)">
				<stop  offset="0" style="stop-color:#FF6000"/>
				<stop  offset="1" style="stop-color:#FFBA5E"/>
			</linearGradient>
			<path class="st10" d="M158.5,243.8l-26.2,81l-5.7,2.3c-0.6,0.4-1.3,0.7-2,0.7l-25.2-1c-0.6,0-1.1-0.4-1.3-1l-34.3-89.1
				c-0.2-0.6-0.1-1.3,0.3-1.7c0.3-0.3,7.7-3.2,7.7-3.2l20.7,4.9c0.6,0.1,1.1,0.5,1.3,1.1l18,49c0.2,0.7,1,1.2,1.7,1
				c0.4-0.1,0.8-0.4,0.9-0.8l18.1-46.2c0.4-1.3,8.3-3.9,8.3-3.9C141.8,236.8,158.9,242.8,158.5,243.8z"/>
			
				<linearGradient id="SVGID_11_" gradientUnits="userSpaceOnUse" x1="157.561" y1="325.7328" x2="243.3587" y2="325.7328" gradientTransform="matrix(1 3.000000e-02 0 -1 0 593.02)">
				<stop  offset="0" style="stop-color:#FF6000"/>
				<stop  offset="1" style="stop-color:#FFBA5E"/>
			</linearGradient>
			<path class="st11" d="M179,326c-6.6-4.1-12.1-10-15.7-16.9c-3.9-7.3-5.8-15.5-5.7-23.8c-0.2-8.1,1.8-16.1,5.7-23.2
				c3.6-6.5,9.1-11.7,15.7-15.1c6.9-3.4,14.6-4.9,22.2-4.1c15.7,1,29.7,10.2,36.8,24.2c3.6,7.1,5.4,15,5.4,23
				c0.2,7.8-1.7,15.5-5.4,22.4c-3.4,6.4-8.6,11.6-14.9,15.1c-6.7,3.6-14.2,5.3-21.8,4.9C193.4,332.5,185.7,330.2,179,326z
				 M178.5,216.3l6.6-2.8c0.4,0,13.4,4.8,13.6,5.1l18.8,16.9l-4.1,1.7c-2.1,0.7-2.6,1.4-3.7,1.3l-13-1c-0.3,0-0.6-0.2-0.8-0.4
				l-18.3-18.2C176.7,217.9,177,216.9,178.5,216.3L178.5,216.3z M209.8,307c2.7-1.8,4.8-4.2,6.1-7.1c1.6-3.5,2.3-7.3,2.2-11.1
				c0.1-3.9-0.7-7.8-2.2-11.4c-1.3-3.1-3.4-5.8-6.1-7.8c-2.5-1.9-5.5-3-8.6-3.2c-3-0.3-6.1,0.5-8.6,2.1c-2.7,1.7-4.9,4.2-6.2,7.1
				c-1.6,3.5-2.4,7.4-2.3,11.3c-0.1,4,0.7,7.9,2.3,11.5c1.4,3.1,3.5,5.8,6.2,7.8c2.5,1.9,5.5,2.9,8.6,3.1
				C204.3,309.5,207.3,308.7,209.8,307L209.8,307z"/>
			
				<linearGradient id="SVGID_12_" gradientUnits="userSpaceOnUse" x1="252.2971" y1="311.1514" x2="328.72" y2="311.1514" gradientTransform="matrix(1 3.000000e-02 0 -1 0 593.02)">
				<stop  offset="0" style="stop-color:#FF6000"/>
				<stop  offset="1" style="stop-color:#FFBA5E"/>
			</linearGradient>
			<path class="st12" d="M321.7,255.4l7,76.4c0,0.8-7.5,3.5-8.2,3.5l-17.3-0.7c-0.4,0-0.7-0.2-0.9-0.5l-24.2-35
				c-0.4-0.6-1.1-0.7-1.7-0.4c-0.4,0.3-0.6,0.7-0.5,1.2l6.7,30.5l-3.6,1.5c-2.2,1-3.6,1.7-4.3,1.7l-21.1-0.8
				c-0.8-0.1-1.3-0.8-1.3-1.5v-81c0-0.8,0.5-1,1.3-1.4l7-3c0.4,0,11.8,4.6,12.1,4.9l24.3,35.7c0.3,0.6,1,0.7,1.6,0.4
				c0.4-0.2,0.6-0.7,0.6-1.2v-32c-0.1-0.7,0.4-1.3,1.1-1.3c0,0,0.1,0,0.1,0l7.3-3C308.2,249.4,321.7,254.6,321.7,255.4z"/>
			
				<linearGradient id="SVGID_13_" gradientUnits="userSpaceOnUse" x1="330.11" y1="306.8074" x2="396.5729" y2="306.8074" gradientTransform="matrix(1 3.000000e-02 0 -1 0 593.02)">
				<stop  offset="0" style="stop-color:#FF6000"/>
				<stop  offset="1" style="stop-color:#FFBA5E"/>
			</linearGradient>
			<path class="st13" d="M377.7,295.7l6.9-2.9c0.6,0,10.8,4.5,10.8,5.3v31.1c0,0.4-0.2,0.8-0.5,1.1c-3.8,2.9-8.1,5.2-12.7,6.5
				c-4.9,1.5-9.9,2.2-15,2c-6.8-0.2-13.4-2.3-19-6.1c-5.7-3.9-10.3-9.3-13.2-15.5c-3.3-6.9-5-14.5-4.9-22.2
				c-0.2-7.5,1.5-14.9,4.9-21.6c3-5.9,7.7-10.8,13.5-14c5.9-3.2,12.6-4.5,19.3-3.9c6,0.4,11.9,2.2,17.1,5.2
				c4.7,2.8,8.7,6.6,11.7,11.1c0.4,0.6-4.8,11.1-5.3,11.6l-7,2.7c-0.8,0.4-1.1,0.4-1.6-0.2c-3.9-5.4-8.5-8.3-13.8-8.6
				c-4.9-0.3-8.8,1.2-11.6,4.6c-2.9,3.4-4.3,8.2-4.4,14.4c0,6,1.4,10.9,4.3,14.8c2.7,3.7,6.9,5.9,11.4,6c2.5,0.1,5-0.3,7.3-1.2
				c0.5-0.2,0.8-0.7,0.8-1.3V297C376.5,296.4,377,295.8,377.7,295.7C377.7,295.7,377.7,295.7,377.7,295.7z"/>
			
				<linearGradient id="SVGID_14_" gradientUnits="userSpaceOnUse" x1="425.5932" y1="286.3237" x2="517.06" y2="286.3237" gradientTransform="matrix(1 0 0 -1 0 595.84)">
				<stop  offset="0" style="stop-color:#FF6000"/>
				<stop  offset="1" style="stop-color:#FFBA5E"/>
			</linearGradient>
			<path class="st14" d="M517.1,337.1c-2.5,3-5,18.5-8.6,20c-3.9,1.5-8,2.2-12.2,2c-8.1-0.1-15.9-2.9-22.3-7.8
				c-4.3-3.3-8.4-7-12.1-11c-6.7-1.3-13.1-4-18.7-8c-5.4-3.8-9.8-8.8-12.9-14.6c-3.1-5.8-4.7-12.3-4.6-18.8
				c-0.1-7.2,1.9-14.3,6-20.3c4-5.9,9.6-10.4,16.2-13.1c6.8-2.9,15-6,23.5-5.3s15.2,5,21.8,8.9c6.3,3.7,11.6,8.9,15.3,15.1
				c3.7,6.1,5.6,13.2,5.5,20.3c0.2,7.9-2.3,15.6-7,21.9c-4.8,6.3-11.5,10.9-19.2,13c1.2,1.5,2.7,2.7,4.4,3.5
				c1.5,0.7,3.1,1.1,4.7,1.2c4.4,0.2,8.6-1.5,11.6-4.7L517.1,337.1z M451.9,311.8c1.8,3.4,4.5,6.2,7.8,8.2c3.3,2,7.1,3.2,10.9,3.3
				c3.7,0.3,7.5-0.5,10.8-2.1c3.2-1.6,5.8-4.1,7.6-7.2c1.9-3.4,2.9-7.2,2.8-11.1c0.1-4-0.9-7.9-2.8-11.5c-1.8-3.3-4.4-6.1-7.6-8.1
				c-3.3-2-7-3.2-10.8-3.5c-3.8-0.3-7.5,0.3-10.9,1.9c-3.3,1.6-6,4.1-7.8,7.2c-2,3.4-3,7.3-2.9,11.3
				C448.9,304.3,449.9,308.3,451.9,311.8z"/>
			
				<linearGradient id="SVGID_15_" gradientUnits="userSpaceOnUse" x1="523.35" y1="290.3704" x2="592" y2="290.3704" gradientTransform="matrix(1 0 0 -1 0 595.84)">
				<stop  offset="0" style="stop-color:#FF6000"/>
				<stop  offset="1" style="stop-color:#FFBA5E"/>
			</linearGradient>
			<path class="st15" d="M532.6,335c-6.2-6.3-9.3-15-9.3-26v-39.3c0-0.9,0.8-1.7,1.7-1.7c0,0,0.1,0,0.1,0l6.8-2.2
				c0.9,0.1,12.4,4.5,12.4,5.4v38.5c0,11.8,4.7,17.9,14,18.4s13.7-5.1,13.7-16.7v-37.7c0-0.9,0.8-1.7,1.7-1.7c0.1,0,0.1,0,0.2,0
				l6.8-2.2c0.9,0.1,11.2,4.4,11.2,5.3v38.2c0,10.7-2.9,18.8-8.8,24.3c-5.9,5.6-14.2,8.1-25,7.6S538.8,341.3,532.6,335z"/>
			
				<linearGradient id="SVGID_16_" gradientUnits="userSpaceOnUse" x1="594.833" y1="284.4494" x2="681.8231" y2="284.4494" gradientTransform="matrix(1 0 0 -1 0 595.84)">
				<stop  offset="0" style="stop-color:#FF6000"/>
				<stop  offset="1" style="stop-color:#FFBA5E"/>
			</linearGradient>
			<path class="st16" d="M648.1,334.2l-27.6-1.4c-0.3,0,2.9,11.1,2.8,11.4l-8.5,1.6c-0.1,0.3-0.4,0.5-0.7,0.5l-18.5-0.9
				c-0.4,0-0.7-0.4-0.7-0.8c0-0.1,0-0.2,0.1-0.2l30-67.8c0.1-0.3,0.4-0.5,0.7-0.4l8.6-2.3c0.3,0,9.8,3.9,9.9,4.2l37.7,68.7
				c0.2,0.5-9.3,2-9.8,2l-17.7-0.8c-0.3,0-0.5-0.2-0.6-0.5l-4.9-12.9C648.6,334.4,648.4,334.2,648.1,334.2z M642.6,318.3l-7.6-20.2
				c-0.1-0.4-0.6-0.6-0.9-0.4c-0.2,0.1-0.3,0.2-0.4,0.4l-7.7,19.3c-0.1,0.4,0,0.8,0.4,0.9c0.1,0,0.1,0,0.2,0.1l15.3,0.9
				c0.4,0,0.8-0.3,0.8-0.7C642.7,318.5,642.7,318.4,642.6,318.3L642.6,318.3z"/>
			
				<linearGradient id="SVGID_17_" gradientUnits="userSpaceOnUse" x1="665.4228" y1="281.9839" x2="730.6066" y2="281.9839" gradientTransform="matrix(1 0 0 -1 0 595.84)">
				<stop  offset="0" style="stop-color:#FF6000"/>
				<stop  offset="1" style="stop-color:#FFBA5E"/>
			</linearGradient>
			<path class="st17" d="M707.5,326.4l8.7,22c0,0.4-9,2.1-9.5,2l-16.5-0.8c-0.4,0-0.7-0.3-0.7-0.7v-23.9c0-0.1,0-0.2-0.1-0.3
				l-24-44.2c-0.2-0.3-0.1-0.8,0.3-1c0.1-0.1,0.3-0.1,0.4-0.1l7.4-2.2c0.2,0,10.8,3.8,10.9,4l14.3,26.7c0.2,0.4,0.6,0.5,1,0.3
				c0.1-0.1,0.2-0.2,0.3-0.3l14-24.3c0.1-0.2,0.4-0.4,0.7-0.4l8.2-2.1c0.5,0,7.9,4,7.7,4.5l-23,40.3
				C707.5,326.2,707.5,326.3,707.5,326.4z"/>
			<path class="st9" d="M165.8,240.8l-32.6,83c-0.2,0.5-0.7,0.9-1.3,0.9l-25.2-1c-0.6,0-1.1-0.4-1.3-1l-34.3-89
				c-0.3-0.7,0-1.6,0.7-2c0.2-0.1,0.4-0.1,0.7-0.1l27.3,2.1c0.6,0.1,1.1,0.5,1.3,1.1l18,49c0.2,0.7,0.9,1.2,1.7,1
				c0.4-0.1,0.8-0.4,0.9-0.8l18.1-46.2c0.2-0.5,0.7-0.9,1.3-0.9l23.4,1.8c0.9,0.1,1.5,1,1.4,1.9
				C165.8,240.6,165.8,240.7,165.8,240.8z"/>
			<path class="st9" d="M186.3,323c-6.6-4.1-12.1-10-15.7-16.9c-3.9-7.3-5.8-15.5-5.7-23.8c-0.2-8.1,1.8-16.1,5.7-23.2
				c3.6-6.5,9.1-11.7,15.7-15.1c6.9-3.4,14.6-4.9,22.2-4.1c15.7,1,29.7,10.2,36.7,24.2c3.6,7.1,5.4,15,5.4,23
				c0.2,7.8-1.7,15.5-5.4,22.4c-3.4,6.4-8.6,11.7-14.9,15.2c-6.7,3.6-14.2,5.3-21.8,4.9C200.7,329.5,193,327.2,186.3,323z
				 M185.8,213.3L205,215c0.4,0.1,0.8,0.3,1,0.6l12.1,17.6c0.7,1,0.1,2.4-1,2.4l-13-1c-0.3,0-0.6-0.2-0.8-0.4L185,215.9
				C184,215,184.5,213.2,185.8,213.3z M217.1,304.1c2.7-1.8,4.8-4.2,6.1-7.1c1.6-3.5,2.3-7.3,2.2-11.1c0.1-3.9-0.7-7.8-2.2-11.4
				c-1.3-3.1-3.4-5.8-6.1-7.8c-2.5-1.9-5.5-3-8.6-3.2c-3-0.3-6.1,0.5-8.7,2.1c-2.7,1.7-4.9,4.2-6.2,7.1c-1.6,3.5-2.4,7.4-2.3,11.2
				c-0.1,4,0.7,7.9,2.3,11.5c1.4,3.1,3.5,5.8,6.2,7.8c2.5,1.9,5.5,2.9,8.7,3.1C211.6,306.5,214.6,305.7,217.1,304.1z"/>
			<path class="st9" d="M329,252.4V331c0.1,0.7-0.4,1.3-1.1,1.4c0,0,0,0-0.1,0l-17.3-0.7c-0.4,0-0.7-0.2-0.9-0.5l-24.2-35
				c-0.4-0.6-1.1-0.7-1.7-0.4c-0.4,0.3-0.6,0.7-0.5,1.2v32.3c0.1,0.7-0.5,1.3-1.2,1.4c0,0,0,0-0.1,0l-21.1-0.8
				c-0.8-0.1-1.3-0.8-1.3-1.5v-81c-0.1-0.7,0.5-1.3,1.1-1.4c0,0,0.1,0,0.1,0l18.2,1.3c0.4,0,0.7,0.3,1,0.6l24.3,35.7
				c0.7,1.1,2.1,0.5,2.1-0.8v-32c-0.1-0.7,0.4-1.3,1.1-1.3c0,0,0.1,0,0.1,0l20.3,1.5C328.6,251,329.1,251.7,329,252.4z"/>
			<path class="st9" d="M385,292.7l16.6,1c0.7,0.1,1.2,0.7,1.1,1.4v31.1c0,0.4-0.2,0.8-0.5,1.1c-3.8,2.9-8.1,5.2-12.7,6.5
				c-4.9,1.5-9.9,2.2-15,2c-6.8-0.2-13.4-2.3-19-6.1c-5.8-3.9-10.4-9.3-13.4-15.6c-3.3-6.9-5-14.5-4.9-22.2
				c-0.2-7.5,1.5-14.9,4.9-21.6c3-5.9,7.7-10.8,13.5-14c5.9-3.2,12.6-4.5,19.3-3.9c6.1,0.4,11.9,2.1,17.2,5.2
				c4.7,2.8,8.7,6.6,11.7,11.1c0.4,0.6,0.4,1.4-0.1,1.9l-12.2,12.4c-0.4,0.4-1,0.4-1.4,0c-0.1-0.1-0.1-0.1-0.2-0.2
				c-3.9-5.4-8.5-8.3-13.8-8.6c-4.9-0.3-8.8,1.2-11.6,4.6c-2.9,3.4-4.3,8.2-4.4,14.4c0,6,1.4,10.9,4.3,14.8c2.7,3.7,6.9,5.9,11.4,6
				c2.5,0.1,5-0.3,7.3-1.2c0.5-0.2,0.8-0.7,0.8-1.3v-17.7C383.8,293.4,384.3,292.8,385,292.7C385,292.7,385,292.7,385,292.7z"/>
			<path class="st9" d="M599.8,311.4l-3.8-13.5c-0.3-1.1-1.4-1.2-1.7-0.1l-3.8,13c-0.2,0.8,0.2,1.7,0.9,1.8l7.6,0.4
				C599.6,313.1,600,312.2,599.8,311.4z"/>
			<path class="st9" d="M526.4,348.4c-2.5,2.9-5.7,5.2-9.3,6.6c-3.9,1.5-8,2.2-12.1,2c-8.1-0.1-15.9-2.9-22.3-7.8
				c-4.3-3.3-8.4-7-12.1-11c-6.7-1.3-13.1-4-18.7-8c-5.4-3.8-9.8-8.8-12.9-14.6c-3.1-5.8-4.7-12.2-4.7-18.8
				c-0.1-7.2,1.9-14.3,6-20.3c4-5.9,9.6-10.4,16.2-13.1c7.2-3,15.1-4.1,22.9-3.3c7.9,0.6,15.5,2.9,22.4,6.9
				c6.3,3.7,11.5,8.9,15.3,15.1c3.7,6.1,5.6,13.2,5.5,20.3c0.2,7.9-2.3,15.6-7,21.9c-4.8,6.3-11.5,10.9-19.2,13
				c1.2,1.4,2.7,2.6,4.4,3.5c1.5,0.7,3.1,1.1,4.7,1.2c4.4,0.2,8.6-1.5,11.7-4.7L526.4,348.4z M460.6,309.8c1.8,3.4,4.5,6.2,7.8,8.2
				c3.3,2,7.1,3.2,10.9,3.3c3.7,0.3,7.5-0.5,10.8-2.1c3.2-1.6,5.8-4.1,7.6-7.2c1.9-3.4,2.9-7.3,2.8-11.2c0.1-4-0.9-7.9-2.8-11.5
				c-1.8-3.3-4.4-6.1-7.6-8.2c-3.3-2.1-7-3.3-10.8-3.5c-3.8-0.3-7.5,0.3-10.9,1.9c-3.3,1.6-6,4.1-7.8,7.2c-2,3.4-3,7.3-2.9,11.3
				C457.6,302.2,458.6,306.2,460.6,309.8z"/>
			<path class="st9" d="M541.3,332.9c-6.2-6.3-9.3-15-9.3-26v-41.2l21.1,1.7v40.1c0,11.8,4.7,17.9,14,18.4s13.7-5.1,13.7-16.7v-39.6
				l19.9,1.6v39.8c0,10.7-2.9,18.8-8.8,24.3c-5.9,5.6-14.2,8.1-25,7.6S547.5,339.2,541.3,332.9z"/>
			<path class="st9" d="M657.3,332.2l-28.6-1.5l-5.4,13.5l-20.1-0.9l30.6-69.2l18.8,1.5l29.2,71.3l-19.3-0.9L657.3,332.2z
				 M651.7,317.3l-8.7-23l-8.7,22L651.7,317.3z"/>
			<path class="st9" d="M716.2,324.2v24.3l-17.9-0.8v-24.8l-24.7-45.5l19.4,1.5l15.1,28.2l14.9-25.8l16.9,1.4L716.2,324.2z"/>
			<g>
				<defs>
					<path id="SVGID_18_" d="M725.3,254.8c-5.4-0.4-10.7,0.8-15.4,3.5c-4.2-3.4-9.3-5.5-14.6-5.9l-19.4-1.6
						c-3.6-0.3-7.2,0.2-10.7,1.3c-3.2-1.7-6.7-2.7-10.3-3l-18.8-1.5c-6-0.5-12,1.1-17,4.5c-4.4-4.2-10.1-6.7-16.1-7.2l-19.8-1.6
						c-4.9-0.4-9.8,0.5-14.1,2.7c-3.9-2.9-8.6-4.6-13.5-5l-21.1-1.7c-6.5-0.5-12.9,1.3-18.1,5.3c-0.3-0.2-0.6-0.4-0.8-0.5
						c-10.3-6.1-21.8-9.7-33.8-10.5c-12.1-1.1-24.2,0.7-35.4,5.3L509.5-8.2l173.2-12L763.5,140L725.3,254.8z"/>
				</defs>
				<clipPath id="SVGID_19_">
					<use xlink:href="#SVGID_18_"  style="overflow:visible;"/>
				</clipPath>
				<g class="st18">
					<path class="st19" d="M535.9,175c2.1-0.7,14.7-5.2,15-7.3l53.7,6.1l66.7-17.6v0.1l0.7-0.2c0,0.5-0.1,1-0.1,1.4
						c3.7,7.8,39.2,51.5,38.2,91.4c-1,42.2-23.3,47.6-32,49.4c-0.2,0.1-33.9,4.4-35.1,4.5c-3.3,0.3-6.1-6.2-6.6-6.7l-32.4,4.1
						c-0.3,0.6-1.5,7.6-4.7,8.1c-1.2,0.2-35.6,4.4-36.1,4.4c-8.4-0.2-34.5-0.4-45.6-39.5C508,238.8,529.7,190.8,535.9,175z"/>
					<g>
						<g>
							<defs>
								
									<rect id="SVGID_20_" x="646.2" y="280.2" transform="matrix(0.9915 -0.1302 0.1302 0.9915 -31.3812 89.013)" width="37.8" height="8.6"/>
							</defs>
							<clipPath id="SVGID_21_">
								<use xlink:href="#SVGID_20_"  style="overflow:visible;"/>
							</clipPath>
							<g class="st20">
								<path class="st21" d="M683,281.6c-0.5,0.6-1,1.3-1.3,2.1c-0.3,0.7-0.5,1.4-0.6,2.2c-0.1,0.7-0.1,1.5-0.1,2.2
									c0.1,0.8,0.3,1.6,0.6,2.4c0.6-0.6,1-1.3,1.3-2.1c0.6-1.4,0.8-2.9,0.7-4.4C683.5,283.2,683.3,282.4,683,281.6"/>
								<path class="st21" d="M674,282.8c-0.5,0.7-0.8,1.4-1,2.1c-0.2,0.7-0.3,1.4-0.3,2.2c0,0.7,0.1,1.5,0.2,2.2
									c0.2,0.8,0.5,1.5,0.9,2.2c0.5-0.6,0.8-1.4,1-2.1c0.4-1.4,0.4-2.9,0.1-4.3C674.7,284.2,674.4,283.4,674,282.8"/>
								<path class="st21" d="M665.1,283.9c-0.4,0.7-0.6,1.5-0.7,2.2c-0.2,1.4,0,2.9,0.5,4.3c0.3,0.7,0.7,1.4,1.2,2
									c0.4-0.7,0.6-1.5,0.7-2.2c0.1-0.7,0.1-1.4,0-2.2c-0.1-0.7-0.3-1.4-0.5-2.1C666,285.2,665.6,284.5,665.1,283.9"/>
								<path class="st21" d="M656.7,285c-0.3,0.7-0.4,1.5-0.4,2.3c0,0.7,0.1,1.5,0.3,2.2c0.2,0.7,0.4,1.4,0.8,2
									c0.4,0.7,0.9,1.3,1.5,1.9c0.3-0.7,0.4-1.5,0.4-2.3c0-0.7-0.1-1.5-0.3-2.2c-0.2-0.7-0.4-1.4-0.8-2
									C657.7,286.1,657.2,285.5,656.7,285"/>
								<path class="st21" d="M646.1,286.3c-0.2,0.8-0.2,1.6,0,2.4c0.1,0.7,0.3,1.5,0.6,2.1c0.3,0.7,0.6,1.4,1.1,2
									c0.5,0.7,1,1.2,1.7,1.7c0.2-0.8,0.2-1.6,0.1-2.4c-0.1-0.7-0.3-1.5-0.6-2.2c-0.3-0.7-0.6-1.4-1.1-2
									C647.4,287.3,646.8,286.8,646.1,286.3"/>
							</g>
						</g>
					</g>
					<g>
						<g>
							<defs>
								
									<rect id="SVGID_22_" x="560.4" y="294.8" transform="matrix(0.9921 -0.1253 0.1253 0.9921 -32.9207 74.964)" width="37.8" height="8.6"/>
							</defs>
							<clipPath id="SVGID_23_">
								<use xlink:href="#SVGID_22_"  style="overflow:visible;"/>
							</clipPath>
							<g class="st22">
								<path class="st21" d="M597.2,292.5c-0.5,0.6-0.9,1.3-1.2,2.1c-0.6,1.4-0.8,2.9-0.7,4.4c0.1,0.8,0.3,1.6,0.6,2.4
									c0.6-0.6,1-1.3,1.3-2.1c0.6-1.4,0.8-2.9,0.7-4.4C597.8,294,597.6,293.2,597.2,292.5"/>
								<path class="st21" d="M588.3,293.6c-0.5,0.7-0.8,1.4-1,2.2c-0.2,0.7-0.3,1.4-0.3,2.2c0,0.7,0.1,1.5,0.2,2.2
									c0.2,0.8,0.5,1.5,0.9,2.2c0.5-0.6,0.8-1.4,1-2.1c0.4-1.4,0.4-2.9,0.1-4.3C589,295,588.7,294.3,588.3,293.6"/>
								<path class="st21" d="M579.3,294.8c-0.4,0.7-0.6,1.5-0.7,2.2c-0.2,1.4,0,2.9,0.5,4.3c0.3,0.7,0.7,1.4,1.2,2
									c0.4-0.7,0.6-1.5,0.7-2.2c0.1-0.7,0.1-1.4,0-2.2c-0.1-0.7-0.3-1.4-0.5-2.1C580.2,296,579.8,295.3,579.3,294.8"/>
								<path class="st21" d="M570.9,295.8c-0.3,0.7-0.4,1.5-0.4,2.3c0,0.7,0.1,1.5,0.3,2.2c0.2,0.7,0.4,1.4,0.8,2
									c0.4,0.7,0.9,1.3,1.5,1.9c0.3-0.7,0.4-1.5,0.4-2.3c0-0.7-0.1-1.5-0.3-2.2c-0.2-0.7-0.4-1.4-0.8-2
									C572,297,571.5,296.4,570.9,295.8"/>
								<path class="st21" d="M560.3,297.2c-0.2,0.8-0.2,1.6,0,2.4c0.2,1.5,0.8,2.9,1.7,4.1c0.5,0.7,1,1.2,1.7,1.7
									c0.2-0.8,0.2-1.6,0.1-2.4c-0.2-1.5-0.8-2.9-1.7-4.1C561.6,298.2,561,297.6,560.3,297.2"/>
							</g>
						</g>
					</g>
					<path class="st19" d="M533.7,175.2c0,0-23.4,9.7-40.2,30s-21.6,66.3,3.8,73.5c24.2,6.9,20.5-20.1,24.1-38.2
						s23.6-20.3,23.6-20.3L533.7,175.2z"/>
					<path class="st19" d="M540.8,220.8c0,0-35.8-12.1-42.2,11.5c0.1,0.4-2.3,14.1,8.1,13.8"/>
					<path class="st19" d="M680.1,220.1c0,0,21.3-4.3,36.1-28.5c13.7-22.4,23.7-50.1,2.4-57.3s-22.8,0.1-31.3,18.4
						c-8.2,17.8-17.8,23.3-17.8,23.3L680.1,220.1z"/>
					<path class="st19" d="M693.5,149.4c0,0,14.5,16.8,31.2,15.6c0,0,17.1-2.2,18.4-12.1s-9-13.6-9-13.6s3.6-12.1-5.2-16.9
						s-16.3,3.7-16.3,3.7s-11.8-4.4-18.2,2.6S691.3,147.9,693.5,149.4 M716,160.2c-6,0-10.9-4.8-11-10.9c0-6,4.8-10.9,10.9-11
						c6,0,10.9,4.8,11,10.8C726.9,155.2,722.1,160.1,716,160.2C716,160.2,716,160.2,716,160.2"/>
					<path class="st21" d="M701,148.2c0.1,7.1,5.9,12.8,13,12.8c7.1-0.1,12.8-5.9,12.8-13c-0.1-7.1-5.9-12.8-13-12.8
						C706.7,135.3,700.9,141.1,701,148.2C701,148.2,701,148.2,701,148.2"/>
					<path class="st23" d="M660.8,176.3c0,0-28.8,12.8-45.5,15.5C636.1,190,644.4,188.8,660.8,176.3z"/>
					<path class="st19" d="M533.9,175.8c0.7-0.8,16.8-7.2,17-8.2c5.8,1,91.3-9.7,93.8-9.7c4.6,0.1,39.3,0.2,39.3,0.2
						s3.4,12.8-31.7,28.1c-45,19.7-100.6-4.5-113.8-12.7C538.9,173.3,533.6,176.2,533.9,175.8z"/>
					<path class="st9" d="M501,209.1c-16.8,20.4-29,62.4-3.6,69.6c15.5,4.4,23.8-3.4,24.1-14.5c0.3-10.4-5.7-19.2-14.7-18
						c-9.2,1.2-8.6-11.4-8.6-11.4L501,209.1z"/>
					<path class="st24" d="M506.4,245.8c-0.3,0.3-0.5,0.6-0.8,0.8c-2.6,2.1-7.5,1.7-9.3-1.2c-3.1-4.9-4.9-10.5-5-16.3
						c-8.6,20.4-10.1,44.1,8.4,49.3c15.5,4.4,23.8-3.4,24.1-14.6c0.3-10.4-5.7-19.2-14.7-18C508.1,246,507.2,246,506.4,245.8z"/>
					<path class="st19" d="M501,209.1c-16.8,20.4-29,62.4-3.6,69.6c15.5,4.4,23.8-3.4,24.1-14.5c0.3-10.4-5.7-19.2-14.7-18
						c-9.2,1.2-8.6-11.4-8.6-11.4L501,209.1z"/>
					<g>
						<g>
							<defs>
								
									<rect id="SVGID_24_" x="499" y="260.2" transform="matrix(2.844498e-02 -0.9996 0.9996 2.844498e-02 230.7922 767.9109)" width="22.8" height="10.1"/>
							</defs>
							<clipPath id="SVGID_25_">
								<use xlink:href="#SVGID_24_"  style="overflow:visible;"/>
							</clipPath>
							<g class="st25">
								<path class="st26" d="M514.2,262.3c-0.7,0.4-1.5,0.7-2.3,0.8c-0.7,0.1-1.5,0.2-2.2,0.1c-0.7-0.1-1.5-0.2-2.2-0.4
									c-0.8-0.2-1.5-0.6-2.1-1.1c0.7-0.4,1.5-0.7,2.3-0.8c0.7-0.1,1.5-0.2,2.2-0.1c0.7,0.1,1.5,0.2,2.2,0.4
									C512.9,261.4,513.6,261.8,514.2,262.3"/>
								<path class="st26" d="M515.7,256.3c-0.8,0.3-1.6,0.4-2.4,0.4c-0.7,0-1.5-0.1-2.2-0.3c-0.7-0.2-1.4-0.4-2.1-0.8
									c-0.7-0.4-1.4-0.9-1.9-1.5c0.8-0.3,1.6-0.4,2.4-0.4c0.7,0,1.5,0.1,2.2,0.3c0.7,0.2,1.4,0.4,2.1,0.8
									C514.5,255.2,515.2,255.7,515.7,256.3"/>
								<path class="st26" d="M514.4,269.4c-0.7,0.5-1.4,0.8-2.2,1.1c-0.7,0.2-1.5,0.3-2.2,0.3c-0.7,0-1.5,0-2.2-0.2
									c-0.8-0.1-1.6-0.4-2.2-0.8c0.6-0.5,1.4-0.8,2.1-1.1c0.7-0.2,1.4-0.3,2.2-0.4c0.7,0,1.5,0,2.2,0.2
									C512.9,268.7,513.7,269,514.4,269.4"/>
								<path class="st26" d="M514.5,274.7c-0.6,0.5-1.3,1-2,1.2c-1.4,0.5-2.9,0.7-4.4,0.6c-0.8-0.1-1.6-0.3-2.3-0.6
									c0.6-0.5,1.3-1,2-1.2c0.7-0.3,1.4-0.5,2.1-0.6c0.7-0.1,1.5-0.1,2.2,0C513,274.1,513.8,274.3,514.5,274.7"/>
							</g>
						</g>
					</g>
					<path class="st27" d="M579.3,211.5c-6.3-2.7-12.4-5.7-18.2-9.2c-4.5-2.5-8.8-5.3-12.8-8.5c-3.3-2.7-6.2-5.7-8.8-9
						c-2.1-2.8-4.5-6.3-7.1-8.7l0.8-0.6c2.7-0.9,5.4-1.9,7.9-3.1c43.1,56.5,160.2,36.5,160.2,36.5c1.7,2.9,2.9,6.1,3.8,9.4
						c-24,4.3-45.6,9.1-69.9,6.8C615.9,223.2,597.1,219,579.3,211.5z"/>
					<g>
						<defs>
							<path id="SVGID_26_" d="M693.5,257.8c-0.7,8.6-30,17.4-63.7,8.4c-0.9-0.2-5.2-2.1-5.5-2.7c-0.5-13.3-2.1-38.4-2.3-53.2
								c1.4,0,5.5-2.1,6.6-2c37.9,3.1,56.3,3.1,60.7,1.9C690,231,694.1,250.8,693.5,257.8"/>
						</defs>
						<clipPath id="SVGID_27_">
							<use xlink:href="#SVGID_26_"  style="overflow:visible;"/>
						</clipPath>
						<g class="st28">
							<polygon class="st27" points="700.3,210.1 622.9,203.4 613.9,270.9 691.3,277.6 							"/>
						</g>
					</g>
					
						<linearGradient id="SVGID_28_" gradientUnits="userSpaceOnUse" x1="1037.2731" y1="99.5354" x2="1049.0725" y2="99.5354" gradientTransform="matrix(-1 -3.000000e-02 3.000000e-02 -1 1663.28 367.87)">
						<stop  offset="0" style="stop-color:#E13E30"/>
						<stop  offset="1" style="stop-color:#7A2124"/>
					</linearGradient>
					<path class="st29" d="M629,208.3c0,0,0.2,25.3,0.2,33.7c-0.1,16.1,1.6,24.3,1.6,24.3c-2.1,0.1-10.1-1.5-11.7-4l2.3-52.8
						C624,209.3,627.5,208.1,629,208.3L629,208.3"/>
					<g>
						<defs>
							<path id="SVGID_29_" d="M629,208.3c0,0,0.2,25.3,0.2,33.7c-0.1,16.1,1.6,24.3,1.6,24.3c-2.1,0.1-10.1-1.5-11.7-4l2.3-52.8
								C624,209.3,627.5,208.1,629,208.3L629,208.3"/>
						</defs>
						<clipPath id="SVGID_30_">
							<use xlink:href="#SVGID_29_"  style="overflow:visible;"/>
						</clipPath>
						<g class="st30">
							
								<linearGradient id="SVGID_31_" gradientUnits="userSpaceOnUse" x1="-3099.8386" y1="-1814.9639" x2="-3099.3484" y2="-1814.9639" gradientTransform="matrix(1.95 110.82 110.82 -1.95 207804.7812 340202.0312)">
								<stop  offset="0" style="stop-color:#E13E30"/>
								<stop  offset="1" style="stop-color:#C12227"/>
							</linearGradient>
							<polygon class="st31" points="613.5,207.8 613.9,266.9 638.8,266.3 638.4,207.2 							"/>
						</g>
					</g>
					<g>
						<defs>
							<path id="SVGID_32_" d="M679.6,209.8l11.5,0.1c1.7,9.6,4.3,19,7.6,28.1c-3.4,10.5-24.7,25.6-60.4,9.1
								c-8.1-8.4-9.4-38.8-9.4-38.8C651.6,209.3,669,209.8,679.6,209.8z"/>
						</defs>
						<clipPath id="SVGID_33_">
							<use xlink:href="#SVGID_32_"  style="overflow:visible;"/>
						</clipPath>
						<g class="st32">
							
								<linearGradient id="SVGID_34_" gradientUnits="userSpaceOnUse" x1="-3056.9636" y1="-1795.6532" x2="-3056.4136" y2="-1795.6532" gradientTransform="matrix(-134.2127 -14.6513 -14.6513 134.2127 -435869.7812 196451.5)">
								<stop  offset="0" style="stop-color:#E13E30"/>
								<stop  offset="1" style="stop-color:#B82326"/>
							</linearGradient>
							<polygon class="st33" points="702.6,208.8 629.7,202.5 622.2,259.1 695.1,265.4 							"/>
						</g>
					</g>
					<path class="st9" d="M653.5,235.8L653.5,235.8c-0.1,0-0.1,0-0.1-0.1l-0.1-0.4c0-0.1,0-0.2,0.1-0.2c0,0,0,0,0,0l3.5-0.8
						c0.1,0,0.1,0,0.2,0.1c0,0,0,0,0,0l0.1,0.4c0,0.1,0,0.2-0.1,0.2L653.5,235.8 M653.4,234L653.4,234c-0.1,0-0.2-0.1-0.2-0.2v-0.4
						c0-0.1,0.1-0.2,0.2-0.2h3.9c0.1,0,0.2,0.1,0.2,0.2v0.5c0,0.1-0.1,0.2-0.2,0.2L653.4,234 M671.1,233.9L671.1,233.9
						c-0.1,0-0.2-0.1-0.2-0.2v-0.4c0-0.1,0.1-0.2,0.2-0.2h3.5c0.1,0,0.2,0.1,0.2,0.2v0.4c0,0.1-0.1,0.2-0.2,0.2H671.1 M670.6,232.9
						L670.6,232.9c-0.1,0-0.2-0.1-0.2-0.1l-0.1-0.4c0-0.1,0-0.2,0.1-0.2c0,0,0,0,0,0l3.8-0.8c0.1,0,0.2,0,0.2,0.1l0.1,0.4
						c0,0.1,0,0.2-0.1,0.2L670.6,232.9 M664.1,231.9c0,0,0.1,0.7,1.2,0.8h0.2c1.2,0.1,1.8-1.4,1.8-1.4l1.1,0.8
						c-0.5,1.1-1.6,1.8-2.8,1.8c-0.7,0.1-1.4-0.2-2-0.6c-0.7,0.6-1.5,1-2.4,1c-1.3,0-2.3-1-2.5-2.2c0,0,0.3-0.2,1.1-0.1
						c0,0-0.1,0.9,1.5,1.1c0,0,1.3,0.1,1.7-1l-1.5-1.1l0.9-0.7l0.8,0.5l1-0.8l0.9,0.8L664.1,231.9 M658.9,230.5h-0.1
						c-0.3-0.1-0.6-0.2-0.9-0.4c-0.9-0.5-2-1-3.2,0.9c0,0-1,0.4-0.9-0.6c0,0,1.9-3.7,5.6-0.8C659.3,229.5,659.8,230.3,658.9,230.5
						 M672.9,229.2c0.2,0.9-0.6,0.8-0.8,0.8H672c-2.3-2.6-3.5,0.2-4.4,0.2s-0.6-0.9-0.6-0.9C670.3,225.9,672.8,229.2,672.9,229.2
						 M658.7,227.4c0,0.1-0.1,0.1-0.1,0.1l0,0l-0.5-0.1c-0.1,0-0.1-0.1-0.1-0.1l0.2-1.9c0-0.1,0.1-0.1,0.1-0.1l0.5,0.1
						c0,0,0.1,0,0.1,0.1c0,0,0,0,0,0L658.7,227.4 M657,227.1L657,227.1c0,0-0.1-0.1-0.1-0.1v-1.9c0,0,0-0.1,0.1-0.1l0,0h0.5
						c0.1,0,0.1,0,0.1,0.1v1.9c0,0,0,0.1-0.1,0.1l0,0H657 M668.2,226.9L668.2,226.9C668.2,226.9,668.1,226.8,668.2,226.9l-0.3-2
						c0-0.1,0-0.1,0.1-0.1l0.5-0.1c0.1,0,0.1,0,0.1,0.1l0.3,1.9c0,0.1,0,0.1-0.1,0.1L668.2,226.9 M669.2,226.5L669.2,226.5
						C669.2,226.5,669.1,226.5,669.2,226.5C669.1,226.4,669.1,226.4,669.2,226.5l-0.1-2c0-0.1,0-0.1,0.1-0.1h0.5
						c0.1,0,0.1,0,0.1,0.1v1.9c0,0.1,0,0.1-0.1,0.1L669.2,226.5 M655.2,225.2c-0.4,0.1-0.9,0.2-1.4,0.1c-0.5-0.1-1-0.3-1-0.9
						c0-0.1-0.7-6.1,0.5-6.7s2.8,1.8,2.8,1.8s2.3,2.4,1.7,3.7C657.2,224.1,656.3,224.8,655.2,225.2 M673.1,223.3c0,1-1.2,1-1.8,0.9
						c-0.2,0-0.3,0-0.5-0.1c-1.1-0.3-2-1-2.7-1.9c-0.7-1.2,1.5-3.7,1.5-3.7s1.5-2.5,2.7-1.9S673.1,223.2,673.1,223.3 M672.4,214.4
						c-0.1-0.1-0.2-0.1-0.3-0.1c-0.6-0.1-2.1,0.5-5.9,5.4c0,0-4.5-0.9-7,0.9c0,0-3.6-5.1-6.9-4.5c0,0-0.3-0.3-0.8,2
						c0,0-0.6,6.6,0.3,10.3c0,0-2.6,6,0.3,10.1c2.9,4.1,8.4,4.9,14,3.9s10.4-4.2,10.8-8.6s-2.3-7.8-2.3-8
						C674.6,225.8,674.9,218.5,672.4,214.4"/>
					<g>
						<defs>
							<path id="SVGID_35_" d="M653.5,235.8L653.5,235.8c-0.1,0-0.1,0-0.1-0.1l-0.1-0.4c0-0.1,0-0.2,0.1-0.2c0,0,0,0,0,0l3.5-0.8
								c0.1,0,0.1,0,0.2,0.1c0,0,0,0,0,0l0.1,0.4c0,0.1,0,0.2-0.1,0.2L653.5,235.8 M653.4,234L653.4,234c-0.1,0-0.2-0.1-0.2-0.2
								v-0.4c0-0.1,0.1-0.2,0.2-0.2h3.9c0.1,0,0.2,0.1,0.2,0.2v0.5c0,0.1-0.1,0.2-0.2,0.2L653.4,234 M671.1,233.9L671.1,233.9
								c-0.1,0-0.2-0.1-0.2-0.2v-0.4c0-0.1,0.1-0.2,0.2-0.2h3.5c0.1,0,0.2,0.1,0.2,0.2v0.4c0,0.1-0.1,0.2-0.2,0.2H671.1
								 M670.6,232.9L670.6,232.9c-0.1,0-0.2-0.1-0.2-0.1l-0.1-0.4c0-0.1,0-0.2,0.1-0.2c0,0,0,0,0,0l3.8-0.8c0.1,0,0.2,0,0.2,0.1
								l0.1,0.4c0,0.1,0,0.2-0.1,0.2L670.6,232.9 M664.1,231.9c0,0,0.1,0.7,1.2,0.8h0.2c1.2,0.1,1.8-1.4,1.8-1.4l1.1,0.8
								c-0.5,1.1-1.6,1.8-2.8,1.8c-0.7,0.1-1.4-0.2-2-0.6c-0.7,0.6-1.5,1-2.4,1c-1.3,0-2.3-1-2.5-2.2c0,0,0.3-0.2,1.1-0.1
								c0,0-0.1,0.9,1.5,1.1c0,0,1.3,0.1,1.7-1l-1.5-1.1l0.9-0.7l0.8,0.5l1-0.8l0.9,0.8L664.1,231.9 M658.9,230.5h-0.1
								c-0.3-0.1-0.6-0.2-0.9-0.4c-0.9-0.5-2-1-3.2,0.9c0,0-1,0.4-0.9-0.6c0,0,1.9-3.7,5.6-0.8C659.3,229.5,659.8,230.3,658.9,230.5
								 M672.9,229.2c0.2,0.9-0.6,0.8-0.8,0.8H672c-2.3-2.6-3.5,0.2-4.4,0.2s-0.6-0.9-0.6-0.9C670.3,225.9,672.8,229.2,672.9,229.2
								 M658.7,227.4c0,0.1-0.1,0.1-0.1,0.1l0,0l-0.5-0.1c-0.1,0-0.1-0.1-0.1-0.1l0.2-1.9c0-0.1,0.1-0.1,0.1-0.1l0.5,0.1
								c0,0,0.1,0,0.1,0.1c0,0,0,0,0,0L658.7,227.4 M657,227.1L657,227.1c0,0-0.1-0.1-0.1-0.1v-1.9c0,0,0-0.1,0.1-0.1l0,0h0.5
								c0.1,0,0.1,0,0.1,0.1v1.9c0,0,0,0.1-0.1,0.1l0,0H657 M668.2,226.9L668.2,226.9C668.2,226.9,668.1,226.8,668.2,226.9l-0.3-2
								c0-0.1,0-0.1,0.1-0.1l0.5-0.1c0.1,0,0.1,0,0.1,0.1l0.3,1.9c0,0.1,0,0.1-0.1,0.1L668.2,226.9 M669.2,226.5L669.2,226.5
								C669.2,226.5,669.1,226.5,669.2,226.5C669.1,226.4,669.1,226.4,669.2,226.5l-0.1-2c0-0.1,0-0.1,0.1-0.1h0.5
								c0.1,0,0.1,0,0.1,0.1v1.9c0,0.1,0,0.1-0.1,0.1L669.2,226.5 M655.2,225.2c-0.4,0.1-0.9,0.2-1.4,0.1c-0.5-0.1-1-0.3-1-0.9
								c0-0.1-0.7-6.1,0.5-6.7s2.8,1.8,2.8,1.8s2.3,2.4,1.7,3.7C657.2,224.1,656.3,224.8,655.2,225.2 M673.1,223.3
								c0,1-1.2,1-1.8,0.9c-0.2,0-0.3,0-0.5-0.1c-1.1-0.3-2-1-2.7-1.9c-0.7-1.2,1.5-3.7,1.5-3.7s1.5-2.5,2.7-1.9
								S673.1,223.2,673.1,223.3 M672.4,214.4c-0.1-0.1-0.2-0.1-0.3-0.1c-0.6-0.1-2.1,0.5-5.9,5.4c0,0-4.5-0.9-7,0.9
								c0,0-3.6-5.1-6.9-4.5c0,0-0.3-0.3-0.8,2c0,0-0.6,6.6,0.3,10.3c0,0-2.6,6,0.3,10.1c2.9,4.1,8.4,4.9,14,3.9s10.4-4.2,10.8-8.6
								s-2.3-7.8-2.3-8C674.6,225.8,674.9,218.5,672.4,214.4"/>
						</defs>
						<clipPath id="SVGID_36_">
							<use xlink:href="#SVGID_35_"  style="overflow:visible;"/>
						</clipPath>
						<g class="st34">
							
								<rect x="647.3" y="213.3" transform="matrix(2.618018e-03 -1 1 2.618018e-03 433.4615 891.6545)" class="st9" width="32.8" height="30.5"/>
						</g>
					</g>
					<path class="st9" d="M682.6,235.2h-0.2c-0.8,0-1.5-0.8-1.4-1.6c0-0.8,0.8-1.5,1.6-1.4s1.5,0.8,1.4,1.6
						C684,234.5,683.4,235.1,682.6,235.2 M684.5,230c-0.2-0.1-0.4-0.2-0.6-0.2c-0.6,0-1.2,0.2-1.6,0.7c0,0-1.6-0.6-2.5,0.3
						c-0.6,0.8-0.7,2-0.2,2.9c0,0-0.4,3.1-3.7,7.1s8.6,7.9,8-4.9c0,0,2.4-0.3,2.5-1.6c0.1-0.8-0.4-1.6-1.2-1.9
						C685.2,232.3,685.7,230.7,684.5,230"/>
					<g>
						<defs>
							<path id="SVGID_37_" d="M682.6,235.2h-0.2c-0.8,0-1.5-0.8-1.4-1.6c0-0.8,0.8-1.5,1.6-1.4s1.5,0.8,1.4,1.6
								C684,234.5,683.4,235.1,682.6,235.2 M684.5,230c-0.2-0.1-0.4-0.2-0.6-0.2c-0.6,0-1.2,0.2-1.6,0.7c0,0-1.6-0.6-2.5,0.3
								c-0.6,0.8-0.7,2-0.2,2.9c0,0-0.4,3.1-3.7,7.1s8.6,7.9,8-4.9c0,0,2.4-0.3,2.5-1.6c0.1-0.8-0.4-1.6-1.2-1.9
								C685.2,232.3,685.7,230.7,684.5,230"/>
						</defs>
						<clipPath id="SVGID_38_">
							<use xlink:href="#SVGID_37_"  style="overflow:visible;"/>
						</clipPath>
						<g class="st35">
							
								<rect x="669.6" y="231.5" transform="matrix(2.618018e-03 -1 1 2.618018e-03 439.0747 917.7161)" class="st9" width="19.9" height="14.5"/>
						</g>
					</g>
					
						<linearGradient id="SVGID_39_" gradientUnits="userSpaceOnUse" x1="569.0038" y1="427.8868" x2="691.5238" y2="427.8868" gradientTransform="matrix(-0.99 0.13 -0.13 -0.99 1294.3199 515.26)">
						<stop  offset="0" style="stop-color:#E13E30"/>
						<stop  offset="1" style="stop-color:#7A2124"/>
					</linearGradient>
					<path class="st36" d="M553.4,176.3c-2.3-2.4-2.5-3.3-2.1-6.9c0-0.2,1-2.9,1.3-2.7c8,4.1,14,7.2,37.9,7.3
						c10.4,0.3,20.7-0.6,30.9-2.7c36.7-5.6,46.7-13.1,50.2-18c0,0,4.2,7.8-3.7,15.2c-5.4,5.7-11.3,8.6-18.8,11.6
						c-12.6,5.1-25.9,8.1-39.4,8.9c-8.9,0.7-17.8,0.5-26.7-0.5C572.2,187.1,561.2,184.7,553.4,176.3z"/>
					
						<ellipse transform="matrix(0.9904 -0.1381 0.1381 0.9904 -21.1718 87.062)" class="st37" cx="616.7" cy="196.1" rx="13.9" ry="13.9"/>
					<path class="st38" d="M608.6,200.3c0.6,4.7,4.8,8,9.5,7.4c4.7-0.6,8-4.8,7.4-9.5c-0.6-4.7-4.8-8-9.5-7.4c0,0,0,0,0,0
						C611.3,191.4,608.1,195.7,608.6,200.3z"/>
					<path class="st9" d="M624.2,188c-3.8-4.3-10.3-4.7-14.5-0.9c-1,0.9-1.8,1.9-2.4,3c0,0,2.2-3.1,8.1-3.9
						C618.5,185.9,621.6,186.5,624.2,188z"/>
					<path class="st39" d="M619.3,209.7c-0.3,0.1-0.6,0.1-0.9,0.1l-0.9,0.1l-0.9-7.2l1.8-0.2L619.3,209.7z"/>
					<path class="st40" d="M630.5,195.2c0.1,0.8,0,1.6-0.1,2.4c-4.6,1.3-9.3,2.3-14,2.9c-4.2,0.5-8.5,0.7-12.7,0.6
						c-0.3-0.7-0.5-1.5-0.7-2.3C612.4,199.1,621.6,197.9,630.5,195.2z"/>
					<path class="st24" d="M545.8,222.2c0,0-20.9,1.3-25.7,27.9c0,0-1.7-5.6,3.4-15.5c4.2-8.2,12.3-13.6,21.5-14.3L545.8,222.2z"/>
					<path class="st41" d="M555.4,165.4c-0.4,0.3-5.4-2.8-6.1-3.2c-1.7-1-3.4-2-5.1-3.1c-3.3-2.3-6.3-5-9-8
						c-10.4-11.3-17.3-25.4-19.7-40.6c-2.1-12.5,0.6-25.9,5.5-37.2c0.3-0.7,0.6-1.4,0.8-2.1C537.4,83.4,567.8,155.4,555.4,165.4z"/>
					<path class="st42" d="M624.3,171.8c46.9-10,82.8-28,75-84.8c-7.1-52-59.7-76.2-99.6-69.7c-44.8,7.2-88.7,41.7-82.1,88.2
						C526.8,171.8,575.3,182.3,624.3,171.8z"/>
					<path class="st41" d="M622.1,169.4c45.6-9.7,78-30.5,70.5-85.8c-6.9-50.6-55.6-70.8-94.4-64.5c-43.6,7.1-86.2,40.5-79.8,85.8
						C527.4,169.3,574.5,179.6,622.1,169.4z"/>
					<path class="st41" d="M573.3,28c0,0-21.3-18.3-35.3-17.6s-14.7,20.9-13.7,61.4"/>
					<path class="st42" d="M629.3,22.2c0,0,25.2-28.3,37.3-20.9S681.9,52,681.9,52"/>
					<path class="st9" d="M619.2,167.3c44-9.4,75.2-29.4,68-82.7c-6.7-48.8-53.6-68.3-91.1-62.2c-42,6.8-83.1,39.1-77,82.8
						C527.9,167.2,573.3,177.1,619.2,167.3z"/>
					<path class="st21" d="M558.7,34.5c0,0,5.3-3.2,0.2-9.5s-15.4-12.1-20.3-10.8s-8.7,8.5-7.2,22.6s5.7,16,11.1,11
						S558.7,34.5,558.7,34.5z"/>
					<path class="st21" d="M667.8,40.1c0,0-12.3-5.2-19.4-9.9s-4.8-7.9-0.6-12.8s13.6-13.1,21.5-9.1c0,0,5.7,5.9,5.1,21.4
						S668.5,40.5,667.8,40.1z"/>
					<path class="st9" d="M563.8,22.3c0,0,4.8,3.9,3.5,6.2c-1,1.7-3,2.6-5,2.2c-0.7-0.3,0.3-3-3.7-7.2c-3.6-3.5-7.6-6.5-12.1-8.8
						c-3-1.6-7.3-2.3-10.4-0.5s-3.6,5.2-4.8,1.7c-0.7-2.3,2.9-5.4,8.2-5S553.7,14.6,563.8,22.3z"/>
					<path class="st9" d="M640.1,34c0.3,0.2,2-14.5,13.2-21.8S669.4,9,671,10.8c-0.9-3.6-2.9-11.6-11.4-8.9s-15.8,5.9-28.7,20.5
						C631,24.4,630.9,29.6,640.1,34z"/>
					<path class="st43" d="M546.5,43.8c0,0,1.5-2-0.8-4.3s-6.1-4-8.6-5.4s-3.8-5.1-4.1-6.3s-0.9-1-1.2-0.1s-0.8,7.7,0.7,14.9
						s4.3,7.7,5.2,7.5c1.4-0.2,2.6-0.8,3.7-1.7C542.7,47.1,545.6,44.4,546.5,43.8z"/>
					<path class="st43" d="M670.2,14.5c0,0,0.6-2.6-1.5-3.8s-9.7-1.9-18.1,5s-5.7,10.5-4.5,11.7s4.2,2.2,5.5,3.9
						c-2.8-3.8-4.1-4.7-3.6-7.9S663.1,6.3,670.2,14.5z"/>
					<path class="st44" d="M530.9,24.2c0,0,1.1,18.7,3.5,23.7s7.1,1.7,7.1,1.7c-2.1,1.9-5.1,2.1-7.5,0.6
						C529.5,47.6,530.2,32,530.9,24.2z"/>
					<path class="st26" d="M605.8,100.6c1.3-0.3,3.3-1.5,5.6-5s0.1-7-3.7-6.9s-7.8,0.9-9.3,2.7c-1.4,1.8,0.3,6.2,1.7,7.2
						C601.5,99.6,603.2,101.2,605.8,100.6z"/>
					<path class="st45" d="M559,59c0.6-0.1,0.9-0.7,0.8-1.3c0,0,0,0,0,0L557,46.2c-0.1-0.6-0.7-0.9-1.3-0.8
						c-0.6,0.1-0.9,0.7-0.8,1.3l2.7,11.6c0.1,0.6,0.7,0.9,1.3,0.8C558.9,59,559,59,559,59z"/>
					<path class="st45" d="M551.1,61.5c0.5-0.4,0.6-1,0.2-1.5c0,0,0,0,0,0l-7.4-9.3c-0.3-0.5-1-0.6-1.5-0.3c-0.5,0.3-0.6,1-0.3,1.5
						c0,0,0,0.1,0.1,0.1l7.4,9.3C550,61.8,550.7,61.9,551.1,61.5z"/>
					<path class="st45" d="M644,49.3c0.5-0.1,0.8-0.5,0.8-1V38c0-0.6-0.5-1.1-1.1-1.1c-0.6,0-1.1,0.5-1.1,1.1c0,0,0,0,0,0v10.3
						c0,0.6,0.5,1.1,1.1,1.1l0,0C643.8,49.4,643.9,49.4,644,49.3z"/>
					<path class="st45" d="M651.1,52.6c0.5,0.1,1-0.1,1.2-0.5l4.9-9.1c0.3-0.5,0.1-1.2-0.5-1.5c-0.5-0.3-1.2-0.1-1.5,0.4
						c0,0,0,0,0,0l-4.9,9.1c-0.3,0.5-0.1,1.2,0.4,1.5L651.1,52.6z"/>
					<path class="st45" d="M545.1,104.1c1-0.2,1.5-0.4,1.6-0.4c0.6-0.2,0.9-0.8,0.7-1.3c0,0,0,0,0,0c-0.2-0.6-0.8-0.9-1.3-0.7
						c0,0,0,0,0,0c-6.7,1.6-13.7,0.7-19.8-2.4c-0.5-0.3-1.2-0.1-1.5,0.5c-0.3,0.5-0.1,1.2,0.5,1.4
						C531.4,104.3,538.4,105.4,545.1,104.1z"/>
					<path class="st45" d="M545.2,116c1.5-0.3,2.3-0.5,2.5-0.6c0.6-0.1,1-0.7,0.8-1.3c-0.1-0.6-0.7-1-1.3-0.8c0,0-0.1,0-0.1,0
						c-0.1,0-10.8,2.9-21,0.3c-0.6-0.1-1.2,0.2-1.3,0.8s0.2,1.2,0.8,1.3l0,0C533.4,117.8,541.3,116.8,545.2,116z"/>
					<path class="st45" d="M541.5,128.3c3.6-0.7,7.1-1.7,10.5-2.9c0.5-0.3,0.7-0.9,0.4-1.5c-0.2-0.4-0.7-0.6-1.2-0.5
						c-0.1,0-10.4,3.8-19.1,3.7c-0.6,0-1.1,0.5-1.1,1.1s0.5,1.1,1.1,1.1C535.4,129.3,538.5,128.9,541.5,128.3z"/>
					<path class="st45" d="M676.5,95.3c4.1-0.8,8-2.5,11.3-5.1c0.4-0.3,0.5-0.9,0.2-1.3s-0.9-0.5-1.3-0.2
						c-4.7,3.6-10.6,5.4-16.5,5.1c-0.5,0-0.9,0.4-1,0.9c0,0.5,0.3,0.8,0.7,0.9C672.2,95.9,674.4,95.7,676.5,95.3z"/>
					<path class="st45" d="M682,105.1c2.7-0.5,5.4-1.3,7.9-2.5c0.5-0.2,0.8-0.7,0.6-1.2c-0.2-0.5-0.7-0.8-1.2-0.6
						c-0.1,0-0.1,0-0.2,0.1c-8.3,3.8-17.8,3-17.9,3c-0.5-0.1-1,0.3-1,0.8c-0.1,0.5,0.3,1,0.8,1C674.7,106.1,678.4,105.8,682,105.1z"
						/>
					<path class="st46" d="M657.5,85.6c0,0-9.2-3.4-27.1,1.4s-8.2-8.7,11.9-11.1S671.7,85.3,657.5,85.6z"/>
					<path class="st46" d="M580.3,94.7c0,0-9.5-2.8-26.9,3.3s-8.8-8.1,11.1-11.9C584.4,82.3,594.4,93.4,580.3,94.7z"/>
					<path class="st45" d="M583.7,88.9c0.2-0.1,0.4-0.1,0.6-0.3c1-0.7,1.3-2,0.7-3.1c-0.3-0.5-8.2-12.3-23.2-10
						c-15,2.3-18.6,16.4-18.7,17c-0.2,1.2,0.6,2.4,1.8,2.6c1.1,0.2,2.2-0.5,2.5-1.6c0.1-0.5,3-11.9,15-13.7
						c12.2-1.8,18.7,8,18.8,8.1C581.6,88.9,582.7,89.2,583.7,88.9z"/>
					<path class="st45" d="M658.7,73.8c0.2-0.1,0.4-0.2,0.6-0.3c1-0.7,1.3-2.1,0.6-3.1c-0.4-0.5-8.8-12.4-23.7-9
						c-14.8,3.4-17.7,17.3-17.8,17.9c-0.2,1.2,0.6,2.4,1.8,2.6c1.2,0.2,2.3-0.5,2.6-1.7l0,0c0.1-0.5,2.6-11.6,14.5-14.4
						c11.9-2.8,19,7.1,19,7.2C656.8,73.8,657.8,74.1,658.7,73.8z"/>
					<path class="st26" d="M579.7,113c1.3-0.7,2.8-0.6,4,0.3c3.5,2.3,7.8,3,11.9,2.1c10-2.4,8.6-14.2,8.4-15.7l4.2-0.8
						c0.3,1.5,3.4,12.9,13.6,11.4c4.1-0.7,7.8-3,10.2-6.4c0.8-1.2,2.2-1.9,3.6-1.7c2.3,0.4,0.1,5.4-5.4,9.1
						c-6.5,4.3-17.1,5.1-22.1-1.5c-2.2,8-12.4,11.2-20,9.6C581.6,118,577.6,114.2,579.7,113z"/>
				</g>
			</g>
			
				<image style="overflow:visible;opacity:0.57;enable-background:new    ;" width="598" height="115" xlink:href="237B90ED81C41039.png"  transform="matrix(1 0 0 1 78.11 498.44)">
			</image>
			<path class="st47" d="M620.6,578.5L125,593.9c-19.9,0.7-36.1-14.1-36.1-33.2l0,0c0-19.1,16.2-35.1,36.1-35.8l495.6-15.4
				c19.9-0.7,36,14.1,36,33.2l0,0C656.6,561.8,640.5,577.8,620.6,578.5z"/>
			<text transform="matrix(1.1418 -5.000000e-02 0 1 115.8603 573.0497)" class="st9 st48 st49">Quay hng say - qu mi ngy</text>
			<text transform="matrix(1 -5.000000e-02 0 1 347.7398 561.4556)" class="st9 st48 st49">   </text>
		</g>
	</g>
</g>
</svg>
