<svg xmlns="http://www.w3.org/2000/svg" xmlns:xlink="http://www.w3.org/1999/xlink" viewBox="0 0 250 76.28"><defs><style>.cls-1{fill:url(#linear-gradient);}.cls-2{fill:url(#linear-gradient-2);}.cls-3{fill:url(#linear-gradient-3);}.cls-4{fill:url(#linear-gradient-4);}.cls-5{fill:url(#linear-gradient-11);}.cls-6{fill:url(#linear-gradient-14);}.cls-7{fill:url(#linear-gradient-15);}.cls-8{fill:url(#linear-gradient-17);}.cls-9{fill:url(#linear-gradient-18);}.cls-10{fill:url(#linear-gradient-26);}</style><linearGradient id="linear-gradient" y1="38.14" x2="250" y2="38.14" gradientUnits="userSpaceOnUse"><stop offset="0" stop-color="#fff"/><stop offset="1" stop-color="#fff"/></linearGradient><linearGradient id="linear-gradient-2" x1="27.64" y1="36.58" x2="70.6" y2="36.58" gradientUnits="userSpaceOnUse"><stop offset="0" stop-color="#792024"/><stop offset="1" stop-color="#e23c30"/></linearGradient><linearGradient id="linear-gradient-3" x1="11.98" y1="50.86" x2="30.25" y2="50.86" xlink:href="#linear-gradient-2"/><linearGradient id="linear-gradient-4" x1="83.98" y1="28.06" x2="235.49" y2="28.06" xlink:href="#linear-gradient-2"/><linearGradient id="linear-gradient-11" x1="83.98" y1="33.98" x2="235.49" y2="33.98" xlink:href="#linear-gradient-2"/><linearGradient id="linear-gradient-14" x1="84.35" y1="48.46" x2="234.18" y2="48.46" xlink:href="#linear-gradient-2"/><linearGradient id="linear-gradient-15" x1="84.35" y1="49.89" x2="234.18" y2="49.89" xlink:href="#linear-gradient-2"/><linearGradient id="linear-gradient-17" x1="84.35" y1="48.12" x2="234.18" y2="48.12" xlink:href="#linear-gradient-2"/><linearGradient id="linear-gradient-18" x1="84.35" y1="48.15" x2="234.18" y2="48.15" xlink:href="#linear-gradient-2"/><linearGradient id="linear-gradient-26" x1="84.35" y1="51.48" x2="234.18" y2="51.48" xlink:href="#linear-gradient-2"/></defs><title>Asset 41</title><g id="Layer_2" data-name="Layer 2"><g id="Layer_1-2" data-name="Layer 1"><rect class="cls-1" width="250" height="76.28" rx="9.99"/><path class="cls-2" d="M68.89,36.36c1.48-6,.53-16.89.53-16.89-.86-3.75-1.34-3.28-1.34-3.28-5.51-1.05-11.41,7.42-11.41,7.42-4.09-2.95-11.42-1.43-11.42-1.43-8.56-11.13-10.18-8.75-10.18-8.75C31,20.19,31.46,32.08,31.46,32.08c0,.33-4.33,6-3.76,13.08s8.56,12.42,17.65,14.13,18.22.28,23-6.38S68.89,36.36,68.89,36.36Zm-11.6-4.81.88-.12a.16.16,0,0,1,.17.14l.42,3.13a.16.16,0,0,1-.14.18l-.87.11a.16.16,0,0,1-.18-.13l-.41-3.13A.16.16,0,0,1,57.29,31.55Zm-.69,6.78c6.17-4.67,9.24,1.4,9.24,1.4,0,1.65-1.55,1.08-1.55,1.08-3-4.82-5.52-.58-7-.84S56.6,38.33,56.6,38.33Zm2.69-4.11,0-3.16a.15.15,0,0,1,.15-.15h.89a.16.16,0,0,1,.15.16l0,3.16a.17.17,0,0,1-.17.16h-.87A.16.16,0,0,1,59.29,34.22ZM35.36,17c2-.95,4.5,3.21,4.5,3.21s3.58,4.09,2.47,6.15-4.47,3.1-4.47,3.1S34.06,30.33,34,28C34,27.82,33.33,17.9,35.36,17Zm7.17,13.71-.44,3.12a.16.16,0,0,1-.18.14L41,33.8a.16.16,0,0,1-.13-.18l.43-3.13a.16.16,0,0,1,.18-.13l.87.12A.16.16,0,0,1,42.53,30.66ZM40.38,30v3.15a.16.16,0,0,1-.16.16h-.88a.16.16,0,0,1-.16-.16V30a.16.16,0,0,1,.16-.16h.88A.16.16,0,0,1,40.38,30Zm-2.9,15.17a.29.29,0,0,1-.29.29h-5.7a.29.29,0,0,1-.29-.29v-.61a.3.3,0,0,1,.29-.29h5.7a.3.3,0,0,1,.29.29ZM38.62,43l-.14.67a.28.28,0,0,1-.32.21L31.94,42.5a.26.26,0,0,1-.21-.31l.14-.67a.27.27,0,0,1,.32-.21l6.22,1.33A.27.27,0,0,1,38.62,43Zm-2.88-3.82s-1.7.31-1.4-1.31c0,0,4.14-5.49,9.63.12,0,0,.52,1.48-1,1.5S39.62,34.89,35.74,39.14Zm18,7.19a6.07,6.07,0,0,1-4-1.69,4.54,4.54,0,0,1-3.21,1,5,5,0,0,1-4.57-3l1.77-1.33s.82,2.38,2.88,2.27,2.18-1.34,2.18-1.34l-1.72-1.67,1.55-1.3,1.73,1.28,1.38-.85,1.41,1.2-2.39,1.85c.51,1.82,2.72,1.62,2.72,1.62C56.11,43.9,56,42.51,56,42.51c1.32-.26,1.81.13,1.81.13A4.22,4.22,0,0,1,53.72,46.33Zm12.84,1.56-.16.68a.24.24,0,0,1-.29.18l-5.67-1.34a.26.26,0,0,1-.17-.3l.16-.67a.24.24,0,0,1,.29-.19l5.66,1.35A.24.24,0,0,1,66.56,47.89Zm0-2.5a.28.28,0,0,1-.28.27l-6.36,0a.27.27,0,0,1-.27-.28v-.67a.28.28,0,0,1,.28-.27l6.36,0a.27.27,0,0,1,.27.27ZM67.25,30c-.18,2.34-3.93,1.23-3.93,1.23S60,30,59,27.87s2.78-6,2.78-6,2.68-4,4.66-3S67.26,29.8,67.25,30Z"/><path class="cls-3" d="M29.32,56.74c-5.38-6.58-6.08-11.69-6.08-11.69A4.06,4.06,0,0,0,23,40.37c-1.47-1.57-4.13-.55-4.13-.55s-1.71-1.92-3.7-.83S14,42.83,14,42.83s-2.32.86-2,3.09,4.19,2.71,4.19,2.71C15.12,69.69,34.69,63.33,29.32,56.74ZM18.17,47.52a2.48,2.48,0,1,1,2.47-2.47A2.47,2.47,0,0,1,18.17,47.52Z"/><path class="cls-4" d="M88,35.21A7.74,7.74,0,0,1,85,32.29a8.48,8.48,0,0,1,0-8.46A7.8,7.8,0,0,1,88,20.91a9.21,9.21,0,0,1,4.41-1.05,9.33,9.33,0,0,1,3.73.72A7.56,7.56,0,0,1,99,22.67l-2.36,2.17a5.07,5.07,0,0,0-4-1.86,5.31,5.31,0,0,0-2.63.65,4.58,4.58,0,0,0-1.8,1.8,5.65,5.65,0,0,0,0,5.26,4.58,4.58,0,0,0,1.8,1.8,5.31,5.31,0,0,0,2.63.65,5.06,5.06,0,0,0,4-1.88L99,33.43a7.29,7.29,0,0,1-2.82,2.11,9.18,9.18,0,0,1-3.74.73A9,9,0,0,1,88,35.21Z"/><path class="cls-4" d="M111.57,32.6H104.2L102.8,36H99l7.07-15.87h3.63L116.83,36H113Zm-1.16-2.79-2.51-6.08-2.52,6.08Z"/><path class="cls-4" d="M121,23.12H115.9v-3h13.82v3h-5.07V36H121Z"/><path class="cls-4" d="M145.48,29.18a4,4,0,0,1,.77,2.49,3.65,3.65,0,0,1-1.62,3.2A8.28,8.28,0,0,1,139.9,36h-8.2V20.13h7.75a7.58,7.58,0,0,1,4.45,1.11,3.49,3.49,0,0,1,1.55,3,3.78,3.78,0,0,1-2.1,3.49A4.27,4.27,0,0,1,145.48,29.18Zm-10.14-6.29v3.74H139a3.69,3.69,0,0,0,2.07-.47,1.62,1.62,0,0,0,.7-1.41,1.57,1.57,0,0,0-.7-1.39,3.77,3.77,0,0,0-2.07-.47Zm6.48,9.86a1.61,1.61,0,0,0,.73-1.47c0-1.31-1-2-2.92-2h-4.29v3.92h4.29A4.07,4.07,0,0,0,141.82,32.75Z"/><path class="cls-4" d="M159.48,32.6h-7.36L150.71,36H147L154,20.13h3.63L164.74,36h-3.85Zm-1.15-2.79-2.52-6.08-2.51,6.08Z"/><path class="cls-4" d="M169.38,35.21a7.74,7.74,0,0,1-3.08-2.92,8.48,8.48,0,0,1,0-8.46,7.8,7.8,0,0,1,3.08-2.92,9.15,9.15,0,0,1,4.41-1.05,9.36,9.36,0,0,1,3.73.72,7.44,7.44,0,0,1,2.79,2.09L178,24.84A5.09,5.09,0,0,0,174,23a5.31,5.31,0,0,0-2.63.65,4.58,4.58,0,0,0-1.8,1.8,5.65,5.65,0,0,0,0,5.26,4.58,4.58,0,0,0,1.8,1.8,5.31,5.31,0,0,0,2.63.65,5.08,5.08,0,0,0,4-1.88l2.35,2.17a7.18,7.18,0,0,1-2.81,2.11,9.18,9.18,0,0,1-3.74.73A9,9,0,0,1,169.38,35.21Z"/><path class="cls-4" d="M188.56,29.76,186.43,32v4h-3.65V20.13h3.65v7.41l7-7.41h4.08L191,27.2l7,8.8h-4.29Z"/><path class="cls-5" d="M199.08,35.54a2.15,2.15,0,0,1-.63-1.58,2.09,2.09,0,0,1,.63-1.58,2.34,2.34,0,0,1,3.13,0,2.09,2.09,0,0,1,.63,1.58,2.15,2.15,0,0,1-.63,1.58,2.23,2.23,0,0,1-3.13,0Z"/><path class="cls-4" d="M219.89,20.13,213,36h-3.63l-6.84-15.87h4l4.82,11.33,4.9-11.33Z"/><path class="cls-4" d="M235.76,20.13V36h-3l-7.91-9.64V36H221.2V20.13h3l7.89,9.63V20.13Z"/><path class="cls-6" d="M86.67,53.42a5.43,5.43,0,0,1-2.08-2,5.92,5.92,0,0,1,0-5.84,5.43,5.43,0,0,1,2.08-2,6,6,0,0,1,3-.74,6.25,6.25,0,0,1,2.25.39,4.5,4.5,0,0,1,1.75,1.17l-.51.53a4.7,4.7,0,0,0-3.45-1.34,5.27,5.27,0,0,0-2.57.64,4.72,4.72,0,0,0-1.82,1.78,5.18,5.18,0,0,0,0,5.06,4.76,4.76,0,0,0,1.82,1.77,5.16,5.16,0,0,0,2.57.64,4.74,4.74,0,0,0,3.45-1.34l.51.53a4.77,4.77,0,0,1-1.76,1.17,6.41,6.41,0,0,1-5.22-.34Z"/><path class="cls-7" d="M102.08,46.43a3.06,3.06,0,0,1,.84,2.33v5.32h-.77V52.59A2.77,2.77,0,0,1,101,53.73a3.79,3.79,0,0,1-1.84.41,3.41,3.41,0,0,1-2.21-.66,2.27,2.27,0,0,1-.06-3.42,3.53,3.53,0,0,1,2.38-.65h2.87v-.68a2.37,2.37,0,0,0-.63-1.78,2.55,2.55,0,0,0-1.85-.61,4.32,4.32,0,0,0-1.6.29,3.92,3.92,0,0,0-1.29.77l-.41-.58a4.59,4.59,0,0,1,1.51-.88,5.75,5.75,0,0,1,1.85-.31A3.32,3.32,0,0,1,102.08,46.43ZM101,53a2.85,2.85,0,0,0,1.1-1.39V50H99.26a2.83,2.83,0,0,0-1.79.45,1.51,1.51,0,0,0-.56,1.24A1.55,1.55,0,0,0,97.52,53a2.73,2.73,0,0,0,1.72.47A3.12,3.12,0,0,0,101,53Z"/><path class="cls-7" d="M107.29,53.84a4.08,4.08,0,0,1-1.43-.77l.37-.65a4.34,4.34,0,0,0,1.32.73,5.09,5.09,0,0,0,1.69.29,3.35,3.35,0,0,0,1.88-.42,1.34,1.34,0,0,0,.6-1.16,1.07,1.07,0,0,0-.33-.83,1.89,1.89,0,0,0-.81-.45,13.3,13.3,0,0,0-1.34-.31,10.26,10.26,0,0,1-1.6-.38,2.55,2.55,0,0,1-1-.68,1.85,1.85,0,0,1-.43-1.28,2,2,0,0,1,.83-1.65,3.74,3.74,0,0,1,2.35-.65,5.71,5.71,0,0,1,1.59.23,4.06,4.06,0,0,1,1.29.59l-.37.64a4.15,4.15,0,0,0-1.18-.56,4.74,4.74,0,0,0-1.35-.19,3,3,0,0,0-1.76.43,1.35,1.35,0,0,0-.6,1.14,1.16,1.16,0,0,0,.34.88,2.1,2.1,0,0,0,.83.46c.32.1.78.21,1.37.33a12.76,12.76,0,0,1,1.58.38,2.38,2.38,0,0,1,1,.65,1.74,1.74,0,0,1,.42,1.24,2,2,0,0,1-.87,1.67,4.15,4.15,0,0,1-2.44.62A6.12,6.12,0,0,1,107.29,53.84Z"/><path class="cls-8" d="M122.22,46.55a3.57,3.57,0,0,1,.92,2.63v4.9h-.81V49.24a3,3,0,0,0-.71-2.15,2.68,2.68,0,0,0-2-.74,3.08,3.08,0,0,0-2.33.89,3.26,3.26,0,0,0-.85,2.37v4.47h-.8V42.16h.8v5.29a3.07,3.07,0,0,1,1.28-1.34,4,4,0,0,1,2-.48A3.37,3.37,0,0,1,122.22,46.55Z"/><path class="cls-9" d="M138.63,46.17a3.86,3.86,0,0,1,1.49,1.51,4.85,4.85,0,0,1,0,4.41,4,4,0,0,1-1.49,1.51,4.21,4.21,0,0,1-2.12.54,3.88,3.88,0,0,1-2-.54,3.59,3.59,0,0,1-1.41-1.5v2h-.77V42.16h.81v5.45a3.62,3.62,0,0,1,1.39-1.46,4,4,0,0,1,2-.52A4.21,4.21,0,0,1,138.63,46.17ZM138.2,53a3.23,3.23,0,0,0,1.21-1.25,3.81,3.81,0,0,0,.44-1.83,3.75,3.75,0,0,0-.44-1.83,3.19,3.19,0,0,0-1.21-1.26,3.39,3.39,0,0,0-1.74-.45,3.32,3.32,0,0,0-1.72.45,3.26,3.26,0,0,0-1.21,1.26,3.75,3.75,0,0,0-.44,1.83,3.81,3.81,0,0,0,.44,1.83,3.26,3.26,0,0,0,2.93,1.7A3.39,3.39,0,0,0,138.2,53Z"/><path class="cls-7" d="M149.2,46.43a3.1,3.1,0,0,1,.83,2.33v5.32h-.77V52.59a2.8,2.8,0,0,1-1.17,1.14,3.8,3.8,0,0,1-1.85.41,3.42,3.42,0,0,1-2.21-.66,2.27,2.27,0,0,1-.06-3.42,3.55,3.55,0,0,1,2.38-.65h2.88v-.68A2.37,2.37,0,0,0,148.6,47a2.59,2.59,0,0,0-1.86-.61,4.32,4.32,0,0,0-1.6.29,3.92,3.92,0,0,0-1.29.77l-.4-.58a4.59,4.59,0,0,1,1.51-.88,5.69,5.69,0,0,1,1.84-.31A3.36,3.36,0,0,1,149.2,46.43ZM148.13,53a2.91,2.91,0,0,0,1.1-1.39V50h-2.86a2.85,2.85,0,0,0-1.79.45,1.5,1.5,0,0,0-.55,1.24,1.55,1.55,0,0,0,.61,1.29,2.7,2.7,0,0,0,1.71.47A3.18,3.18,0,0,0,148.13,53Z"/><path class="cls-7" d="M155.36,53.6a4,4,0,0,1-1.51-1.52,4.75,4.75,0,0,1,0-4.4,3.91,3.91,0,0,1,1.51-1.51,4.42,4.42,0,0,1,2.19-.54,4.17,4.17,0,0,1,1.84.4,3.36,3.36,0,0,1,1.34,1.14l-.6.44a2.86,2.86,0,0,0-1.11-.94,3.61,3.61,0,0,0-3.23.13A3.1,3.1,0,0,0,154.57,48a3.72,3.72,0,0,0-.44,1.85,3.68,3.68,0,0,0,.44,1.84A3.12,3.12,0,0,0,155.79,53a3.54,3.54,0,0,0,1.76.44,3.43,3.43,0,0,0,1.47-.31,2.86,2.86,0,0,0,1.11-.94l.6.43a3.39,3.39,0,0,1-1.34,1.15,4.3,4.3,0,0,1-1.84.39A4.42,4.42,0,0,1,155.36,53.6Z"/><path class="cls-8" d="M166.85,49.6l-2.19,2v2.49h-.8V42.16h.8v8.43L170,45.7h1l-3.61,3.38,4,5h-1Z"/><path class="cls-7" d="M184.38,46.43a3.06,3.06,0,0,1,.84,2.33v5.32h-.78V52.59a2.69,2.69,0,0,1-1.17,1.14,3.79,3.79,0,0,1-1.84.41,3.39,3.39,0,0,1-2.21-.66,2.1,2.1,0,0,1-.81-1.73,2.14,2.14,0,0,1,.74-1.69,3.58,3.58,0,0,1,2.39-.65h2.87v-.68a2.37,2.37,0,0,0-.63-1.78,2.56,2.56,0,0,0-1.86-.61,4.27,4.27,0,0,0-1.59.29,4.07,4.07,0,0,0-1.3.77l-.4-.58a4.59,4.59,0,0,1,1.51-.88,5.75,5.75,0,0,1,1.85-.31A3.33,3.33,0,0,1,184.38,46.43ZM183.31,53a2.85,2.85,0,0,0,1.1-1.39V50h-2.86a2.85,2.85,0,0,0-1.79.45,1.5,1.5,0,0,0-.55,1.24,1.55,1.55,0,0,0,.61,1.29,2.73,2.73,0,0,0,1.72.47A3.14,3.14,0,0,0,183.31,53Z"/><path class="cls-8" d="M189.39,42.16h.8V54.08h-.8Z"/><path class="cls-7" d="M206.43,45.7l-3.18,8.38h-.76l-2.82-7.28-2.84,7.28h-.74l-3.18-8.38h.77l2.79,7.48,2.86-7.48H200l2.84,7.46,2.83-7.46Z"/><path class="cls-7" d="M214.12,46.43a3.06,3.06,0,0,1,.84,2.33v5.32h-.78V52.59A2.69,2.69,0,0,1,213,53.73a3.79,3.79,0,0,1-1.84.41,3.39,3.39,0,0,1-2.21-.66,2.1,2.1,0,0,1-.81-1.73,2.14,2.14,0,0,1,.74-1.69,3.58,3.58,0,0,1,2.39-.65h2.87v-.68a2.37,2.37,0,0,0-.63-1.78,2.56,2.56,0,0,0-1.86-.61,4.27,4.27,0,0,0-1.59.29,4.07,4.07,0,0,0-1.3.77l-.4-.58a4.59,4.59,0,0,1,1.51-.88,5.75,5.75,0,0,1,1.85-.31A3.33,3.33,0,0,1,214.12,46.43ZM213.05,53a2.85,2.85,0,0,0,1.1-1.39V50h-2.86a2.85,2.85,0,0,0-1.79.45,1.5,1.5,0,0,0-.55,1.24,1.55,1.55,0,0,0,.61,1.29,2.73,2.73,0,0,0,1.72.47A3.14,3.14,0,0,0,213.05,53Z"/><path class="cls-10" d="M225.7,45.7l-4.31,9.52a3.75,3.75,0,0,1-1.11,1.57,2.46,2.46,0,0,1-1.5.47,3.24,3.24,0,0,1-1.09-.19,2.4,2.4,0,0,1-.86-.57l.41-.61a2.06,2.06,0,0,0,1.55.66,1.63,1.63,0,0,0,1.05-.34,3,3,0,0,0,.8-1.15l.45-1-3.77-8.35h.85l3.35,7.5,3.36-7.5Z"/><path class="cls-7" d="M228.41,53.84a4.17,4.17,0,0,1-1.43-.77l.37-.65a4.52,4.52,0,0,0,1.33.73,5,5,0,0,0,1.69.29,3.29,3.29,0,0,0,1.87-.42,1.34,1.34,0,0,0,.6-1.16,1.1,1.1,0,0,0-.32-.83,1.87,1.87,0,0,0-.82-.45,13,13,0,0,0-1.33-.31,10,10,0,0,1-1.6-.38,2.55,2.55,0,0,1-1.05-.68,1.8,1.8,0,0,1-.43-1.28,2,2,0,0,1,.83-1.65,3.74,3.74,0,0,1,2.35-.65,5.82,5.82,0,0,1,1.59.23,3.9,3.9,0,0,1,1.28.59l-.37.64a4,4,0,0,0-1.17-.56,4.74,4.74,0,0,0-1.35-.19,3,3,0,0,0-1.76.43,1.35,1.35,0,0,0-.6,1.14,1.12,1.12,0,0,0,.34.88,2,2,0,0,0,.83.46c.32.1.78.21,1.37.33a12.76,12.76,0,0,1,1.58.38,2.38,2.38,0,0,1,1,.65,1.74,1.74,0,0,1,.42,1.24,2,2,0,0,1-.87,1.67,4.17,4.17,0,0,1-2.44.62A6.19,6.19,0,0,1,228.41,53.84Z"/></g></g></svg>