<svg xmlns="http://www.w3.org/2000/svg" xmlns:xlink="http://www.w3.org/1999/xlink" viewBox="0 0 765.5 187.29"><defs><style>.cls-1{isolation:isolate;}.cls-2{fill:#fff;}.cls-3{fill:#6d0000;}.cls-4{fill:#ff8b00;}.cls-5{fill:#dd1b24;}.cls-6{fill:url(#linear-gradient);}.cls-7{fill:#ffdc7c;}.cls-8{fill:#fff6e6;}.cls-9{fill:none;stroke:#d47f02;stroke-miterlimit:10;}.cls-10{fill:#f98526;mix-blend-mode:multiply;}.cls-11{fill:#ff9d27;}.cls-12{fill:url(#linear-gradient-2);}.cls-13{fill:#ffdc01;}.cls-14{fill:#ffb703;}.cls-15{fill:url(#linear-gradient-3);}.cls-16{fill:url(#linear-gradient-4);}.cls-17{fill:url(#linear-gradient-5);}.cls-18,.cls-20,.cls-22{fill:#fff876;}.cls-18{opacity:0.86;}.cls-19{fill:url(#linear-gradient-6);}.cls-20{opacity:0.35;}.cls-21{fill:#e5890e;}.cls-22{opacity:0.52;}</style><linearGradient id="linear-gradient" x1="34.25" y1="110.49" x2="765" y2="110.49" gradientUnits="userSpaceOnUse"><stop offset="0" stop-color="#f34000"/><stop offset="0.74" stop-color="#f34000"/></linearGradient><linearGradient id="linear-gradient-2" x1="-451.8" y1="-151.28" x2="-389.41" y2="-151.28" gradientTransform="translate(425.39 -177.94) rotate(-47.84)" gradientUnits="userSpaceOnUse"><stop offset="0" stop-color="#ffca27"/><stop offset="0.62" stop-color="#ffa727"/></linearGradient><linearGradient id="linear-gradient-3" x1="-431.94" y1="-147.96" x2="-439.13" y2="-143.2" gradientTransform="translate(425.39 -177.94) rotate(-47.84)" gradientUnits="userSpaceOnUse"><stop offset="0" stop-color="#ffca27"/><stop offset="0.93" stop-color="#ff9d27"/></linearGradient><linearGradient id="linear-gradient-4" x1="-408.86" y1="-147.25" x2="-401.91" y2="-143.21" xlink:href="#linear-gradient-3"/><linearGradient id="linear-gradient-5" x1="-410.55" y1="-152.39" x2="-421.73" y2="-150.19" xlink:href="#linear-gradient-3"/><linearGradient id="linear-gradient-6" x1="-420.26" y1="-130.75" x2="-420.26" y2="-127.38" xlink:href="#linear-gradient-3"/></defs><g class="cls-1"><g id="Layer_2" data-name="Layer 2"><g id="Layer_1-2" data-name="Layer 1"><rect class="cls-2" x="42.16" y="40.75" width="715.22" height="139.4" rx="16.85"/><path class="cls-3" d="M77.35,90.21V86.88h3.87V76.6H77.89V74.05a14.74,14.74,0,0,0,2.46-.67,14.13,14.13,0,0,0,2-.95h3V86.88h3.33v3.33Z"/><path class="cls-3" d="M94.38,90.54a2.36,2.36,0,0,1-1.78-.74A2.52,2.52,0,0,1,91.89,88a2.58,2.58,0,0,1,.71-1.87,2.51,2.51,0,0,1,3.56,0A2.62,2.62,0,0,1,96.87,88a2.56,2.56,0,0,1-.71,1.83A2.36,2.36,0,0,1,94.38,90.54Z"/><path class="cls-3" d="M109.89,90.21V75.42h-5V72h14.17v3.47h-5V90.21Z"/><path class="cls-3" d="M121.9,90.21V72h11.43v3.47H126v3.67h6.21v3.45H126v4.19h7.58v3.48Zm1.15-20.27,2.52-3.11h4.48l2.52,3.11L130.78,71l-2.91-2.35h-.12L124.84,71Z"/><path class="cls-3" d="M137.24,90.21V72h4.23L146.23,81l1.79,4h.12c-.1-1-.2-2.06-.32-3.25a31.76,31.76,0,0,1-.19-3.42V72h3.92V90.21h-4.22l-4.76-9.1-1.8-4h-.11c.09,1,.2,2.09.32,3.25a32.67,32.67,0,0,1,.18,3.36v6.47Z"/><path class="cls-3" d="M169.08,90.54a9,9,0,0,1-3.28-.6,7.7,7.7,0,0,1-2.7-1.78,8.45,8.45,0,0,1-1.83-2.92,11.24,11.24,0,0,1-.67-4,11,11,0,0,1,.7-4,9.1,9.1,0,0,1,1.87-3,7.84,7.84,0,0,1,2.75-1.88,8.55,8.55,0,0,1,3.3-.64,6.78,6.78,0,0,1,3.16.71A8.7,8.7,0,0,1,174.71,74l-2.19,2.63a6.62,6.62,0,0,0-1.47-1,3.68,3.68,0,0,0-1.75-.41,4,4,0,0,0-1.75.41,4,4,0,0,0-1.42,1.16,5.87,5.87,0,0,0-1,1.85,8.13,8.13,0,0,0-.34,2.46,7,7,0,0,0,1.2,4.38A3.86,3.86,0,0,0,169.25,87a4.14,4.14,0,0,0,2-.49,6,6,0,0,0,1.55-1.22L175,87.85A7.39,7.39,0,0,1,169.08,90.54Z"/><path class="cls-3" d="M177.76,90.21V72h4.12v7h6.3V72h4.14V90.21h-4.14V82.59h-6.3v7.62Z"/><path class="cls-3" d="M203.83,90.54a6.9,6.9,0,0,1-5.43-2.1q-1.87-2.1-1.88-6.69V72h4.14V82.17a6.33,6.33,0,0,0,.82,3.75A2.77,2.77,0,0,0,203.83,87a2.87,2.87,0,0,0,2.38-1.07,6.24,6.24,0,0,0,.84-3.75V72h2a8,8,0,0,0,.84-.11,2.12,2.12,0,0,0,.74-.29,1.68,1.68,0,0,0,.53-.61,2.16,2.16,0,0,0,.21-1,3.79,3.79,0,0,0-.14-1,3.24,3.24,0,0,0-.31-.78l3.06-1.24a6.76,6.76,0,0,1,.57,1.2,4.31,4.31,0,0,1,.27,1.55,3.43,3.43,0,0,1-1,2.65A5.34,5.34,0,0,1,211,73.46v8.29q0,4.59-1.83,6.69A6.73,6.73,0,0,1,203.83,90.54Z"/><path class="cls-3" d="M223.2,90.54a8.58,8.58,0,0,1-3.37-.65A7.37,7.37,0,0,1,217.21,88a8.68,8.68,0,0,1-1.69-3,12.41,12.41,0,0,1-.6-4,12.22,12.22,0,0,1,.6-4,8.27,8.27,0,0,1,1.69-3,7.29,7.29,0,0,1,2.62-1.81,8.76,8.76,0,0,1,3.37-.63,8.59,8.59,0,0,1,3.9.86,2.67,2.67,0,0,0,1.24-.67,1.86,1.86,0,0,0,.44-1.34,3.79,3.79,0,0,0-.14-1,4.35,4.35,0,0,0-.31-.78l3-1.23A5,5,0,0,1,232,68.6a4.64,4.64,0,0,1,.25,1.56,3.38,3.38,0,0,1-.81,2.39,4.8,4.8,0,0,1-2.41,1.3,8.64,8.64,0,0,1,1.83,3,11.81,11.81,0,0,1,.66,4.13,12.41,12.41,0,0,1-.6,4,8.85,8.85,0,0,1-1.69,3,7.46,7.46,0,0,1-2.62,1.89A8.59,8.59,0,0,1,223.2,90.54Zm0-3.55a3.42,3.42,0,0,0,3-1.61A7.72,7.72,0,0,0,227.26,81a7.32,7.32,0,0,0-1.09-4.29,3.62,3.62,0,0,0-5.93,0,7.32,7.32,0,0,0-1.1,4.29,7.72,7.72,0,0,0,1.1,4.38A3.4,3.4,0,0,0,223.2,87Z"/><path class="cls-3" d="M234.91,90.21V72h4.23L243.9,81l1.79,4h.11c-.09-1-.2-2.06-.32-3.25s-.18-2.34-.18-3.42V72h3.92V90.21H245l-4.76-9.1-1.79-4h-.12c.1,1,.2,2.09.33,3.25a32.67,32.67,0,0,1,.18,3.36v6.47Z"/><path class="cls-3" d="M261.59,90.54a10.11,10.11,0,0,1-3.51-.6,7.82,7.82,0,0,1-2.84-1.78,8,8,0,0,1-1.89-2.92,12.15,12.15,0,0,1,0-8.1,8.89,8.89,0,0,1,1.92-3,8.1,8.1,0,0,1,2.84-1.88,9.22,9.22,0,0,1,3.44-.64,7.51,7.51,0,0,1,3.42.72A8.64,8.64,0,0,1,267.3,74l-2.15,2.63a7.83,7.83,0,0,0-1.49-1,4.09,4.09,0,0,0-2-.42,4.59,4.59,0,0,0-1.94.41,4.32,4.32,0,0,0-1.53,1.16,5.2,5.2,0,0,0-1,1.85,7.82,7.82,0,0,0-.35,2.46,6.71,6.71,0,0,0,1.27,4.38A4.68,4.68,0,0,0,262,87a4.4,4.4,0,0,0,1.09-.14,2.35,2.35,0,0,0,.87-.42V83.29h-3V79.93h6.66v8.4a7.71,7.71,0,0,1-2.52,1.57A9.09,9.09,0,0,1,261.59,90.54Z"/><path class="cls-3" d="M280.55,90.21V75.42h-5V72H289.7v3.47h-5V90.21Z"/><path class="cls-3" d="M292.56,90.21V72h6.58a12.5,12.5,0,0,1,2.73.28,6.18,6.18,0,0,1,2.22.94,4.71,4.71,0,0,1,1.52,1.75,6,6,0,0,1,.56,2.72,5.74,5.74,0,0,1-.89,3.31,5.32,5.32,0,0,1-2.36,2l4.14,7.31h-4.62l-3.5-6.58h-2.27v6.58Zm4.11-9.86h2.13a3.92,3.92,0,0,0,2.48-.68,2.46,2.46,0,0,0,.86-2,2,2,0,0,0-.86-1.88,4.67,4.67,0,0,0-2.48-.53h-2.13Z"/><path class="cls-3" d="M312.05,71.17l-5.13-3.33,2.19-2.66,4.79,3.92Zm-2.33,19V72h4.12V90.21Z"/><path class="cls-3" d="M318.15,90.21V72h4.23L327.14,81l1.79,4H329c-.09-1-.2-2.06-.32-3.25s-.18-2.34-.18-3.42V72h3.92V90.21h-4.23l-4.76-9.1-1.79-4h-.11c.09,1,.2,2.09.32,3.25a32.67,32.67,0,0,1,.18,3.36v6.47Z"/><path class="cls-3" d="M336.77,90.21V72h4.12v7h6.3V72h4.14V90.21h-4.14V82.59h-6.3v7.62Z"/><path class="cls-4" d="M76.22,131.54a2.14,2.14,0,0,1-1.57-.66,2.48,2.48,0,0,1-.49-.76,2.55,2.55,0,0,1-.18-1,2.64,2.64,0,0,1,.18-1,2.37,2.37,0,0,1,.49-.76,2.44,2.44,0,0,1,.71-.49,2.11,2.11,0,0,1,.86-.18,2.06,2.06,0,0,1,.85.18,2.14,2.14,0,0,1,.72.49,2.21,2.21,0,0,1,.49.76,2.64,2.64,0,0,1,.18,1,2.55,2.55,0,0,1-.18,1,2.31,2.31,0,0,1-.49.76,2,2,0,0,1-.72.49A2.22,2.22,0,0,1,76.22,131.54Z"/><path class="cls-5" d="M87.46,134.4l-4.2-13.12H85l2.1,7.08c.24.79.45,1.51.63,2.18s.4,1.39.65,2.16h.08c.24-.77.46-1.49.64-2.16s.4-1.39.62-2.18l2.1-7.08h1.7L89.4,134.4Z"/><path class="cls-5" d="M98.68,134.64A4.31,4.31,0,0,1,97,134.3a4.38,4.38,0,0,1-1.43-1,4.93,4.93,0,0,1-1-1.6,6,6,0,0,1-.37-2.15,6.09,6.09,0,0,1,.37-2.17,5.09,5.09,0,0,1,1-1.61,4.26,4.26,0,0,1,1.43-1,4.47,4.47,0,0,1,3.42,0,4.16,4.16,0,0,1,1.43,1,4.75,4.75,0,0,1,1,1.61,5.88,5.88,0,0,1,.37,2.17,5.81,5.81,0,0,1-.37,2.15,4.61,4.61,0,0,1-1,1.6,4.28,4.28,0,0,1-3.14,1.33Zm.28-11.7-3.14-3.06,1.16-1.1,2.82,3.34Zm-.28,10.34a2.4,2.4,0,0,0,1.14-.27,2.5,2.5,0,0,0,.89-.76,3.55,3.55,0,0,0,.57-1.17,5.13,5.13,0,0,0,.2-1.52,5.25,5.25,0,0,0-.2-1.53,3.56,3.56,0,0,0-.57-1.19,2.52,2.52,0,0,0-.89-.77,2.4,2.4,0,0,0-1.14-.27,2.46,2.46,0,0,0-1.14.27,2.71,2.71,0,0,0-.89.77,4,4,0,0,0-.57,1.19,5.61,5.61,0,0,0-.2,1.53,5.49,5.49,0,0,0,.2,1.52,4,4,0,0,0,.57,1.17,2.68,2.68,0,0,0,.89.76A2.46,2.46,0,0,0,98.68,133.28Z"/><path class="cls-5" d="M105.74,134.4v-9.72h1.36l.14,1.4h.06a7.86,7.86,0,0,1,1.47-1.17,3.41,3.41,0,0,1,1.79-.47,2.6,2.6,0,0,1,2.25,1,4.7,4.7,0,0,1,.71,2.84v6.16h-1.64v-5.94a3.43,3.43,0,0,0-.44-2,1.6,1.6,0,0,0-1.4-.61,2.44,2.44,0,0,0-1.34.38,9.39,9.39,0,0,0-1.32,1.12v7Z"/><path class="cls-5" d="M120,138.88a7.58,7.58,0,0,1-1.64-.17,3.93,3.93,0,0,1-1.27-.51,2.67,2.67,0,0,1-.82-.82,2.15,2.15,0,0,1-.29-1.12,2.09,2.09,0,0,1,.38-1.18,4.21,4.21,0,0,1,1-1V134a2,2,0,0,1-.61-.61,1.94,1.94,0,0,1,.09-2.05,3.06,3.06,0,0,1,.72-.72v-.08a4,4,0,0,1-.87-1.07,3,3,0,0,1-.39-1.55,3.53,3.53,0,0,1,.29-1.44,3.36,3.36,0,0,1,.79-1.09,3.62,3.62,0,0,1,1.17-.69,4.18,4.18,0,0,1,1.41-.24,3.54,3.54,0,0,1,.75.07,4.05,4.05,0,0,1,.63.17h3.38v1.26h-2a2.86,2.86,0,0,1,.8,2,3.38,3.38,0,0,1-.28,1.41,3,3,0,0,1-.76,1.06,3.36,3.36,0,0,1-1.13.67,3.94,3.94,0,0,1-1.39.24,3.25,3.25,0,0,1-.74-.09,3.61,3.61,0,0,1-.72-.25,2.54,2.54,0,0,0-.44.49,1.17,1.17,0,0,0-.18.67.94.94,0,0,0,.36.76,2.23,2.23,0,0,0,1.36.3h1.88a4.69,4.69,0,0,1,2.55.55,2,2,0,0,1,.85,1.77,2.59,2.59,0,0,1-.34,1.29,3.19,3.19,0,0,1-1,1.07,5,5,0,0,1-1.55.73A7.17,7.17,0,0,1,120,138.88Zm.24-1.14a4.54,4.54,0,0,0,1.27-.17,3.35,3.35,0,0,0,1-.44,2,2,0,0,0,.62-.63,1.38,1.38,0,0,0,.22-.74,1,1,0,0,0-.5-.94,3.29,3.29,0,0,0-1.46-.26h-1.68l-.61,0a3,3,0,0,1-.65-.13,2.7,2.7,0,0,0-.76.8,1.68,1.68,0,0,0-.24.84,1.4,1.4,0,0,0,.75,1.24A3.92,3.92,0,0,0,120.2,137.74Zm-.24-7.52a1.89,1.89,0,0,0,.79-.16,2,2,0,0,0,.66-.46,1.88,1.88,0,0,0,.45-.73,2.7,2.7,0,0,0,.16-1,2.23,2.23,0,0,0-.6-1.67,2.1,2.1,0,0,0-2.92,0,2.23,2.23,0,0,0-.6,1.67,2.94,2.94,0,0,0,.16,1,2.15,2.15,0,0,0,.45.73,2.25,2.25,0,0,0,.66.46A1.92,1.92,0,0,0,120,130.22Z"/><path class="cls-5" d="M139.78,137.7a6,6,0,0,1-1.67-.23,4.87,4.87,0,0,1-1.38-.65,5,5,0,0,1-1.06-1,5.39,5.39,0,0,1-.73-1.25,4.87,4.87,0,0,1-2-.68,5.22,5.22,0,0,1-1.51-1.42,6.82,6.82,0,0,1-1-2.07,9.8,9.8,0,0,1-.34-2.63,9.16,9.16,0,0,1,.41-2.83,6.43,6.43,0,0,1,1.15-2.12,5.1,5.1,0,0,1,1.77-1.33,5.48,5.48,0,0,1,2.27-.46,5.42,5.42,0,0,1,2.27.47,5.08,5.08,0,0,1,1.78,1.34A6.1,6.1,0,0,1,141,125a8.79,8.79,0,0,1,.41,2.81,9.51,9.51,0,0,1-.33,2.59,6.6,6.6,0,0,1-.94,2,5.09,5.09,0,0,1-1.47,1.42,5,5,0,0,1-1.9.73,3,3,0,0,0,1.3,1.31,4.11,4.11,0,0,0,1.92.43,5.63,5.63,0,0,0,.77-.05,4.64,4.64,0,0,0,.61-.13l.32,1.28a4.11,4.11,0,0,1-.8.21A6,6,0,0,1,139.78,137.7Zm-4-4.44a3.34,3.34,0,0,0,1.59-.38,3.45,3.45,0,0,0,1.22-1.1,5.4,5.4,0,0,0,.79-1.73,8.35,8.35,0,0,0,.28-2.27,7.88,7.88,0,0,0-.28-2.2,4.92,4.92,0,0,0-.79-1.66,3.6,3.6,0,0,0-1.22-1,3.33,3.33,0,0,0-1.59-.37,3.39,3.39,0,0,0-1.59.37,3.7,3.7,0,0,0-1.22,1,5.12,5.12,0,0,0-.79,1.66,8.27,8.27,0,0,0-.28,2.2,8.76,8.76,0,0,0,.28,2.27,5.63,5.63,0,0,0,.79,1.73,3.53,3.53,0,0,0,1.22,1.1A3.39,3.39,0,0,0,135.76,133.26Z"/><path class="cls-5" d="M146.88,134.64a2.64,2.64,0,0,1-2.27-1,4.78,4.78,0,0,1-.71-2.84v-6.16h1.66v5.94a3.6,3.6,0,0,0,.43,2,1.58,1.58,0,0,0,1.39.61,2.32,2.32,0,0,0,1.34-.39,6.13,6.13,0,0,0,1.28-1.25v-6.9h1.64v9.72h-1.36l-.14-1.52h-.06a6.49,6.49,0,0,1-1.43,1.28A3.21,3.21,0,0,1,146.88,134.64Z"/><path class="cls-5" d="M157.16,134.64a3,3,0,0,1-2-.72,2.59,2.59,0,0,1-.81-2,2.71,2.71,0,0,1,1.42-2.45,11.74,11.74,0,0,1,4.54-1.19,4.43,4.43,0,0,0-.09-.9,2.24,2.24,0,0,0-.31-.78,1.55,1.55,0,0,0-.61-.55,2.07,2.07,0,0,0-1-.21,4,4,0,0,0-1.58.32,7.51,7.51,0,0,0-1.32.72l-.64-1.14a11.08,11.08,0,0,1,1.66-.85,5.65,5.65,0,0,1,2.16-.41,3,3,0,0,1,2.58,1.09,4.78,4.78,0,0,1,.8,2.91v6h-1.36l-.14-1.16h-.06a7.49,7.49,0,0,1-1.5,1A3.73,3.73,0,0,1,157.16,134.64Zm.48-1.32A2.75,2.75,0,0,0,159,133a6.14,6.14,0,0,0,1.32-1v-2.7a17,17,0,0,0-2.05.38,5.59,5.59,0,0,0-1.34.52,2.07,2.07,0,0,0-.74.69,1.67,1.67,0,0,0-.23.85,1.39,1.39,0,0,0,.5,1.2A2,2,0,0,0,157.64,133.32Z"/><path class="cls-5" d="M165.16,138.58a4,4,0,0,1-.62-.05,2.23,2.23,0,0,1-.52-.15l.32-1.3.36.09a1.81,1.81,0,0,0,.38.05,1.76,1.76,0,0,0,1.37-.59,4,4,0,0,0,.83-1.49l.22-.72-3.9-9.74h1.7l2,5.38c.15.43.31.88.47,1.35s.33.94.47,1.39h.08q.22-.66.42-1.38c.14-.48.27-.93.4-1.36l1.74-5.38h1.6L168.8,135.2a9.65,9.65,0,0,1-.58,1.34,4.21,4.21,0,0,1-.76,1.07,3.2,3.2,0,0,1-1,.71A3.08,3.08,0,0,1,165.16,138.58Z"/><path class="cls-5" d="M178.5,134.4V121.28h1.72l4.74,8.24,1.42,2.72h.08c0-.67-.08-1.36-.13-2.07s-.07-1.42-.07-2.11v-6.78h1.58V134.4h-1.72l-4.76-8.26-1.42-2.7h-.08c.06.67.11,1.34.15,2s.07,1.38.07,2.07v6.86Z"/><path class="cls-5" d="M191.28,134.4V120.16h1.64V124l-.06,2a9.39,9.39,0,0,1,1.46-1.13,3.35,3.35,0,0,1,1.78-.47,2.6,2.6,0,0,1,2.25,1,4.7,4.7,0,0,1,.71,2.84v6.16h-1.64v-5.94a3.43,3.43,0,0,0-.44-2,1.6,1.6,0,0,0-1.4-.61,2.44,2.44,0,0,0-1.34.38,9.39,9.39,0,0,0-1.32,1.12v7Z"/><path class="cls-5" d="M204.4,134.64a3,3,0,0,1-2-.72,2.59,2.59,0,0,1-.81-2,2.71,2.71,0,0,1,1.42-2.45,11.74,11.74,0,0,1,4.54-1.19,4.43,4.43,0,0,0-.09-.9,2.24,2.24,0,0,0-.31-.78,1.55,1.55,0,0,0-.61-.55,2.07,2.07,0,0,0-1-.21,4,4,0,0,0-1.58.32,7.51,7.51,0,0,0-1.32.72L202,125.7a11.08,11.08,0,0,1,1.66-.85,5.65,5.65,0,0,1,2.16-.41,3,3,0,0,1,2.58,1.09,4.78,4.78,0,0,1,.8,2.91v6h-1.36l-.14-1.16h-.06a7.49,7.49,0,0,1-1.5,1A3.73,3.73,0,0,1,204.4,134.64Zm-1.74-12.24,2.28-2.8h1.64l2.28,2.8-.7.64-2.36-2.26h-.08L203.36,123Zm2.22,10.92a2.75,2.75,0,0,0,1.32-.33,6.14,6.14,0,0,0,1.32-1v-2.7a17,17,0,0,0-2.05.38,5.59,5.59,0,0,0-1.34.52,2.07,2.07,0,0,0-.74.69,1.67,1.67,0,0,0-.23.85,1.39,1.39,0,0,0,.5,1.2A2,2,0,0,0,204.88,133.32Z"/><path class="cls-5" d="M212.24,134.4v-9.72h1.36l.14,1.4h.06a7.86,7.86,0,0,1,1.47-1.17,3.41,3.41,0,0,1,1.79-.47,2.6,2.6,0,0,1,2.25,1,4.7,4.7,0,0,1,.71,2.84v6.16h-1.64v-5.94a3.43,3.43,0,0,0-.44-2,1.6,1.6,0,0,0-1.4-.61,2.44,2.44,0,0,0-1.34.38,9.39,9.39,0,0,0-1.32,1.12v7Z"/><path class="cls-5" d="M227.34,134.4V121.28h3.74a9.5,9.5,0,0,1,2,.2,4.12,4.12,0,0,1,1.55.65,3.06,3.06,0,0,1,1,1.19,4.13,4.13,0,0,1,.36,1.82,4.19,4.19,0,0,1-.35,1.8,3.24,3.24,0,0,1-1,1.26,4.38,4.38,0,0,1-1.53.75,7.13,7.13,0,0,1-2,.25H229v5.2Zm1.66-6.56h2a4.12,4.12,0,0,0,2.55-.65,2.42,2.42,0,0,0,.83-2,2.15,2.15,0,0,0-.87-2,4.87,4.87,0,0,0-2.59-.55H229Z"/><path class="cls-5" d="M238.5,134.4V120.16h1.64V124l-.06,2a9.39,9.39,0,0,1,1.46-1.13,3.35,3.35,0,0,1,1.78-.47,2.6,2.6,0,0,1,2.25,1,4.7,4.7,0,0,1,.71,2.84v6.16h-1.64v-5.94a3.43,3.43,0,0,0-.44-2,1.6,1.6,0,0,0-1.4-.61,2.44,2.44,0,0,0-1.34.38,9.39,9.39,0,0,0-1.32,1.12v7Z"/><path class="cls-5" d="M251.62,134.64a3,3,0,0,1-2-.72,2.59,2.59,0,0,1-.81-2,2.71,2.71,0,0,1,1.42-2.45,11.74,11.74,0,0,1,4.54-1.19,4.43,4.43,0,0,0-.09-.9,2.24,2.24,0,0,0-.31-.78,1.55,1.55,0,0,0-.61-.55,2.07,2.07,0,0,0-1-.21,4,4,0,0,0-1.58.32,7.51,7.51,0,0,0-1.32.72l-.64-1.14a11.08,11.08,0,0,1,1.66-.85,5.65,5.65,0,0,1,2.16-.41,3,3,0,0,1,2.58,1.09,4.78,4.78,0,0,1,.8,2.91v6H255l-.14-1.16h-.06a7.49,7.49,0,0,1-1.5,1A3.73,3.73,0,0,1,251.62,134.64ZM250.88,123l-.58-.68,2-1.84h1.36l2,1.84-.58.68L253,121.56h-.08Zm1.22,10.32a2.75,2.75,0,0,0,1.32-.33,6.14,6.14,0,0,0,1.32-1v-2.7a16.59,16.59,0,0,0-2.05.38,5.59,5.59,0,0,0-1.34.52,2.07,2.07,0,0,0-.74.69,1.67,1.67,0,0,0-.23.85,1.39,1.39,0,0,0,.5,1.2A2,2,0,0,0,252.1,133.32Zm3.2-11.62-.18-.7a1.65,1.65,0,0,0,.61-.28.59.59,0,0,0,.23-.5.63.63,0,0,0-.32-.59,2.41,2.41,0,0,0-1.06-.23l.14-.82a4,4,0,0,1,1.81.4,1.15,1.15,0,0,1,.63,1.06,1.32,1.32,0,0,1-.16.68,1.35,1.35,0,0,1-.42.47,2.2,2.2,0,0,1-.59.31A5,5,0,0,1,255.3,121.7Z"/><path class="cls-5" d="M259.46,134.4v-9.72h1.36l.14,1.4H261a6.6,6.6,0,0,1,1.39-1.17,3.06,3.06,0,0,1,1.63-.47,2.76,2.76,0,0,1,1.75.49,2.84,2.84,0,0,1,.93,1.37,8.42,8.42,0,0,1,1.53-1.35,3,3,0,0,1,1.67-.51,2.61,2.61,0,0,1,2.23,1,4.63,4.63,0,0,1,.73,2.84v6.16h-1.64v-5.94a3.43,3.43,0,0,0-.44-2,1.54,1.54,0,0,0-1.36-.61,3.63,3.63,0,0,0-2.44,1.5v7h-1.64v-5.94a3.43,3.43,0,0,0-.44-2,1.57,1.57,0,0,0-1.38-.61,3.63,3.63,0,0,0-2.44,1.5v7Z"/><path class="cls-5" d="M279.22,130v-1.26h4.6V130Z"/><path class="cls-5" d="M299.28,137.7a6,6,0,0,1-1.67-.23,4.87,4.87,0,0,1-1.38-.65,5,5,0,0,1-1.06-1,5.39,5.39,0,0,1-.73-1.25,4.87,4.87,0,0,1-2-.68,5.22,5.22,0,0,1-1.51-1.42,6.82,6.82,0,0,1-1-2.07,9.8,9.8,0,0,1-.34-2.63,9.16,9.16,0,0,1,.41-2.83,6.43,6.43,0,0,1,1.15-2.12A5.1,5.1,0,0,1,293,121.5a5.48,5.48,0,0,1,2.27-.46,5.42,5.42,0,0,1,2.27.47,5.08,5.08,0,0,1,1.78,1.34,6.1,6.1,0,0,1,1.16,2.12,9.07,9.07,0,0,1,.41,2.81,9.51,9.51,0,0,1-.33,2.59,6.6,6.6,0,0,1-.94,2,5.09,5.09,0,0,1-1.47,1.42,5,5,0,0,1-1.9.73,3,3,0,0,0,1.3,1.31,4.11,4.11,0,0,0,1.92.43,5.63,5.63,0,0,0,.77-.05,4.64,4.64,0,0,0,.61-.13l.32,1.28a4.11,4.11,0,0,1-.8.21A6,6,0,0,1,299.28,137.7Zm-4-4.44a3.34,3.34,0,0,0,1.59-.38,3.45,3.45,0,0,0,1.22-1.1,5.4,5.4,0,0,0,.79-1.73,8.35,8.35,0,0,0,.28-2.27,7.88,7.88,0,0,0-.28-2.2,4.92,4.92,0,0,0-.79-1.66,3.6,3.6,0,0,0-1.22-1,3.33,3.33,0,0,0-1.59-.37,3.39,3.39,0,0,0-1.59.37,3.7,3.7,0,0,0-1.22,1,5.12,5.12,0,0,0-.79,1.66,8.27,8.27,0,0,0-.28,2.2,8.76,8.76,0,0,0,.28,2.27,5.63,5.63,0,0,0,.79,1.73,3.53,3.53,0,0,0,1.22,1.1A3.39,3.39,0,0,0,295.26,133.26Z"/><path class="cls-5" d="M306.38,134.64a2.63,2.63,0,0,1-2.27-1,4.78,4.78,0,0,1-.71-2.84v-6.16h1.66v5.94a3.6,3.6,0,0,0,.43,2,1.58,1.58,0,0,0,1.39.61,2.34,2.34,0,0,0,1.34-.39,6.13,6.13,0,0,0,1.28-1.25v-6.9h1.64v9.72h-1.36l-.14-1.52h-.06a6.49,6.49,0,0,1-1.43,1.28A3.21,3.21,0,0,1,306.38,134.64Z"/><path class="cls-5" d="M316.66,134.64a3,3,0,0,1-2-.72,2.59,2.59,0,0,1-.81-2,2.71,2.71,0,0,1,1.42-2.45,11.74,11.74,0,0,1,4.54-1.19,4.43,4.43,0,0,0-.09-.9,2.24,2.24,0,0,0-.31-.78,1.55,1.55,0,0,0-.61-.55,2.07,2.07,0,0,0-1-.21,4,4,0,0,0-1.58.32,7.51,7.51,0,0,0-1.32.72l-.64-1.14a11.08,11.08,0,0,1,1.66-.85,5.65,5.65,0,0,1,2.16-.41,3,3,0,0,1,2.58,1.09,4.85,4.85,0,0,1,.8,2.91v6h-1.36l-.14-1.16h-.06a8.11,8.11,0,0,1-1.5,1A3.73,3.73,0,0,1,316.66,134.64Zm.48-1.32a2.75,2.75,0,0,0,1.32-.33,6.14,6.14,0,0,0,1.32-1v-2.7a16.59,16.59,0,0,0-2,.38,5.59,5.59,0,0,0-1.34.52,2.07,2.07,0,0,0-.74.69,1.67,1.67,0,0,0-.23.85,1.39,1.39,0,0,0,.5,1.2A2,2,0,0,0,317.14,133.32Z"/><path class="cls-5" d="M324.66,138.58a3.89,3.89,0,0,1-.62-.05,2.1,2.1,0,0,1-.52-.15l.32-1.3.36.09a1.73,1.73,0,0,0,.38.05,1.76,1.76,0,0,0,1.37-.59,4,4,0,0,0,.83-1.49l.22-.72-3.9-9.74h1.7l2,5.38c.15.43.3.88.47,1.35s.33.94.47,1.39h.08q.22-.66.42-1.38c.13-.48.27-.93.4-1.36l1.74-5.38H332L328.3,135.2a11,11,0,0,1-.58,1.34,4.48,4.48,0,0,1-.76,1.07,3.32,3.32,0,0,1-1,.71A3.08,3.08,0,0,1,324.66,138.58Z"/><path class="cls-5" d="M337.84,134.4V120.16h1.64V124l-.06,2a9,9,0,0,1,1.46-1.13,3.35,3.35,0,0,1,1.78-.47,2.6,2.6,0,0,1,2.25,1,4.7,4.7,0,0,1,.71,2.84v6.16H344v-5.94a3.51,3.51,0,0,0-.44-2,1.6,1.6,0,0,0-1.4-.61,2.44,2.44,0,0,0-1.34.38,8.86,8.86,0,0,0-1.32,1.12v7Z"/><path class="cls-5" d="M351,134.64a3,3,0,0,1-2-.72,2.59,2.59,0,0,1-.81-2,2.69,2.69,0,0,1,1.42-2.45,11.74,11.74,0,0,1,4.54-1.19,4.43,4.43,0,0,0-.09-.9,2.24,2.24,0,0,0-.31-.78,1.63,1.63,0,0,0-.61-.55,2.07,2.07,0,0,0-1-.21,4,4,0,0,0-1.58.32,7.51,7.51,0,0,0-1.32.72l-.64-1.14a10.61,10.61,0,0,1,1.66-.85,5.62,5.62,0,0,1,2.16-.41,3,3,0,0,1,2.58,1.09,4.78,4.78,0,0,1,.8,2.91v6h-1.36l-.14-1.16h-.06a8.11,8.11,0,0,1-1.5,1A3.73,3.73,0,0,1,351,134.64ZM352.32,123a3.43,3.43,0,0,1-1.38-.26A2.59,2.59,0,0,1,350,122a3,3,0,0,1-.56-1,4.23,4.23,0,0,1-.23-1.1l1-.16a3.51,3.51,0,0,0,.21.75,2.41,2.41,0,0,0,.41.67,2,2,0,0,0,.63.48,2.1,2.1,0,0,0,1.7,0,1.89,1.89,0,0,0,.63-.48,2.2,2.2,0,0,0,.41-.67,3.51,3.51,0,0,0,.21-.75l1,.16a4.23,4.23,0,0,1-.23,1.1,2.89,2.89,0,0,1-.57,1,2.68,2.68,0,0,1-.95.69A3.35,3.35,0,0,1,352.32,123Zm-.88,10.34a2.75,2.75,0,0,0,1.32-.33,6.67,6.67,0,0,0,1.32-1v-2.7a16.59,16.59,0,0,0-2.05.38,5.59,5.59,0,0,0-1.34.52,2,2,0,0,0-.74.69,1.67,1.67,0,0,0-.23.85,1.39,1.39,0,0,0,.5,1.2A2,2,0,0,0,351.44,133.32Z"/><path class="cls-5" d="M358.8,134.4v-9.72h1.36l.14,1.4h.06a7.86,7.86,0,0,1,1.47-1.17,3.39,3.39,0,0,1,1.79-.47,2.6,2.6,0,0,1,2.25,1,4.78,4.78,0,0,1,.71,2.84v6.16h-1.64v-5.94a3.51,3.51,0,0,0-.44-2,1.6,1.6,0,0,0-1.4-.61,2.42,2.42,0,0,0-1.34.38,8.38,8.38,0,0,0-1.32,1.12v7Z"/><path class="cls-5" d="M373,138.88a7.58,7.58,0,0,1-1.64-.17,3.93,3.93,0,0,1-1.27-.51,2.67,2.67,0,0,1-.82-.82,2.15,2.15,0,0,1-.29-1.12,2.09,2.09,0,0,1,.38-1.18,4.21,4.21,0,0,1,1-1V134a2,2,0,0,1-.61-.61,1.81,1.81,0,0,1-.25-1,1.76,1.76,0,0,1,.34-1.08,3.06,3.06,0,0,1,.72-.72v-.08a4,4,0,0,1-.87-1.07,3,3,0,0,1-.39-1.55,3.53,3.53,0,0,1,.29-1.44,3.22,3.22,0,0,1,.79-1.09,3.42,3.42,0,0,1,1.17-.69,4.18,4.18,0,0,1,1.41-.24,3.54,3.54,0,0,1,.75.07,4.38,4.38,0,0,1,.63.17h3.38v1.26h-2a2.69,2.69,0,0,1,.57.86,2.87,2.87,0,0,1,.23,1.14,3.38,3.38,0,0,1-.28,1.41,3.16,3.16,0,0,1-.76,1.06,3.46,3.46,0,0,1-1.13.67,4,4,0,0,1-1.39.24,3.25,3.25,0,0,1-.74-.09,3.61,3.61,0,0,1-.72-.25,2.54,2.54,0,0,0-.44.49,1.17,1.17,0,0,0-.18.67.94.94,0,0,0,.36.76,2.21,2.21,0,0,0,1.36.3h1.88a4.74,4.74,0,0,1,2.55.55,2,2,0,0,1,.85,1.77,2.59,2.59,0,0,1-.34,1.29,3.19,3.19,0,0,1-1,1.07,5.06,5.06,0,0,1-1.55.73A7.17,7.17,0,0,1,373,138.88Zm.24-1.14a4.54,4.54,0,0,0,1.27-.17,3.35,3.35,0,0,0,1-.44,2,2,0,0,0,.62-.63,1.38,1.38,0,0,0,.22-.74,1,1,0,0,0-.5-.94,3.29,3.29,0,0,0-1.46-.26H372.7l-.61,0a3,3,0,0,1-.65-.13,2.58,2.58,0,0,0-.76.8,1.68,1.68,0,0,0-.24.84,1.4,1.4,0,0,0,.75,1.24A3.92,3.92,0,0,0,373.26,137.74Zm-.24-7.52a1.89,1.89,0,0,0,.79-.16,2,2,0,0,0,1.11-1.19,2.7,2.7,0,0,0,.16-1,2.23,2.23,0,0,0-.6-1.67,2.1,2.1,0,0,0-2.92,0,2.23,2.23,0,0,0-.6,1.67,2.7,2.7,0,0,0,.16,1,2,2,0,0,0,1.11,1.19A1.92,1.92,0,0,0,373,130.22Z"/><path class="cls-5" d="M386.36,134.64a5.32,5.32,0,0,1-2-.38,6,6,0,0,1-1.64-1l.82-1.1a6.29,6.29,0,0,0,1.31.84,3.61,3.61,0,0,0,1.55.32,2.08,2.08,0,0,0,1.44-.44,1.4,1.4,0,0,0,.48-1.08,1.14,1.14,0,0,0-.2-.66,1.84,1.84,0,0,0-.51-.49,3.94,3.94,0,0,0-.71-.37l-.8-.32c-.35-.12-.69-.26-1-.41a4.11,4.11,0,0,1-.93-.56,3.07,3.07,0,0,1-.67-.77,2.08,2.08,0,0,1-.26-1.06,2.66,2.66,0,0,1,.23-1.09,2.58,2.58,0,0,1,.66-.88,3.13,3.13,0,0,1,1.05-.58,4.69,4.69,0,0,1,3.09.11,5.07,5.07,0,0,1,1.33.78l-.78,1a5.29,5.29,0,0,0-1-.62,2.86,2.86,0,0,0-1.18-.24,1.88,1.88,0,0,0-1.35.42,1.32,1.32,0,0,0-.43,1,1,1,0,0,0,.18.59,1.71,1.71,0,0,0,.48.44,3.7,3.7,0,0,0,.69.34l.81.31q.53.19,1.05.42a4,4,0,0,1,.95.55,2.7,2.7,0,0,1,.69.81,2.34,2.34,0,0,1,.27,1.16,2.8,2.8,0,0,1-.23,1.12,2.62,2.62,0,0,1-.68.92,3.12,3.12,0,0,1-1.12.63A4.82,4.82,0,0,1,386.36,134.64Z"/><path class="cls-5" d="M394.44,134.64a3,3,0,0,1-2-.72,2.59,2.59,0,0,1-.81-2,2.71,2.71,0,0,1,1.42-2.45,11.74,11.74,0,0,1,4.54-1.19,4.43,4.43,0,0,0-.09-.9,2.24,2.24,0,0,0-.31-.78,1.63,1.63,0,0,0-.61-.55,2.07,2.07,0,0,0-1-.21,4,4,0,0,0-1.58.32,7.51,7.51,0,0,0-1.32.72L392,125.7a11.08,11.08,0,0,1,1.66-.85,5.62,5.62,0,0,1,2.16-.41,3,3,0,0,1,2.58,1.09,4.78,4.78,0,0,1,.8,2.91v6h-1.36l-.14-1.16h-.06a8.11,8.11,0,0,1-1.5,1A3.73,3.73,0,0,1,394.44,134.64Zm.48-1.32a2.75,2.75,0,0,0,1.32-.33,6.4,6.4,0,0,0,1.32-1v-2.7a17,17,0,0,0-2.05.38,5.59,5.59,0,0,0-1.34.52,2,2,0,0,0-.74.69,1.67,1.67,0,0,0-.23.85,1.39,1.39,0,0,0,.5,1.2A2,2,0,0,0,394.92,133.32Z"/><path class="cls-5" d="M402.44,138.58a4,4,0,0,1-.62-.05,2.23,2.23,0,0,1-.52-.15l.32-1.3.36.09a1.73,1.73,0,0,0,.38.05,1.76,1.76,0,0,0,1.37-.59,4.19,4.19,0,0,0,.83-1.49l.22-.72-3.9-9.74h1.7l2,5.38c.15.43.3.88.47,1.35s.32.94.47,1.39h.08q.23-.66.42-1.38c.14-.48.27-.93.4-1.36l1.74-5.38h1.6l-3.66,10.52a9.65,9.65,0,0,1-.58,1.34,4.21,4.21,0,0,1-.76,1.07,3.32,3.32,0,0,1-1,.71A3.11,3.11,0,0,1,402.44,138.58Z"/><path class="cls-5" d="M414.8,130v-1.26h4.6V130Z"/><path class="cls-5" d="M434.86,137.7a5.91,5.91,0,0,1-1.67-.23,4.87,4.87,0,0,1-1.38-.65,5,5,0,0,1-1.06-1,5.39,5.39,0,0,1-.73-1.25,4.87,4.87,0,0,1-2-.68,5.22,5.22,0,0,1-1.51-1.42,6.82,6.82,0,0,1-1-2.07,9.41,9.41,0,0,1-.34-2.63,9.16,9.16,0,0,1,.41-2.83,6.25,6.25,0,0,1,1.15-2.12,5,5,0,0,1,1.77-1.33,5.77,5.77,0,0,1,4.54,0,5.08,5.08,0,0,1,1.78,1.34,6.1,6.1,0,0,1,1.16,2.12,8.79,8.79,0,0,1,.41,2.81,9.51,9.51,0,0,1-.33,2.59,6.6,6.6,0,0,1-.94,2,5.36,5.36,0,0,1-1.47,1.42,5,5,0,0,1-1.9.73,3,3,0,0,0,1.3,1.31,4.11,4.11,0,0,0,1.92.43,5.74,5.74,0,0,0,.77-.05,4.64,4.64,0,0,0,.61-.13l.32,1.28a4.31,4.31,0,0,1-.8.21A6,6,0,0,1,434.86,137.7Zm-4-4.44a3.34,3.34,0,0,0,1.59-.38,3.45,3.45,0,0,0,1.22-1.1,5.63,5.63,0,0,0,.79-1.73,8.35,8.35,0,0,0,.28-2.27,7.88,7.88,0,0,0-.28-2.2,5.12,5.12,0,0,0-.79-1.66,3.6,3.6,0,0,0-1.22-1,3.6,3.6,0,0,0-3.18,0,3.7,3.7,0,0,0-1.22,1,5.12,5.12,0,0,0-.79,1.66,8.27,8.27,0,0,0-.28,2.2,8.76,8.76,0,0,0,.28,2.27,5.63,5.63,0,0,0,.79,1.73,3.53,3.53,0,0,0,1.22,1.1A3.36,3.36,0,0,0,430.84,133.26Z"/><path class="cls-5" d="M442,134.64a2.63,2.63,0,0,1-2.27-1,4.78,4.78,0,0,1-.71-2.84v-6.16h1.66v5.94a3.52,3.52,0,0,0,.43,2,1.58,1.58,0,0,0,1.39.61,2.34,2.34,0,0,0,1.34-.39,6.38,6.38,0,0,0,1.28-1.25v-6.9h1.64v9.72h-1.36l-.14-1.52h-.06a6.49,6.49,0,0,1-1.43,1.28A3.21,3.21,0,0,1,442,134.64Z"/><path class="cls-5" d="M452.24,134.64a3,3,0,0,1-2-.72,2.59,2.59,0,0,1-.81-2,2.69,2.69,0,0,1,1.42-2.45,11.74,11.74,0,0,1,4.54-1.19,4.43,4.43,0,0,0-.09-.9,2.24,2.24,0,0,0-.31-.78,1.63,1.63,0,0,0-.61-.55,2.07,2.07,0,0,0-1-.21,4,4,0,0,0-1.58.32,7.51,7.51,0,0,0-1.32.72l-.64-1.14a10.61,10.61,0,0,1,1.66-.85,5.58,5.58,0,0,1,2.16-.41,3,3,0,0,1,2.58,1.09,4.85,4.85,0,0,1,.8,2.91v6h-1.36l-.14-1.16h-.06a8.11,8.11,0,0,1-1.5,1A3.76,3.76,0,0,1,452.24,134.64Zm1.64-11.7-3.14-3.06,1.16-1.1,2.82,3.34Zm-1.16,10.38A2.75,2.75,0,0,0,454,133a6.67,6.67,0,0,0,1.32-1v-2.7a16.59,16.59,0,0,0-2.05.38,5.59,5.59,0,0,0-1.34.52,2,2,0,0,0-.74.69,1.67,1.67,0,0,0-.23.85,1.39,1.39,0,0,0,.5,1.2A2,2,0,0,0,452.72,133.32Z"/><path class="cls-5" d="M464.08,134.4v-9.72h1.36l.14,1.4h.06a6.6,6.6,0,0,1,1.39-1.17,3,3,0,0,1,1.63-.47,2.76,2.76,0,0,1,1.75.49,2.84,2.84,0,0,1,.93,1.37,8.42,8.42,0,0,1,1.53-1.35,3,3,0,0,1,1.67-.51,2.63,2.63,0,0,1,2.23,1,4.63,4.63,0,0,1,.73,2.84v6.16h-1.64v-5.94a3.51,3.51,0,0,0-.44-2,1.56,1.56,0,0,0-1.36-.61,3.61,3.61,0,0,0-2.44,1.5v7H470v-5.94a3.51,3.51,0,0,0-.44-2,1.57,1.57,0,0,0-1.38-.61,3.61,3.61,0,0,0-2.44,1.5v7Z"/><path class="cls-5" d="M484.44,134.64a4.28,4.28,0,0,1-3.14-1.33,4.93,4.93,0,0,1-1-1.6,5.81,5.81,0,0,1-.37-2.15,5.88,5.88,0,0,1,.37-2.17,5.09,5.09,0,0,1,1-1.61,4.16,4.16,0,0,1,1.43-1,4.47,4.47,0,0,1,3.42,0,4.16,4.16,0,0,1,1.43,1,5.09,5.09,0,0,1,1,1.61,5.88,5.88,0,0,1,.37,2.17,5.81,5.81,0,0,1-.37,2.15,4.93,4.93,0,0,1-1,1.6,4.28,4.28,0,0,1-3.14,1.33Zm0-1.36a2.46,2.46,0,0,0,1.14-.27,2.58,2.58,0,0,0,.89-.76,3.55,3.55,0,0,0,.57-1.17,5.49,5.49,0,0,0,.2-1.52A5.61,5.61,0,0,0,487,128a3.56,3.56,0,0,0-.57-1.19,2.61,2.61,0,0,0-.89-.77,2.54,2.54,0,0,0-2.28,0,2.61,2.61,0,0,0-.89.77,3.56,3.56,0,0,0-.57,1.19,5.61,5.61,0,0,0-.2,1.53,5.49,5.49,0,0,0,.2,1.52,3.55,3.55,0,0,0,.57,1.17,2.58,2.58,0,0,0,.89.76A2.46,2.46,0,0,0,484.44,133.28Zm-2.74-13.16a2.77,2.77,0,0,1,.41-1.28,1.15,1.15,0,0,1,1-.5,2.13,2.13,0,0,1,.78.13,4.6,4.6,0,0,1,.63.29c.19.11.38.2.56.29a1.2,1.2,0,0,0,.55.13.5.5,0,0,0,.44-.2,1.68,1.68,0,0,0,.22-.64l.86.08a2.8,2.8,0,0,1-.41,1.27,1.14,1.14,0,0,1-1,.51,2.13,2.13,0,0,1-.78-.13,4.6,4.6,0,0,1-.63-.29c-.19-.11-.38-.2-.56-.29a1.2,1.2,0,0,0-.55-.13.5.5,0,0,0-.44.2,1.68,1.68,0,0,0-.22.64Zm.64,2.88-.58-.68,2-1.76h1.36l2,1.76-.58.68-2.06-1.38h-.08Z"/><path class="cls-5" d="M492.34,122.68a1.16,1.16,0,0,1-.81-.3,1.05,1.05,0,0,1,0-1.53,1.28,1.28,0,0,1,1.62,0,1.05,1.05,0,0,1,0,1.53A1.16,1.16,0,0,1,492.34,122.68Zm-.84,11.72v-9.72h1.64v9.72Z"/><path class="cls-5" d="M500.42,134.4v-9.72h1.36l.14,1.4H502a7.86,7.86,0,0,1,1.47-1.17,3.39,3.39,0,0,1,1.79-.47,2.6,2.6,0,0,1,2.25,1,4.78,4.78,0,0,1,.71,2.84v6.16h-1.64v-5.94a3.51,3.51,0,0,0-.44-2,1.6,1.6,0,0,0-1.4-.61,2.42,2.42,0,0,0-1.34.38,8.38,8.38,0,0,0-1.32,1.12v7Z"/><path class="cls-5" d="M514.64,138.88a7.51,7.51,0,0,1-1.64-.17,3.84,3.84,0,0,1-1.27-.51,2.57,2.57,0,0,1-.82-.82,2.15,2.15,0,0,1-.29-1.12,2.09,2.09,0,0,1,.38-1.18,4,4,0,0,1,1-1V134a2,2,0,0,1-.61-.61,1.73,1.73,0,0,1-.25-1,1.76,1.76,0,0,1,.34-1.08,3.06,3.06,0,0,1,.72-.72v-.08a4,4,0,0,1-.87-1.07,3,3,0,0,1-.39-1.55,3.53,3.53,0,0,1,.29-1.44,3.22,3.22,0,0,1,.79-1.09,3.42,3.42,0,0,1,1.17-.69,4.18,4.18,0,0,1,1.41-.24,3.54,3.54,0,0,1,.75.07,4.77,4.77,0,0,1,.63.17h3.38v1.26h-2a2.69,2.69,0,0,1,.57.86,2.87,2.87,0,0,1,.23,1.14,3.38,3.38,0,0,1-.28,1.41,3.16,3.16,0,0,1-.76,1.06,3.46,3.46,0,0,1-1.13.67,4,4,0,0,1-1.39.24,3.25,3.25,0,0,1-.74-.09,3.61,3.61,0,0,1-.72-.25,2.54,2.54,0,0,0-.44.49,1.17,1.17,0,0,0-.18.67.94.94,0,0,0,.36.76,2.21,2.21,0,0,0,1.36.3h1.88a4.74,4.74,0,0,1,2.55.55,2,2,0,0,1,.85,1.77,2.59,2.59,0,0,1-.34,1.29,3.3,3.3,0,0,1-1,1.07,5.06,5.06,0,0,1-1.55.73A7.22,7.22,0,0,1,514.64,138.88Zm.24-1.14a4.54,4.54,0,0,0,1.27-.17,3.48,3.48,0,0,0,1-.44,2.06,2.06,0,0,0,.62-.63,1.38,1.38,0,0,0,.22-.74,1,1,0,0,0-.5-.94,3.29,3.29,0,0,0-1.46-.26h-1.68l-.61,0a2.88,2.88,0,0,1-.65-.13,2.58,2.58,0,0,0-.76.8,1.68,1.68,0,0,0-.24.84,1.4,1.4,0,0,0,.75,1.24A3.92,3.92,0,0,0,514.88,137.74Zm-.24-7.52a1.92,1.92,0,0,0,.79-.16,2,2,0,0,0,.66-.46,2.15,2.15,0,0,0,.45-.73,2.7,2.7,0,0,0,.16-1,2.23,2.23,0,0,0-.6-1.67,2.1,2.1,0,0,0-2.92,0,2.23,2.23,0,0,0-.6,1.67,2.7,2.7,0,0,0,.16,1,2.15,2.15,0,0,0,.45.73,2,2,0,0,0,.66.46A1.92,1.92,0,0,0,514.64,130.22Z"/><path class="cls-5" d="M523.36,134.64a3,3,0,0,1-2-.72,2.59,2.59,0,0,1-.81-2,2.69,2.69,0,0,1,1.42-2.45,11.74,11.74,0,0,1,4.54-1.19,4.43,4.43,0,0,0-.09-.9,2.24,2.24,0,0,0-.31-.78,1.63,1.63,0,0,0-.61-.55,2.07,2.07,0,0,0-1-.21,4,4,0,0,0-1.58.32,7.51,7.51,0,0,0-1.32.72l-.64-1.14a10.61,10.61,0,0,1,1.66-.85,5.58,5.58,0,0,1,2.16-.41,3,3,0,0,1,2.58,1.09,4.85,4.85,0,0,1,.8,2.91v6h-1.36l-.14-1.16h-.06a8.11,8.11,0,0,1-1.5,1A3.76,3.76,0,0,1,523.36,134.64Zm1.64-11.7-3.14-3.06,1.16-1.1,2.82,3.34Zm-1.16,10.38a2.75,2.75,0,0,0,1.32-.33,6.67,6.67,0,0,0,1.32-1v-2.7a16.59,16.59,0,0,0-2.05.38,5.59,5.59,0,0,0-1.34.52,2,2,0,0,0-.74.69,1.67,1.67,0,0,0-.23.85,1.39,1.39,0,0,0,.5,1.2A2,2,0,0,0,523.84,133.32Z"/><path class="cls-5" d="M531.36,138.58a3.89,3.89,0,0,1-.62-.05,2.1,2.1,0,0,1-.52-.15l.32-1.3.36.09a1.73,1.73,0,0,0,.38.05,1.76,1.76,0,0,0,1.37-.59,4.19,4.19,0,0,0,.83-1.49l.22-.72-3.9-9.74h1.7l2,5.38c.15.43.3.88.47,1.35s.32.94.47,1.39h.08q.22-.66.42-1.38c.13-.48.27-.93.4-1.36l1.74-5.38h1.6L535,135.2a11,11,0,0,1-.58,1.34,4.48,4.48,0,0,1-.76,1.07,3.32,3.32,0,0,1-1,.71A3.11,3.11,0,0,1,531.36,138.58Z"/><path class="cls-5" d="M548.38,134.64a4.69,4.69,0,0,1-1.8-.34,4.16,4.16,0,0,1-1.45-1,4.56,4.56,0,0,1-1-1.6,6.25,6.25,0,0,1-.35-2.15,5.87,5.87,0,0,1,.38-2.17,4.82,4.82,0,0,1,1-1.61,4.3,4.3,0,0,1,1.49-1,4.71,4.71,0,0,1,1.79-.34,3.58,3.58,0,0,1,1.64.34,5.7,5.7,0,0,1,1.2.8l-.84,1.08a4.33,4.33,0,0,0-.89-.62,2.26,2.26,0,0,0-1.05-.24,2.76,2.76,0,0,0-1.22.27,2.84,2.84,0,0,0-1,.77,3.65,3.65,0,0,0-.63,1.19,4.91,4.91,0,0,0-.23,1.53,4.81,4.81,0,0,0,.22,1.52,3.82,3.82,0,0,0,.61,1.17,2.69,2.69,0,0,0,.95.76,2.86,2.86,0,0,0,2.47,0,4.88,4.88,0,0,0,1-.69l.72,1.1a5.18,5.18,0,0,1-1.46.91A4.34,4.34,0,0,1,548.38,134.64Z"/><path class="cls-5" d="M556.5,134.64a2.63,2.63,0,0,1-2.27-1,4.78,4.78,0,0,1-.71-2.84v-6.16h1.66v5.94a3.52,3.52,0,0,0,.43,2,1.58,1.58,0,0,0,1.39.61,2.34,2.34,0,0,0,1.34-.39,6.38,6.38,0,0,0,1.28-1.25v-6.9h1.64v9.72H559.9l-.14-1.52h-.06a6.49,6.49,0,0,1-1.43,1.28A3.21,3.21,0,0,1,556.5,134.64Zm1.24-11.7-3.14-3.06,1.16-1.1,2.82,3.34Z"/><path class="cls-5" d="M564.54,134.4v-9.72h1.36l.14,1.4h.06a7.86,7.86,0,0,1,1.47-1.17,3.39,3.39,0,0,1,1.79-.47,2.6,2.6,0,0,1,2.25,1,4.78,4.78,0,0,1,.71,2.84v6.16h-1.64v-5.94a3.51,3.51,0,0,0-.44-2,1.6,1.6,0,0,0-1.4-.61,2.42,2.42,0,0,0-1.34.38,8.38,8.38,0,0,0-1.32,1.12v7Z"/><path class="cls-5" d="M578.76,138.88a7.51,7.51,0,0,1-1.64-.17,3.84,3.84,0,0,1-1.27-.51,2.57,2.57,0,0,1-.82-.82,2.15,2.15,0,0,1-.29-1.12,2.09,2.09,0,0,1,.38-1.18,4,4,0,0,1,1-1V134a2,2,0,0,1-.61-.61,1.73,1.73,0,0,1-.25-1,1.76,1.76,0,0,1,.34-1.08,3.06,3.06,0,0,1,.72-.72v-.08a4,4,0,0,1-.87-1.07,3,3,0,0,1-.39-1.55,3.53,3.53,0,0,1,.29-1.44,3.22,3.22,0,0,1,.79-1.09,3.42,3.42,0,0,1,1.17-.69,4.18,4.18,0,0,1,1.41-.24,3.54,3.54,0,0,1,.75.07,4.77,4.77,0,0,1,.63.17h3.38v1.26h-2a2.69,2.69,0,0,1,.57.86,2.87,2.87,0,0,1,.23,1.14,3.38,3.38,0,0,1-.28,1.41,3.16,3.16,0,0,1-.76,1.06,3.46,3.46,0,0,1-1.13.67,4,4,0,0,1-1.39.24,3.18,3.18,0,0,1-.74-.09,3.61,3.61,0,0,1-.72-.25,2.54,2.54,0,0,0-.44.49,1.17,1.17,0,0,0-.18.67.94.94,0,0,0,.36.76,2.21,2.21,0,0,0,1.36.3h1.88a4.74,4.74,0,0,1,2.55.55,2,2,0,0,1,.85,1.77,2.59,2.59,0,0,1-.34,1.29,3.3,3.3,0,0,1-1,1.07,5.06,5.06,0,0,1-1.55.73A7.22,7.22,0,0,1,578.76,138.88Zm.24-1.14a4.54,4.54,0,0,0,1.27-.17,3.48,3.48,0,0,0,1-.44,2.06,2.06,0,0,0,.62-.63,1.38,1.38,0,0,0,.22-.74,1,1,0,0,0-.5-.94,3.29,3.29,0,0,0-1.46-.26h-1.68l-.61,0a2.88,2.88,0,0,1-.65-.13,2.58,2.58,0,0,0-.76.8,1.68,1.68,0,0,0-.24.84,1.4,1.4,0,0,0,.75,1.24A3.92,3.92,0,0,0,579,137.74Zm-.24-7.52a1.92,1.92,0,0,0,.79-.16,2,2,0,0,0,.66-.46,2.15,2.15,0,0,0,.45-.73,2.7,2.7,0,0,0,.16-1,2.23,2.23,0,0,0-.6-1.67,2.1,2.1,0,0,0-2.92,0,2.23,2.23,0,0,0-.6,1.67,2.7,2.7,0,0,0,.16,1,2.15,2.15,0,0,0,.45.73,2,2,0,0,0,.66.46A1.92,1.92,0,0,0,578.76,130.22Z"/><path class="cls-5" d="M594.68,134.64a5.5,5.5,0,0,1-2.28-.46,5.25,5.25,0,0,1-1.81-1.33,6.25,6.25,0,0,1-1.2-2.14,8.83,8.83,0,0,1-.43-2.87,8.68,8.68,0,0,1,.44-2.84,6.3,6.3,0,0,1,1.22-2.14,5.2,5.2,0,0,1,1.84-1.35,5.73,5.73,0,0,1,2.32-.47,4.35,4.35,0,0,1,2.11.49,5.51,5.51,0,0,1,1.49,1.13l-.9,1.08a4.46,4.46,0,0,0-1.18-.9,3.19,3.19,0,0,0-1.5-.34,3.79,3.79,0,0,0-1.7.37,3.69,3.69,0,0,0-1.3,1.06,4.93,4.93,0,0,0-.83,1.67,7.87,7.87,0,0,0-.29,2.2A8,8,0,0,0,591,130a5.2,5.2,0,0,0,.81,1.69,3.55,3.55,0,0,0,1.27,1.08,3.72,3.72,0,0,0,1.69.38,3.47,3.47,0,0,0,1.68-.39,5.22,5.22,0,0,0,1.36-1.09l.92,1a5.82,5.82,0,0,1-1.76,1.4A5,5,0,0,1,594.68,134.64Z"/><path class="cls-5" d="M603.22,134.64a3,3,0,0,1-2-.72,2.59,2.59,0,0,1-.81-2,2.69,2.69,0,0,1,1.42-2.45,11.74,11.74,0,0,1,4.54-1.19,4.43,4.43,0,0,0-.09-.9,2.24,2.24,0,0,0-.31-.78,1.63,1.63,0,0,0-.61-.55,2.07,2.07,0,0,0-1-.21,4,4,0,0,0-1.58.32,7.51,7.51,0,0,0-1.32.72l-.64-1.14a10.61,10.61,0,0,1,1.66-.85,5.58,5.58,0,0,1,2.16-.41,3,3,0,0,1,2.58,1.09,4.85,4.85,0,0,1,.8,2.91v6h-1.36l-.14-1.16h-.06a8.11,8.11,0,0,1-1.5,1A3.76,3.76,0,0,1,603.22,134.64Zm.48-1.32A2.75,2.75,0,0,0,605,133a6.67,6.67,0,0,0,1.32-1v-2.7a16.59,16.59,0,0,0-2.05.38,5.59,5.59,0,0,0-1.34.52,2,2,0,0,0-.74.69,1.67,1.67,0,0,0-.23.85,1.39,1.39,0,0,0,.5,1.2A2,2,0,0,0,603.7,133.32Z"/><path class="cls-5" d="M613.84,134.64a3.16,3.16,0,0,1-1.31-.24,2.28,2.28,0,0,1-.86-.66,2.53,2.53,0,0,1-.47-1,6,6,0,0,1-.14-1.32V126h-1.44v-1.24l1.52-.1.2-2.72h1.38v2.72h2.62V126h-2.62v5.4a2.48,2.48,0,0,0,.33,1.39,1.3,1.3,0,0,0,1.17.49,2.36,2.36,0,0,0,.56-.08,3.42,3.42,0,0,0,.54-.18l.32,1.24a9,9,0,0,1-.87.25A4.22,4.22,0,0,1,613.84,134.64Z"/><path class="cls-5" d="M621.84,134.64a3.44,3.44,0,0,1-1.41-.33,5.19,5.19,0,0,1-1.37-.91H619l-.14,1h-1.32V120.16h1.64V124l0,1.76a6.62,6.62,0,0,1,1.44-1,3.53,3.53,0,0,1,1.6-.39,3.79,3.79,0,0,1,1.66.35,3.34,3.34,0,0,1,1.21,1,4.52,4.52,0,0,1,.74,1.56,7.52,7.52,0,0,1,.25,2,6.64,6.64,0,0,1-.34,2.22,5.11,5.11,0,0,1-.92,1.66,3.89,3.89,0,0,1-1.34,1A3.84,3.84,0,0,1,621.84,134.64Zm-.28-1.38a2.34,2.34,0,0,0,1.11-.27,2.65,2.65,0,0,0,.88-.76,3.68,3.68,0,0,0,.58-1.21,5.78,5.78,0,0,0,.21-1.62,7.31,7.31,0,0,0-.14-1.46,3.11,3.11,0,0,0-.45-1.13,2.16,2.16,0,0,0-.8-.73,2.52,2.52,0,0,0-1.17-.26,4,4,0,0,0-2.6,1.32v5.1a4.13,4.13,0,0,0,1.27.79A3.38,3.38,0,0,0,621.56,133.26Z"/><path class="cls-5" d="M630.56,134.64a3,3,0,0,1-2-.72,2.59,2.59,0,0,1-.81-2,2.69,2.69,0,0,1,1.42-2.45,11.74,11.74,0,0,1,4.54-1.19,4.43,4.43,0,0,0-.09-.9,2.24,2.24,0,0,0-.31-.78,1.63,1.63,0,0,0-.61-.55,2.07,2.07,0,0,0-1-.21,4,4,0,0,0-1.58.32,7.51,7.51,0,0,0-1.32.72l-.64-1.14a10.61,10.61,0,0,1,1.66-.85,5.58,5.58,0,0,1,2.16-.41,3,3,0,0,1,2.58,1.09,4.85,4.85,0,0,1,.8,2.91v6H634l-.14-1.16h-.06a8.11,8.11,0,0,1-1.5,1A3.76,3.76,0,0,1,630.56,134.64Zm.48-1.32a2.75,2.75,0,0,0,1.32-.33,6.67,6.67,0,0,0,1.32-1v-2.7a16.59,16.59,0,0,0-2,.38,5.59,5.59,0,0,0-1.34.52,2,2,0,0,0-.74.69,1.67,1.67,0,0,0-.23.85,1.39,1.39,0,0,0,.5,1.2A2,2,0,0,0,631,133.32Z"/><path class="cls-5" d="M642.24,134.64a4.69,4.69,0,0,1-1.8-.34,4.16,4.16,0,0,1-1.45-1,4.56,4.56,0,0,1-1-1.6,6.25,6.25,0,0,1-.35-2.15,5.87,5.87,0,0,1,.38-2.17,4.82,4.82,0,0,1,1-1.61,4.3,4.3,0,0,1,1.49-1,4.71,4.71,0,0,1,1.79-.34,3.58,3.58,0,0,1,1.64.34,5.7,5.7,0,0,1,1.2.8l-.84,1.08a4.33,4.33,0,0,0-.89-.62,2.26,2.26,0,0,0-1.05-.24,2.76,2.76,0,0,0-1.22.27,2.84,2.84,0,0,0-1,.77,3.65,3.65,0,0,0-.63,1.19,4.91,4.91,0,0,0-.23,1.53,4.81,4.81,0,0,0,.22,1.52,3.82,3.82,0,0,0,.61,1.17,2.69,2.69,0,0,0,.95.76,2.86,2.86,0,0,0,2.47,0,4.88,4.88,0,0,0,1-.69l.72,1.1a5.18,5.18,0,0,1-1.46.91A4.34,4.34,0,0,1,642.24,134.64Z"/><path class="cls-5" d="M647.52,134.4V120.16h1.62v9.64h.06l4.14-5.12h1.82l-3.26,3.9,3.7,5.82h-1.8L651,129.72l-1.82,2.12v2.56Z"/><path class="cls-6" d="M743.94,186.79H55.32c-11.62,0-21.07-9.68-21.07-21.58V55.77c0-11.9,9.45-21.58,21.07-21.58H743.94c11.61,0,21.06,9.68,21.06,21.58V165.21C765,177.11,755.55,186.79,743.94,186.79ZM55.32,42.47a13.17,13.17,0,0,0-13,13.3V165.21a13.17,13.17,0,0,0,13,13.3H743.94a13.16,13.16,0,0,0,13-13.3V55.77a13.16,13.16,0,0,0-13-13.3Z"/><path class="cls-7" d="M34.8,50.52l8.17.84s3-7.24,7.88-8.26l-1.16-8.31S38.57,36.81,34.8,50.52Z"/><polygon class="cls-8" points="36.23 46.53 43.91 49.17 45.22 47.41 39.09 41.81 36.23 46.53"/><polygon class="cls-8" points="47.23 45.49 42.29 38.62 44.06 37.25 48.05 44.85 47.23 45.49"/><polygon class="cls-8" points="39.74 41 45.68 46.79 46.33 46.26 40.53 40.15 39.74 41"/><polygon class="cls-7" points="33.99 139.31 42.07 137.72 42.07 90.94 33.99 88.43 33.99 139.31"/><polygon class="cls-8" points="33.99 127.28 42.54 125.83 42.54 120.94 33.99 121.73 33.99 127.28"/><polygon class="cls-8" points="33.99 135.34 42.54 133.89 42.54 129 33.99 129.79 33.99 135.34"/><polygon class="cls-8" points="42.54 118.43 33.99 119.22 33.99 117.9 42.54 117.11 42.54 118.43"/><polygon class="cls-8" points="42.3 99.4 33.96 97.29 33.76 98.6 42.1 100.71 42.3 99.4"/><polygon class="cls-8" points="33.99 104.15 42.54 105.81 42.54 102.57 33.99 100.12 33.99 104.15"/><polygon class="cls-7" points="119.64 34.08 128.58 42.37 614.31 41.91 621.14 34.08 119.64 34.08"/><polygon class="cls-8" points="238.17 34.08 252.5 42.37 300.7 42.37 292.88 34.08 238.17 34.08"/><polygon class="cls-8" points="158.71 34.08 173.04 42.37 221.24 42.37 213.42 34.08 158.71 34.08"/><polygon class="cls-8" points="325.45 42.37 317.63 34.08 330.66 34.08 338.48 42.37 325.45 42.37"/><polygon class="cls-8" points="512.96 42.13 533.78 34.05 520.91 33.86 500.08 41.94 512.96 42.13"/><polygon class="cls-8" points="466.13 34.08 449.85 42.37 481.76 42.37 505.86 34.08 466.13 34.08"/><path class="cls-9" d="M743.94,186.79H55.32c-11.62,0-21.07-9.68-21.07-21.58V55.77c0-11.9,9.45-21.58,21.07-21.58H743.94c11.61,0,21.06,9.68,21.06,21.58V165.21C765,177.11,755.55,186.79,743.94,186.79ZM55.32,42.47a13.17,13.17,0,0,0-13,13.3V165.21a13.17,13.17,0,0,0,13,13.3H743.94a13.16,13.16,0,0,0,13-13.3V55.77a13.16,13.16,0,0,0-13-13.3Z"/><path class="cls-10" d="M34.31,11.11s10,5.61,13.74,12.44,4.43,15.64,4.43,15.64l-5.17,5.72S26.32,33.33,34.31,11.11Z"/><path class="cls-10" d="M10.17,37.77s6.58,9.42,13.74,12.44,16,2.86,16,2.86l5.17-5.71S31.49,27.62,10.17,37.77Z"/><path class="cls-11" d="M10.17,37.77,43,49.79l3.28-3.63S24.84,27.56,10.17,37.77Z"/><path class="cls-11" d="M34.13,11.31l15.2,31.42-3.28,3.63S25.42,26.91,34.13,11.31Z"/><path class="cls-12" d="M43.73,30.78S27.56,19.11,15.58,18.41c1.88,11.85,15.1,26.79,15.1,26.79-9.9-3-24.89,6.43-24.89,6.43,8,1,26.46,10.15,26.46,10.15L60.39,30.7S49.49,13.21,47.67,5.38C47.67,5.38,39.75,21.23,43.73,30.78Z"/><path class="cls-13" d="M16.51,15.68a3.65,3.65,0,1,1-3.92-3.36A3.66,3.66,0,0,1,16.51,15.68Z"/><path class="cls-14" d="M14.21,12.56A3.66,3.66,0,0,1,9.85,18a3.65,3.65,0,1,0,4.36-5.44Z"/><path class="cls-13" d="M7.29,51.08a3.65,3.65,0,1,1-3.92-3.37A3.65,3.65,0,0,1,7.29,51.08Z"/><path class="cls-14" d="M5,48A3.65,3.65,0,0,1,.62,53.39,3.65,3.65,0,1,0,5,48Z"/><path class="cls-15" d="M7.29,51.64s18.59-4.27,30.53,4l4.26-4.7S25.89,36.44,7.17,50.4Z"/><path class="cls-16" d="M47.88,6.8s-2.4,18.92,7,30l-4.26,4.7s-16-14.67-4-34.68Z"/><path class="cls-13" d="M49.63,3.37A3.65,3.65,0,1,1,45.71,0,3.66,3.66,0,0,1,49.63,3.37Z"/><path class="cls-14" d="M47.33.25A3.66,3.66,0,0,1,43,5.69,3.65,3.65,0,1,0,47.33.25Z"/><path class="cls-17" d="M15.58,18.41,46.32,46.24l5.92-6.53S37.59,20,15.58,18.41Z"/><path class="cls-18" d="M17.28,20l29,26.29,1.84-2S33.54,28.66,17.28,20Z"/><path class="cls-18" d="M7.28,51.63a35,35,0,0,1,31.87,2.53l-1.31,1.45S28.36,47.54,7.28,51.63Z"/><path class="cls-18" d="M47.83,6.85A35,35,0,0,0,53.5,38.32l1.31-1.46S45.84,28.23,47.83,6.85Z"/><path class="cls-19" d="M31.86,62.21s-.84.48,1.57,2.66L64,31.06s-2.24-1.92-2.94-1.14Z"/><circle class="cls-20" cx="34.03" cy="62.02" r="1.09"/><circle class="cls-20" cx="36.39" cy="59.42" r="1.09"/><circle class="cls-20" cx="38.83" cy="56.72" r="1.09"/><circle class="cls-20" cx="41.27" cy="54.02" r="1.09"/><circle class="cls-20" cx="43.55" cy="51.51" r="1.09"/><circle class="cls-20" cx="45.86" cy="48.95" r="1.09"/><circle class="cls-20" cx="48.11" cy="46.46" r="1.09"/><circle class="cls-20" cx="50.39" cy="43.95" r="1.09"/><circle class="cls-20" cx="52.7" cy="41.4" r="1.09"/><circle class="cls-20" cx="54.95" cy="38.91" r="1.09"/><circle class="cls-20" cx="57.23" cy="36.4" r="1.09"/><circle class="cls-20" cx="59.54" cy="33.84" r="1.09"/><circle class="cls-20" cx="61.87" cy="31.26" r="1.09"/><rect class="cls-21" x="26.22" y="47.83" width="45.61" height="0.79" transform="translate(-19.63 52.2) rotate(-47.84)"/><circle class="cls-22" cx="61.88" cy="30.78" r="0.37"/><circle class="cls-22" cx="57.23" cy="35.91" r="0.37"/><circle class="cls-22" cx="54.89" cy="38.49" r="0.37"/><circle class="cls-22" cx="52.59" cy="41.03" r="0.37"/><circle class="cls-22" cx="50.33" cy="43.53" r="0.37"/><circle class="cls-22" cx="48.06" cy="46.05" r="0.37"/><circle class="cls-22" cx="45.45" cy="48.93" r="0.37"/><circle class="cls-22" cx="43.06" cy="51.56" r="0.37"/><circle class="cls-22" cx="40.9" cy="53.95" r="0.37"/><circle class="cls-22" cx="38.45" cy="56.66" r="0.37"/><circle class="cls-22" cx="35.9" cy="59.47" r="0.37"/><circle class="cls-22" cx="33.63" cy="61.98" r="0.37"/><circle class="cls-22" cx="59.49" cy="33.42" r="0.37"/></g></g></g></svg>